<?xml version="1.0" standalone="no"?><!DOCTYPE svg PUBLIC "-//W3C//DTD SVG 1.1//EN" "http://www.w3.org/Graphics/SVG/1.1/DTD/svg11.dtd"><svg class="icon" width="128px" height="128.00px" viewBox="0 0 1024 1024" version="1.1" xmlns="http://www.w3.org/2000/svg"><path d="M401.371429 1024c-27.771429 0-53.714286-14.057143-68.914286-37.371429C274.285714 972.571429 232.114286 945.142857 203.428571 902.971429c-30.4-44.8-45.942857-105.942857-49.028571-192.571429-0.457143-12.342857-1.257143-25.6-2.514286-40.685714-31.657143-17.142857-57.371429-45.828571-71.771428-81.028572-10.742857-25.828571-14.514286-54.171429-10.857143-81.942857-14.514286-15.085714-25.942857-32.685714-33.828572-52-17.6-42.742857-16.228571-88.914286 2.628572-126.514286-13.371429-42.171429-11.657143-86.971429 4.914286-125.257142 16.457143-37.828571 46.057143-66.285714 83.428571-80.342858 13.6-5.142857 28-8.228571 42.514286-9.142857 21.257143-22.057143 53.371429-36.342857 91.885714-40.457143 38.057143-30.857143 85.6-47.542857 134.514286-47.428571 11.085714 0 22.171429 0.8 33.142857 2.514286 65.828571-37.485714 146.4-37.485714 212.228571 0 70.742857-10.971429 142.4 14.057143 190.857143 66.742857 8.685714 5.142857 16.685714 11.542857 23.657143 18.742857 14.628571 0.914286 28.914286 4 42.628571 9.142857 37.371429 14.057143 66.971429 42.628571 83.428572 80.342857 16.685714 38.285714 18.285714 83.2 4.914286 125.257143 18.857143 37.6 20.228571 83.771429 2.628571 126.514286-7.885714 19.314286-19.428571 37.028571-33.942857 52 3.542857 27.771429-0.114286 56-10.857143 81.828571-14.4 35.2-40.228571 63.885714-71.771429 81.028572-1.257143 15.085714-2.057143 28.342857-2.514285 40.685714-3.085714 86.628571-18.628571 147.771429-49.028572 192.571429-28.571429 42.171429-70.857143 69.6-129.028571 83.657142-15.2 23.314286-41.028571 37.371429-68.914286 37.371429H401.371429z" fill="#25467A" /><path d="M401.371429 893.485714h221.371428c19.542857 0 35.314286 15.771429 35.314286 35.314286v13.028571c0 19.542857-15.771429 35.314286-35.314286 35.314286H401.371429c-19.542857 0-35.314286-15.771429-35.314286-35.314286v-13.028571c0-19.428571 15.771429-35.314286 35.314286-35.314286z" fill="#FDEFBA" /><path d="M673.714286 72.457143c-14.285714 0-28.457143 1.828571-42.285715 5.371428-58.057143-41.257143-135.771429-41.257143-193.828571 0-89.371429-23.314286-180.8 30.171429-204.228571 119.542858S263.542857 378.285714 353.028571 401.6c47.885714 12.457143 98.857143 3.2 139.2-25.485714 27.771429 7.2 56.914286 7.2 84.685715 0 75.314286 53.485714 179.771429 35.885714 233.257143-39.542857s35.885714-179.771429-39.542858-233.257143c-28.342857-20.114286-62.171429-30.857143-96.914285-30.857143z" fill="#689F38" /><path d="M750.4 423.428571c-15.771429-22.742857-37.485714-39.085714-60.457143-47.771428 19.428571-31.542857 10.628571-78.857143-24.571428-115.885714-29.828571-31.314286-70.742857-46.628571-105.142858-42.742858-10.514286-19.542857-28.228571-38.285714-52-52.914285-41.6-25.6-89.371429-31.085714-121.6-16.8-18.057143-11.428571-40.457143-20.457143-65.142857-25.142857-60.228571-11.657143-114.285714 5.485714-129.257143 38.857142-16.685714-2.285714-33.714286-0.457143-49.485714 5.485715-58.057143 21.828571-83.085714 93.028571-56 159.085714 1.028571 2.628571 2.171429 5.142857 3.428572 7.657143-21.371429 26.171429-27.085714 65.942857-11.542858 103.657143 8.685714 21.6 23.771429 40 43.085715 52.914285-9.6 23.885714-9.828571 53.028571 1.714285 81.028572 21.828571 52.914286 77.257143 81.714286 123.885715 64.228571s66.742857-74.628571 44.914285-127.657143c-8.8-21.6-23.771429-40-43.085714-52.914285 6.857143-17.485714 8.8-36.571429 5.6-55.085715 41.485714-23.314286 61.371429-74.514286 50.4-126.971428 28.457143 4.685714 55.2 2.971429 76.8-3.885714 9.257143 9.485714 19.657143 17.828571 30.971429 24.685714 29.371429 18.057143 61.714286 26.171429 89.6 24.228571 6.285714 17.6 16.228571 33.6 29.257143 46.971429 16.114286 17.028571 36.114286 29.828571 58.285714 37.257143-18.857143 29.257143-16.457143 72.457143 9.371428 109.6 33.828571 48.685714 95.085714 68.457143 136.685715 44.114285s48.114286-83.314286 14.285714-132z" fill="#AED581" /><path d="M799.771429 700.8c10.4 126.057143 5.714286 253.257143-232.457143 253.257143S210.171429 958.857143 201.257143 708.8c-6.971429-197.371429-102.171429-470.057143 136-470.057143s446.171429 263.428571 462.514286 462.057143z" fill="#FFFDE7" /><path d="M933.828571 333.257143c1.142857-2.514286 2.285714-5.028571 3.428572-7.657143 27.2-66.057143 2.057143-137.257143-56-159.085714-15.771429-5.828571-32.8-7.771429-49.485714-5.371429-14.971429-33.257143-69.028571-50.4-129.257143-38.857143-24.685714 4.8-47.085714 13.714286-65.142857 25.142857-32.228571-14.285714-80-8.914286-121.6 16.8-23.657143 14.628571-41.485714 33.371429-52 52.914286-34.4-4-75.2 11.428571-105.028572 42.742857-20.571429 21.6-32.114286 46.742857-34.285714 70.171429-25.142857 7.771429-49.485714 25.028571-66.742857 49.828571-19.885714 28.571429-25.828571 60.685714-19.085715 87.314286-18.971429 17.6-32.228571 40.457143-38.171428 65.6-13.942857 57.6 13.485714 110.514286 61.028571 118.057143s97.485714-33.028571 111.428572-90.628572c4.914286-20.342857 352.571429-47.2 357.257143-48.457142-19.085714 51.771429 1.142857 106.4 46.514285 123.428571 46.628571 17.485714 102.057143-11.2 123.885715-64.228571 11.542857-28 11.314286-57.142857 1.714285-81.028572 19.314286-12.914286 34.285714-31.428571 43.085715-52.914286 15.542857-37.828571 9.828571-77.6-11.542858-103.771428z" fill="#9CCC65" /><path d="M224.228571 700.8c-10.4 126.057143-5.828571 253.257143 232.457143 253.257143s357.257143 4.8 366.057143-245.257143c7.085714-197.371429 44.685714-342.742857-193.485714-342.742857s-388.571429 136.114286-405.028572 334.742857z" fill="#FFFEF8" /><path d="M512 827.657143c-38.171429 0-69.142857-30.971429-69.142857-69.257143 0-7.657143 6.171429-13.828571 13.828571-13.942857 7.314286 0 13.485714 5.714286 13.828572 13.028571v0.8c0.342857 22.971429 19.314286 41.257143 42.171428 40.8 22.4-0.342857 40.457143-18.4 40.8-40.8-0.228571-7.657143 5.828571-14.057143 13.371429-14.285714 7.657143-0.228571 14.057143 5.828571 14.285714 13.371429v0.8c0 38.4-30.971429 69.371429-69.142857 69.485714zM332.114286 647.771429c0.342857 22.971429 19.314286 41.257143 42.171428 40.8 22.4-0.342857 40.457143-18.4 40.8-40.8-0.342857-22.971429-19.314286-41.257143-42.171428-40.8-22.4 0.342857-40.457143 18.4-40.8 40.8zM608.8 647.771429c-0.342857 22.971429 17.828571 41.828571 40.8 42.285714 22.971429 0.342857 41.828571-17.828571 42.285714-40.8v-1.485714c-0.342857-22.971429-19.314286-41.257143-42.171428-40.8-22.4 0.342857-40.457143 18.4-40.914286 40.8z" fill="#25467A" /><path d="M318.285714 716.914286h-55.314285c-15.314286 0.342857-27.428571 12.914286-27.085715 28.228571 0.342857 14.857143 12.228571 26.857143 27.085715 27.085714h55.428571c15.314286 0.342857 27.885714-11.771429 28.228571-27.085714 0.342857-15.314286-11.771429-27.885714-27.085714-28.228571h-1.257143z m442.742857 0h-55.314285c-15.314286 0.342857-27.428571 12.914286-27.085715 28.228571 0.342857 14.857143 12.228571 26.857143 27.085715 27.085714h55.314285c15.314286-0.342857 27.428571-12.914286 27.085715-28.228571-0.228571-14.857143-12.228571-26.742857-27.085715-27.085714z" fill="#AED581" /></svg>