<?xml version="1.0" standalone="no"?><!DOCTYPE svg PUBLIC "-//W3C//DTD SVG 1.1//EN" "http://www.w3.org/Graphics/SVG/1.1/DTD/svg11.dtd"><svg class="icon" width="128px" height="128.00px" viewBox="0 0 1024 1024" version="1.1" xmlns="http://www.w3.org/2000/svg"><path d="M461.714286 0c-21.257143 0-38.4 19.085714-38.4 42.514286v20-16.342857 20c0 23.428571 17.142857 42.514286 38.4 42.514285s38.4-19.085714 38.4-42.514285V46.171429v16.342857-20c0-23.428571-17.142857-42.514286-38.4-42.514286zM735.428571 1024c-77.028571 0-149.6-30.057143-204-84.571429-54.514286-54.514286-84.571429-126.971429-84.571428-204s30.057143-149.6 84.571428-204c54.514286-54.514286 126.971429-84.571429 204-84.571428s149.6 30.057143 204 84.571428c54.514286 54.514286 84.571429 126.971429 84.571429 204S993.942857 885.028571 939.428571 939.428571c-54.4 54.514286-126.971429 84.571429-204 84.571429z" fill="#25467A" /><path d="M461.714286 1024c-161.371429 0-282.628571-46.971429-360.114286-139.542857-35.428571-42.285714-61.942857-94.742857-78.628571-155.885714C7.657143 673.028571 0 608.342857 0 536.342857c0-141.714286 30.4-255.771429 90.514286-339.2 37.257143-51.771429 86.057143-92 145.142857-119.428571 63.542857-29.485714 139.542857-44.457143 225.942857-44.457143S624.114286 48.228571 687.542857 77.714286c59.085714 27.428571 108 67.542857 145.257143 119.314285 60.114286 83.428571 90.514286 197.6 90.514286 339.2 0 72-7.657143 136.685714-22.971429 192.228572-16.685714 61.142857-43.085714 113.6-78.628571 155.885714C744.228571 977.028571 623.085714 1024 461.714286 1024z" fill="#25467A" /><path d="M872 536.342857c0 266.4-107.085714 442.171429-410.4 442.171429s-410.285714-175.771429-410.285714-442.171429C51.314286 306.857143 134.4 78.857143 461.714286 78.857143s410.285714 228 410.285714 457.485714z" fill="#BF3B59" /><path d="M507.885714 579.771429a25.6 23.771429 0 1 0 51.2 0 25.6 23.771429 0 1 0-51.2 0Z" fill="#B31E3F" /><path d="M456.685714 650.971429a25.6 23.771429 0 1 0 51.2 0 25.6 23.771429 0 1 0-51.2 0Z" fill="#B31E3F" /><path d="M559.085714 650.971429a25.6 23.771429 0 1 0 51.2 0 25.6 23.771429 0 1 0-51.2 0Z" fill="#B31E3F" /><path d="M872 536.342857c0 266.4-107.2 442.171429-410.4 442.171429-205.942857 0-321.485714-81.142857-374.4-216.685715 77.257143 33.714286 162.171429 51.542857 248.8 51.428572 236.8 0 441.028571-130.628571 534.857143-319.428572 0.8 14.171429 1.142857 28.342857 1.142857 42.514286z" fill="#AD2E4B" /><path d="M361.142857 532.8c-35.314286 0-64-28.685714-64-64 0-7.085714 5.714286-12.8 12.8-12.8s12.8 5.714286 12.8 12.8c0 21.257143 17.257143 38.4 38.4 38.4s38.4-17.142857 38.4-38.4c0-7.085714 5.714286-12.8 12.8-12.8s12.8 5.714286 12.8 12.8c0 35.314286-28.685714 64-64 64z" fill="#25467A" /><path d="M233.142857 366.4m-38.4 0a38.4 38.4 0 1 0 76.8 0 38.4 38.4 0 1 0-76.8 0Z" fill="#25467A" /><path d="M489.142857 366.4m-38.4 0a38.4 38.4 0 1 0 76.8 0 38.4 38.4 0 1 0-76.8 0Z" fill="#25467A" /><path d="M181.942857 430.4h-51.2c-14.171429 0-25.6 11.428571-25.6 25.6s11.428571 25.6 25.6 25.6h51.2c14.171429 0 25.6-11.428571 25.6-25.6s-11.428571-25.6-25.6-25.6zM591.542857 430.4h-51.2c-14.171429 0-25.6 11.428571-25.6 25.6s11.428571 25.6 25.6 25.6h51.2c14.171429 0 25.6-11.428571 25.6-25.6s-11.428571-25.6-25.6-25.6z" fill="#F6BE1A" /><path d="M735.428571 1001.142857c-70.971429 0-137.714286-27.657143-187.885714-77.828571C497.371429 873.142857 469.714286 806.4 469.714286 735.428571s27.657143-137.714286 77.828571-187.885714S664.457143 469.714286 735.428571 469.714286s137.714286 27.657143 187.885715 77.828571C973.485714 597.714286 1001.142857 664.457143 1001.142857 735.428571S973.485714 873.142857 923.314286 923.314286 806.4 1001.142857 735.428571 1001.142857z" fill="#25467A" /><path d="M735.428571 735.428571m-242.857142 0a242.857143 242.857143 0 1 0 485.714285 0 242.857143 242.857143 0 1 0-485.714285 0Z" fill="#BF526B" /><path d="M735.428571 735.428571m-220 0a220 220 0 1 0 440 0 220 220 0 1 0-440 0Z" fill="#FCE4EC" /><path d="M735.428571 735.428571m-185.714285 0a185.714286 185.714286 0 1 0 371.428571 0 185.714286 185.714286 0 1 0-371.428571 0Z" fill="#F6BE1A" /><path d="M684.342857 885.142857m-13.142857 0a13.142857 13.142857 0 1 0 26.285714 0 13.142857 13.142857 0 1 0-26.285714 0Z" fill="#BF9314" /><path d="M683.885714 763.314286m-13.142857 0a13.142857 13.142857 0 1 0 26.285714 0 13.142857 13.142857 0 1 0-26.285714 0Z" fill="#BF9314" /><path d="M722.857143 903.2m-13.142857 0a13.142857 13.142857 0 1 0 26.285714 0 13.142857 13.142857 0 1 0-26.285714 0Z" fill="#BF9314" /><path d="M827.885714 792.457143m-13.142857 0a13.142857 13.142857 0 1 0 26.285714 0 13.142857 13.142857 0 1 0-26.285714 0Z" fill="#BF9314" /><path d="M724.342857 706.171429m-13.142857 0a13.142857 13.142857 0 1 0 26.285714 0 13.142857 13.142857 0 1 0-26.285714 0Z" fill="#BF9314" /><path d="M772.8 809.714286m-13.142857 0a13.142857 13.142857 0 1 0 26.285714 0 13.142857 13.142857 0 1 0-26.285714 0Z" fill="#BF9314" /><path d="M885.942857 710.4m-13.142857 0a13.142857 13.142857 0 1 0 26.285714 0 13.142857 13.142857 0 1 0-26.285714 0Z" fill="#BF9314" /><path d="M780.114286 584.457143m-13.142857 0a13.142857 13.142857 0 1 0 26.285714 0 13.142857 13.142857 0 1 0-26.285714 0Z" fill="#BF9314" /><path d="M701.028571 651.657143m-13.142857 0a13.142857 13.142857 0 1 0 26.285715 0 13.142857 13.142857 0 1 0-26.285715 0Z" fill="#BF9314" /><path d="M599.542857 654.514286m-13.142857 0a13.142857 13.142857 0 1 0 26.285714 0 13.142857 13.142857 0 1 0-26.285714 0Z" fill="#BF9314" /><path d="M662.628571 684.342857m-13.142857 0a13.142857 13.142857 0 1 0 26.285715 0 13.142857 13.142857 0 1 0-26.285715 0Z" fill="#BF9314" /><path d="M595.2 788m-13.142857 0a13.142857 13.142857 0 1 0 26.285714 0 13.142857 13.142857 0 1 0-26.285714 0Z" fill="#BF9314" /><path d="M817.828571 836.571429m-13.142857 0a13.142857 13.142857 0 1 0 26.285715 0 13.142857 13.142857 0 1 0-26.285715 0Z" fill="#BF9314" /><path d="M136.685714 579.771429a25.6 23.771429 0 1 0 51.2 0 25.6 23.771429 0 1 0-51.2 0Z" fill="#B31E3F" /><path d="M85.485714 650.971429a25.6 23.771429 0 1 0 51.2 0 25.6 23.771429 0 1 0-51.2 0Z" fill="#B31E3F" /><path d="M187.885714 650.971429a25.6 23.771429 0 1 0 51.2 0 25.6 23.771429 0 1 0-51.2 0Z" fill="#B31E3F" /></svg>