<?xml version="1.0" standalone="no"?><!DOCTYPE svg PUBLIC "-//W3C//DTD SVG 1.1//EN" "http://www.w3.org/Graphics/SVG/1.1/DTD/svg11.dtd"><svg class="icon" width="128px" height="128.00px" viewBox="0 0 1024 1024" version="1.1" xmlns="http://www.w3.org/2000/svg"><path d="M512.914286 212.114286c-18.971429 0-34.285714-15.314286-34.285715-34.285715V34.285714c0-18.971429 15.314286-34.285714 34.285715-34.285714s34.285714 15.314286 34.285714 34.285714v143.542857c0 18.971429-15.428571 34.285714-34.285714 34.285715z" fill="#25467A" /><path d="M512 1024c-177.371429 0-315.2-49.257143-398.285714-142.628571-35.2-39.542857-60.457143-86.628571-75.2-140.114286-14.971429-54.514286-18.971429-116.228571-12-183.428572 13.828571-132.914286 69.714286-264.685714 157.257143-371.085714C262.171429 91.428571 353.714286 32.228571 422.742857 32.228571c12.685714 0 24.571429 1.942857 35.542857 5.714286 8.8 2.628571 33.371429 8.571429 53.714286 8.571429 20.228571 0 44.8-5.942857 53.714286-8.571429 10.971429-3.771429 22.971429-5.714286 35.657143-5.714286 69.028571 0 160.457143 59.2 238.857142 154.514286 87.542857 106.514286 143.428571 238.285714 157.257143 371.085714 6.971429 67.314286 2.971429 129.028571-12 183.428572-14.628571 53.485714-40 100.685714-75.2 140.114286C827.2 974.742857 689.371429 1024 512 1024z" fill="#25467A" /><path d="M950.742857 562.742857C919.657143 264.228571 671.771429 49.485714 580.228571 83.085714c0 0-35.2 10.857143-68.228571 10.857143-32.914286 0-68.228571-10.857143-68.228571-10.857143-91.542857-33.485714-339.428571 181.142857-370.514286 479.657143C42.857143 855.2 239.771429 976.571429 512 976.571429s469.142857-121.371429 438.742857-413.828572z" fill="#B8DF43" /><path d="M512 976.571429c-227.314286 0-402.057143-84.571429-435.885714-282.742858 92.685714 97.942857 223.2 158.857143 367.885714 158.857143 234.514286 0 431.885714-160.228571 490.857143-378.171428 7.2 28.457143 12.685714 57.942857 15.771428 88.342857 30.514286 292.342857-166.4 413.714286-438.628571 413.714286z" fill="#ADD13F" /><path d="M512 550.4c-35.314286 0-64-28.685714-64-64 0-7.085714 5.714286-12.8 12.8-12.8s12.8 5.714286 12.8 12.8c0 21.257143 17.257143 38.4 38.4 38.4s38.4-17.142857 38.4-38.4c0-7.085714 5.714286-12.8 12.8-12.8s12.8 5.714286 12.8 12.8c0 35.314286-28.685714 64-64 64z" fill="#25467A" /><path d="M384 384m-38.4 0a38.4 38.4 0 1 0 76.8 0 38.4 38.4 0 1 0-76.8 0Z" fill="#25467A" /><path d="M640 384m-38.4 0a38.4 38.4 0 1 0 76.8 0 38.4 38.4 0 1 0-76.8 0Z" fill="#25467A" /><path d="M332.8 448h-51.2c-14.171429 0-25.6 11.428571-25.6 25.6s11.428571 25.6 25.6 25.6h51.2c14.171429 0 25.6-11.428571 25.6-25.6s-11.428571-25.6-25.6-25.6zM742.4 448h-51.2c-14.171429 0-25.6 11.428571-25.6 25.6s11.428571 25.6 25.6 25.6h51.2c14.171429 0 25.6-11.428571 25.6-25.6S756.571429 448 742.4 448z" fill="#D9EBA4" /><path d="M203.2 580.342857m-15.085714 0a15.085714 15.085714 0 1 0 30.171428 0 15.085714 15.085714 0 1 0-30.171428 0Z" fill="#D0F56C" /><path d="M161.142857 635.428571m-15.085714 0a15.085714 15.085714 0 1 0 30.171428 0 15.085714 15.085714 0 1 0-30.171428 0Z" fill="#D0F56C" /><path d="M245.257143 635.428571m-15.085714 0a15.085714 15.085714 0 1 0 30.171428 0 15.085714 15.085714 0 1 0-30.171428 0Z" fill="#D0F56C" /><path d="M820.8 580.342857m-15.085714 0a15.085714 15.085714 0 1 0 30.171428 0 15.085714 15.085714 0 1 0-30.171428 0Z" fill="#D0F56C" /><path d="M778.742857 635.428571m-15.085714 0a15.085714 15.085714 0 1 0 30.171428 0 15.085714 15.085714 0 1 0-30.171428 0Z" fill="#D0F56C" /><path d="M862.857143 635.428571m-15.085714 0a15.085714 15.085714 0 1 0 30.171428 0 15.085714 15.085714 0 1 0-30.171428 0Z" fill="#D0F56C" /><path d="M171.657143 713.714286m-15.085714 0a15.085714 15.085714 0 1 0 30.171428 0 15.085714 15.085714 0 1 0-30.171428 0Z" fill="#D0F56C" /><path d="M129.714286 768.8m-15.085715 0a15.085714 15.085714 0 1 0 30.171429 0 15.085714 15.085714 0 1 0-30.171429 0Z" fill="#D0F56C" /><path d="M213.714286 768.8m-15.085715 0a15.085714 15.085714 0 1 0 30.171429 0 15.085714 15.085714 0 1 0-30.171429 0Z" fill="#D0F56C" /><path d="M852.342857 713.714286m-15.085714 0a15.085714 15.085714 0 1 0 30.171428 0 15.085714 15.085714 0 1 0-30.171428 0Z" fill="#D0F56C" /><path d="M810.285714 768.8m-15.085714 0a15.085714 15.085714 0 1 0 30.171429 0 15.085714 15.085714 0 1 0-30.171429 0Z" fill="#D0F56C" /><path d="M894.285714 768.8m-15.085714 0a15.085714 15.085714 0 1 0 30.171429 0 15.085714 15.085714 0 1 0-30.171429 0Z" fill="#D0F56C" /><path d="M399.657143 185.942857m-15.085714 0a15.085714 15.085714 0 1 0 30.171428 0 15.085714 15.085714 0 1 0-30.171428 0Z" fill="#D0F56C" /><path d="M441.714286 130.857143m-15.085715 0a15.085714 15.085714 0 1 0 30.171429 0 15.085714 15.085714 0 1 0-30.171429 0Z" fill="#D0F56C" /><path d="M357.6 130.857143m-15.085714 0a15.085714 15.085714 0 1 0 30.171428 0 15.085714 15.085714 0 1 0-30.171428 0Z" fill="#D0F56C" /><path d="M624.342857 185.942857m-15.085714 0a15.085714 15.085714 0 1 0 30.171428 0 15.085714 15.085714 0 1 0-30.171428 0Z" fill="#D0F56C" /><path d="M666.4 130.857143m-15.085714 0a15.085714 15.085714 0 1 0 30.171428 0 15.085714 15.085714 0 1 0-30.171428 0Z" fill="#D0F56C" /><path d="M582.285714 130.857143m-15.085714 0a15.085714 15.085714 0 1 0 30.171429 0 15.085714 15.085714 0 1 0-30.171429 0Z" fill="#D0F56C" /><path d="M512 788.228571m-15.085714 0a15.085714 15.085714 0 1 0 30.171428 0 15.085714 15.085714 0 1 0-30.171428 0Z" fill="#D0F56C" /><path d="M469.942857 843.314286m-15.085714 0a15.085714 15.085714 0 1 0 30.171428 0 15.085714 15.085714 0 1 0-30.171428 0Z" fill="#D0F56C" /><path d="M554.057143 843.314286m-15.085714 0a15.085714 15.085714 0 1 0 30.171428 0 15.085714 15.085714 0 1 0-30.171428 0Z" fill="#D0F56C" /><path d="M670.742857 892.457143a15.085714 15.085714 0 1 0 30.171429 0 15.085714 15.085714 0 1 0-30.171429 0Z" fill="#D0F56C" /><path d="M737.942857 875.428571a15.085714 15.085714 0 1 0 30.171429 0 15.085714 15.085714 0 1 0-30.171429 0Z" fill="#D0F56C" /><path d="M672 823.085714a15.085714 15.085714 0 1 0 30.171429 0 15.085714 15.085714 0 1 0-30.171429 0Z" fill="#D0F56C" /><path d="M323.2 892.457143a15.085714 15.085714 0 1 0 30.171429 0 15.085714 15.085714 0 1 0-30.171429 0Z" fill="#D0F56C" /><path d="M259.299825 884.837983a15.085714 15.085714 0 1 0 23.642207-18.74463 15.085714 15.085714 0 1 0-23.642207 18.74463Z" fill="#D0F56C" /><path d="M321.828571 823.085714a15.085714 15.085714 0 1 0 30.171429 0 15.085714 15.085714 0 1 0-30.171429 0Z" fill="#D0F56C" /></svg>