<?xml version="1.0" standalone="no"?><!DOCTYPE svg PUBLIC "-//W3C//DTD SVG 1.1//EN" "http://www.w3.org/Graphics/SVG/1.1/DTD/svg11.dtd"><svg class="icon" width="128px" height="128.00px" viewBox="0 0 1024 1024" version="1.1" xmlns="http://www.w3.org/2000/svg"><path d="M512 1024C215.325714 1024 0 826.285714 0 553.805714c0-209.142857 128.08-321.371429 253.371429-403.565714C322.034286 105.222857 480.365714 17.508571 487.074286 13.805714L512 0l24.925714 13.805714c6.708571 3.702857 165.04 91.428571 233.691429 136.422857C895.92 232.434286 1024 344.662857 1024 553.805714 1024 826.285714 808.674286 1024 512 1024z" fill="#25467A" /><path d="M972.8 550.4c0 254.468571-206.331429 422.4-460.8 422.4S51.2 804.868571 51.2 550.4c0-170.491429 92.674286-272.765714 230.4-363.771429C349.44 141.828571 512 51.2 512 51.2s162.56 90.628571 230.4 135.428571c137.725714 91.005714 230.4 193.28 230.4 363.771429z" fill="#A66E22" /><path d="M972.8 550.4c0 254.468571-206.331429 422.4-460.8 422.4-238.331429 0-434.434286-147.325714-458.285714-374.914286A509.645714 509.645714 0 0 0 428.8 761.6c242.171429 0 445.188571-168.194286 498.434286-394.285714 29.177143 51.76 45.565714 111.405714 45.565714 183.085714z" fill="#9C6720" /><path d="M924.411429 748.16C849.028571 888.194286 692.571429 972.8 512 972.8s-337.028571-84.571429-412.411429-224.64C226.434286 769.28 365.714286 780.8 512 780.8s285.565714-11.52 412.411429-32.64z" fill="#805919" /><path d="M637.314286 122.754286a1043.165714 1043.165714 0 0 0-250.628572 0C450.045714 85.714286 512 51.2 512 51.2s61.954286 34.514286 125.314286 71.554286z" fill="#FDCFAD" /><path d="M512 550.4a64.068571 64.068571 0 0 1-64-64 12.8 12.8 0 1 1 25.6 0 38.4 38.4 0 0 0 76.8 0 12.8 12.8 0 1 1 25.6 0 64.068571 64.068571 0 0 1-64 64z" fill="#25467A" /><path d="M384 384m-38.4 0a38.4 38.4 0 1 0 76.8 0 38.4 38.4 0 1 0-76.8 0Z" fill="#25467A" /><path d="M640 384m-38.4 0a38.4 38.4 0 1 0 76.8 0 38.4 38.4 0 1 0-76.8 0Z" fill="#25467A" /><path d="M332.8 448h-51.2a25.6 25.6 0 1 0 0 51.2h51.2a25.6 25.6 0 1 0 0-51.2zM742.4 448h-51.2a25.6 25.6 0 1 0 0 51.2h51.2a25.6 25.6 0 0 0 0-51.2z" fill="#FCAF6D" /></svg>