<?xml version="1.0" standalone="no"?><!DOCTYPE svg PUBLIC "-//W3C//DTD SVG 1.1//EN" "http://www.w3.org/Graphics/SVG/1.1/DTD/svg11.dtd"><svg class="icon" width="128px" height="128.00px" viewBox="0 0 1024 1024" version="1.1" xmlns="http://www.w3.org/2000/svg"><path d="M511.994377 1024C215.32376 1024 0.000709 824.82532 0.000709 550.405856A495.891011 495.891011 0 0 1 51.68007 329.15145a115.278574 115.278574 0 0 1 69.062003-186.534836 114.878579 114.878579 0 0 1 115.312859-51.427936A115.232861 115.232861 0 0 1 332.796593 38.412188a111.575763 111.575763 0 0 1 15.999802 1.142843 114.490013 114.490013 0 0 1 103.427293-22.78829 114.58144 114.58144 0 0 1 135.598323 11.999852 113.141458 113.141458 0 0 1 26.5711-3.154247A114.284301 114.284301 0 0 1 687.992201 52.366301a111.575763 111.575763 0 0 1 15.999802-1.142843 115.427144 115.427144 0 0 1 111.152911 84.87895 114.935722 114.935722 0 0 1 149.712435 65.964899 114.901436 114.901436 0 0 1 23.051143 161.46086C1011.885338 422.464581 1023.988046 485.149521 1023.988046 550.405856 1023.988046 824.82532 808.664994 1024 511.994377 1024z" fill="#25467A" /><path d="M767.076937 175.450493a63.519215 63.519215 0 0 0-95.998813-63.690641 63.324931 63.324931 0 0 0-99.22163-18.468343 63.576357 63.576357 0 0 0-111.061484-16.1598 63.267789 63.267789 0 0 0-95.084538 21.828302 63.667784 63.667784 0 0 0-96.913087 54.650752 64.467774 64.467774 0 0 0 1.542838 13.714116C138.844706 244.695351 51.200075 384.567907 51.200075 550.405856c0 254.465425 206.328877 422.394777 460.794302 422.394777s460.794302-167.929352 460.794302-422.394777c0-160.146591-81.690418-296.122052-205.711742-374.955363z" fill="#A7F562" /><path d="M457.59505 405.253366c-1.142843-2.022832-2.422827-3.919952-3.56567-5.931355a63.256361 63.256361 0 0 0-34.285291-87.690345 63.142076 63.142076 0 0 0-61.347812-81.221852c-0.43428 0-0.845704 0.125713-1.279985 0.125712a62.97065 62.97065 0 0 0-79.99901-48.685112 63.793497 63.793497 0 0 0-122.4442 11.782712A63.873496 63.873496 0 0 0 117.713539 315.551618c-42.136622 67.55345-66.524892 147.552461-66.524892 234.854238 0 137.346873 60.033543 249.471201 155.426649 323.58457 54.273615 42.285191 119.929946 71.99911 192.511906 87.164637 11.005578 2.434256 22.011156 4.217091 33.279588 5.885641a2.857108 2.857108 0 0 0 0.377138-0.639992 537.741922 537.741922 0 0 0 24.833979-561.135918z" fill="#CDFF9E" /><path d="M506.748728 803.71701a528.87346 528.87346 0 0 1-73.987657 162.683702 2.857108 2.857108 0 0 1-0.377138 0.639992c-11.268432-1.668551-22.27401-3.428529-33.279588-5.885641-72.58196-15.108385-138.284004-44.925159-192.511905-87.164637C127.999126 812.928324 73.474086 726.015113 56.708579 620.576417c95.095967 113.655737 237.939915 185.84913 397.709367 185.849131a505.925172 505.925172 0 0 0 52.330782-2.708538z" fill="#C7F799" /><path d="M925.977829 350.62547A63.747783 63.747783 0 0 0 920.80075 235.438323a63.702069 63.702069 0 0 0-108.010092-37.828104 63.724926 63.724926 0 0 0-104.695849 23.713993 63.736355 63.736355 0 0 0-106.50154 47.485127c0 1.954262 0.399995 3.805667 0.571422 5.714215a63.782068 63.782068 0 0 0-90.170314 58.284993c0 1.954262 0.399995 3.805667 0.571422 5.714215a63.702069 63.702069 0 0 0-76.261914 97.678792 499.548108 499.548108 0 0 0-3.028534 530.964863A546.278959 546.278959 0 0 0 511.994377 972.800633c254.465425 0 460.794302-167.929352 460.794302-422.394777 0-72.593388-16.902648-140.192552-46.81085-199.780386z" fill="#EAFFD6" /><path d="M972.788679 550.405856c0 254.465425-206.328877 422.394777-460.794302 422.394777a546.278959 546.278959 0 0 1-78.719026-5.634216 495.125306 495.125306 0 0 1-65.793472-167.997922 513.456508 513.456508 0 0 0 86.91321 7.291338c239.35704 0 440.703122-162.169423 500.348099-382.589555A446.531621 446.531621 0 0 1 972.788679 550.405856z" fill="#E3F7D0" /><path d="M511.994377 550.405856a64.067779 64.067779 0 0 1-63.999208-63.999208 12.799842 12.799842 0 1 1 25.599683 0 38.399525 38.399525 0 0 0 76.79905 0 12.799842 12.799842 0 1 1 25.599684 0 64.067779 64.067779 0 0 1-63.999209 63.999208z" fill="#25467A" /><path d="M383.99596 384.007914m-38.399525 0a38.399525 38.399525 0 1 0 76.79905 0 38.399525 38.399525 0 1 0-76.79905 0Z" fill="#25467A" /><path d="M639.992794 384.007914m-38.399525 0a38.399525 38.399525 0 1 0 76.799051 0 38.399525 38.399525 0 1 0-76.799051 0Z" fill="#25467A" /><path d="M332.796593 448.007123h-51.199367a25.599683 25.599683 0 1 0 0 51.199367h51.199367a25.599683 25.599683 0 1 0 0-51.199367zM742.391528 448.007123h-51.199367a25.599683 25.599683 0 1 0 0 51.199367h51.199367a25.599683 25.599683 0 0 0 0-51.199367z" fill="#FCCEC7" /></svg>