<?xml version="1.0" standalone="no"?><!DOCTYPE svg PUBLIC "-//W3C//DTD SVG 1.1//EN" "http://www.w3.org/Graphics/SVG/1.1/DTD/svg11.dtd"><svg class="icon" width="128px" height="128.00px" viewBox="0 0 1024 1024" version="1.1" xmlns="http://www.w3.org/2000/svg"><path d="M837.714286 195.131429A127.794286 127.794286 0 0 0 623.828571 65.885714a127.851429 127.851429 0 0 0-223.657142 0A127.76 127.76 0 0 0 186.285714 195.131429C71.211429 282.8 0 418.342857 0 576c0 263.771429 210.548571 448 512 448s512-184.228571 512-448c0-157.657143-71.211429-293.2-186.285714-380.868571z" fill="#25467A" /><path d="M768.194286 210.56A76.765714 76.765714 0 1 0 640 153.6c0 1.142857 0.114286 2.205714 0.171429 3.314286a498.422857 498.422857 0 0 0-53.622858-10.742857 76.8 76.8 0 1 0-149.097142 0 498.422857 498.422857 0 0 0-53.622858 10.742857c0-1.142857 0.171429-2.194286 0.171429-3.314286a76.8 76.8 0 1 0-128.194286 56.96C132.434286 285.714286 51.2 416.331429 51.2 576c0 254.491429 206.308571 396.8 460.8 396.8S972.8 830.491429 972.8 576c0-159.668571-81.234286-290.285714-204.605714-365.44z" fill="#F5E8DE" /><path d="M972.8 576c0 254.468571-206.331429 396.8-460.8 396.8-234.754286 0-428.571429-121.142857-457.085714-339.588571C149.714286 739.428571 287.874286 806.4 441.6 806.4c241.531429 0 444.411429-165.12 502.148571-388.571429 18.811429 48.217143 29.051429 101.337143 29.051429 158.171429z" fill="#EBDED5" /><path d="M512 550.4a64.068571 64.068571 0 0 1-64-64 12.8 12.8 0 1 1 25.6 0 38.4 38.4 0 0 0 76.8 0 12.8 12.8 0 1 1 25.6 0 64.068571 64.068571 0 0 1-64 64z" fill="#25467A" /><path d="M384 384m-38.4 0a38.4 38.4 0 1 0 76.8 0 38.4 38.4 0 1 0-76.8 0Z" fill="#25467A" /><path d="M640 384m-38.4 0a38.4 38.4 0 1 0 76.8 0 38.4 38.4 0 1 0-76.8 0Z" fill="#25467A" /><path d="M332.8 448h-51.2a25.6 25.6 0 1 0 0 51.2h51.2a25.6 25.6 0 1 0 0-51.2zM742.4 448h-51.2a25.6 25.6 0 1 0 0 51.2h51.2a25.6 25.6 0 0 0 0-51.2z" fill="#FCCEC7" /></svg>