<?xml version="1.0" standalone="no"?><!DOCTYPE svg PUBLIC "-//W3C//DTD SVG 1.1//EN" "http://www.w3.org/Graphics/SVG/1.1/DTD/svg11.dtd"><svg class="icon" width="128px" height="128.00px" viewBox="0 0 1024 1024" version="1.1" xmlns="http://www.w3.org/2000/svg"><path d="M621.6 1024c-54.857143 0-93.485714-38.651429-127.577143-72.754286l-1.862857-1.851428c-29.462857-29.462857-59.954286-59.942857-69.714286-101.314286-5.84-24.857143-3.302857-50.342857 7.531429-75.714286 9.977143-23.36 27.028571-46.925714 52.148571-72 57.805714-57.805714 141.474286-106.114286 213.142857-123.051428a56 56 0 0 1 60.685715 25.257143l0.068571 0.102857a51.851429 51.851429 0 0 1 14.16 12.571428 49.737143 49.737143 0 0 1 16.571429 22.617143 124.914286 124.914286 0 0 0 8.777143 9.314286l0.708571 0.72a122.08 122.08 0 0 0 9.314286 8.765714A50.205714 50.205714 0 0 1 828.137143 673.142857a50.937143 50.937143 0 0 1 12.834286 14.388572 56 56 0 0 1 25.142857 60.64c-16.937143 71.668571-65.245714 155.337143-123.051429 213.142857C700.891429 1003.428571 661.142857 1024 621.611429 1024z" fill="#25467A" /><path d="M938.925714 998.377143c-45.588571 30.491429-99.2 19.851429-146.491428 10.457143l-2.571429-0.502857c-40.88-8.114286-83.165714-16.502857-114.285714-45.497143-18.674286-17.417143-30.731429-40-35.84-67.12-4.685714-24.96-3.611429-54.034286 3.302857-88.868572C659.005714 726.651429 701.714286 640 751.851429 586.057143a55.84 55.84 0 0 1 9.862857-8.4 56.514286 56.514286 0 0 1 54.628571-4.331429h0.102857a52.137143 52.137143 0 0 1 18.765715 2.674286 49.737143 49.737143 0 0 1 26.354285 9.588571 122.125714 122.125714 0 0 0 12.48 2.868572l0.982857 0.194286a124.72 124.72 0 0 0 12.571429 2.114285 50.182857 50.182857 0 0 1 27.885714 1.142857 50.971429 50.971429 0 0 1 18.674286 4.822858A56 56 0 0 1 988.845714 633.142857c25.76 68.994286 32.114286 165.394286 16.205715 245.577143-11.622857 58.56-33.257143 97.725714-66.114286 119.702857z" fill="#25467A" /><path d="M465.634286 0m36.08 0l0.011428 0q36.08 0 36.08 36.08l0 131.828571q0 36.08-36.08 36.08l-0.011428 0q-36.08 0-36.08-36.08l0-131.828571q0-36.08 36.08-36.08Z" fill="#25467A" /><path d="M428.022857 987.062857l-78.228571 11.371429-50.217143-40.982857-83.017143 7.028571-40.697143-60.32-72.662857-24.754286-14.811429-80.48-48.377142-43.017143 9.36-87.817142L10.285714 604.262857 44.091429 530.285714 10.285714 456.308571l39.085715-63.828571-9.36-87.817143 48.377142-43.017143 14.811429-80.48 72.662857-24.765714 40.697143-60.308571 83.017143 7.028571 50.217143-40.982857 78.228571 11.371428L501.714286 36.571429l73.691428 36.937142 78.228572-11.371428 50.217143 40.982857 83.017142-7.028571 40.697143 60.308571 72.662857 24.765714 14.811429 80.48 48.377143 43.017143-9.36 87.817143 39.085714 63.828571L959.337143 530.285714 993.142857 604.262857l-39.085714 63.828572 9.36 87.817142-48.377143 43.017143-14.811429 80.48-72.662857 24.754286-40.697143 60.32-83.017142-7.028571-50.217143 40.982857-78.228572-11.371429L501.714286 1024l-73.691429-36.937143z" fill="#25467A" /><path d="M907.6 530.285714l32.377143-70.845714-34.502857-56.354286 8.502857-79.84-42.525714-37.817143-12.754286-69.337142-61.668572-21.005715-34.011428-50.434285-74.422857 6.308571-48.902857-39.92-72.297143 10.502857L501.714286 88.628571l-65.68 32.914286-72.297143-10.502857-48.902857 39.92-74.422857-6.308571-34.011429 50.434285-61.668571 21.005715-12.754286 69.337142-42.525714 37.817143 8.502857 79.84-34.502857 56.354286L95.828571 530.285714l-32.377142 70.845715 34.502857 56.342857-8.502857 79.851428 42.525714 37.817143 12.754286 69.337143 61.668571 21.005714 34.011429 50.434286 74.422857-6.308571 48.902857 39.92 72.297143-10.502858 65.68 32.914286 65.68-32.914286 72.297143 10.502858 48.902857-39.92 74.422857 6.308571 34.011428-50.434286 61.668572-21.005714 12.754286-69.337143 42.525714-37.817143-8.502857-79.851428 34.502857-56.342857L907.6 530.285714z" fill="#94C758" /><path d="M608.982857 186.48s-30.697143-33.085714-43.931428-35.874286c-12.765714-2.285714-56.182857 16.308571-56.182858 16.308572s47.497143-38.205714 60.777143-35.874286c13.28 2.788571 39.337143 55.44 39.337143 55.44zM734.628571 229.531429s-16.857143-40.537143-28.091428-47.051429-58.742857-1.862857-58.742857-1.862857 58.742857-21.44 70.491428-15.382857c11.234286 6.525714 16.342857 64.297143 16.342857 64.297143zM825.028571 317.988571s5.12-43.325714-1.52-53.565714c-7.154286-10.285714-51.6-26.091429-51.6-26.091428S835.257143 243.428571 841.897143 253.714286c6.64 10.72-16.868571 64.285714-16.868572 64.285714zM851.085714 567.588571s30.651429-33.542857 30.651429-45.645714c0.514286-12.114286-27.588571-47.52-27.588572-47.52s49.554286 35.874286 49.554286 48-52.571429 45.188571-52.571428 45.188572zM821.965714 685.714286s39.337143-24.685714 43.428572-36.331429-12.251429-52.651429-12.251429-52.651428 37.28 47.062857 33.142857 58.697142-64.32 30.285714-64.32 30.285715zM765.268571 789.428571s47.508571-6.057143 56.697143-14.445714c9.142857-8.857143 14.857143-51.714286 14.857143-51.714286s10.205714 57.302857 0.502857 65.691429c-9.142857 8.845714-72 0.468571-72 0.468571zM639.108571 848.754286s46.994286 7.462857 58.742858 1.874285 31.668571-45.188571 31.668571-45.188571-9.702857 57.291429-21.451429 62.857143c-11.234286 5.588571-68.96-19.577143-68.96-19.577143zM517.04 885.2s44.948571 15.371429 57.142857 11.645714c12.777143-3.725714 40.354286-39.131429 40.354286-39.131428s-20.937143 54.502857-33.702857 58.285714c-12.262857 3.737143-63.851429-30.742857-63.851429-30.742857zM394.445714 186.48s30.651429-33.085714 43.931429-35.874286c12.765714-2.285714 56.182857 16.308571 56.182857 16.308572s-47.497143-38.205714-60.777143-35.874286-39.337143 55.44-39.337143 55.44zM268.8 229.531429s16.857143-40.537143 28.091429-47.051429 58.731429-1.908571 58.731428-1.908571-58.731429-21.44-70.48-15.382858c-11.234286 6.525714-16.342857 64.297143-16.342857 64.297143zM178.388571 317.988571s-5.108571-43.325714 1.531429-53.565714c7.154286-10.285714 51.588571-26.091429 51.588571-26.091428S168.171429 243.428571 161.531429 253.714286s16.857143 64.285714 16.857142 64.285714zM863.862857 425.382857s18.388571-40 14.857143-51.702857-41.371429-38.205714-41.371429-38.205714 59.245714 21.428571 62.308572 33.074285c3.577143 11.645714-35.748571 56.834286-35.748572 56.834286zM139.565714 425.382857s-18.377143-40-14.857143-51.702857 41.371429-38.205714 41.371429-38.205714-59.245714 21.428571-62.308571 33.074285c-3.577143 11.645714 35.748571 56.834286 35.748571 56.834286zM152.342857 567.588571s-30.651429-33.542857-30.651428-45.645714c-0.514286-12.114286 27.588571-47.52 27.588571-47.52s-49.554286 35.874286-49.554286 48 52.571429 45.188571 52.571429 45.188572zM181.451429 685.714286s-39.325714-24.685714-43.428572-36.331429 12.262857-52.651429 12.262857-52.651428-37.291429 47.062857-33.142857 58.697142 64.308571 30.285714 64.308572 30.285715zM671.805714 735.051429s35.245714 0.937143 43.428572-4.194286 17.874286-36.331429 17.874285-36.331429-0.514286 42.857143-8.171428 48c-8.685714 5.12-53.12-7.462857-53.12-7.462857zM787.245714 612.662857s23.485714-24.228571 24-33.142857-18.891429-35.862857-18.891428-35.862857 35.748571 27.954286 35.234285 36.8-40.342857 32.148571-40.342857 32.148571zM812.274286 465.051429s15.314286-29.348571 13.268571-37.714286c-2.034286-8.857143-29.108571-29.348571-29.108571-29.348572s42.902857 17.702857 44.948571 26.548572c1.531429 8.388571-29.108571 40.537143-29.108571 40.537143zM648.308571 244.297143s-24-23.76-33.714285-25.142857S573.714286 232.651429 573.714286 232.651429s34.217143-29.817143 43.92-27.954286 30.651429 39.6 30.651428 39.6zM744.331429 326.285714s-5.108571-31.68-11.748572-38.205714-41.874286-9.771429-41.874286-9.771429 46.48-6.994286 53.622858-0.468571 0 48.445714 0 48.445714zM566.08 790.857143s32.685714 11.645714 42.388571 9.314286c9.142857-2.285714 30.137143-28.411429 30.137143-28.411429s-16.342857 40.057143-25.542857 42.857143c-9.702857 2.285714-46.982857-23.76-46.982857-23.76zM331.622857 735.051429s-35.245714 0.937143-43.428571-4.194286c-7.657143-5.12-17.874286-36.331429-17.874286-36.331429s0.514286 42.857143 8.171429 48c8.685714 5.12 53.12-7.462857 53.12-7.462857zM216.182857 612.662857s-23.485714-24.228571-24-33.142857 18.902857-35.862857 18.902857-35.862857-35.76 27.954286-35.245714 36.8c1.017143 8.857143 40.342857 32.148571 40.342857 32.148571zM191.154286 465.051429s-15.314286-29.348571-13.268572-37.714286c2.034286-8.857143 29.108571-29.348571 29.108572-29.348572s-42.902857 17.702857-44.948572 26.548572c-1.531429 8.388571 29.108571 40.537143 29.108572 40.537143zM355.12 244.297143s24-23.76 33.714286-25.142857S429.714286 232.651429 429.714286 232.651429s-34.285714-29.817143-43.942857-27.954286-30.651429 39.6-30.651429 39.6zM259.097143 326.285714s5.108571-31.68 11.748571-38.205714 41.874286-9.771429 41.874286-9.771429-46.48-6.994286-53.622857-0.468571 0 48.445714 0 48.445714zM437.36 790.857143s-32.697143 11.645714-42.4 9.314286c-9.142857-2.285714-30.137143-28.411429-30.137143-28.411429s16.342857 40.057143 25.542857 42.857143c9.702857 2.285714 46.994286-23.76 46.994286-23.76zM238.148571 789.428571s-47.508571-6.057143-56.697142-14.445714c-9.2-8.857143-14.857143-51.714286-14.857143-51.714286s-10.217143 57.302857-0.514286 65.691429c9.142857 8.845714 72 0.468571 72 0.468571zM364.308571 848.754286s-46.982857 7.462857-58.742857 1.874285-31.657143-45.188571-31.657143-45.188571 9.702857 57.291429 21.451429 62.857143 68.948571-19.577143 68.948571-19.577143zM486.388571 885.2s-44.948571 15.371429-57.142857 11.645714c-12.777143-3.725714-40.354286-39.131429-40.354285-39.131428s20.937143 54.502857 33.702857 58.285714c12.262857 3.737143 63.851429-30.742857 63.851428-30.742857z" fill="#558B2F" /><path d="M924.948571 977.485714c-36.937143 24.685714-80.982857 16-127.622857 6.685715l-2.548571-0.502858c-39.165714-7.771429-76.171429-15.108571-102.011429-39.211428-29.565714-27.577143-37.508571-69.714286-25.017143-132.72 15.074286-75.942857 55.314286-157.805714 102.514286-208.548572a30.857143 30.857143 0 0 1 35.588572-7.017142c2.182857 1.005714 4.491429 1.965714 6.971428 2.902857a26.285714 26.285714 0 0 1 17.554286 1.988571 24.8 24.8 0 0 1 16.925714 5.211429c4.205714 3.302857 12.777143 4.994286 21.851429 6.857143l0.48 0.08 0.491428 0.114285c9.062857 1.794286 17.634286 3.497143 22.788572 2.057143a24.948571 24.948571 0 0 1 17.68 1.645714 26.285714 26.285714 0 0 1 16.834285 4.857143c2.685714 0.091429 5.222857 0.08 7.645715 0a30.857143 30.857143 0 0 1 30.217143 20.08c24.24 64.925714 30.171429 155.954286 15.097142 231.885715-10.4 52.411429-28.011429 85.36-55.428571 103.691428z" fill="#25467A" /><path d="M957.965714 869.337143c-23.68 119.291429-83.508571 106.845714-157.462857 92.16s-134.011429-26.011429-110.331428-145.314286c14.251429-71.817143 52.571429-149.862857 96.822857-197.428571a8.102857 8.102857 0 0 1 9.325714-1.805715c19.36 8.891429 43.28 13.565714 68.868571 18.64s49.474286 9.885714 70.765715 9.074286a8.091429 8.091429 0 0 1 7.92 5.222857c22.72 60.857143 28.342857 147.634286 14.091428 219.451429z" fill="#FBC02D" /><path d="M911.234286 860.057143c-23.68 119.302857-62.594286 110.994286-110.731429 101.44s-87.268571-16.731429-63.6-136c14.262857-71.817143 44.925714-151.394286 77.474286-201.28 1.748571-2.685714 4.297143-3.622857 6.308571-2.4 12.274286 7.485714 27.851429 10.502857 44.502857 13.805714s32.194286 6.457143 46.388572 4.24c2.285714-0.365714 4.331429 1.474286 4.925714 4.571429 11.028571 58.56 8.982857 143.805714-5.268571 215.622857z" fill="#FDD835" /><path d="M887.234286 855.291429c-23.68 119.302857-51.851429 113.142857-86.731429 106.205714s-63.268571-11.977143-39.6-131.268572c14.262857-71.828571 40.982857-152.171429 67.531429-203.257142 1.428571-2.742857 3.348571-3.805714 4.765714-2.697143 8.628571 6.754286 19.92 8.925714 32 11.314285s23.325714 4.697143 33.874286 1.748572c1.737143-0.48 3.108571 1.234286 3.428571 4.331428 4.925714 57.337143-1.017143 141.805714-15.268571 213.622858z" fill="#FBC02D" /><path d="M621.6 998.857143c-44.422857 0-76.182857-31.76-109.805714-65.382857l-1.84-1.84c-28.228571-28.24-54.857143-54.857143-62.994286-89.302857-9.245714-39.36 7.6-78.857143 52.994286-124.228572 54.742857-54.742857 133.714286-100.422857 201.142857-116.365714a30.857143 30.857143 0 0 1 33.485714 13.954286c1.257143 2.045714 2.64 4.125714 4.182857 6.285714a26.285714 26.285714 0 0 1 13.485715 11.428571 24.788571 24.788571 0 0 1 11.165714 13.714286c1.668571 5.085714 7.84 11.257143 14.388571 17.794286l0.354286 0.342857 0.342857 0.365714c6.537143 6.537143 12.708571 12.708571 17.794286 14.377143a24.96 24.96 0 0 1 13.794286 11.188571 26.285714 26.285714 0 0 1 11.28 13.405715c2.182857 1.565714 4.297143 2.971429 6.365714 4.24a30.857143 30.857143 0 0 1 13.954286 33.485714c-16 67.428571-61.611429 146.4-116.354286 201.142857-37.782857 37.794286-70.742857 55.394286-103.725714 55.394286z" fill="#25467A" /><path d="M709.165714 927.314286c-86 86.011429-128.811429 42.388571-182.125714-10.925715s-96.925714-96.125714-10.925714-182.125714c51.771429-51.771429 127.028571-95.337143 190.24-110.285714a8.114286 8.114286 0 0 1 8.754285 3.68c11.154286 18.16 28.434286 35.348571 46.857143 53.782857s35.622857 35.725714 53.782857 46.857143a8.102857 8.102857 0 0 1 3.68 8.754286c-14.925714 63.234286-58.48 138.491429-110.262857 190.262857z" fill="#FBC02D" /><path d="M675.428571 893.622857c-86 86-113.725714 57.474286-148.434285 22.765714S463.805714 853.954286 549.805714 768c51.771429-51.771429 121.497143-100.868571 176.285715-124.24 2.948571-1.257143 5.588571-0.628571 6.582857 1.52 6.045714 13.028571 17.314286 24.205714 29.314285 36.205714s23.177143 23.268571 36.217143 29.314286c2.137143 0.994286 2.765714 3.634286 1.508572 6.582857-23.371429 54.742857-72.468571 124.468571-124.285715 176.24z" fill="#FDD835" /><path d="M658.171429 876.32c-86 86-105.988571 65.222857-131.131429 40.068571S481.142857 871.257143 567.108571 785.257143c51.771429-51.771429 118.651429-103.714286 169.142858-131.428572 2.72-1.485714 4.914286-1.314286 5.474285 0.4 3.428571 10.411429 11.588571 18.491429 20.285715 27.188572S778.765714 698.285714 789.177143 701.714286c1.714286 0.56 1.897143 2.742857 0.4 5.462857-27.691429 50.537143-79.634286 117.371429-131.405714 169.142857z" fill="#FBC02D" /><path d="M501.714286 575.314286a69.28 69.28 0 0 1-69.188572-69.222857 13.851429 13.851429 0 0 1 27.68-0.822858v0.822858a41.52 41.52 0 0 0 83.028572 0 13.84 13.84 0 1 1 27.668571-0.822858v0.822858A69.268571 69.268571 0 0 1 501.714286 575.314286zM321.782857 395.428571a41.52 41.52 0 0 0 83.028572 0 41.52 41.52 0 1 0-83.028572 0zM598.548571 395.428571a41.52 41.52 0 0 0 83.028572 0.068572V395.428571a41.52 41.52 0 1 0-83.028572 0z" fill="#25467A" /><path d="M307.954286 464.617143h-55.291429a27.668571 27.668571 0 1 0 0 55.337143h55.382857a27.668571 27.668571 0 1 0 0-55.337143h-0.091428z m442.811428 0h-55.36a27.668571 27.668571 0 0 0 0 55.337143h55.36a27.668571 27.668571 0 1 0 0-55.337143z" fill="#C5E1A5" /></svg>