<?xml version="1.0" standalone="no"?><!DOCTYPE svg PUBLIC "-//W3C//DTD SVG 1.1//EN" "http://www.w3.org/Graphics/SVG/1.1/DTD/svg11.dtd"><svg class="icon" width="128px" height="128.00px" viewBox="0 0 1024 1024" version="1.1" xmlns="http://www.w3.org/2000/svg"><path d="M512 1024c-47.085714 0-86.285714-5.485714-125.028571-32.114286-32.685714-22.514286-61.371429-57.142857-102.171429-123.657143-22.4-36.457143-50.742857-71.657143-80.685714-108.914285-78.857143-97.828571-168.114286-208.685714-160.228572-368.571429 3.428571-68.457143 26.285714-125.942857 68-171.2 29.028571-31.314286 67.2-56.685714 114.057143-75.657143 1.942857-44.8 21.028571-79.771429 28.114286-91.428571l22.171428-35.885714 44.8 15.085714c7.657143 2.628571 17.028571 5.714286 27.2 9.714286 1.371429-1.828571 2.628571-3.2 3.542858-4.342858l27.428571-32.342857L420.8 25.142857c8.114286 4 18.057143 8.914286 28.914286 14.971429 11.314286-10.628571 24.228571-19.542857 38.514285-26.857143L513.942857 0l25.714286 13.142857c14.285714 7.314286 27.085714 16.228571 38.4 26.857143 10.857143-6.057143 20.685714-10.857143 28.914286-14.857143l41.485714-20.457143 27.428571 32.342857c0.914286 1.142857 2.171429 2.628571 3.542857 4.457143 10.285714-4 19.542857-7.085714 27.314286-9.714285l44.8-15.085715L773.714286 52.571429c7.314286 11.885714 26.742857 47.542857 28.228571 93.028571 45.714286 18.971429 83.085714 44.342857 111.542857 75.542857 40.914286 44.914286 63.314286 101.942857 66.628572 169.6 8 159.885714-81.371429 270.742857-160.114286 368.571429-29.942857 37.257143-58.285714 72.457143-80.685714 108.914285-40.8 66.4-69.485714 101.142857-102.171429 123.657143-38.857143 26.628571-78.057143 32.114286-125.142857 32.114286z" fill="#25467A" /><path d="M352.914286 265.714286c-14.285714-7.885714-42.857143-25.942857-60.342857-58.857143-33.028571-62.285714 2.971429-122.857143 7.657142-130.4 28.685714 9.714286 76.114286 24.8 111.2 63.314286 29.828571 32.685714 38.971429 61.028571 46.971429 83.085714-44.8 16.571429-60.8 26.4-105.485714 42.857143z" fill="#6C8726" /><path d="M417.028571 261.028571c-13.028571-9.6-38.628571-31.2-50.857142-65.942857-23.314286-65.942857 21.6-121.371429 27.428571-128.228571 26.971429 13.257143 71.542857 34.285714 100.457143 76.914286C518.628571 179.771429 523.428571 209.142857 528 232c-46.742857 10.742857-64.228571 18.4-110.971429 29.028571z" fill="#7A992B" /><path d="M674.971429 265.714286c14.285714-7.885714 42.857143-25.942857 60.342857-58.857143 33.028571-62.285714-2.971429-122.857143-7.657143-130.4-28.685714 9.714286-76.114286 24.8-111.2 63.314286-29.828571 32.685714-38.971429 61.028571-46.971429 83.085714 44.685714 16.571429 60.685714 26.4 105.485715 42.857143z" fill="#6C8726" /><path d="M610.628571 261.028571c13.028571-9.6 38.628571-31.2 50.857143-65.942857 23.314286-65.828571-21.485714-121.257143-27.428571-128.228571-26.971429 13.257143-71.542857 34.285714-100.457143 76.914286-24.571429 36.114286-29.371429 65.485714-33.942857 88.342857 46.971429 10.628571 64.228571 18.285714 110.971428 28.914285z" fill="#7A992B" /><path d="M513.942857 55.542857c-72.457143 36.914286-69.714286 127.542857-69.714286 127.542857l69.6 42.057143 69.6-42.057143c0.114286 0 2.857143-90.514286-69.485714-127.542857z" fill="#86A82F" /><path d="M927.2 393.028571C917.257143 192.571429 720.457143 149.257143 512 149.257143S106.742857 192.571429 96.8 393.028571c-9.942857 198.857143 149.142857 313.142857 234.057143 451.428572 70.628571 114.857143 103.2 131.085714 181.142857 131.085714s110.514286-16.228571 181.142857-131.085714c85.028571-138.4 244-252.685714 234.057143-451.428572z" fill="#EE4042" /><path d="M220.342857 613.828571a9.6 6.514286 90 1 0 13.028572 0 9.6 6.514286 90 1 0-13.028572 0Z" fill="#E0C32D" /><path d="M283.542857 603.428571a9.485714 6.4 90 1 0 12.8 0 9.485714 6.4 90 1 0-12.8 0Z" fill="#E0C32D" /><path d="M346.514286 618.971429a9.371429 6.4 90 1 0 12.8 0 9.371429 6.4 90 1 0-12.8 0Z" fill="#E0C32D" /><path d="M409.714286 603.428571a9.371429 6.4 90 1 0 12.8 0 9.371429 6.4 90 1 0-12.8 0Z" fill="#E0C32D" /><path d="M472.914286 611.771429a9.257143 6.285714 90 1 0 12.571428 0 9.257143 6.285714 90 1 0-12.571428 0Z" fill="#E0C32D" /><path d="M536 611.771429a9.142857 6.285714 90 1 0 12.571429 0 9.142857 6.285714 90 1 0-12.571429 0Z" fill="#E0C32D" /><path d="M599.2 603.428571a9.028571 6.171429 90 1 0 12.342857 0 9.028571 6.171429 90 1 0-12.342857 0Z" fill="#E0C32D" /><path d="M662.285714 618.971429a9.028571 6.171429 90 1 0 12.342857 0 9.028571 6.171429 90 1 0-12.342857 0Z" fill="#E0C32D" /><path d="M725.485714 603.428571a9.028571 6.057143 90 1 0 12.114286 0 9.028571 6.057143 90 1 0-12.114286 0Z" fill="#E0C32D" /><path d="M788.685714 613.828571a8.914286 6.057143 90 1 0 12.114286 0 8.914286 6.057143 90 1 0-12.114286 0Z" fill="#E0C32D" /><path d="M140.342857 509.142857a9.6 6.514286 90 1 0 13.028572 0 9.6 6.514286 90 1 0-13.028572 0Z" fill="#E0C32D" /><path d="M203.428571 519.428571a9.6 6.514286 90 1 0 13.028572 0 9.6 6.514286 90 1 0-13.028572 0Z" fill="#E0C32D" /><path d="M805.485714 519.428571a8.914286 6.057143 90 1 0 12.114286 0 8.914286 6.057143 90 1 0-12.114286 0Z" fill="#E0C32D" /><path d="M868.571429 509.142857a8.914286 6.057143 90 1 0 12.114285 0 8.914286 6.057143 90 1 0-12.114285 0Z" fill="#E0C32D" /><path d="M129.028571 402.057143a9.6 6.514286 90 1 0 13.028572 0 9.6 6.514286 90 1 0-13.028572 0Z" fill="#E0C32D" /><path d="M192.114286 412.457143a9.6 6.514286 90 1 0 13.028571 0 9.6 6.514286 90 1 0-13.028571 0Z" fill="#E0C32D" /><path d="M816.8 412.457143a8.914286 6.057143 90 1 0 12.114286 0 8.914286 6.057143 90 1 0-12.114286 0Z" fill="#E0C32D" /><path d="M879.771429 402.057143a8.914286 6.057143 90 1 0 12.114285 0 8.914286 6.057143 90 1 0-12.114285 0Z" fill="#E0C32D" /><path d="M220.342857 257.142857a9.6 6.514286 90 1 0 13.028572 0 9.6 6.514286 90 1 0-13.028572 0Z" fill="#E0C32D" /><path d="M283.542857 246.857143a9.485714 6.4 90 1 0 12.8 0 9.485714 6.4 90 1 0-12.8 0Z" fill="#E0C32D" /><path d="M409.714286 246.857143a9.371429 6.4 90 1 0 12.8 0 9.371429 6.4 90 1 0-12.8 0Z" fill="#E0C32D" /><path d="M472.914286 255.085714a9.257143 6.285714 90 1 0 12.571428 0 9.257143 6.285714 90 1 0-12.571428 0Z" fill="#E0C32D" /><path d="M536 255.085714a9.142857 6.285714 90 1 0 12.571429 0 9.142857 6.285714 90 1 0-12.571429 0Z" fill="#E0C32D" /><path d="M599.2 246.857143a9.028571 6.171429 90 1 0 12.342857 0 9.028571 6.171429 90 1 0-12.342857 0Z" fill="#E0C32D" /><path d="M725.485714 246.857143a9.028571 6.057143 90 1 0 12.114286 0 9.028571 6.057143 90 1 0-12.114286 0Z" fill="#E0C32D" /><path d="M788.685714 257.142857a8.914286 6.057143 90 1 0 12.114286 0 8.914286 6.057143 90 1 0-12.114286 0Z" fill="#E0C32D" /><path d="M187.542857 306.857143a9.6 6.514286 90 1 0 13.028572 0 9.6 6.514286 90 1 0-13.028572 0Z" fill="#E0C32D" /><path d="M824.114286 306.857143a8.914286 6.057143 90 1 0 12.114285 0 8.914286 6.057143 90 1 0-12.114285 0Z" fill="#E0C32D" /><path d="M278.628571 705.257143a9.485714 6.514286 90 1 0 13.028572 0 9.485714 6.514286 90 1 0-13.028572 0Z" fill="#E0C32D" /><path d="M343.2 694.857143a9.485714 6.4 90 1 0 12.8 0 9.485714 6.4 90 1 0-12.8 0Z" fill="#E0C32D" /><path d="M407.657143 705.257143a9.371429 6.4 90 1 0 12.8 0 9.371429 6.4 90 1 0-12.8 0Z" fill="#E0C32D" /><path d="M472.228571 694.857143a9.257143 6.285714 90 1 0 12.571429 0 9.257143 6.285714 90 1 0-12.571429 0Z" fill="#E0C32D" /><path d="M536.685714 694.857143a9.142857 6.285714 90 1 0 12.571429 0 9.142857 6.285714 90 1 0-12.571429 0Z" fill="#E0C32D" /><path d="M601.257143 705.257143a9.028571 6.171429 90 1 0 12.342857 0 9.028571 6.171429 90 1 0-12.342857 0Z" fill="#E0C32D" /><path d="M665.714286 694.857143a9.028571 6.171429 90 1 0 12.342857 0 9.028571 6.171429 90 1 0-12.342857 0Z" fill="#E0C32D" /><path d="M730.285714 705.257143a9.028571 6.057143 90 1 0 12.114286 0 9.028571 6.057143 90 1 0-12.114286 0Z" fill="#E0C32D" /><path d="M326.171429 786.285714a9.6 6.514286 90 1 0 13.028571 0 9.6 6.514286 90 1 0-13.028571 0Z" fill="#E0C32D" /><path d="M378.171429 795.542857a9.485714 6.4 90 1 0 12.8 0 9.485714 6.4 90 1 0-12.8 0Z" fill="#E0C32D" /><path d="M441.257143 786.285714a9.371429 6.4 90 1 0 12.8 0 9.371429 6.4 90 1 0-12.8 0Z" fill="#E0C32D" /><path d="M504.457143 792.457143a9.142857 6.285714 90 1 0 12.571428 0 9.142857 6.285714 90 1 0-12.571428 0Z" fill="#E0C32D" /><path d="M567.657143 786.285714a9.028571 6.171429 90 1 0 12.342857 0 9.028571 6.171429 90 1 0-12.342857 0Z" fill="#E0C32D" /><path d="M630.971429 795.542857a9.028571 6.057143 90 1 0 12.114285 0 9.028571 6.057143 90 1 0-12.114285 0Z" fill="#E0C32D" /><path d="M682.742857 786.285714a8.914286 6.057143 90 1 0 12.114286 0 8.914286 6.057143 90 1 0-12.114286 0Z" fill="#E0C32D" /><path d="M408.457143 877.6a9.6 6.514286 90 1 0 13.028571 0 9.6 6.514286 90 1 0-13.028571 0Z" fill="#E0C32D" /><path d="M456.457143 885.942857a9.371429 6.4 90 1 0 12.8 0 9.371429 6.4 90 1 0-12.8 0Z" fill="#E0C32D" /><path d="M504.457143 877.6a9.142857 6.285714 90 1 0 12.571428 0 9.142857 6.285714 90 1 0-12.571428 0Z" fill="#E0C32D" /><path d="M552.457143 885.942857a9.028571 6.171429 90 1 0 12.342857 0 9.028571 6.171429 90 1 0-12.342857 0Z" fill="#E0C32D" /><path d="M600.342857 877.6a8.914286 6.057143 90 1 0 12.114286 0 8.914286 6.057143 90 1 0-12.114286 0Z" fill="#E0C32D" /><path d="M512 550.4c-35.314286 0-64-28.685714-64-64 0-7.085714 5.714286-12.8 12.8-12.8s12.8 5.714286 12.8 12.8c0 21.257143 17.257143 38.4 38.4 38.4s38.4-17.142857 38.4-38.4c0-7.085714 5.714286-12.8 12.8-12.8s12.8 5.714286 12.8 12.8c0 35.314286-28.685714 64-64 64z" fill="#25467A" /><path d="M384 384m-38.4 0a38.4 38.4 0 1 0 76.8 0 38.4 38.4 0 1 0-76.8 0Z" fill="#25467A" /><path d="M640 384m-38.4 0a38.4 38.4 0 1 0 76.8 0 38.4 38.4 0 1 0-76.8 0Z" fill="#25467A" /><path d="M332.8 448h-51.2c-14.171429 0-25.6 11.428571-25.6 25.6s11.428571 25.6 25.6 25.6h51.2c14.171429 0 25.6-11.428571 25.6-25.6s-11.428571-25.6-25.6-25.6zM742.4 448h-51.2c-14.171429 0-25.6 11.428571-25.6 25.6s11.428571 25.6 25.6 25.6h51.2c14.171429 0 25.6-11.428571 25.6-25.6S756.571429 448 742.4 448z" fill="#EE8385" /></svg>