<?xml version="1.0" standalone="no"?><!DOCTYPE svg PUBLIC "-//W3C//DTD SVG 1.1//EN" "http://www.w3.org/Graphics/SVG/1.1/DTD/svg11.dtd"><svg class="icon" width="128px" height="128.00px" viewBox="0 0 1024 1024" version="1.1" xmlns="http://www.w3.org/2000/svg"><path d="M744.460381 1024c-24.908726 0-50.503013-5.027449-76.0973-15.082348-25.594287 9.940638-51.188574 15.082348-76.097299 15.082348-9.369337 0-18.738674-0.685561-27.879492-2.170944C489.888634 1010.288775 418.818783 951.330507 369.115592 860.150859c-28.450792-52.216916-46.960946-110.261102-53.473778-167.619728-7.312653-63.528677 0.685561-123.515287 23.080562-173.446998 2.513725-5.71301 16.56773-35.649185 42.162017-67.527784 35.192145-43.6474 77.582682-72.212453 122.601206-82.495871 11.768802-2.627985 22.852042-3.999107 33.935282-3.999108 20.909618 0 37.820129 4.684669 54.273599 9.140817 19.995537 5.48449 40.676635 11.197501 76.668601 11.197501 36.106226 0 56.673064-5.71301 76.668601-11.197501 16.45347-4.570408 33.363981-9.140817 54.2736-9.140817 11.08324 0 22.166481 1.256862 33.935282 3.999108 45.018523 10.283419 87.40906 38.848471 122.601205 82.495871 25.708547 31.878599 39.648293 61.814773 42.162017 67.527784 22.395001 49.931712 30.393216 109.918322 23.080563 173.446998-6.627092 57.358625-25.137246 115.402812-53.473778 167.619728-49.588931 91.293908-120.773042 150.137916-195.270699 161.678197-9.140817 1.485383-18.510154 2.170944-27.879491 2.170944z" fill="#25467A" /><path d="M487.260649 1012.116938c-28.108012 0-57.015845-5.71301-85.923678-17.024771-28.907833 11.311761-57.815666 17.024771-85.923678 17.024771-10.511939 0-21.138139-0.799821-31.535818-2.399464-84.095514-13.025664-164.420442-79.525106-220.407944-182.587815C31.362412 768.05713 10.452793 702.58603 3.02588 637.800491c-8.226735-71.755412 0.799821-139.511716 26.051328-195.95626 2.856505-6.398572 18.738674-40.333854 47.646507-76.21156 39.762553-49.360411 87.637581-81.58179 138.369114-93.122071 13.254184-3.085026 25.822807-4.456148 38.27717-4.456148 23.537603 0 42.733318 5.25597 61.243473 10.397679 22.509261 6.170051 45.932604 12.568623 86.609239 12.568623s63.985717-6.398572 86.609239-12.568623c18.510154-5.141709 37.705869-10.397679 61.243472-10.397679 12.568623 0 25.022986 1.485383 38.277171 4.456148 50.845793 11.654541 98.606561 43.76166 138.369114 93.122071 29.022093 35.991966 44.790002 69.812988 47.646507 76.21156 25.251506 56.330283 34.278063 124.086588 26.051328 195.842-7.426914 64.785539-28.336532 130.256639-60.443651 189.329167-55.987503 103.062709-136.31243 169.562151-220.407945 182.587816-10.169159 1.713903-20.795358 2.513725-31.307297 2.513724z" fill="#25467A" /><path d="M617.174507 711.269806c-16.11069 0-31.650078-5.71301-43.87592-16.22495-28.222272-24.223164-31.535818-66.842223-7.312654-95.064494 38.734211-45.247043 90.608346-118.602098 117.688016-211.267128 9.369337-31.992859 17.710333-74.497657 4.341888-95.064495-10.283419-15.882169-37.248828-29.136353-68.556126-44.675742-21.138139-10.397679-44.675742-22.166481-68.441865-37.248828-17.824593 50.960054-52.102656 100.548985-102.148628 148.081232-12.911404 12.225842-60.215131 70.270029-71.412631 86.494978-12.568623 17.938853-33.249721 28.679313-55.187681 28.679313-13.939746 0-27.30819-4.227628-38.619951-12.225842-30.393216-21.366659-37.820129-63.414416-16.56773-93.921893 11.426021-16.33921 65.813881-84.781076 89.122963-106.947556 39.534033-37.477349 63.642937-73.926356 71.641152-108.432939 2.970765-12.568623 3.427806-23.651863 2.742245-33.363982-15.425128-12.340103-25.365767-31.307297-25.365767-52.673956 0-37.134568 30.278956-67.413524 67.413524-67.413524h64.099978c37.134568 0 67.413524 30.278956 67.413523 67.413524 0 5.25597-0.571301 10.397679-1.828163 15.425128 22.737782 18.281634 49.360411 31.535818 76.897121 45.132783 44.904262 22.280741 91.408168 45.247043 121.801384 91.979469 17.710333 27.19393 27.30819 59.186789 28.565052 95.178755 1.142602 32.56416-4.227628 68.898906-16.56773 111.060923-33.706762 115.745593-97.349699 206.011158-144.767686 261.3131-12.682883 15.196608-31.421558 23.766124-51.074314 23.766124z" fill="#25467A" /><path d="M758.857167 247.601875c25.365767 39.076992 27.30819 91.408168 5.941531 164.763222C733.605661 519.541174 674.418872 603.522428 630.200171 655.053783c-3.427806 3.999107-8.226735 5.941531-13.025664 5.941531-3.999107 0-7.883954-1.371123-11.1975-4.113368-7.198393-6.170051-7.998215-17.024771-1.828164-24.223164 42.047757-49.01763 98.26378-128.656996 127.742915-229.891543 18.395894-63.071636 17.824593-106.376255-1.713903-136.54095-17.824593-27.42245-50.503013-43.53314-88.437403-62.271815-42.162017-20.909618-89.008703-44.104441-126.943093-88.323142 1.028342 16.796251 0.11426 35.991966-4.798928 57.130105-11.768802 50.845793-44.104441 101.463066-95.864316 150.594957-16.45347 15.653649-66.156661 77.239902-78.039724 94.036152-3.313546 4.798929-8.683776 7.312653-14.054006 7.312654-3.427806 0-6.855613-1.028342-9.826378-3.085026-7.769694-5.48449-9.597858-16.11069-4.227627-23.880384 11.654541-16.56773 63.071636-80.781968 82.495871-99.292122 46.846686-44.447222 75.754519-89.351484 86.037938-133.455925 7.655434-33.135461 3.884847-59.87235-1.256862-80.210667h-2.856506c-9.483597 0-17.139031-7.655434-17.139031-17.139032s7.655434-17.139031 17.139031-17.139031h64.099978c9.483597 0 17.139031 7.655434 17.139032 17.139031s-7.655434 17.139031-17.139032 17.139032h-2.742245c34.278063 44.561482 79.296586 66.842223 122.943986 88.437402 40.905155 20.109797 79.296586 39.076992 102.148627 74.383397z" fill="#7EC21B" /><path d="M744.460381 1002.29056c-24.794466 0-50.274492-5.59875-76.0973-16.796251-25.822807 11.197501-51.302834 16.796251-76.097299 16.796251-8.226735 0-16.56773-0.685561-24.565946-1.828163-35.192145-5.48449-69.584468-22.623522-102.034367-51.074314-29.250614-25.594287-55.987503-59.98661-77.468422-99.520643-27.07967-49.817451-44.790002-105.119393-50.960054-159.735773-6.855613-59.64383 0.571301-115.745593 21.36666-162.135238 5.25597-11.768802 54.50212-115.974113 149.795135-137.683552 10.169159-2.285204 19.652756-3.427806 29.136353-3.427807 17.938853 0 32.79268 4.113368 48.560589 8.455256 20.338317 5.59875 43.41888 11.997322 82.381611 11.997322s62.043294-6.398572 82.495872-11.997322c15.767909-4.341888 30.507476-8.455256 48.560589-8.455256 9.483597 0 18.967195 1.142602 29.136354 3.427807 95.407275 21.8237 144.539165 125.914751 149.795135 137.683552 20.795358 46.389645 28.222272 102.491408 21.366659 162.135238-6.284312 54.73064-23.880384 109.918322-50.960054 159.735773-21.480919 39.534033-48.217809 73.926356-77.468422 99.520643-32.4499 28.450792-66.842223 45.704084-102.034367 51.074314-8.340995 1.256862-16.681991 1.828163-24.908726 1.828163z" fill="#25467A" /><path d="M957.441412 537.251506c-3.199286-7.198393-48.78911-105.233653-134.027226-124.772149-52.445436-11.997322-68.556126 17.481812-154.936845 17.481812s-102.491408-29.479134-154.936844-17.481812C428.07386 431.903593 382.598297 530.053113 379.399011 537.251506c-72.669493 162.249498 47.760768 418.306628 191.842892 440.587369 37.705869 5.827271 71.869672-5.141709 97.235438-17.481812 25.365767 12.340103 59.415309 23.309083 97.235439 17.481812C909.566384 955.558134 1030.110905 699.501004 957.441412 537.251506z" fill="#8C1616" /><path d="M765.59852 977.838875c-37.705869 5.827271-71.869672-5.141709-97.235439-17.481812-25.365767 12.340103-59.529569 23.309083-97.235438 17.481812-67.299264-10.397679-129.456818-71.869672-169.105111-150.823477 57.472886 30.964517 125.000669 48.90337 197.327383 48.90337 189.214907 0 346.208436-122.601205 375.116268-283.1368 29.250614 159.392993-80.324927 365.17563-208.867663 385.056907z" fill="#801414" /><path d="M487.260649 984.694488c-27.879491 0-56.787324-6.512832-85.923678-19.195715-29.136353 12.797143-58.044187 19.195715-85.923678 19.195715-9.140817 0-18.395894-0.685561-27.30819-2.056684-39.191252-6.055791-77.468422-25.251506-113.688909-57.015845-32.67842-28.679313-62.728855-67.299264-86.837759-111.517964-30.393216-55.987503-50.274492-117.916536-57.244365-179.274269-7.655434-66.842223 0.571301-129.685338 23.880384-181.559474 5.941531-13.139924 60.900692-129.571078 167.162687-153.794242 11.197501-2.513725 21.8237-3.770587 32.221379-3.770587 19.881277 0 36.449007 4.570408 54.045079 9.369337 23.194823 6.398572 49.474671 13.596965 93.807632 13.596965 44.447222 0 70.72707-7.198393 93.921893-13.596965 17.596072-4.798929 34.163803-9.369337 54.045079-9.369337 10.397679 0 20.909618 1.256862 32.221379 3.770587 45.361303 10.397679 86.837759 38.505691 123.172506 83.638473 26.851149 33.363981 41.362196 64.328498 43.990181 70.270029 23.309083 51.874135 31.535818 114.717251 23.880384 181.559474-7.084133 61.357733-26.851149 123.401027-57.244365 179.274269-24.108904 44.332961-54.045079 82.838652-86.83776 111.517965-36.220486 31.764338-74.497657 50.960054-113.688908 57.015844-9.369337 1.256862-18.510154 1.942424-27.650971 1.942424z" fill="#25467A" /><path d="M727.66413 462.411069c-3.656327-8.112475-55.073421-118.830618-151.394778-140.882839-59.301049-13.596965-77.354162 19.767016-174.932381 19.767017S285.591379 308.045526 226.29033 321.52823C129.968973 343.580451 78.551878 454.412854 75.009812 462.411069-7.143279 645.684445 128.940631 934.877036 291.532909 960.014283c42.619058 6.627092 81.124749-5.827271 109.804062-19.767017 28.679313 13.939746 67.185003 26.279848 109.804062 19.767017 162.592279-25.137246 298.676188-314.329837 216.523097-497.603214z" fill="#C71E1E" /><path d="M511.141033 960.014283c-42.619058 6.627092-81.124749-5.71301-109.804062-19.652757-28.679313 13.939746-67.185003 26.279848-109.804062 19.652757-75.98304-11.768802-146.138808-81.124749-191.04307-170.361973 64.899799 34.963624 141.225619 55.187681 222.807409 55.187681 213.666592 0 390.884178-138.369114 423.562597-319.700067 33.135461 179.95983-90.722607 412.365097-235.718812 434.874359z" fill="#BA1C1C" /><path d="M401.336971 685.332738c-35.306405 0-63.985717-28.679313-63.985717-63.985717 0-7.084133 5.71301-12.797143 12.797143-12.797144s12.797143 5.71301 12.797144 12.797144c0 21.252399 17.253292 38.39143 38.39143 38.39143s38.39143-17.139031 38.39143-38.39143c0-7.084133 5.71301-12.797143 12.797144-12.797144s12.797143 5.71301 12.797143 12.797144c0 35.306405-28.679313 63.985717-63.985717 63.985717z" fill="#25467A" /><path d="M273.365536 518.969873m-38.39143 0a38.39143 38.39143 0 1 0 76.782861 0 38.39143 38.39143 0 1 0-76.782861 0Z" fill="#25467A" /><path d="M529.308406 518.969873m-38.391431 0a38.39143 38.39143 0 1 0 76.782861 0 38.39143 38.39143 0 1 0-76.782861 0Z" fill="#25467A" /><path d="M222.176962 582.95559h-51.188574c-14.168266 0-25.594287 11.426021-25.594287 25.594287s11.426021 25.594287 25.594287 25.594287h51.188574c14.168266 0 25.594287-11.426021 25.594287-25.594287 0-14.054006-11.426021-25.594287-25.594287-25.594287zM631.685554 582.95559H580.49698c-14.168266 0-25.594287 11.426021-25.594287 25.594287s11.426021 25.594287 25.594287 25.594287h51.188574c14.168266 0 25.594287-11.426021 25.594287-25.594287S645.73956 582.95559 631.685554 582.95559z" fill="#E67878" /></svg>