<?xml version="1.0" standalone="no"?><!DOCTYPE svg PUBLIC "-//W3C//DTD SVG 1.1//EN" "http://www.w3.org/Graphics/SVG/1.1/DTD/svg11.dtd"><svg class="icon" width="128px" height="128.00px" viewBox="0 0 1024 1024" version="1.1" xmlns="http://www.w3.org/2000/svg"><path d="M512 0a38.4 38.4 0 0 0-38.4 38.4V192h76.8V38.4A38.4 38.4 0 0 0 512 0z" fill="#25467A" /><path d="M512 1024C215.325714 1024 0 824.822857 0 550.4 0 270.48 224.902857 51.2 512 51.2s512 219.28 512 499.2C1024 824.822857 808.674286 1024 512 1024z" fill="#25467A" /><path d="M972.8 550.4c0 254.468571-206.331429 422.4-460.8 422.4S51.2 804.868571 51.2 550.4c0-219.268571 153.142857-393.211429 358.4-437.12 12.674286-2.811429 25.6-5.12 38.651429-6.788571a498.674286 498.674286 0 0 1 127.497142 0c13.051429 1.668571 25.977143 3.977143 38.651429 6.788571 205.314286 43.908571 358.4 217.851429 358.4 437.12z" fill="#FFAA00" /><path d="M972.8 550.4c0 254.468571-206.331429 422.4-460.8 422.4-211.074286 0-388.994286-115.588571-443.52-300.16A516.171429 516.171429 0 0 0 416 806.4c262.651429 0 479.611429-195.2 513.668571-448.514286 27.645714 57.725714 43.131429 122.88 43.131429 192.514286z" fill="#F5AA00" /><path d="M230.4 640m-25.6 0a25.6 25.6 0 1 0 51.2 0 25.6 25.6 0 1 0-51.2 0Z" fill="#EAA014" /><path d="M179.2 716.8m-25.6 0a25.6 25.6 0 1 0 51.2 0 25.6 25.6 0 1 0-51.2 0Z" fill="#EAA014" /><path d="M281.6 716.8m-25.6 0a25.6 25.6 0 1 0 51.2 0 25.6 25.6 0 1 0-51.2 0Z" fill="#EAA014" /><path d="M806.4 640m-25.6 0a25.6 25.6 0 1 0 51.2 0 25.6 25.6 0 1 0-51.2 0Z" fill="#EAA014" /><path d="M755.2 716.8m-25.6 0a25.6 25.6 0 1 0 51.2 0 25.6 25.6 0 1 0-51.2 0Z" fill="#EAA014" /><path d="M857.6 716.8m-25.6 0a25.6 25.6 0 1 0 51.2 0 25.6 25.6 0 1 0-51.2 0Z" fill="#EAA014" /><path d="M512 550.4a64.068571 64.068571 0 0 1-64-64 12.8 12.8 0 1 1 25.6 0 38.4 38.4 0 0 0 76.8 0 12.8 12.8 0 1 1 25.6 0 64.068571 64.068571 0 0 1-64 64z" fill="#25467A" /><path d="M384 384m-38.4 0a38.4 38.4 0 1 0 76.8 0 38.4 38.4 0 1 0-76.8 0Z" fill="#25467A" /><path d="M640 384m-38.4 0a38.4 38.4 0 1 0 76.8 0 38.4 38.4 0 1 0-76.8 0Z" fill="#25467A" /><path d="M332.8 448h-51.2a25.6 25.6 0 1 0 0 51.2h51.2a25.6 25.6 0 1 0 0-51.2zM742.4 448h-51.2a25.6 25.6 0 1 0 0 51.2h51.2a25.6 25.6 0 0 0 0-51.2z" fill="#FFD191" /><path d="M614.4 113.28v1.92c0 42.365714-45.828571 76.8-102.4 76.8s-102.4-34.434286-102.4-76.8v-1.92c12.674286-2.811429 25.6-5.12 38.651429-6.788571a498.674286 498.674286 0 0 1 127.497142 0c13.051429 1.668571 25.977143 3.977143 38.651429 6.788571z" fill="#00AA5E" /></svg>