<?xml version="1.0" standalone="no"?><!DOCTYPE svg PUBLIC "-//W3C//DTD SVG 1.1//EN" "http://www.w3.org/Graphics/SVG/1.1/DTD/svg11.dtd"><svg class="icon" width="128px" height="128.00px" viewBox="0 0 1024 1024" version="1.1" xmlns="http://www.w3.org/2000/svg"><path d="M511.999994 1024C345.817139 1024 0 1024 0 678.400004c0-45.577142 5.965714-94.617142 17.76-145.954284-0.525714-2.571429-0.948571-5.188571-1.28-7.805714-3.234286-26.285714 3.988571-49.851428 18.182857-65.394285q-0.251429-3.6-0.262857-7.245715c0-26.354285 9.965714-48.799999 25.862856-62.502856 1.611429-22.445714 10.594286-41.531428 24.24-53.999999 2.388571-23.862857 13.211428-43.68 29.062857-55.36 3.428571-27.234285 17.885714-48.914285 38.205714-58.697142 5.462857-17.931428 16.925714-32 32.491428-39.44 5.44-16.137143 15.497143-29.017143 28.571428-36.719999 6-17.52 18.205714-30.96 34.902857-37.451428 8-18.285714 22.857143-31.474285 42.285714-35.702857A60.285714 60.285714 0 0 1 323.634282 50.285725 58.994285 58.994285 0 0 1 358.857139 31.737154a58.205714 58.205714 0 0 1 33.371428-13.965714 58.617142 58.617142 0 0 1 51.279999-10.08 308.799997 308.799997 0 0 1 136.982856 0 58.617142 58.617142 0 0 1 51.28 10.08A58.205714 58.205714 0 0 1 665.14285 31.737154 58.994285 58.994285 0 0 1 700.365706 50.285725a60.217142 60.217142 0 0 1 33.6 21.828571c19.371428 4.194286 34.285714 17.348571 42.285714 35.702857 16.685714 6.468571 28.88 19.897143 34.891428 37.382857 13.097143 7.691428 23.177143 20.571428 28.571428 36.765714 15.565714 7.394286 27.028571 21.508571 32.491429 39.462856 20.32 9.782857 34.811428 31.462857 38.205713 58.697143 15.851428 11.68 26.674285 31.497143 29.062857 55.359999 13.645714 12.468571 22.628571 31.554285 24.24 53.999999 15.897143 13.714286 25.862857 36.148571 25.862857 62.502857 0 2.422857-0.091429 4.845714-0.262857 7.245714 14.194286 15.542857 21.417143 39.12 18.182857 65.371428-0.32 2.628571-0.754286 5.257143-1.28 7.828571C1018.034274 583.782862 1023.999989 632.822862 1023.999989 678.400004 1023.999989 1024 678.18285 1024 511.999994 1024z" fill="#25467A" /><path d="M953.279989 531.097148a46.377142 46.377142 0 0 0 3.428572-12.731428c1.725714-14.034286-2.571429-26.114285-9.588572-26.971428a7.337143 7.337143 0 0 0-4.491428 1.062857q-3.565714-11.782857-7.485714-23.542857a42.514285 42.514285 0 0 0 3.257143-16.914286c0-14.137143-5.714286-25.6-12.8-25.599999a7.794286 7.794286 0 0 0-5.165715 2.217143q-4.217143-10.754286-8.754285-21.417143a47.999999 47.999999 0 0 0 1.142857-10.4c0-14.137143-5.714286-25.6-12.8-25.6a7.245714 7.245714 0 0 0-3.874286 1.325715c-2.697143-5.714286-5.508571-11.302857-8.342857-16.925715a48.422857 48.422857 0 0 0 1.017143-9.999999c0-14.137143-5.714286-25.6-12.8-25.6a8.217143 8.217143 0 0 0-5.645714 2.72c-3.725714-6.651428-7.577143-13.234286-11.428571-19.76a47.999999 47.999999 0 0 0 1.142857-10.388571c0-14.137143-5.714286-25.6-12.8-25.6-2.868571 0-5.485714 1.954286-7.622857 5.142857q-7.382857-11.2-15.131428-22c0.971429-11.748571-2.525714-21.371428-8.628572-22.491428a8.491428 8.491428 0 0 0-6.548571 2.034286q-8-10.354286-16.217143-20.285714c-0.297143-11.371428-4.571429-20.24-10.582857-20.788572a8.068571 8.068571 0 0 0-5.714285 2.022858q-6.422857-7.142857-13.017143-14.034286c1.268571-10.902857-1.508571-19.908571-7.222857-21.371428-3.177143-0.811429-6.662857 0.902857-9.851429 4.251428-5.085714-4.868571-10.182857-9.702857-15.394285-14.308571 1.142857-12-2.354286-21.92-8.56-23.062857-3.725714-0.674286-7.645714 2.011429-10.891429 6.731429-4.034286-3.2-8.16-6.16-12.251428-9.2-1.348571-11.234286-6.377143-19.611428-12.411428-19.611429-2.96 0-5.657143 2.102857-7.828572 5.485715-3.428571-2.285714-6.857143-4.571429-10.285714-6.674286-1.851429-9.588571-6.48-16.411428-11.92-16.411428-2.88 0-5.508571 1.977143-7.645714 5.177142-3.702857-1.965714-7.462857-3.668571-11.2-5.497142-2.182857-7.874286-6.331429-13.28-11.154285-13.28-2.788571 0-5.348571 1.84-7.451429 4.868571-4.331429-1.794286-8.662857-3.622857-13.04-5.211428-2.285714-7.005714-6.217143-11.657143-10.708571-11.657143-3.017143 0-5.714286 2.171429-8 5.714285a262.308569 262.308569 0 0 0-152.114284 0c-2.194286-3.497143-4.925714-5.714286-7.942857-5.714285-4.491429 0-8.434286 4.651429-10.708571 11.657143-4.377143 1.588571-8.708571 3.428571-13.04 5.211428-2.102857-3.028571-4.662857-4.868571-7.451429-4.868571-4.822857 0-8.971428 5.405714-11.154285 13.28-3.737143 1.828571-7.497143 3.531429-11.2 5.497142-2.137143-3.2-4.765714-5.177143-7.645714-5.177142-5.44 0-10.068571 6.857143-11.92 16.411428-3.428571 2.114286-6.857143 4.434286-10.285714 6.674286-2.171429-3.428571-4.868571-5.485714-7.828572-5.485715-6.034286 0-11.062857 8.377143-12.411428 19.611429-4.091429 3.04-8.217143 6-12.251429 9.2-3.245714-4.72-7.165714-7.405714-10.891428-6.731429-6.205714 1.142857-9.68 11.062857-8.56 23.062857-5.211429 4.571429-10.285714 9.44-15.394286 14.308571-3.188571-3.348571-6.674286-5.062857-9.851428-4.251428-5.714286 1.462857-8.491428 10.468571-7.222857 21.371428q-6.605714 6.857143-13.017143 14.034286a8.068571 8.068571 0 0 0-5.714285-2.022858c-6.022857 0.548571-10.285714 9.417143-10.582857 20.788572q-8.24 9.942857-16.217143 20.285714a8.491428 8.491428 0 0 0-6.548571-2.034286c-6.102857 1.142857-9.6 10.742857-8.628572 22.491428q-7.737143 10.822857-15.131428 22c-2.137143-3.188571-4.754286-5.142857-7.622857-5.142857-7.074286 0-12.8 11.428571-12.8 25.6a47.999999 47.999999 0 0 0 1.142857 10.388571c-3.897143 6.525714-7.748571 13.108571-11.428571 19.76a8.217143 8.217143 0 0 0-5.588572-2.72c-7.074286 0-12.8 11.428571-12.8 25.6a48.422857 48.422857 0 0 0 1.017143 9.999999c-2.834286 5.622857-5.645714 11.245714-8.342857 16.925715a7.245714 7.245714 0 0 0-3.874285-1.325715c-7.074286 0-12.8 11.428571-12.8 25.6a47.999999 47.999999 0 0 0 1.142857 10.4q-4.571429 10.674286-8.754286 21.417143a7.794286 7.794286 0 0 0-5.165714-2.217143c-7.074286 0-12.8 11.428571-12.8 25.599999a42.514285 42.514285 0 0 0 3.257143 16.914286q-3.942857 11.782857-7.485714 23.542857a7.337143 7.337143 0 0 0-4.491429-1.062857c-7.017143 0.857143-11.314286 12.937143-9.588571 26.971428a46.377142 46.377142 0 0 0 3.428571 12.731428c-12.64 51.039999-19.52 101.119999-19.519999 147.302856 0 254.468569 206.331426 294.399997 460.799994 294.399997s460.799995-39.931428 460.799995-294.399997c-0.022857-46.182857-6.902857-96.262856-19.542857-147.302856z" fill="#FCFCFC" /><path d="M511.999994 550.400005a64.068571 64.068571 0 0 1-63.999999-63.999999 12.8 12.8 0 1 1 25.6 0 38.4 38.4 0 0 0 76.799999 0 12.8 12.8 0 1 1 25.6 0 64.068571 64.068571 0 0 1-64 63.999999z" fill="#25467A" /><path d="M383.999996 384.000007m-38.4 0a38.4 38.4 0 1 0 76.799999 0 38.4 38.4 0 1 0-76.799999 0Z" fill="#25467A" /><path d="M639.999993 384.000007m-38.4 0a38.4 38.4 0 1 0 76.799999 0 38.4 38.4 0 1 0-76.799999 0Z" fill="#25467A" /><path d="M332.799996 448.000006h-51.199999a25.6 25.6 0 1 0 0 51.2h51.199999a25.6 25.6 0 1 0 0-51.2zM742.399992 448.000006h-51.2a25.6 25.6 0 1 0 0 51.2h51.2a25.6 25.6 0 0 0 0-51.2z" fill="#FCCEC7" /><path d="M202.843153 642.067786a25.6 12.8 62.53 1 0 22.713663-11.808874 25.6 12.8 62.53 1 0-22.713663 11.808874Z" fill="#F3F3F3" /><path d="M158.661609 691.154296a25.6 12.8 62.53 1 0 22.713663-11.808873 25.6 12.8 62.53 1 0-22.713663 11.808873Z" fill="#F3F3F3" /><path d="M282.712499 693.84755a12.8 25.6 2.49 1 0 2.224385-51.151658 12.8 25.6 2.49 1 0-2.224385 51.151658Z" fill="#F3F3F3" /><path d="M798.051175 658.98666a12.8 25.6 27.47 1 0 23.617746-45.427326 12.8 25.6 27.47 1 0-23.617746 45.427326Z" fill="#F3F3F3" /><path d="M842.235516 708.083963a12.8 25.6 27.47 1 0 23.617747-45.427327 12.8 25.6 27.47 1 0-23.617747 45.427327Z" fill="#F3F3F3" /><path d="M727.430719 668.772066a25.6 12.8 87.51 1 0 25.575829-1.112193 25.6 12.8 87.51 1 0-25.575829 1.112193Z" fill="#F3F3F3" /><path d="M767.999991 870.400002v76.799999c-73.211428 20.091428-161.279998 25.6-255.999997 25.6s-182.788569-5.508571-255.999997-25.6v-76.799999c0-70.399999 57.599999-127.999999 127.999999-127.999999h255.999997c70.399999 0 127.999999 57.599999 127.999998 127.999999z" fill="#2A2626" /></svg>