<?xml version="1.0" standalone="no"?><!DOCTYPE svg PUBLIC "-//W3C//DTD SVG 1.1//EN" "http://www.w3.org/Graphics/SVG/1.1/DTD/svg11.dtd"><svg class="icon" width="128px" height="128.00px" viewBox="0 0 1024 1024" version="1.1" xmlns="http://www.w3.org/2000/svg"><path d="M649.714286 177.485714c-11.314286 0-21.714286-1.714286-29.257143-3.542857-19.885714-4.571429-36.8-22.285714-45.828572-47.771428-20.685714 11.428571-36.228571 22.514286-39.771428 25.714285-9.028571 9.828571-24.228571 10.971429-34.514286 2.4-10.742857-8.8-12.228571-24.685714-3.314286-35.428571 8.114286-9.714286 37.942857-28.114286 54.857143-37.485714 6.171429-3.428571 12.228571-6.514286 17.942857-9.371429 2.285714-12.114286 7.428571-23.771429 16.228572-33.257143C625.828571-3.657143 680.114286-5.371429 714.514286 6.057143c13.142857 4.342857 20.342857 18.628571 15.885714 31.771428-4.342857 13.142857-18.628571 20.342857-31.771429 15.885715-13.028571-4.342857-30.742857-5.485714-48.114285 0.914285 18.285714 1.942857 36.457143 7.2 49.371428 21.257143 10.628571 11.771429 15.542857 27.428571 14.4 46.857143-1.371429 22.628571-12.457143 35.542857-21.485714 42.285714-12.8 9.6-28.685714 12.457143-43.085714 12.457143zM535.657143 150.857143z m96.228571-25.828572c15.085714 3.428571 27.085714 2.4 30.742857-0.342857 1.028571-0.8 1.371429-3.771429 1.371429-5.028571 0.342857-5.942857-0.571429-9.028571-1.371429-10.057143-1.142857-1.142857-6.4-5.142857-29.942857-5.942857-2.628571-0.114286-6.628571 0.457143-12 1.942857 3.314286 11.542857 8.8 18.285714 11.2 19.428571z" fill="#25467A" /><path d="M512 1024C223.657143 1024 14.4 825.371429 14.4 551.657143 14.4 272.571429 233.028571 53.828571 512 53.828571s497.6 218.742857 497.6 497.828572C1009.6 825.371429 800.342857 1024 512 1024z" fill="#25467A" /><path d="M959.885714 551.657143c0 253.828571-200.457143 421.371429-447.885714 421.371428S64.114286 805.485714 64.114286 551.657143s200.457143-446.857143 447.885714-446.857143 447.885714 193.028571 447.885714 446.857143z" fill="#C0F274" /><path d="M959.885714 551.657143c0 253.828571-200.457143 421.371429-447.885714 421.371428-205.142857 0-378.057143-115.314286-431.085714-299.314285 92.571429 86.057143 212.914286 133.6 337.714285 133.371428 255.2 0 466.171429-194.742857 499.2-447.314285 26.971429 57.485714 42.057143 122.4 42.057143 191.885714z" fill="#B6E66E" /><path d="M959.542857 551.2v-3.542857c-6.971429-0.685714-14.171429-1.828571-21.6-2.971429-2.857143-22.057143-7.885714-45.142857-14.171428-69.028571 10.4 2.4 20.571429 4.342857 30.514285 5.371428-1.257143-8.342857-2.742857-16.457143-4.457143-24.571428-10.742857-1.6-21.828571-4.114286-33.485714-7.2-6.971429-24-14.857143-48.571429-23.085714-73.6 12.342857 4.571429 24.342857 8.342857 36 11.085714-3.657143-9.485714-7.657143-18.857143-11.885714-27.885714-10.742857-3.314286-21.828571-7.542857-33.6-12.342857-8.457143-25.828571-16.685714-51.771429-24-77.714286-0.228571-0.685714-0.457143-1.485714-0.685715-2.285714-10.057143-12.342857-20.914286-24.114286-32.228571-35.2-4.914286-4.8-9.828571-9.485714-14.971429-14.057143-13.371429-6.971429-27.2-13.942857-41.6-20.8-0.685714-4.457143-1.371429-8.914286-1.942857-13.371429-7.885714-5.371429-16-10.628571-24.342857-15.542857 0.685714 5.942857 1.371429 11.885714 2.057143 17.942857-16.114286-7.085714-33.028571-13.714286-50.628572-19.771428-0.457143-5.942857-0.914286-11.885714-1.257142-17.828572-0.114286-2.057143-0.228571-3.885714-0.342858-5.828571-7.428571-3.2-14.857143-6.171429-22.514285-9.028572 0.114286 5.371429 0.342857 10.857143 0.685714 16.342858 0.114286 3.085714 0.342857 6.057143 0.571429 9.028571-15.542857-4.685714-31.657143-8.685714-48.571429-12.114286-0.342857-9.6-0.571429-18.971429-0.571429-28.228571-7.314286-1.828571-14.628571-3.428571-22.171428-4.914286 0 9.828571 0.114286 19.428571 0.457143 29.142857-15.428571-2.4-31.314286-4.228571-47.885715-5.142857-0.228571-10.171429-0.457143-20.571429-0.571428-30.857143-7.314286-0.571429-14.742857-1.142857-22.171429-1.485714 0.114286 10.514286 0.228571 21.028571 0.457143 31.428571-2.285714 0-4.685714-0.114286-6.971428-0.114285-13.828571-0.114286-27.542857 0.114286-40.914286 0.457143-0.342857-10.285714-0.685714-20.685714-1.028572-31.314286-7.428571 0.457143-14.857143 1.028571-22.171428 1.942857 0.342857 10.285714 0.685714 20.457143 0.914286 30.285714-16.342857 0.914286-32.228571 2.285714-47.771429 3.885715-0.342857-8.8-0.8-17.714286-1.257143-26.514286-7.314286 1.6-14.628571 3.314286-21.828571 5.371428 0.457143 8.114286 0.8 16.114286 1.142857 24-16.342857 2.285714-32.228571 5.142857-47.657143 8.457143-0.228571-5.485714-0.571429-10.971429-0.914286-16.685714-7.314286 2.857143-14.514286 5.942857-21.714285 9.142857 0.228571 4.228571 0.457143 8.342857 0.571428 12.571429-16.228571 4.114286-32 8.685714-47.314286 14.057143-2.057143 0.685714-4.342857 1.485714-6.4 2.285714l-15.657142 10.4c-17.6 12.228571-34.057143 25.6-49.485715 40.114286-3.771429 3.542857-7.542857 7.2-11.2 10.857142-5.257143 5.257143-10.171429 10.514286-15.2 16-2.857143 15.2-6.628571 29.485714-10.971428 43.314286-13.942857 8.114286-27.085714 16.571429-39.428572 25.142857-9.142857 15.2-17.257143 31.085714-24.457143 47.428572 15.771429-12.685714 32.685714-25.142857 51.085715-37.142857-7.314286 18.057143-15.2 35.2-23.085715 52.342857-1.142857 2.4-2.171429 4.914286-3.314285 7.314285-15.657143 10.171429-30.4 20.571429-44.228572 31.2-3.542857 12.114286-6.514286 24.342857-9.142857 36.8 11.314286-9.142857 23.085714-18.4 35.542857-27.428571-6.857143 17.028571-13.142857 34.628571-17.485714 52.914286-8.571429 5.828571-16.8 11.771429-24.685714 17.828571-1.142857 10.285714-1.942857 20.685714-2.171429 31.085714 6.857143-5.371429 13.828571-10.742857 21.257143-16.114285-1.485714 13.257143-1.942857 26.971429-1.028571 41.485714-6.857143 4.571429-13.6 9.142857-20.114286 13.828571 0.342857 9.142857 1.028571 18.4 1.942857 27.314286 6.742857-5.028571 13.828571-9.942857 20.914286-14.857143 1.942857 13.028571 4.457143 25.485714 7.657143 37.6-7.885714 4.685714-15.542857 9.6-23.085715 14.4 1.6 8.228571 3.428571 16.457143 5.485715 24.457143 8-5.371429 16.228571-10.628571 24.685714-15.657143 4.342857 12.685714 9.371429 24.914286 14.857143 36.8-9.828571 4.914286-19.2 10.057143-28.571429 15.314286 2.628571 7.542857 5.6 14.971429 8.685714 22.057143 9.942857-5.714286 20.228571-11.314286 30.628572-16.457143 7.085714 13.028571 14.857143 25.485714 23.085714 37.371429-12.342857 4.8-24.342857 9.942857-36.114286 15.542857 3.771429 6.971429 7.885714 13.714286 12.114286 20.457143 11.314286-5.257143 22.742857-10.171429 34.514286-14.514286 1.371429-0.457143 2.628571-0.914286 4-1.485714 10.857143 14.171429 22.4 27.657143 34.171428 40.457142-15.2 3.314286-30.4 7.771429-45.714285 13.028572 5.485714 6.742857 10.971429 13.142857 16.914285 19.428571 16.228571-5.142857 32.342857-9.142857 48.228572-12.114285 17.257143 17.6 34.628571 33.942857 51.314286 49.485714-18.514286-0.114286-37.028571 1.142857-55.085715 3.885714 9.142857 7.314286 18.628571 14.171429 28.457143 20.8 18.285714-1.257143 36.228571-1.142857 53.714286 0.571429 18.4 17.485714 35.085714 33.942857 48 49.828571 11.542857 4.114286 23.428571 7.657143 35.428571 10.742857-10.057143-17.828571-25.257143-35.314286-43.314285-53.714285 5.142857 1.142857 10.285714 2.628571 15.428571 4.228571 16.8 18.514286 31.428571 36 41.6 53.028571 9.371429 2.171429 18.742857 4.114286 28.342857 5.714286-5.942857-13.942857-14.857143-27.771429-25.6-41.828571 6.857143 3.2 13.714286 6.742857 20.457143 10.4 7.885714 11.542857 14.514286 22.857143 19.428571 33.714285 8.342857 1.142857 16.8 2.171429 25.257143 2.971429-1.142857-3.542857-2.514286-7.085714-4-10.628571 3.085714 2.285714 6.171429 4.685714 9.371429 7.085714 1.942857 1.6 4 2.971429 5.942857 4.571428 1.028571 0.114286 2.057143 0.114286 3.085714 0.228572 7.771429 0.457143 15.657143 0.8 23.542857 1.028571 3.885714 0.114286 7.771429 0.114286 11.657143 0.114286h2.971429c0-0.114286-0.114286-0.228571-0.114286-0.457143-6.171429-4.342857-12.571429-8.685714-18.742857-13.257143-8.457143-23.657143-22.742857-47.2-38.742857-73.714285-5.6-9.028571-11.2-18.628571-17.028572-28.457143 11.2 6.057143 22.4 12.914286 33.485715 20.342857 1.942857 1.257143 3.771429 2.628571 5.828571 3.771428 3.771429 9.142857 7.542857 18.057143 11.2 26.628572 10.285714 24.114286 19.2 44.685714 24 64.457143 0.228571 0.114286 0.457143 0.228571 0.685714 0.457143l21.942858-0.571429c-4.685714-23.085714-14.171429-45.828571-24.457143-69.714286 9.257143 5.485714 18.514286 10.857143 27.885714 16.114286 0.228571 0.8 0.457143 1.828571 0.685714 2.628571 4.457143 18.171429 8.571429 34.4 10.857143 50.171429 7.428571-0.571429 14.742857-1.257143 22.057143-2.171429-1.828571-12.228571-4.342857-24.228571-7.314286-36.685714 7.085714 3.542857 14.171429 7.085714 21.371429 10.4 0.114286 1.714286 0.228571 3.314286 0.342857 5.028572 0.457143 6.514286 0.914286 12.914286 1.257143 19.085714 7.428571-1.028571 14.742857-2.4 21.942857-3.771429-0.228571-3.314286-0.457143-6.514286-0.685714-9.942857 5.257143 2.285714 10.514286 4.571429 15.885714 6.742857 0.571429-0.114286 1.142857-0.228571 1.828571-0.342857 7.657143-1.828571 15.314286-3.657143 22.742858-5.828571 4.8-1.257143 9.485714-2.742857 14.057142-4.228572-4.457143-1.6-8.8-3.2-13.142857-4.914285 2.285714-20.8 6.285714-42.971429 12.914286-69.6 10.057143 3.657143 20.342857 7.2 30.514286 10.514285-10.742857 23.2-19.085714 43.085714-24.571429 62.057143 9.028571-2.971429 17.942857-6.171429 26.628572-9.828571 5.028571-13.828571 11.542857-28.8 19.542857-45.485715 8.571429 2.628571 17.028571 5.028571 25.6 7.428572-6.4 9.028571-12.342857 17.828571-17.6 26.171428 13.142857-6.285714 25.828571-13.142857 38.171428-20.685714 2.057143-1.257143 4.342857-2.628571 6.4-3.885714 7.085714-4.457143 13.942857-9.028571 20.8-13.942857-2.971429-0.685714-5.942857-1.485714-8.914285-2.171429 0.914286-1.028571 1.714286-2.285714 2.514285-3.314286 12.685714-16.914286 26.857143-36.228571 42.285715-58.285714 9.828571 2.171429 19.314286 4.228571 28.914285 6.057143 6.057143-6.857143 12-13.714286 17.714286-20.914286-10.514286-1.942857-21.257143-4.114286-32-6.285714 12.457143-18.514286 25.6-38.857143 39.2-61.371429 7.085714 1.485714 13.942857 2.857143 20.914286 4.114286 4 0.685714 7.885714 1.257143 11.771428 2.057143 3.771429-7.314286 7.428571-14.857143 10.742857-22.4-6.171429-0.914286-12.457143-1.942857-18.857142-3.085714-3.885714-0.685714-7.657143-1.485714-11.657143-2.171429 9.714286-16.571429 19.542857-34.4 29.485714-53.257143 1.485714-2.628571 2.742857-5.371429 4-8.114285 6.4 1.028571 12.8 2.057143 19.085714 2.742857 1.942857-7.657143 3.657143-15.542857 5.257143-23.428572-5.485714-0.571429-10.857143-1.485714-16.457143-2.285714 5.371429-20.342857 6.628571-42.285714 5.371429-65.714286 6.285714 1.028571 12.571429 1.828571 18.742857 2.4 0.114286-7.085714 0.342857-13.714286 0.342857-20.685714z m-60.8-82.4c6.857143 24.571429 12.457143 48.457143 16 70.971429-22.057143-5.257143-45.371429-12.571429-69.942857-21.142858-3.2-24.114286-8.457143-49.257143-14.514286-75.085714 24.114286 9.828571 46.857143 18.628571 68.457143 25.257143z m-32.571428-104.114286c0.914286 2.857143 1.942857 5.714286 2.742857 8.571429 7.542857 23.085714 14.971429 45.714286 21.714285 67.885714-21.142857-7.2-43.542857-16.228571-67.657142-26.285714-4.685714-17.942857-9.6-36-14.514286-54.4-2.285714-8.457143-4.571429-16.914286-6.857143-25.6 3.542857 1.714286 6.971429 3.2 10.4 4.914286 19.085714 9.142857 37.142857 17.485714 54.171429 24.914285z m-292.914286 82.628572c22.857143 6.742857 45.028571 13.714286 66.285714 20.914285 2.285714 25.828571 3.428571 50.742857 2.742857 74.628572-22.057143-7.885714-45.142857-16.114286-68.914285-24.228572 1.028571-23.085714 0.8-46.857143-0.114286-71.314285z m67.657143 120.228571c-1.828571 20.228571-5.142857 39.428571-10.514286 57.6-1.142857 3.657143-2.171429 7.428571-3.2 10.971429-21.142857-8-42.4-16.342857-64.114286-24.8 4.571429-22.057143 7.428571-44.685714 9.142857-67.885715 23.771429 8 46.742857 16.114286 68.685715 24.114286z m0.685714 99.314286c20.342857 7.657143 40.342857 14.971429 60 21.828571-8.685714 24-16.342857 45.828571-23.2 65.942857-17.6-6.285714-35.428571-13.142857-53.371429-20.342857 4.342857-20.571429 9.942857-42.971429 16.571429-67.428571z m20.914286-190.742857c23.771429 8.342857 46.628571 16.914286 68.685714 25.257143 2.857143 26.171429 4 51.085714 2.285714 74.4-13.6-4.914286-27.314286-9.942857-41.485714-15.085715-9.142857-3.314286-18.285714-6.742857-27.771429-10.171428 1.142857-23.771429 0.228571-48.571429-1.714285-74.4z m-2.4-25.942857c-2.628571-25.142857-6.057143-50.857143-9.828572-77.142858 21.828571 7.085714 42.742857 14.628571 62.857143 22.4 5.714286 27.085714 10.742857 53.6 14.514286 79.314286-21.6-8.114286-44-16.457143-67.542857-24.571428z m-8.457143 182.171428c5.485714-18.171429 9.028571-37.257143 10.971428-57.028571 7.542857 2.742857 15.085714 5.485714 22.4 8.114285 15.542857 5.6 30.742857 11.085714 45.6 16.457143-2.057143 12.228571-5.142857 23.771429-9.257142 34.742857-4.114286 10.971429-8 21.485714-11.771429 31.657143-20.228571-7.085714-40.8-14.514286-61.6-22.4 1.257143-3.771429 2.4-7.542857 3.657143-11.542857z m71.2 63.657143c19.542857 6.742857 38.628571 12.914286 57.371428 18.628571-11.085714 23.314286-21.371429 44.342857-30.971428 63.542858-16.342857-4.914286-32.914286-10.4-49.714286-16.114286 6.857143-20.114286 14.514286-42.057143 23.314286-66.057143z m8.114286-22.285714c3.542857-9.714286 7.314286-19.657143 11.085714-30.057143 4.342857-11.542857 7.542857-23.657143 9.828571-36 22.742857 8.114286 44.914286 15.657143 66.171429 22.285714-1.6 5.028571-3.428571 9.828571-5.6 14.4-7.657143 17.028571-15.085714 33.142857-22.171429 48.457143-19.2-5.714286-39.085714-12.228571-59.314285-19.085714z m6.857142-268.457143c18.742857 7.542857 36.914286 15.2 54.514286 22.514286 4.114286 1.828571 8.228571 3.428571 12.228572 5.142857 6.628571 26.628571 12.457143 52.457143 16.457142 77.142857-17.828571-6.514286-36.457143-13.6-55.428571-20.914286-4.685714-1.828571-9.485714-3.542857-14.057143-5.371428-3.542857-25.485714-8.342857-51.771429-13.714286-78.514286z m17.371429 178.285714c2.057143-23.314286 1.6-47.771429-0.8-73.257143 1.257143 0.457143 2.4 0.914286 3.657143 1.485715 22.971429 8.685714 45.142857 17.142857 66.4 24.8 2.514286 25.028571 2.628571 48.685714-0.914286 70.171428-21.828571-6.971429-44.685714-14.857143-68.342857-23.2z m69.485714-333.142857c2.742857 1.485714 5.485714 2.857143 8.114286 4.342857 6.971429 26.628571 15.2 53.257143 23.657143 79.771429-11.314286-5.142857-23.2-10.742857-35.542857-16.457143-8.8-4.228571-17.828571-8.342857-27.085715-12.685714-6.857143-26.742857-13.485714-53.6-18.514285-80.342858 17.257143 8.571429 33.714286 17.142857 49.371428 25.371429z m-49.485714 72.571429c3.885714 14.971429 7.885714 29.714286 12 44.457142 3.314286 12.457143 6.628571 24.685714 9.942857 36.914286-20.342857-8.457143-42.057143-17.6-65.142857-26.628571-1.714286-7.885714-3.314286-15.771429-5.028571-23.771429-4-18.628571-8-37.485714-11.771429-56.342857 21.257143 8 41.142857 16.685714 60 25.371429z m-24.8-109.6c4.685714 26.857143 10.628571 53.714286 17.371429 80.342857-18.171429-8.114286-37.485714-16.114286-57.714286-23.771429-4.914286-26.057143-9.142857-52-12.114286-78.171428 18.4 6.628571 35.885714 13.942857 52.457143 21.6z m-45.028571 145.714285c0.685714 2.971429 1.371429 5.942857 1.942857 8.914286-19.428571-7.314286-39.771429-14.285714-60.914286-21.028571-0.228571-1.714286-0.457143-3.428571-0.8-5.142858-3.428571-23.542857-6.971429-47.314286-10.171429-71.428571 19.2 5.257143 37.6 11.2 55.314286 17.6 4.685714 24 9.714286 47.657143 14.628572 71.085714zM674.742857 184c2.628571 25.942857 6.4 51.657143 10.971429 77.371429-17.142857-5.828571-34.971429-11.314286-53.485715-16.114286-2.857143-24.571429-5.485714-49.257143-6.971428-74.285714 17.257143 3.542857 33.714286 8 49.485714 13.028571z m-48.114286 181.828571c3.771429 26.057143 7.428571 51.542857 10.171429 76.571429-20.914286-6.971429-42.4-13.714286-64.8-20.114286-1.257143-23.314286-2.857143-47.314286-4.8-72 20.8 4.685714 40.457143 9.942857 59.428571 15.542857z m-3.771428-25.828571c-18.4-5.371429-37.6-10.285714-57.371429-14.514286-0.342857-3.885714-0.685714-8-1.028571-11.885714-1.6-19.2-3.085714-38.857143-4.571429-58.857143 18.057143 2.742857 35.542857 6.057143 52.342857 10.171429 3.314286 25.371429 6.971429 50.628571 10.628572 75.085714z m-20-173.371429c1.485714 24.571429 3.657143 48.914286 6.4 72.914286-16.457143-3.657143-33.485714-6.857143-50.971429-9.257143-1.485714-22.514286-2.742857-45.6-3.657143-69.257143 16.685714 1.142857 32.685714 3.085714 48.228572 5.6z m-53.371429 249.257143c-13.028571-3.428571-26.057143-6.857143-39.657143-10.057143-7.542857-1.828571-15.085714-3.428571-22.628571-4.914285 0.457143-21.028571 0.571429-42.628571 0.571429-64.8 7.771429 0.914286 15.771429 2.057143 23.771428 3.314285 11.2 1.828571 22.285714 3.657143 33.142857 5.828572 1.942857 24.457143 3.657143 47.885714 4.8 70.628571z m-7.2-100.342857c0.114286 1.828571 0.228571 3.428571 0.457143 5.257143-9.257143-1.828571-18.4-3.314286-27.885714-4.914286-9.142857-1.485714-18.171429-2.628571-27.085714-3.657143-0.228571-20.914286-0.571429-42.285714-1.028572-64.342857 10.285714 0.457143 20.8 1.028571 31.314286 1.942857 6.514286 0.457143 13.028571 1.142857 19.428571 1.942858 1.485714 21.714286 3.2 42.971429 4.8 63.771428zM524.457143 160c2.628571 0 5.257143 0.114286 7.885714 0.114286 0.914286 22.971429 2.057143 45.371429 3.428572 67.428571-5.371429-0.571429-10.628571-1.028571-16.114286-1.6-11.428571-0.914286-22.514286-1.6-33.6-2.057143-0.457143-20.571429-1.142857-41.828571-1.714286-63.542857 13.257143-0.228571 26.4-0.457143 40.114286-0.342857z m-37.828572 265.257143c6.057143 1.257143 12.342857 2.628571 18.514286 4.114286 15.542857 3.657143 30.742857 7.542857 45.485714 11.542857 1.028571 24.228571 1.371429 47.657143 0.685715 70.285714-15.2-5.142857-30.628571-10.171429-46.4-15.2-7.2-2.285714-14.285714-4.457143-21.6-6.285714 1.714286-21.028571 2.742857-42.514286 3.314285-64.457143z m-24.342857-263.885714c0.685714 21.257143 1.257143 41.828571 1.714286 61.828571-17.028571-0.228571-33.371429 0-49.142857 0.8 0.228571-19.428571 0.114286-39.085714-0.342857-58.742857 15.542857-1.6 31.428571-2.971429 47.771428-3.885714z m-47.885714 88.8c0-0.685714 0-1.485714 0.114286-2.057143 16.342857-0.914286 33.028571-1.142857 50.057143-0.914286 0.457143 21.485714 0.8 42.4 1.028571 62.628571-18.285714-1.714286-36.342857-2.514286-53.828571-2.514285 1.028571-18.4 1.942857-37.485714 2.628571-57.142857z m-4.571429 81.142857c17.828571 0 36.457143 0.8 55.885715 2.628571 0.114286 21.6-0.114286 42.628571-0.457143 63.2-20.685714-3.314286-41.028571-5.6-61.028572-6.742857 2.057143-19.2 3.885714-38.857143 5.6-59.085714z m-8.342857 82.971428c20.685714 0.914286 41.6 3.314286 63.085715 6.971429-0.685714 21.485714-1.6 42.514286-2.857143 63.085714-22.628571-5.257143-45.257143-8.914286-67.428572-10.971428 2.4-19.542857 4.914286-39.2 7.2-59.085715z m-84.114285 241.371429c12.685714 0.228571 25.485714 1.028571 38.171428 2.628571 0.8 20.342857 2.857143 40 6.4 59.314286-16.457143-3.085714-33.028571-5.142857-49.6-5.828571-1.942857-0.114286-4-0.228571-6.057143-0.228572-5.714286-17.257143-10.171429-35.771429-13.371428-55.428571 8.228571-0.457143 16.342857-0.571429 24.457143-0.457143z m-27.2-23.314286c-1.371429-14.285714-1.828571-29.371429-1.371429-45.028571 0.114286-3.2 0.228571-6.285714 0.342857-9.485715 11.428571-1.257143 22.857143-2.057143 34.171429-2.171428 11.885714-0.228571 24 0.114286 36 1.028571-0.685714 6.4-1.371429 13.028571-1.942857 19.542857-1.257143 12.914286-1.942857 25.6-2.057143 37.942858-22.285714-2.514286-44-2.971429-65.142857-1.828572z m71.771428-79.314286c-13.142857-1.028571-25.942857-1.485714-38.971428-1.142857-10.628571 0.228571-21.485714 0.8-32.228572 1.942857 1.714286-18.742857 4.228571-37.028571 7.428572-55.314285 23.314286-2.971429 46.857143-4.114286 70.742857-3.085715-2.4 19.314286-4.8 38.285714-6.971429 57.6z m-33.485714-81.371428c-8.571429 0.457143-17.142857 1.142857-25.6 2.171428 3.542857-18.057143 7.428571-36 11.428571-54.285714 0.114286-0.571429 0.228571-1.142857 0.342857-1.828571 21.142857-2.857143 42.628571-4.342857 64.685715-4.228572-2.285714 19.542857-4.8 38.857143-7.2 58.057143-14.857143-0.571429-29.371429-0.571429-43.657143 0.114286z m-32-75.2c-22.971429 3.885714-45.485714 9.6-67.885714 16.914286 1.257143-3.771429 2.514286-7.657143 3.771428-11.428572 4.8-14.514286 9.828571-29.485714 14.4-44.914286 19.085714-6.514286 39.314286-12.114286 60.914286-16.228571-3.428571 18.971429-7.314286 37.485714-11.2 55.657143z m-5.485714 25.257143c-4 18.628571-8 37.028571-11.428572 55.542857-25.028571 4.228571-49.828571 10.628571-74.285714 19.2 3.771429-18.514286 8.8-36.571429 14.285714-54.628572 23.314286-8.8 47.085714-15.542857 71.428572-20.114285z m-15.885715 80.342857c-2.857143 17.942857-5.371429 35.885714-6.742857 54.514286-23.542857 3.657143-46.971429 9.485714-70.285714 17.142857-0.457143-17.485714 0.571429-34.171429 2.628571-50.514286 24.571429-9.371429 49.257143-16.457143 74.4-21.142857z m-8.228571 78.857143c-0.114286 1.942857-0.114286 3.771429-0.228572 5.714285-0.457143 16.228571 0 32.114286 1.371429 47.771429-20.685714 2.4-40.8 6.4-60.228571 11.657143-3.771429-15.314286-6.628571-31.2-8.342858-47.885714 22.514286-7.657143 44.914286-13.485714 67.428572-17.257143z m4 77.142857c2.628571 18.285714 6.742857 36 12.114286 53.6-16.114286 0.571429-32.457143 2.285714-48.8 5.028571-7.542857-15.085714-14.171429-30.971429-19.657143-47.771428 18.742857-5.142857 37.6-8.685714 56.342857-10.857143z m20.114286 77.257143c4 10.628571 8.571429 21.257143 13.6 31.771428 4.228571 8.8 8.8 17.485714 13.371428 25.714286-3.542857-0.342857-7.085714-0.685714-10.742857-0.914286-8.571429-0.685714-17.142857-0.914286-25.714286-1.028571-12.457143-16.228571-24.457143-33.485714-35.2-51.885714 14.971429-2.285714 29.942857-3.428571 44.685715-3.657143z m24.342857 0.571428c17.485714 1.028571 34.857143 3.428571 52.228571 7.314286 2.742857 11.314286 6.057143 22.4 9.942857 33.6 3.885714 11.314286 8.114286 22.057143 12.685715 32.342857-14.285714-4.914286-28.8-8.685714-43.314286-11.657143-11.542857-18.971429-22.4-39.428571-31.542857-61.6z m70.514285-12.914285c-4-18.971429-6.628571-39.314286-7.771428-61.257143 21.028571 3.885714 42.057143 9.714286 63.085714 17.257143-0.8 21.828571-0.114286 43.085714 1.942857 63.771428-18.971429-8.114286-38.057143-14.742857-57.257143-19.771428z m56.8-68.571429c-22.057143-7.771429-43.771429-13.257143-65.028571-16.914286 0.114286-12.457143 0.8-25.485714 1.942857-38.857143 0.685714-6.514286 1.257143-13.142857 1.942857-19.542857 22.742857 2.971429 45.6 8 68.8 14.857143-0.571429 4.114286-1.257143 8-1.942857 11.885714-2.514286 16.571429-4.571429 32.8-5.714286 48.571429z m-58.514285-99.085714c2.171429-19.314286 4.685714-38.628571 7.085714-58.514286 22.514286 2.057143 45.371429 5.828571 68.8 11.428571-1.714286 20.914286-3.771429 41.6-6.4 61.828572-23.314286-6.742857-46.4-11.771429-69.485714-14.742857z m-39.314286-378.285715c15.428571-3.428571 31.314286-6.285714 47.771429-8.685714 0.457143 19.771429 0.571429 38.857143 0.228571 57.257143-17.142857 1.485714-33.6 3.428571-49.257143 6.057143 0.914286-17.371429 1.485714-35.657143 1.257143-54.628572z m-3.085714 79.314286c16.342857-2.857143 33.257143-5.142857 50.4-6.514286-0.571429 19.885714-1.6 39.314286-2.857143 58.057143-18.4 0.571429-36.571429 2.171429-54.285714 4.571429 2.742857-18.171429 5.142857-36.8 6.742857-56.114286z m45.828571 75.314286c-1.6 19.771429-3.542857 39.2-5.6 58.057143-21.028571-0.228571-41.6 0.914286-61.942857 3.314285 3.885714-18.171429 7.657143-36.914286 11.085714-56.228571 17.828571-2.628571 36.685714-4.457143 56.457143-5.142857z m-112.685714-134.628572c15.428571-5.6 31.314286-10.514286 47.885714-14.857142 0.114286 12.228571-0.114286 24.228571-0.685714 36.228571-0.228571 5.828571-0.571429 11.657143-0.914286 17.485714-17.6 3.542857-34.285714 8-50.057143 12.914286 2.057143-16.342857 3.314286-33.6 3.771429-51.771429z m-7.885714 78.171429c16.914286-5.6 34.171429-10.4 52.114285-14.285714-1.942857 19.085714-4.342857 37.371429-7.085714 55.085714-19.542857 3.428571-38.514286 8.114286-57.257143 13.828571 4.685714-17.485714 8.914286-35.657143 12.228572-54.628571z m-64.342858-45.6c8.914286-4.914286 18.171429-9.714286 28-14.171429 7.085714-3.314286 14.285714-6.4 21.6-9.6-0.114286 2.742857-0.228571 5.6-0.457142 8.342858-0.914286 14.857143-2.4 28.914286-4.457143 42.628571-19.314286 7.085714-37.257143 14.971429-54.057143 23.314286 4.228571-15.885714 7.428571-32.685714 9.371428-50.514286z m-18.742857 82.057143c11.657143-6.4 23.885714-12.685714 36.914286-18.514286 7.2-3.2 14.514286-6.285714 21.828571-9.142857-3.771429 18.971429-8.571429 36.914286-13.6 54.285714-9.028571 3.2-17.714286 6.857143-26.514285 10.628572-14.628571 6.4-28.571429 13.257143-41.828572 20.685714 8.342857-18.514286 16.342857-37.485714 23.2-57.942857z m-40.342857 95.085714c23.2-14.514286 48.571429-28.228571 76.571429-39.657143-2.857143 9.028571-5.942857 18.057143-8.8 26.857143-3.2 9.828571-6.4 19.428571-9.6 29.142857-2.971429 1.142857-6.057143 2.4-9.142857 3.657143-26.171429 11.085714-50.4 24-72.914286 37.828572 6.857143-19.542857 15.2-38.628571 23.885714-57.828572z m-32.8 91.657143c25.028571-16.8 52.342857-32.571429 82.285714-45.942857-4.914286 17.485714-9.257143 35.085714-12.342857 53.257143-26.628571 11.085714-51.542857 24.114286-74.628571 38.171428 0.114286-15.885714 1.714286-30.857143 4.685714-45.485714z m4.228572 111.771429c-3.2-12.8-5.6-26.057143-7.2-39.771429 21.6-13.6 44.685714-26.4 69.257142-37.485714-1.371429 14.171429-1.828571 28.8-1.371428 44 0 1.6 0.114286 3.085714 0.228571 4.685714-0.914286 0.342857-1.828571 0.685714-2.628571 1.028571-20.342857 8.228571-39.771429 17.485714-58.285714 27.542858z m6.742857 23.2c17.828571-9.942857 36.685714-19.085714 56.457143-27.085715 1.828571 15.657143 4.571429 31.085714 8.342857 46.171429-16.914286 5.6-33.371429 12.114286-49.257143 19.2-6.057143-12.114286-11.2-24.914286-15.542857-38.285714z m26.285714 59.428571c7.542857-3.314286 15.2-6.514286 22.971429-9.714286 7.314286-2.857143 14.514286-5.371429 21.828571-7.771428 5.028571 15.542857 11.085714 30.857143 18.285714 45.942857-12.685714 2.857143-25.485714 6.4-38.171428 10.628571-8.914286-12.457143-17.371429-25.485714-24.914286-39.085714z m40.114286 59.085714c11.428571-3.428571 22.857143-6.4 34.285714-8.8 2.742857 5.028571 5.714286 9.942857 8.685714 14.971429 7.085714 11.771429 14.742857 23.085714 22.514286 33.942857-9.142857 0.685714-18.285714 1.828571-27.657143 3.2-12.914286-13.714286-25.714286-28.114286-37.828571-43.314286zM306.285714 872.342857c-5.028571-4.685714-10.171429-9.6-15.428571-14.285714-14.171429-13.142857-29.028571-26.971429-43.771429-41.6 8.114286-0.8 16.114286-1.257143 24-1.6 17.371429 21.714286 35.428571 41.6 52.571429 60-5.828571-0.914286-11.542857-1.714286-17.371429-2.514286z m57.828572 12.571429c-5.714286-6.171429-11.428571-12.457143-17.371429-18.742857-14.742857-15.885714-30.285714-32.685714-45.6-50.742858 1.485714 0.114286 2.857143 0.228571 4.342857 0.342858 9.485714 0.685714 18.857143 1.942857 28.228572 3.542857 16.914286 26.285714 34.742857 49.6 51.428571 71.2 0.8 0.914286 1.6 2.057143 2.285714 2.971428-7.657143-3.314286-15.542857-6.057143-23.314285-8.571428z m93.485714 45.942857c-8.571429-5.714286-17.028571-11.085714-25.6-15.885714-9.028571-12.8-19.085714-25.942857-29.714286-39.885715-11.771429-15.314286-24.228571-31.314286-36.228571-48.571428 13.142857 3.657143 25.942857 8.114286 38.857143 13.485714 10.971429 21.257143 22.628571 40.342857 33.485714 58.285714 6.971429 11.428571 13.485714 22.171429 19.2 32.571429zM420.571429 820.914286c-10.742857-21.485714-20.685714-45.028571-28.228572-71.428572 18.171429 5.371429 36.342857 12.342857 54.171429 20.8 0.914286 5.714286 1.942857 11.428571 3.085714 17.028572 4.228571 20.685714 9.6 39.428571 15.542857 56.685714-14.514286-8.685714-29.485714-16.457143-44.571428-23.085714z m42.514285-133.257143c7.657143 3.2 15.314286 6.742857 22.857143 10.514286 12.228571 5.942857 24.457143 11.771429 36.685714 17.485714-2.285714 24.685714-3.085714 47.2-2.628571 67.657143-9.942857-5.371429-19.885714-10.971429-29.714286-16.685715-7.771429-4.571429-15.657143-8.8-23.542857-12.8-2.628571-20.228571-4.114286-42.057143-3.657143-66.171428z m33.828572 176.914286c-9.6-24-18.742857-50.628571-25.257143-81.371429 2.628571 1.485714 5.485714 2.971429 8.114286 4.571429 13.828571 8 27.771429 15.771429 41.6 23.085714 2.171429 28.8 6.628571 53.714286 11.657142 76.228571-12.114286-7.2-24.228571-14.742857-36.114285-22.514285z m28.685714-173.714286c-10.057143-4.685714-20.114286-9.6-30.285714-14.4-10.4-5.142857-20.8-9.714286-30.971429-13.828572 1.142857-16.571429 3.085714-34.171429 5.942857-52.685714 0.457143-2.971429 1.028571-5.942857 1.485715-9.028571 6.857143 2.4 13.828571 5.028571 20.685714 7.771428l44.571428 17.828572c-5.028571 22.971429-8.8 44.342857-11.428571 64.342857z m-25.371429-104.685714c-8.342857-3.314286-16.8-6.4-25.142857-9.257143 2.628571-20.8 4.914286-41.714286 6.628572-63.085715 5.714286 1.6 11.314286 3.314286 17.028571 5.142858 17.6 5.485714 34.628571 11.2 51.542857 16.8-1.485714 23.2-4.114286 45.485714-8.342857 67.085714-13.714286-5.485714-27.771429-11.085714-41.714286-16.685714z m86.4 329.485714c-9.142857-4.457143-18.171429-9.028571-27.2-13.942857-5.714286-23.314286-11.2-48.685714-14.514285-78.742857 13.942857 7.085714 28 13.6 42.057143 20.114285-1.714286 27.657143-1.371429 51.2-0.342858 72.571429z m2.4-97.714286c-15.428571-7.085714-30.857143-14.514286-46.285714-22.514286-1.028571-21.028571-0.8-44.228571 1.371429-69.942857 18.514286 8.342857 36.914286 16.342857 55.085714 23.885715-4.685714 25.371429-8 48-10.171429 68.571428z m-42.285714-117.257143c2.514286-20.457143 6.171429-42.285714 11.2-66.057143 21.142857 8.342857 41.942857 16.457143 62.628572 24.228572-6.628571 24.114286-12.114286 46.171429-16.571429 66.742857-18.857143-7.771429-37.942857-16.114286-57.257143-24.914286z m90.514286 198.057143c-2.628571 13.142857-4.685714 25.485714-6.057143 37.142857-7.314286-2.971429-14.514286-6.171429-21.714286-9.485714-1.371429-22.057143-2.171429-45.942857-0.914285-74.057143 11.885714 5.028571 23.885714 9.942857 35.885714 14.514286-2.742857 11.314286-5.142857 21.828571-7.2 31.885714z m13.257143-54.857143c-13.485714-5.257143-26.742857-10.742857-40.114286-16.457143 1.942857-20.685714 5.028571-43.542857 9.828571-69.6 17.142857 6.857143 33.942857 13.257143 50.628572 19.2-8.114286 24.914286-14.857143 46.971429-20.342857 66.857143z m55.885714 19.771429c-11.657143-3.771429-23.314286-7.771429-34.857143-11.885714 5.485714-19.771429 12.228571-41.942857 20.571429-67.2 15.657143 5.371429 31.2 10.514286 46.4 15.2-3.657143 7.428571-7.2 14.4-10.628572 21.257142-8 15.428571-15.085714 29.485714-21.485714 42.628572z m60.8 3.085714c-3.085714 4.228571-6.057143 8.228571-9.142857 12.228572-9.942857-2.628571-20-5.485714-29.942857-8.457143 5.942857-11.771429 12.228571-24.457143 19.085714-38.171429 4.228571-8.342857 8.571429-16.914286 13.142857-26.171428 14.4 4.228571 28.685714 8 42.628572 11.428571-12.8 18.4-24.8 34.628571-35.771429 49.142857z m50.514286-69.942857c-15.2-3.542857-30.628571-7.771429-46.4-12.228571 9.6-19.2 19.885714-40.342857 30.857143-63.542858 18.971429 5.485714 37.485714 10.4 55.314285 14.514286-13.942857 22.742857-27.314286 42.857143-39.771428 61.257143z m86.057143-142.628571c-11.314286 21.6-22.514286 41.6-33.6 60.228571-18.628571-4.228571-37.942857-9.257143-57.942858-14.971429 6.514286-14.057143 13.371429-28.914286 20.342858-44.571428 2.628571-5.942857 4.914286-11.885714 6.857142-18.285714 22.4 6.742857 44 12.457143 64.685715 16.8 0 0.228571-0.228571 0.457143-0.342857 0.8z m9.142857-23.314286c-21.6-4.457143-44.228571-10.4-67.885715-17.485714 3.771429-21.485714 4.342857-44.571429 2.4-68.8 24.457143 8.342857 47.885714 15.314286 70.057143 20.342857 2.171429 24 0.914286 46.057143-4.571428 65.942857z" fill="#F0F277" /><path d="M198.971429 853.028571c8.571429 7.885714 17.485714 15.428571 26.514285 22.514286-9.142857-6.971429-18.057143-14.514286-26.514285-22.514286zM512 970.514286c-2.285714 0-4.914286 0-7.2-0.114286-0.457143-0.114286-0.914286-0.114286-1.371429-0.114286 2.857143 0.114286 5.714286 0.228571 8.571429 0.228572z" fill="#C3E897" /><path d="M512 970.514286c-2.285714 0-4.914286 0-7.2-0.114286-0.457143-0.114286-0.914286-0.114286-1.371429-0.114286 2.857143 0.114286 5.714286 0.228571 8.571429 0.228572z" fill="#C3E897" /><path d="M512 970.514286c-2.285714 0-4.914286 0-7.2-0.114286-0.457143-0.114286-0.914286-0.114286-1.371429-0.114286 2.857143 0.114286 5.714286 0.228571 8.571429 0.228572z" fill="#C3E897" /><path d="M512 550.4c-35.314286 0-64-28.685714-64-64 0-7.085714 5.714286-12.8 12.8-12.8s12.8 5.714286 12.8 12.8c0 21.257143 17.257143 38.4 38.4 38.4s38.4-17.142857 38.4-38.4c0-7.085714 5.714286-12.8 12.8-12.8s12.8 5.714286 12.8 12.8c0 35.314286-28.685714 64-64 64z" fill="#25467A" /><path d="M384 384m-38.4 0a38.4 38.4 0 1 0 76.8 0 38.4 38.4 0 1 0-76.8 0Z" fill="#25467A" /><path d="M640 384m-38.4 0a38.4 38.4 0 1 0 76.8 0 38.4 38.4 0 1 0-76.8 0Z" fill="#25467A" /><path d="M332.8 448h-51.2c-14.171429 0-25.6 11.428571-25.6 25.6s11.428571 25.6 25.6 25.6h51.2c14.171429 0 25.6-11.428571 25.6-25.6s-11.428571-25.6-25.6-25.6zM742.4 448h-51.2c-14.171429 0-25.6 11.428571-25.6 25.6s11.428571 25.6 25.6 25.6h51.2c14.171429 0 25.6-11.428571 25.6-25.6S756.571429 448 742.4 448z" fill="#95D13C" /></svg>