<?xml version="1.0" standalone="no"?><!DOCTYPE svg PUBLIC "-//W3C//DTD SVG 1.1//EN" "http://www.w3.org/Graphics/SVG/1.1/DTD/svg11.dtd"><svg class="icon" width="128px" height="128.00px" viewBox="0 0 1024 1024" version="1.1" xmlns="http://www.w3.org/2000/svg"><path d="M512 1024c-115.428571 0-175.097143-43.428571-181.52-48.411429l-4.708571-3.622857-3.748572-4.571428c-13.554286-16.651429-24.914286-50.057143-6.662857-90.662857C165.805714 786.091429 0 648.982857 0 486.4 0 218.205714 229.714286 0 512 0s512 218.205714 512 486.4c0 162.582857-165.817143 299.691429-315.268571 390.171429 18.342857 40.731429 6.857143 74.285714-6.857143 90.937142l-3.725715 4.571429-4.662857 3.588571C687.074286 980.628571 627.428571 1024 512 1024z" fill="#25467A" /><path d="M512 780.8a825.794286 825.794286 0 0 1 85.428571 50.765714c95.84 65.817143 64.857143 103.542857 64.857143 103.542857s-48.994286 37.714286-150.251428 37.714286-150.262857-37.714286-150.262857-37.714286S330.765714 897.142857 427.714286 830.857143A827.12 827.12 0 0 1 512 780.8z" fill="#F3F3F3" /><path d="M512 947.2c-72.308571 0-115.234286-20.857143-129.497143-29.2 0-8.994286 10.285714-32.297143 59.634286-66.045714A770.56 770.56 0 0 1 512 809.76a768.777143 768.777143 0 0 1 70.937143 42.914286c48.708571 33.44 58.662857 56.48 58.64 65.36-14.034286 8.194286-57.017143 29.165714-129.577143 29.165714z" fill="#FBEAAE" /><path d="M512 921.6c-43.428571 0-74.971429-8.16-94.708571-15.577143 6.937143-7.897143 18.88-18.982857 39.302857-32.937143 16.96-11.6 35.542857-23.051429 55.371428-34.137143 20.32 11.348571 39.268571 23.028571 56.457143 34.834286C588.308571 887.428571 600 898.285714 606.857143 906.034286c-19.771429 7.405714-51.36 15.565714-94.857143 15.565714z" fill="#B3901F" /><path d="M972.8 486.4c0 240.354286-460.8 435.2-460.8 435.2S51.2 726.754286 51.2 486.4 257.508571 51.2 512 51.2s460.8 194.845714 460.8 435.2z" fill="#FBF9F3" /><path d="M541.954286 940.48zM512 926.857143c-40.217143-19.074286-115.2-57.142857-188.948571-107.771429C197.28 732.674286 128 646.354286 128 576c0-197.622857 172.262857-358.4 384-358.4S896 378.377143 896 576c0 70.742857-69.942857 157.508571-196.948571 244.331429C625.577143 870.56 551.794286 907.988571 512 926.857143z" fill="#FBF5DD" /><path d="M512 921.142857c-40.148571-19.942857-100.64-52.331429-160-93.062857-160.331429-110.171429-172.8-181.611429-172.8-200.88C179.2 457.805714 328.491429 320 512 320s332.8 137.805714 332.8 307.2c0 19.428571-12.571429 91.291429-174.64 202.057143C611.165714 869.6 551.588571 901.485714 512 921.142857z" fill="#FBEAAE" /><path d="M512 909.874286a1186.491429 1186.491429 0 0 1-109.257143-66.08c-111.2-76.388571-131.154286-122.788571-133.942857-131.005715C270.411429 595.325714 378.891429 499.2 512 499.2c132.674286 0 240.88 95.542857 243.165714 213.771429-2.994286 8.605714-23.52 55.325714-135.565714 131.92A1189.28 1189.28 0 0 1 512 909.874286z" fill="#D9B536" /><path d="M512 903.017143q-19.257143-11.908571-36.788571-24c-34.285714-23.531429-56.262857-42.217143-69.931429-55.405714 17.394286-32.228571 59.428571-55.657143 106.708571-55.657143 46.96 0 88.811429 23.554286 106.4 56-13.885714 13.337143-36.228571 32.251429-71.04 56q-16.891429 11.622857-35.348571 23.062857z" fill="#B3901F" /><path d="M512 550.4a64.068571 64.068571 0 0 1-64-64 12.8 12.8 0 1 1 25.6 0 38.4 38.4 0 0 0 76.8 0 12.8 12.8 0 1 1 25.6 0 64.068571 64.068571 0 0 1-64 64z" fill="#25467A" /><path d="M384 384m-38.4 0a38.4 38.4 0 1 0 76.8 0 38.4 38.4 0 1 0-76.8 0Z" fill="#25467A" /><path d="M640 384m-38.4 0a38.4 38.4 0 1 0 76.8 0 38.4 38.4 0 1 0-76.8 0Z" fill="#25467A" /><path d="M332.8 448h-51.2a25.6 25.6 0 1 0 0 51.2h51.2a25.6 25.6 0 1 0 0-51.2zM742.4 448h-51.2a25.6 25.6 0 1 0 0 51.2h51.2a25.6 25.6 0 0 0 0-51.2z" fill="#FAAD96" /></svg>