<?xml version="1.0" standalone="no"?><!DOCTYPE svg PUBLIC "-//W3C//DTD SVG 1.1//EN" "http://www.w3.org/Graphics/SVG/1.1/DTD/svg11.dtd"><svg class="icon" width="128px" height="128.00px" viewBox="0 0 1024 1024" version="1.1" xmlns="http://www.w3.org/2000/svg"><path d="M565.6 944.342857c104.457143 104.457143 273.942857 104.457143 378.514286 0 104.457143-104.457143 104.457143-273.942857 0-378.514286-104.457143-104.457143-273.942857-104.457143-378.4 0-104.685714 104.571429-104.571429 274.057143-0.114286 378.514286z m0 0" fill="#25467A" /><path d="M86.628571 951.885714c-25.485714-23.428571-59.428571-62.857143-76.342857-118.285714-17.485714-57.142857-11.771429-117.6 16.342857-174.971429C124.571429 459.2 435.085714 181.371429 528 101.028571c57.714286-49.942857 114.514286-81.714286 169.028571-94.057142 29.942857-6.857143 59.542857-8 87.885715-3.428572 20.114286 3.314286 39.428571 9.485714 58.057143 18.514286 6.971429-1.6 14.171429-2.285714 21.485714-2.057143 20.914286 0.571429 40.8 8.685714 56.114286 22.742857 15.428571 14.057143 25.142857 33.142857 27.542857 53.942857 0.8 7.2 0.685714 14.514286-0.228572 21.6 10.628571 17.828571 18.514286 36.571429 23.542857 56.228572 7.085714 27.771429 8.457143 57.257143 4.228572 87.885714C967.885714 317.714286 941.257143 377.142857 896.457143 438.857143c-72.228571 99.314286-322.285714 432.571429-512.457143 547.428571-54.628571 32.914286-114.4 43.771429-172.914286 31.314286-56.685714-12-99.085714-42.285714-124.457143-65.714286z m0 0" fill="#25467A" /><path d="M833.485714 137.371429c-14.4-13.142857-15.314286-35.657143-2.171428-50.057143l4.457143-4.914286c13.142857-14.4 35.657143-15.314286 50.057142-2.171429 14.4 13.142857 15.314286 35.657143 2.171429 50.057143l-4.457143 4.914286c-13.142857 14.4-35.771429 15.428571-50.057143 2.171429z" fill="#D4E157" /><path d="M854.742857 408.685714c88.114286-121.485714 98.514286-229.485714 12.8-308.228571C781.714286 21.714286 674.971429 41.6 561.485714 139.771429 413.142857 268.228571 156.114286 511.314286 72.571429 681.142857 22.514286 783.2 70.857143 868 121.142857 914.171429c50.285714 46.057143 139.085714 87.085714 236.228572 28.342857 162.285714-97.828571 382.171429-374.971429 497.371428-533.828572z" fill="#689F38" /><path d="M854.742857 408.685714c-115.2 158.857143-335.085714 436-497.257143 533.714286-97.257143 58.742857-185.942857 17.828571-236.228571-28.342857-13.028571-11.885714-25.828571-26.4-36.8-42.971429 50.857143 44.685714 138.628571 81.371429 236.571428 20.685715C488.342857 788.228571 718.514286 500 839.314286 334.857143c43.885714-59.885714 69.828571-116.342857 75.885714-167.542857 27.542857 68.8 4.685714 151.314286-60.457143 241.371428z" fill="#5F9133" /><path d="M344 817.828571c5.942857 5.485714 14.514286 7.2 22.514286 4.571429 7.885714-2.628571 14.057143-9.257143 16-17.371429 1.942857-8.114286-0.571429-16.457143-6.514286-21.942857-5.942857-5.485714-14.514286-7.2-22.514286-4.571428-7.885714 2.628571-14.057143 9.257143-16 17.371428-1.942857 8.114286 0.571429 16.457143 6.514286 21.942857zM389.942857 748.914286c5.942857 5.485714 14.514286 7.2 22.514286 4.571428 7.885714-2.628571 14.057143-9.257143 16-17.371428 1.942857-8.114286-0.571429-16.457143-6.514286-21.942857-5.942857-5.485714-14.514286-7.2-22.514286-4.571429-7.885714 2.628571-14.057143 9.257143-16 17.371429-1.942857 8.114286 0.457143 16.457143 6.514286 21.942857zM435.771429 817.828571c5.942857 5.485714 14.514286 7.2 22.514285 4.571429 7.885714-2.628571 14.057143-9.257143 16-17.371429 1.942857-8.114286-0.571429-16.457143-6.514285-21.942857-5.942857-5.485714-14.514286-7.2-22.514286-4.571428-7.885714 2.628571-14.057143 9.257143-16 17.371428-1.942857 8.114286 0.571429 16.457143 6.514286 21.942857zM785.828571 92c-5.942857-5.485714-14.514286-7.2-22.514285-4.571429-7.885714 2.628571-14.057143 9.257143-16 17.371429-1.942857 8.114286 0.571429 16.457143 6.514285 21.942857 5.942857 5.485714 14.514286 7.2 22.514286 4.571429 7.885714-2.628571 14.057143-9.257143 16-17.371429 1.942857-8-0.457143-16.457143-6.514286-21.942857zM740 160.914286c-5.942857-5.485714-14.514286-7.2-22.514286-4.571429-7.885714 2.628571-14.057143 9.257143-16 17.371429-1.942857 8.114286 0.571429 16.457143 6.514286 21.942857 5.942857 5.485714 14.514286 7.2 22.514286 4.571428 7.885714-2.628571 14.057143-9.257143 16-17.371428 1.942857-8-0.571429-16.457143-6.514286-21.942857zM694.057143 92c-5.942857-5.485714-14.514286-7.2-22.514286-4.571429-7.885714 2.628571-14.057143 9.257143-16 17.371429-1.942857 8.114286 0.571429 16.457143 6.514286 21.942857 5.942857 5.485714 14.514286 7.2 22.514286 4.571429 7.885714-2.628571 14.057143-9.257143 16-17.371429 2.057143-8-0.457143-16.457143-6.514286-21.942857zM773.028571 285.942857c5.942857 5.485714 14.514286 7.2 22.514286 4.571429 7.885714-2.628571 14.057143-9.257143 16-17.371429 1.942857-8.114286-0.571429-16.457143-6.514286-21.942857-5.942857-5.485714-14.514286-7.2-22.514285-4.571429-7.885714 2.628571-14.057143 9.257143-16 17.371429-1.942857 8.114286 0.457143 16.457143 6.514285 21.942857zM818.857143 217.028571c5.942857 5.485714 14.514286 7.2 22.514286 4.571429 7.885714-2.628571 14.057143-9.257143 16-17.371429 1.942857-8.114286-0.571429-16.457143-6.514286-21.942857-5.942857-5.485714-14.514286-7.2-22.514286-4.571428-7.885714 2.628571-14.057143 9.257143-16 17.371428-1.942857 8.114286 0.571429 16.457143 6.514286 21.942857zM864.8 285.942857c5.942857 5.485714 14.514286 7.2 22.514286 4.571429 7.885714-2.628571 14.057143-9.257143 16-17.371429 1.942857-8.114286-0.571429-16.457143-6.514286-21.942857-5.942857-5.485714-14.514286-7.2-22.514286-4.571429-7.885714 2.628571-14.057143 9.257143-16 17.371429-1.942857 8.114286 0.457143 16.457143 6.514286 21.942857zM76.914286 792.914286c5.942857 5.485714 14.514286 7.2 22.514285 4.571428 7.885714-2.628571 14.057143-9.257143 16-17.371428 1.942857-8.114286-0.571429-16.457143-6.514285-21.942857-5.942857-5.485714-14.514286-7.2-22.514286-4.571429-7.885714 2.628571-14.057143 9.257143-16 17.371429-1.942857 8.114286 0.457143 16.457143 6.514286 21.942857zM122.742857 724c5.942857 5.485714 14.514286 7.2 22.514286 4.571429 7.885714-2.628571 14.057143-9.257143 16-17.371429 1.942857-8.114286-0.571429-16.457143-6.514286-21.942857-5.942857-5.485714-14.514286-7.2-22.514286-4.571429-7.885714 2.628571-14.057143 9.257143-16 17.371429-1.942857 8.114286 0.571429 16.457143 6.514286 21.942857zM168.685714 792.914286c5.942857 5.485714 14.514286 7.2 22.514286 4.571428 7.885714-2.628571 14.057143-9.257143 16-17.371428 1.942857-8.114286-0.571429-16.457143-6.514286-21.942857-5.942857-5.485714-14.514286-7.2-22.514285-4.571429-7.885714 2.628571-14.057143 9.257143-16 17.371429-1.942857 8.114286 0.457143 16.457143 6.514285 21.942857z" fill="#558B2F" /><path d="M502.4 556c-35.2 0-63.885714-28.685714-63.885714-63.885714 0-7.085714 5.714286-12.8 12.8-12.8 7.085714 0 12.8 5.714286 12.8 12.8 0 21.257143 17.142857 38.285714 38.285714 38.285714 21.257143 0 38.285714-17.142857 38.285714-38.285714 0-7.085714 5.714286-12.8 12.8-12.8s12.8 5.714286 12.8 12.8c0 35.2-28.571429 63.657143-63.885714 63.885714zM336.342857 389.828571c0 21.142857 17.142857 38.285714 38.285714 38.285715s38.285714-17.142857 38.285715-38.285715-17.142857-38.285714-38.285715-38.285714-38.285714 17.142857-38.285714 38.285714zM591.885714 389.828571c0 21.142857 17.142857 38.285714 38.285715 38.285715s38.285714-17.142857 38.285714-38.285715-17.142857-38.285714-38.285714-38.285714-38.285714 17.142857-38.285715 38.285714z" fill="#25467A" /><path d="M323.542857 453.714286h-51.085714c-14.171429 0-25.6 11.428571-25.6 25.6 0 14.171429 11.428571 25.6 25.6 25.6h51.085714c14.171429 0 25.6-11.428571 25.6-25.6 0-14.171429-11.428571-25.6-25.6-25.6z m408.8 0h-51.085714c-14.171429 0-25.6 11.428571-25.6 25.6 0 14.171429 11.428571 25.6 25.6 25.6h51.085714c14.171429 0 25.6-11.428571 25.6-25.6 0-14.171429-11.314286-25.6-25.6-25.6 0.114286 0 0.114286 0 0 0z" fill="#9CCC65" /><path d="M584.914286 925.028571c60.685714 60.685714 149.142857 84.342857 232 62.171429S964.571429 900.228571 986.742857 817.371429c22.171429-82.857143-1.485714-171.314286-62.171428-232-60.685714-60.685714-149.142857-84.342857-232-62.171429s-147.657143 86.971429-169.828572 169.828571c-22.171429 82.857143 1.485714 171.314286 62.171429 232z" fill="#25467A" /><path d="M601.142857 908.914286c84.914286 84.914286 222.514286 84.914286 307.428572 0 84.914286-84.914286 84.914286-222.514286 0-307.428572-84.914286-84.914286-222.514286-84.914286-307.428572 0-84.914286 84.8-84.914286 222.514286 0 307.428572z" fill="#689F38" /><path d="M555.2 755.085714c0 71.314286 38.057143 137.257143 99.771429 172.914286 61.714286 35.657143 137.828571 35.657143 199.657142 0 61.714286-35.657143 99.771429-101.6 99.771429-172.914286 0-71.314286-38.057143-137.257143-99.771429-172.914285s-137.828571-35.657143-199.657142 0c-61.714286 35.657143-99.771429 101.6-99.771429 172.914285z" fill="#E6EE9C" /><path d="M697.6 640.914286c0 4.571429 11.542857 8.685714 30.285714 10.971428s41.828571 2.285714 60.571429 0 30.285714-6.4 30.285714-10.971428-11.542857-8.685714-30.285714-10.971429-41.828571-2.285714-60.571429 0-30.285714 6.514286-30.285714 10.971429zM707.771429 713.6c16.685714 21.257143 35.657143 34.171429 42.514285 28.914286 6.857143-5.371429-1.142857-26.971429-17.714285-48.228572-16.685714-21.257143-35.657143-34.171429-42.514286-28.914285-6.857143 5.371429 1.142857 26.971429 17.714286 48.228571zM764.685714 742.514286c4.457143 3.428571 14.285714-0.685714 25.828572-10.857143 11.542857-10.171429 22.971429-24.914286 30.171428-38.514286 7.085714-13.714286 8.8-24.228571 4.342857-27.657143-4.457143-3.428571-14.285714 0.685714-25.828571 10.857143-11.542857 10.171429-22.971429 24.914286-30.171429 38.514286-7.085714 13.714286-8.8 24.228571-4.342857 27.657143zM636.342857 831.771429c10.857143 18.742857 22.857143 34.857143 31.771429 42.285714 8.8 7.428571 13.028571 5.028571 10.971428-6.285714-2.057143-11.314286-9.942857-29.828571-20.8-48.571429s-22.857143-34.857143-31.771428-42.285714c-8.8-7.428571-13.028571-5.028571-10.971429 6.285714 2.057143 11.314286 9.942857 29.828571 20.8 48.571429zM702.514286 872.114286c5.257143 2.057143 13.485714-4.571429 21.828571-17.6 8.228571-13.028571 15.314286-30.285714 18.285714-45.371429 3.085714-15.085714 1.714286-25.714286-3.428571-27.771428-5.257143-2.057143-13.485714 4.571429-21.828571 17.6-8.228571 13.028571-15.314286 30.285714-18.285715 45.371428-3.085714 15.085714-1.714286 25.714286 3.428572 27.771429zM681.371429 777.714286c17.257143 2.4 33.714286 1.714286 43.085714-1.942857 9.371429-3.657143 10.171429-9.6 2.171428-15.542858-8-6.057143-23.542857-11.314286-40.914285-13.714285-17.371429-2.4-33.714286-1.714286-43.085715 1.942857-9.371429 3.657143-10.171429 9.6-2.171428 15.542857 8 6.057143 23.542857 11.314286 40.914286 13.714286zM832.114286 881.6c3.885714 2.285714 13.257143-5.6 24.685714-20.685714 11.314286-15.085714 22.857143-35.085714 30.285714-52.457143s9.6-29.485714 5.6-31.657143c-3.885714-2.285714-13.257143 5.6-24.685714 20.685714-11.314286 15.085714-22.857143 35.085714-30.285714 52.457143-7.314286 17.371429-9.485714 29.371429-5.6 31.657143zM778.514286 771.542857c0.8 5.6 10.742857 9.371429 26.171428 10.057143 15.428571 0.685714 33.828571-1.942857 48.457143-6.857143 14.628571-4.914286 23.085714-11.314286 22.285714-16.914286-0.8-5.6-10.742857-9.371429-26.171428-10.057142-15.428571-0.685714-33.828571 1.942857-48.457143 6.857142-14.628571 4.914286-23.085714 11.428571-22.285714 16.914286zM775.085714 835.314286c10.171429 25.028571 24.914286 42.742857 32.914286 39.428571 8.114286-3.314286 6.4-26.171429-3.771429-51.314286-10.171429-25.028571-24.914286-42.742857-32.914285-39.428571-8.114286 3.314286-6.4 26.171429 3.771428 51.314286z" fill="#F0F4C3" /></svg>