<?xml version="1.0" standalone="no"?><!DOCTYPE svg PUBLIC "-//W3C//DTD SVG 1.1//EN" "http://www.w3.org/Graphics/SVG/1.1/DTD/svg11.dtd"><svg class="icon" width="128px" height="128.00px" viewBox="0 0 1024 1024" version="1.1" xmlns="http://www.w3.org/2000/svg"><path d="M967.007977 291.428571c-29.12-29.885714-64.605714-45.577143-99.428571-53.794285 4.32-3.074286 8.64-5.942857 12.788571-8.548572 14.617143-9.211429 48.857143-30.777143 39.931429-71.474285-7.257143-33.44-41.805714-55.051429-88-55.051429a128.388571 128.388571 0 0 0-35.84 5.017143 110.64 110.64 0 0 0-20.182857-22.422857c-20.445714-17.291429-47.828571-26.8-77.085715-26.8-46.251429 0-80.822857 21.611429-88.137143 55.337143-8.56 40.548571 25.474286 62.022857 40 71.177142 12.937143 8.171429 27.611429 17.428571 37.954286 34.697143a86.411429 86.411429 0 0 1 5.222857 10.502857c-48.765714 3.371429-107.051429 16.342857-150.857143 61.325715-39.611429 40.662857-58.72 98.914286-56.8 173.188571 1.668571 63.005714 14.354286 134.571429 36.571429 206.708572 2.445714 8.08 4.982857 16.137143 7.611429 23.862857 2.171429 6.537143 4.445714 12.96 6.64 18.902857 3.428571 9.474286 6.857143 18.834286 10.377142 27.222857 16.937143 43.188571 37.085714 83.817143 58.491429 117.862857l5.417143 8.422857a390.354286 390.354286 0 0 0 30.857143 40.697143c1.84 2.285714 3.542857 4.182857 5.005714 5.714286 34.628571 38.08 70.857143 57.382857 107.622857 57.382857 80.114286 0 142.468571-91.897143 180.845714-169.554286l0.651429-1.142857 0.674286-1.531428c7.017143-14.24 13.451429-28.571429 19.108571-42.434286l1.28-3.165714c39.714286-95.714286 63.817143-201.028571 66.148572-288.982858 1.862857-74.205714-17.245714-132.457143-56.868572-173.12z" fill="#25467A" /><path d="M623.54512 250c-44.48-42.617143-102.697143-60.8-157.371429-68.365714 17.622857-11.257143 48.48-33.142857 39.92-72.777143-7.554286-34.925714-44.571429-57.497143-94.228571-57.497143a139.817143 139.817143 0 0 0-45.154286 7.36 122.068571 122.068571 0 0 0-25.291428-29.657143C319.167977 10.285714 289.327977 0 257.373691 0c-49.691429 0-86.685714 22.582857-94.228571 57.508571-9.051429 41.851429 26 64 42.845714 74.628572 15.794286 9.965714 33.691429 21.268571 46.697143 42.994286 0.651429 1.085714 1.085714 2.228571 1.691429 3.325714-62.388571 4.891429-134.148571 21.177143-186.708572 71.542857C20.470834 295.222857-2.237737 359.36 0.173691 440.662857c2.285714 73.268571 19.257143 156.502857 49.04 240.285714 5.577143 16.217143 12.068571 33.142857 19.154286 49.954286 28 67.794286 62.171429 129.142857 98.96 177.68 16.114286 20.971429 31.6 38.445714 47.257143 53.291429C257.762263 1003.097143 301.842263 1024 345.602263 1024c104.114286 0 187.874286-120.628571 228.445714-192.4a742.494857 742.494857 0 0 0 26.285714-50.502857c54.502857-112.697143 87.554286-236.788571 90.674286-340.468572 2.445714-81.268571-20.262857-145.405714-67.462857-190.628571z" fill="#25467A" /><path d="M972.653691 449.645714c0.125714 4.342857 0.125714 8.96 0 13.565715-0.388571 12.285714-1.142857 24.834286-2.434285 37.634285-7.165714 76.411429-29.714286 160.377143-59.771429 233.142857l-1.542857 3.428572c-0.891429 2.182857-1.794286 4.48-2.811429 6.662857-4.742857 11.428571-9.862857 22.4-14.982857 33.017143a3.885714 3.885714 0 0 0-0.502857 1.028571c-2.948571 5.885714-5.897143 11.645714-8.834286 17.142857-39.04 73.725714-85.12 124.925714-126.72 124.925715-22.4 0-46.468571-14.982857-69.634285-40.582857-1.405714-1.405714-2.56-2.811429-3.965715-4.48a343.142857 343.142857 0 0 1-27.268571-36.091429c-1.657143-2.434286-3.2-4.994286-4.857143-7.428571-18.822857-30.08-36.742857-65.782857-52.102857-104.571429 10.114286-23.931429 19.2-48.251429 27.142857-72.571429 5.714286-17.142857 10.88-34.182857 15.36-51.2 15.222857-56.834286 24.182857-112.64 25.725714-163.2 1.794286-58.502857-10.285714-107.142857-35.714285-145.028571 46.331429-17.92 98.285714-14.594286 125.314285-14.594286 55.554286-0.022857 215.04-14.228571 217.6 169.2z" fill="#E67800" /><path d="M972.653691 449.645714c0.125714 4.342857 0.125714 8.96 0 13.565715-0.388571 12.285714-1.142857 24.834286-2.434285 37.634285H806.379406a25.6 25.6 0 1 1 0-51.2zM780.779406 628.845714a25.68 25.68 0 0 1-25.6 25.6H624.367977c5.714286-17.142857 10.88-34.182857 15.36-51.2h115.428572a25.68 25.68 0 0 1 25.622857 25.6zM906.093691 744c-4.742857 11.428571-9.862857 22.4-14.982857 33.017143a3.885714 3.885714 0 0 0-0.502857 1.028571c-2.948571 5.885714-5.897143 11.645714-8.834286 17.142857h-113.794285a25.6 25.6 0 0 1 0-51.2z" fill="#D97100" /><path d="M639.853691 439.268571c-3.074286 100.571429-36.571429 218.377143-84.228571 318.08-0.64 1.417143-1.28 2.697143-1.92 4.102858-7.554286 16.125714-15.737143 31.691429-24.194286 46.548571-0.251429 0.377143-0.377143 0.765714-0.64 1.142857-55.165714 97.462857-122.742857 167.085714-183.291428 167.085714-30.468571 0-62.857143-17.657143-94.331429-47.737142-1.794286-1.668571-3.428571-3.325714-5.257143-5.245715a413.028571 413.028571 0 0 1-36.982857-42.377143l-6.537143-8.868571c-26.491429-36.571429-51.428571-80.388571-72.96-128-4.731429-9.988571-9.142857-20.102857-13.302857-30.342857-2.948571-6.857143-5.714286-13.817143-8.457143-20.857143-3.428571-8.834286-6.651429-17.668571-9.725714-26.502857C71.019406 590.262857 53.613691 510.525714 51.430834 439.222857c-6.88-232.274286 217.348571-214.731429 294.148572-214.731428s301.188571-17.542857 294.274285 214.777142z" fill="#FE8500" /><path d="M345.602263 552a64.08 64.08 0 0 1-64-64 12.8 12.8 0 1 1 25.6 0 38.4 38.4 0 1 0 76.8 0 12.8 12.8 0 1 1 25.6 0 64.08 64.08 0 0 1-64 64z" fill="#25467A" /><path d="M217.602263 385.645714m-38.4 0a38.4 38.4 0 1 0 76.8 0 38.4 38.4 0 1 0-76.8 0Z" fill="#25467A" /><path d="M473.602263 385.645714m-38.4 0a38.4 38.4 0 1 0 76.8 0 38.4 38.4 0 1 0-76.8 0Z" fill="#25467A" /><path d="M166.402263 449.645714h-51.2a25.6 25.6 0 0 0 0 51.2h51.2a25.6 25.6 0 0 0 0-51.2zM575.979406 449.645714h-51.2a25.6 25.6 0 0 0 0 51.2h51.2a25.6 25.6 0 0 0 0-51.2z" fill="#FAAD96" /><path d="M376.58512 193.771429c-16-1.142857-31.234286-1.542857-45.188571-1.542858-6.011429 0-11.645714 0.137143-16.891429 0.262858a162.56 162.56 0 0 0-17.92-43.794286c-33.28-55.6-86.788571-64.457143-83.428571-80.251429s61.314286-28.765714 95.36 0c20.731429 17.462857 29.565714 47.634286 31.874285 79.874286 4.857143-11.302857 11.52-21.062857 20.354286-28.514286 34.171429-28.765714 91.897143-15.92 95.36 0 3.302857 15.154286-46.114286 23.885714-79.52 73.965715zM801.819406 232.171429c-13.782857-0.994286-26.891429-1.325714-38.857143-1.325715-5.177143 0-10.022857 0.114286-14.548572 0.217143a139.611429 139.611429 0 0 0-15.417142-37.714286C704.34512 145.485714 658.287977 137.851429 661.14512 124.262857s52.788571-24.765714 82.091429 0c17.851429 15.028571 25.451429 41.005714 27.428571 68.754286 4.182857-9.725714 9.92-18.125714 17.52-24.537143 29.417143-24.765714 79.12-13.714286 82.091429 0 2.845714 13.062857-39.702857 20.582857-68.457143 63.691429z" fill="#B4E876" /><path d="M255.979406 718.445714a25.68 25.68 0 0 1-25.6 25.554286h-100.868572c-4.731429-9.988571-9.142857-20.102857-13.302857-30.342857-2.948571-6.857143-5.714286-13.817143-8.457143-20.857143h122.628572a25.68 25.68 0 0 1 25.6 25.645714zM555.62512 757.348571c-0.64 1.417143-1.28 2.697143-1.92 4.102858-7.554286 16.125714-15.737143 31.691429-24.194286 46.548571H409.579406a25.6 25.6 0 0 1 0-51.2h140.8a23.897143 23.897143 0 0 1 5.245714 0.548571zM319.979406 897.645714a25.68 25.68 0 0 1-25.6 25.6h-48.388572a413.028571 413.028571 0 0 1-36.982857-42.377143l-6.537143-8.868571h91.908572a25.68 25.68 0 0 1 25.6 25.645714z" fill="#E67800" /></svg>