<?xml version="1.0" standalone="no"?><!DOCTYPE svg PUBLIC "-//W3C//DTD SVG 1.1//EN" "http://www.w3.org/Graphics/SVG/1.1/DTD/svg11.dtd"><svg class="icon" width="128px" height="128.00px" viewBox="0 0 1024 1024" version="1.1" xmlns="http://www.w3.org/2000/svg"><path d="M1024 555.074286c-5.714286-85.405714-25.725714-195.577143-82.285714-308.091429-59.04-117.417143-121.451429-164.8-137.588572-176.56a398.582857 398.582857 0 0 0-87.302857-48 208.502857 208.502857 0 0 1 5.085714 33.817143c2.88 43.291429-8.445714 78.857143-18.137142 101.234286C640.262857 115.565714 547.588571 32.068571 546.685714 31.314286L512 0l-34.685714 31.314286c-0.891429 0.754286-92.925714 83.748571-157.051429 126.251428-9.702857-22.468571-21.005714-58.034286-18.125714-101.348571a208.948571 208.948571 0 0 1 5.062857-33.828572 397.714286 397.714286 0 0 0-87.417143 48c-16.148571 11.76-78.605714 59.142857-137.6 176.56C25.428571 359.908571 5.634286 470.457143 0 555.828571v2.891429c0 1.485714 0.091429 2.948571 0.102857 4.422857 0 1.268571-0.102857 2.491429-0.102857 3.76C0 831.771429 215.325714 1024 512 1024s512-192.228571 512-457.142857c0-1.211429-0.091429-2.4-0.102857-3.611429 0-1.531429 0.102857-3.04 0.102857-4.571428z" fill="#25467A" /><path d="M972.8 550.4c0 254.468571-206.331429 422.4-460.8 422.4S51.2 804.868571 51.2 550.4c0-170.491429 156.674286-272.765714 294.4-363.771429C413.44 141.828571 512 51.2 512 51.2s98.56 90.628571 166.4 135.428571c137.725714 91.005714 294.4 193.28 294.4 363.771429z" fill="#EB5E9E" /><path d="M594.285714 122.754286a452.182857 452.182857 0 0 0-164.571428 0c44.8-36.994286 82.285714-71.554286 82.285714-71.554286s37.508571 34.514286 82.285714 71.554286z" fill="#B4E876" /><path d="M972.8 550.4c0 254.468571-206.331429 422.4-460.8 422.4-178.091429 0-332.571429-82.285714-409.325714-218.88-48.205714-85.851429-50.88-173.714286-51.428572-203.52C49.142857 446.662857 89.6 332.8 128 256S256 89.6 256 89.6s0 153.6 192 243.2 524.8 47.108571 524.8 217.6z" fill="#F562A4" /><path d="M290.434286 197.12A220.891429 220.891429 0 0 0 243.2 192a215.028571 215.028571 0 0 0-88.068571 18.685714C197.714286 147.84 256 89.6 256 89.6s0 48.765714 34.434286 107.52z" fill="#B4E876" /><path d="M51.131429 550.4c0 254.468571 206.331429 422.4 460.788571 422.4 178.102857 0 332.628571-82.285714 409.325714-218.88 48.205714-85.851429 50.891429-173.714286 51.428572-203.52 2.057143-103.737143-38.4-217.6-76.8-294.4s-128-166.4-128-166.4 0 153.6-192 243.2S51.131429 379.908571 51.131429 550.4z" fill="#FF66AB" /><path d="M511.92 972.8c178.102857 0 332.628571-82.285714 409.325714-218.88C969.451429 668.068571 832 435.2 832 435.2S819.2 640 576 742.4s-318.537143 230.4-64.08 230.4z" fill="#FF73B2" /><path d="M899.428571 574.331429a293.028571 293.028571 0 0 0-112.377142-9.337143C828.285714 494.331429 832 435.2 832 435.2s38.4 65.028571 67.428571 139.131429z" fill="#B4E876" /><path d="M512 972.8c-178.091429 0-332.571429-82.285714-409.325714-218.88C54.514286 668.068571 192 435.2 192 435.2S204.777143 640 448 742.4s318.514286 230.4 64 230.4z" fill="#FF73B2" /><path d="M124.571429 574.331429a293.085714 293.085714 0 0 1 112.388571-9.337143C195.68 494.331429 192 435.2 192 435.2s-38.422857 65.028571-67.428571 139.131429zM733.497143 197.12a220.697143 220.697143 0 0 1 47.222857-5.12 215.028571 215.028571 0 0 1 88.068571 18.685714c-42.628571-62.857143-100.868571-121.085714-100.868571-121.085714s0 48.765714-34.422857 107.52z" fill="#B4E876" /><path d="M512 550.4a64.068571 64.068571 0 0 1-64-64 12.8 12.8 0 1 1 25.6 0 38.4 38.4 0 0 0 76.8 0 12.8 12.8 0 1 1 25.6 0 64.068571 64.068571 0 0 1-64 64z" fill="#25467A" /><path d="M384 384m-38.4 0a38.4 38.4 0 1 0 76.8 0 38.4 38.4 0 1 0-76.8 0Z" fill="#25467A" /><path d="M640 384m-38.4 0a38.4 38.4 0 1 0 76.8 0 38.4 38.4 0 1 0-76.8 0Z" fill="#25467A" /><path d="M332.8 448h-51.2a25.6 25.6 0 1 0 0 51.2h51.2a25.6 25.6 0 1 0 0-51.2zM742.4 448h-51.2a25.6 25.6 0 1 0 0 51.2h51.2a25.6 25.6 0 0 0 0-51.2z" fill="#F7AAC3" /><path d="M787.074286 895.485714C710.274286 945.28 615.04 972.8 512 972.8s-198.274286-27.52-275.074286-77.314286c35.428571-26.365714 85.508571-50.948571 121.474286-74.754285C426.285714 775.931429 512 608.514286 512 608.514286s85.714286 167.417143 153.6 212.217143c35.965714 23.84 86.011429 48.388571 121.474286 74.754285z" fill="#FF80B9" /><path d="M572.571429 712.068571c-18.057143-1.417143-36.48-2.057143-55.302858-2.057142q-33.977143 0-66.434285 3.074285c34.88-53.371429 61.165714-104.571429 61.165714-104.571428s25.851429 50.56 60.571429 103.554285z" fill="#B4E876" /></svg>