<?xml version="1.0" standalone="no"?><!DOCTYPE svg PUBLIC "-//W3C//DTD SVG 1.1//EN" "http://www.w3.org/Graphics/SVG/1.1/DTD/svg11.dtd"><svg class="icon" width="128px" height="128.00px" viewBox="0 0 1024 1024" version="1.1" xmlns="http://www.w3.org/2000/svg"><path d="M932.148571 368.834286c-62.708571-100.251429-142.857143-157.714286-227.017142-163.428572-0.274286-0.457143-0.537143-0.937143-0.822858-1.394285C622.742857 72.445714 518.08 0 409.6 0S196.457143 72.445714 114.891429 203.977143C42.948571 320 0 468.64 0 601.6 0 892.948571 239.52 1024 409.6 1024c49.371429 0 100.331429-10.434286 148.331429-29.382857C602.902857 1014.365714 649.6 1024 691.2 1024c78.411429 0 158.445714-30.114286 219.577143-82.628571C962.434286 897.005714 1024 816.354286 1024 684.091429c0-105.451429-34.285714-223.302857-91.851429-315.257143z" fill="#25467A" /><path d="M972.411429 684.034286c0 198.011429-160.765714 288.765714-281.211429 288.765714-32.64 0-68.091429-6.651429-102.525714-20.354286a390.434286 390.434286 0 0 0 74.491428-50.434285C722.685714 850.434286 793.6 756.48 793.6 601.6c0-114.948571-33.28-240.514286-88.708571-344.96 144.777143 13.314286 267.52 235.52 267.52 427.394286z" fill="#E8E8E8" /><path d="M51.2 601.6c0-254.491429 166.4-550.4 358.4-550.4S768 347.108571 768 601.6 563.2 972.8 409.6 972.8 51.2 856.091429 51.2 601.6z" fill="#F3F3F3" /><path d="M768 601.6c0 254.468571-204.8 371.2-358.4 371.2-112.388571 0-252.16-62.468571-319.108571-195.714286A513.051429 513.051429 0 0 0 262.4 806.4c226.434286 0 418.948571-145.142857 489.474286-347.52C762.365714 506.491429 768 554.754286 768 601.6z" fill="#E8E8E8" /><path d="M409.6 550.4a64.068571 64.068571 0 0 1-64-64 12.8 12.8 0 1 1 25.6 0 38.4 38.4 0 0 0 76.8 0 12.8 12.8 0 1 1 25.6 0 64.068571 64.068571 0 0 1-64 64z" fill="#25467A" /><path d="M281.6 384m-38.4 0a38.4 38.4 0 1 0 76.8 0 38.4 38.4 0 1 0-76.8 0Z" fill="#25467A" /><path d="M537.6 384m-38.4 0a38.4 38.4 0 1 0 76.8 0 38.4 38.4 0 1 0-76.8 0Z" fill="#25467A" /><path d="M230.4 448h-51.2a25.6 25.6 0 0 0 0 51.2h51.2a25.6 25.6 0 0 0 0-51.2zM640 448h-51.2a25.6 25.6 0 0 0 0 51.2H640a25.6 25.6 0 0 0 0-51.2z" fill="#FCCEC7" /></svg>