<?xml version="1.0" standalone="no"?><!DOCTYPE svg PUBLIC "-//W3C//DTD SVG 1.1//EN" "http://www.w3.org/Graphics/SVG/1.1/DTD/svg11.dtd"><svg class="icon" width="128px" height="128.00px" viewBox="0 0 1024 1024" version="1.1" xmlns="http://www.w3.org/2000/svg"><path d="M388.694183 1024c-102.137143 0-205.268571-42.16-275.897143-112.777143-63.394286-63.405714-105.142857-156.388571-111.805714-248.731428-5.714286-79.085714 10.594286-196.388571 120.274285-306.057143 121.245714-121.245714 307.177143-202.708571 462.674286-202.708572 31.782857 0 61.588571 3.428571 89.142857 10.114286a96 96 0 0 1 13.485715-11.051429 104.205714 104.205714 0 0 1 57.908571-17.257142 107.302857 107.302857 0 0 1 14.022857 0.914285l47.885714-46.342857c0.102857-3.142857 0.285714-5.714286 0.457143-7.702857C811.105611 35.428571 849.494183 0 896.07704 0c2.765714 0 5.577143 0.125714 8.377143 0.4 38.182857 3.737143 68.571429 31.325714 78.034286 66.765714a91.657143 91.657143 0 0 1 40.24 91.954286c-7.382857 43.805714-44.502857 75.588571-88.274286 75.588571a89.394286 89.394286 0 0 1-15.691429-1.394285L917.722754 233.142857l-29.942857 29.051429c4.274286 24.422857-0.102857 50.285714-13.577143 70.651428a88.262857 88.262857 0 0 1-14.32 16.651429c40.525714 163.52-38.777143 399.805714-192.251428 553.291428C588.259897 982.068571 491.825611 1024 388.694183 1024z" fill="#25467A" /><path d="M940.991326 104.708571a8.628571 8.628571 0 0 1-4.571429-2.285714c-2.445714-2.594286-2.171429-7.725714-2.171428-7.771428 2-21.828571-13.497143-41.142857-34.605715-43.257143s-39.851429 13.954286-41.851428 35.771428a100.057143 100.057143 0 0 0 1.028571 23.451429l-141.028571 136.411428a40.617143 40.617143 0 0 0-4.834286 55.908572 37.508571 37.508571 0 0 0 54.08 4.994286l137.222857-133.142858a84.114286 84.114286 0 0 0 23.565714 8.125715 37.417143 37.417143 0 0 0 6.628572 0.594285c18.285714 0 34.537143-13.6 37.782857-32.891428 3.634286-21.588571-10.342857-42.148571-31.245714-45.908572z" fill="#F3F3F3" /><path d="M693.345611 237.862857c0.125714-3.142857 1.6-28.971429 21.862858-42.662857s51.188571-9.908571 61.862857 4.8c8.057143 11.085714-0.102857 21.942857 9.074285 32 9.76 10.697143 22.857143 2.605714 35.725715 11.737143 15.657143 11.074286 22.445714 41.417143 9.6 60.8-13.028571 19.657143-40.48 19.291429-47.462857 19.2-45.005714-0.605714-92.434286-43.348571-90.662858-85.874286z" fill="#FCA256" /><path d="M157.471326 392.64C325.722754 224.377143 631.379897 138.754286 758.31704 265.702857S799.631326 698.285714 631.379897 866.548571s-380.822857 110.011429-482.377143 8.457143-159.794286-314.114286 8.468572-482.365714z" fill="#FCAF6D" /><path d="M809.219897 533.245714c-23.805714 118.4-89.462857 244.868571-177.782857 333.314286-168.331429 168.194286-380.937143 109.954286-482.434286 8.445714A324.742857 324.742857 0 0 1 92.419897 797.714286a508.674286 508.674286 0 0 0 240.388572 59.885714c216.445714 0 401.668571-134.4 476.411428-324.354286z" fill="#F0A668" /><path d="M409.608469 665.6a64.068571 64.068571 0 0 1-64-64 12.8 12.8 0 1 1 25.6 0 38.4 38.4 0 0 0 76.8 0 12.8 12.8 0 1 1 25.6 0 64.068571 64.068571 0 0 1-64 64z" fill="#25467A" /><path d="M281.608469 499.2m-38.4 0a38.4 38.4 0 1 0 76.8 0 38.4 38.4 0 1 0-76.8 0Z" fill="#25467A" /><path d="M537.608469 499.2m-38.4 0a38.4 38.4 0 1 0 76.8 0 38.4 38.4 0 1 0-76.8 0Z" fill="#25467A" /><path d="M230.408469 563.2h-51.2a25.6 25.6 0 1 0 0 51.2h51.2a25.6 25.6 0 0 0 0-51.2zM640.008469 563.2h-51.2a25.6 25.6 0 0 0 0 51.2H640.008469a25.6 25.6 0 0 0 0-51.2z" fill="#FF806C" /></svg>