<?xml version="1.0" standalone="no"?><!DOCTYPE svg PUBLIC "-//W3C//DTD SVG 1.1//EN" "http://www.w3.org/Graphics/SVG/1.1/DTD/svg11.dtd"><svg class="icon" width="128px" height="128.00px" viewBox="0 0 1024 1024" version="1.1" xmlns="http://www.w3.org/2000/svg"><path d="M737.942857 1024c-76.685714 0-147.885714-26.285714-200.685714-74.057143-54.971429-49.942857-85.371429-119.428571-85.371429-195.657143 0-34.4 7.085714-60.342857 21.714286-79.2 11.2-14.514286 32.342857-31.657143 69.142857-31.657143 27.885714 0 58.4 9.828571 90.628572 20.342858 33.371429 10.857143 71.314286 23.085714 104.571428 23.085714s71.085714-12.228571 104.571429-23.085714c32.228571-10.514286 62.742857-20.342857 90.628571-20.342858 36.914286 0 57.942857 17.257143 69.142857 31.657143 14.628571 18.857143 21.714286 44.8 21.714286 79.2 0 76.228571-30.285714 145.714286-85.371429 195.657143C885.828571 997.714286 814.628571 1024 737.942857 1024zM594.057143 228.685714c-26.857143 0.228571-49.828571-5.142857-68.228572-16.114285-20.8-12.342857-34.971429-30.971429-41.028571-53.942858-8.342857-31.771429 1.485714-64.457143 26.971429-89.714285 21.485714-21.371429 54.4-37.942857 97.828571-49.257143C653.485714 8.228571 713.028571 0.457143 761.6 0.114286c25.6-0.228571 47.2 1.6 64 5.371428 40.8 9.257143 54.742857 31.428571 59.2 48.457143 4.571429 17.485714 3.085714 44.342857-29.942857 73.142857-13.714286 11.885714-32.8 24.457143-56.685714 37.257143-41.371429 22.171429-94.971429 43.428571-136.342858 54.285714-24.914286 6.514286-47.657143 9.828571-67.771428 10.057143z" fill="#25467A" /><path d="M512 1024C215.314286 1024 0 839.542857 0 585.257143c0-259.314286 224.914286-462.4 512-462.4s512 203.085714 512 462.4C1024 839.542857 808.685714 1024 512 1024z" fill="#25467A" /><path d="M972.8 585.257143c0 235.771429-206.285714 391.314286-460.8 391.314286S51.2 821.028571 51.2 585.257143c0-203.085714 153.142857-364.228571 358.4-404.914286 12.685714-2.628571 25.6-4.8 38.628571-6.285714 42.285714-5.028571 85.142857-5.028571 127.542858 0 13.028571 1.6 25.942857 3.657143 38.628571 6.285714 205.257143 40.685714 358.4 201.828571 358.4 404.914286z" fill="#F57C00" /><path d="M512 20.342857c-21.257143 0-38.4 12.342857-38.4 27.542857v123.2c0 15.2 17.142857 27.542857 38.4 27.542857s38.4-12.342857 38.4-27.542857V47.885714c0-15.2-17.142857-27.542857-38.4-27.542857z" fill="#25467A" /><path d="M972.8 585.257143c0 235.771429-206.285714 391.314286-460.8 391.314286-211.085714 0-389.028571-107.085714-443.542857-278.057143 95.2 79.885714 219.085714 124.114286 347.542857 123.885714 262.628571 0 479.657143-180.8 513.714286-415.542857 27.657143 53.6 43.085714 113.942857 43.085714 178.4z" fill="#EF6C00" /><path d="M204.8 668.228571a25.6 23.771429 0 1 0 51.2 0 25.6 23.771429 0 1 0-51.2 0Z" fill="#E65100" /><path d="M153.6 739.428571a25.6 23.771429 0 1 0 51.2 0 25.6 23.771429 0 1 0-51.2 0Z" fill="#E65100" /><path d="M256 739.428571a25.6 23.771429 0 1 0 51.2 0 25.6 23.771429 0 1 0-51.2 0Z" fill="#E65100" /><path d="M780.8 668.228571a25.6 23.771429 0 1 0 51.2 0 25.6 23.771429 0 1 0-51.2 0Z" fill="#E65100" /><path d="M729.6 739.428571a25.6 23.771429 0 1 0 51.2 0 25.6 23.771429 0 1 0-51.2 0Z" fill="#E65100" /><path d="M832 739.428571a25.6 23.771429 0 1 0 51.2 0 25.6 23.771429 0 1 0-51.2 0Z" fill="#E65100" /><path d="M592.457143 205.828571c-64.685714 0-81.371429-37.028571-85.6-53.028571-6.285714-24 1.142857-48.114286 20.914286-67.657143 18.628571-18.514286 48.114286-33.028571 87.542857-43.428571C658.285714 30.4 718.742857 22.857143 765.485714 22.857143c22.971429 0 41.942857 1.714286 56.342857 5.257143 22.857143 5.485714 36.571429 16.114286 40.685715 31.657143 4.228571 16.342857-3.428571 33.142857-22.857143 50.171428-12.342857 10.857143-30.057143 22.4-52.457143 34.285714-40 21.371429-91.542857 41.942857-131.314286 52.342858-23.542857 6.057143-44.914286 9.257143-63.428571 9.257142z" fill="#25467A" /><path d="M650.057143 174.4c-75.2 19.657143-113.142857 3.2-121.028572-27.428571-8-30.514286 17.028571-63.542857 92.114286-83.2s211.314286-28.8 219.314286 1.714285c7.885714 30.514286-115.314286 89.257143-190.4 108.914286z" fill="#43A047" /><path d="M737.942857 1001.142857c-70.971429 0-136.8-24.228571-185.257143-68.114286-50.285714-45.485714-77.942857-109.028571-77.942857-178.742857 0-29.142857 5.485714-50.514286 16.914286-65.257143 11.771429-15.2 28.914286-22.857143 51.085714-22.857142 24.228571 0 51.771429 8.914286 83.542857 19.2 34.971429 11.314286 74.742857 24.228571 111.542857 24.228571 36.8 0 76.571429-12.914286 111.542858-24.228571 31.771429-10.285714 59.314286-19.2 83.542857-19.2 22.171429 0 39.314286 7.657143 51.085714 22.857142 11.428571 14.742857 16.914286 36 16.914286 65.257143 0 69.714286-27.657143 133.142857-77.942857 178.742857-48.228571 43.885714-114.057143 68.114286-185.028572 68.114286z" fill="#25467A" /><path d="M978.285714 754.285714c0 132.685714-107.657143 224-240.342857 224s-240.342857-91.314286-240.342857-224 124-21.714286 240.342857-21.714285S978.285714 621.485714 978.285714 754.285714z" fill="#F57C00" /><path d="M763.2 912.114286c0 40.571429-11.314286 44.457143-25.257143 44.457143s-25.257143-4-25.257143-44.457143 11.314286-102.285714 25.257143-102.285715 25.257143 61.714286 25.257143 102.285715zM565.6 800.457143c-50.057143 6.514286-56.114286-1.942857-57.485714-13.028572-1.485714-11.085714 2.285714-20.685714 52.342857-27.2s127.428571-7.314286 128.914286 3.771429c1.371429 11.085714-73.714286 29.942857-123.771429 36.457143zM594.857143 739.085714c0 9.6-35.542857 17.371429-59.771429 17.371429s-28.228571-7.771429-28.228571-17.371429c0-9.6 4-17.371429 28.228571-17.371428s59.771429 7.771429 59.771429 17.371428zM611.771429 811.2c3.2 9.028571-27.542857 28.342857-50.4 36.571429-22.857143 8.228571-29.257143 2.171429-32.457143-6.857143-3.2-9.028571-2.171429-17.714286 20.685714-25.942857 22.971429-8.228571 58.971429-12.8 62.171429-3.771429zM669.371429 859.085714c8.342857 4.914286-2.971429 39.428571-15.2 60.342857s-21.028571 20.457143-29.257143 15.542858-13.028571-12.228571-0.685715-33.142858c12.114286-20.914286 36.8-47.542857 45.142858-42.742857zM711.428571 802.285714c8.228571 2.057143-0.685714 64.914286-11.428571 106.742857-10.742857 41.828571-19.085714 46.971429-27.314286 44.8-8.228571-2.057143-13.142857-10.628571-2.514285-52.457142 10.742857-41.828571 33.028571-101.142857 41.257142-99.085715zM695.428571 786.4c9.257143 10.857143-34.4 62.857143-69.371428 92.457143-34.971429 29.6-48.114286 25.6-57.371429 14.628571-9.257143-10.857143-10.971429-24.571429 24-54.171428 34.971429-29.371429 93.485714-63.771429 102.742857-52.914286z" fill="#EF6C00" /><path d="M910.285714 800.457143c50.057143 6.514286 56.114286-1.942857 57.485715-13.028572 1.485714-11.085714-2.285714-20.685714-52.342858-27.2-50.057143-6.514286-127.428571-7.314286-128.914285 3.771429-1.371429 11.085714 73.828571 29.942857 123.771428 36.457143zM881.028571 739.085714c0 9.6 35.542857 17.371429 59.771429 17.371429 24.342857 0 28.228571-7.771429 28.228571-17.371429 0-9.6-4-17.371429-28.228571-17.371428-24.228571-0.114286-59.771429 7.771429-59.771429 17.371428zM864.114286 811.2c-3.2 9.028571 27.542857 28.342857 50.4 36.571429 22.857143 8.228571 29.257143 2.171429 32.457143-6.857143 3.2-9.028571 2.171429-17.714286-20.685715-25.942857s-58.971429-12.8-62.171428-3.771429zM806.628571 859.085714c-8.342857 4.914286 2.971429 39.428571 15.2 60.342857s21.028571 20.457143 29.257143 15.542858 13.028571-12.228571 0.685715-33.142858c-12.228571-20.914286-36.914286-47.542857-45.142858-42.742857zM764.457143 802.285714c-8.228571 2.057143 0.685714 64.914286 11.428571 106.742857 10.742857 41.828571 19.085714 46.971429 27.314286 44.8 8.228571-2.057143 13.142857-10.628571 2.514286-52.457142-10.742857-41.828571-33.028571-101.142857-41.257143-99.085715zM780.571429 786.4c-9.257143 10.857143 34.4 62.857143 69.371428 92.457143 34.971429 29.6 48.114286 25.6 57.371429 14.628571 9.257143-10.857143 10.971429-24.571429-24-54.171428-35.085714-29.371429-93.6-63.771429-102.742857-52.914286z" fill="#EF6C00" /><path d="M964.571429 701.257143c-35.314286-40-133.371429 31.314286-226.628572 31.314286-93.257143 0-191.314286-71.2-226.628571-31.314286 34.057143-17.942857 106.514286 33.028571 182.514285 49.942857 4.114286 0.914286 5.942857 5.6 3.885715 9.142857-4.685714 7.771429-7.771429 14.514286-5.485715 14.971429 2.857143 0.571429 13.6-9.257143 22.4-18.857143 0.8-0.914286 2.057143-1.371429 3.2-1.142857 1.828571 0.228571 3.085714 2.057143 2.514286 3.771428-2.971429 10.742857-4.685714 22.628571-1.485714 22.971429 3.428571 0.342857 11.428571-12.914286 16.457143-24 0.457143-1.028571 1.485714-1.6 2.514285-1.6 1.142857 0 2.057143 0.685714 2.514286 1.6 5.028571 11.085714 13.028571 24.342857 16.457143 24 3.2-0.342857 1.485714-12.228571-1.485714-22.971429-0.457143-1.828571 0.685714-3.542857 2.514285-3.771428h0.114286c1.257143-0.114286 2.4 0.342857 3.2 1.142857 8.8 9.6 19.542857 19.428571 22.4 18.857143 2.285714-0.457143-0.8-7.314286-5.485714-14.971429-2.171429-3.542857-0.228571-8.228571 3.885714-9.142857 76.228571-17.028571 148.685714-67.885714 182.628572-49.942857z" fill="#FFE0B2" /><path d="M512 588.114286c-35.314286 0-64-28.685714-64-64 0-7.085714 5.714286-12.8 12.8-12.8s12.8 5.714286 12.8 12.8c0 21.257143 17.257143 38.4 38.4 38.4s38.4-17.142857 38.4-38.4c0-7.085714 5.714286-12.8 12.8-12.8s12.8 5.714286 12.8 12.8c0 35.314286-28.685714 64-64 64z" fill="#25467A" /><path d="M384 421.714286m-38.4 0a38.4 38.4 0 1 0 76.8 0 38.4 38.4 0 1 0-76.8 0Z" fill="#25467A" /><path d="M640 421.714286m-38.4 0a38.4 38.4 0 1 0 76.8 0 38.4 38.4 0 1 0-76.8 0Z" fill="#25467A" /><path d="M332.8 485.714286h-51.2c-14.171429 0-25.6 11.428571-25.6 25.6s11.428571 25.6 25.6 25.6h51.2c14.171429 0 25.6-11.428571 25.6-25.6s-11.428571-25.6-25.6-25.6zM742.4 485.714286h-51.2c-14.171429 0-25.6 11.428571-25.6 25.6s11.428571 25.6 25.6 25.6h51.2c14.171429 0 25.6-11.428571 25.6-25.6 0-14.171429-11.428571-25.6-25.6-25.6z" fill="#FFB74D" /></svg>