<?xml version="1.0" standalone="no"?><!DOCTYPE svg PUBLIC "-//W3C//DTD SVG 1.1//EN" "http://www.w3.org/Graphics/SVG/1.1/DTD/svg11.dtd"><svg class="icon" width="128px" height="128.00px" viewBox="0 0 1024 1024" version="1.1" xmlns="http://www.w3.org/2000/svg"><path d="M512 1024C215.314286 1024 0 829.142857 0 560.685714 0 383.657143 97.714286 232 258.4 153.714286c-8.228571-34.057143-2.171429-62.857143-1.142857-67.542857l8.571428-36.342858 38.057143-2.4c2.285714-0.114286 5.371429-0.228571 8.914286-0.228571 14.628571 0 29.257143 2.285714 43.2 6.742857 6.857143-8.342857 14.628571-15.657143 23.428571-21.942857l20.228572-14.514286 24.114286 6.742857c11.657143 3.314286 22.857143 8.228571 33.257142 14.628572 8.342857-7.771429 17.257143-14.742857 26.857143-20.914286L512 0l28.114286 18.057143c9.6 6.171429 18.628571 13.142857 26.857143 20.914286 10.285714-6.4 21.485714-11.314286 33.257142-14.628572l24.114286-6.742857L644.571429 32c8.685714 6.285714 16.571429 13.6 23.428571 21.942857 13.942857-4.457143 28.571429-6.742857 43.2-6.742857 3.542857 0 6.628571 0.114286 8.914286 0.228571l38.057143 2.4 8.571428 36.342858c1.142857 4.685714 7.2 33.485714-1.142857 67.542857C926.285714 232.114286 1024 383.771429 1024 560.685714 1024 829.142857 808.685714 1024 512 1024z" fill="#25467A" /><path d="M409.6 72.457143c7.085714 2.057143 24.8 8 38.4 25.028571 5.942857 7.428571 10.285714 15.885714 12.8 25.028572 3.314286-8.8 7.657143-17.142857 12.8-25.028572 10.057143-15.085714 23.085714-27.885714 38.4-37.6v150.285715h-102.4c-5.485714 0.571429-45.714286 4.457143-76.8-25.028572-37.028571-35.2-26.285714-84.914286-25.6-87.657143 8.114286-0.457143 29.714286-0.8 51.2 12.571429 10.285714 6.4 18.971429 14.857143 25.6 25.028571-1.828571-8.228571-1.828571-16.8 0-25.028571 4.8-21.828571 20.685714-34.171429 25.6-37.6zM614.4 72.457143c-7.085714 2.057143-24.8 8-38.4 25.028571-5.942857 7.428571-10.285714 15.885714-12.8 25.028572-3.314286-8.8-7.657143-17.142857-12.8-25.028572-10.057143-15.085714-23.085714-27.885714-38.4-37.6v150.285715h102.4c5.485714 0.571429 45.714286 4.457143 76.8-25.028572 37.028571-35.2 26.285714-84.914286 25.6-87.657143-8.114286-0.457143-29.714286-0.8-51.2 12.571429-10.285714 6.4-18.971429 14.857143-25.6 25.028571 1.828571-8.228571 1.828571-16.8 0-25.028571-4.8-21.828571-20.685714-34.171429-25.6-37.6z" fill="#3151B7" /><path d="M51.2 560.685714a460.8 413.142857 0 1 0 921.6 0 460.8 413.142857 0 1 0-921.6 0Z" fill="#6087F0" /><path d="M972.8 560.8c0 248.914286-206.285714 413.142857-460.8 413.142857-219.542857 0-403.2-122.285714-449.485714-315.542857 95.771429 94.857143 225.142857 148.114286 359.885714 148 255.657143 0 467.428571-187.314286 505.714286-432.114286 28.685714 54.4 44.685714 117.142857 44.685714 186.514286z" fill="#5C81E6" /><path d="M512 550.4c-35.314286 0-64-28.685714-64-64 0-7.085714 5.714286-12.8 12.8-12.8s12.8 5.714286 12.8 12.8c0 21.257143 17.257143 38.4 38.4 38.4s38.4-17.142857 38.4-38.4c0-7.085714 5.714286-12.8 12.8-12.8s12.8 5.714286 12.8 12.8c0 35.314286-28.685714 64-64 64z" fill="#25467A" /><path d="M384 384m-38.4 0a38.4 38.4 0 1 0 76.8 0 38.4 38.4 0 1 0-76.8 0Z" fill="#25467A" /><path d="M640 384m-38.4 0a38.4 38.4 0 1 0 76.8 0 38.4 38.4 0 1 0-76.8 0Z" fill="#25467A" /><path d="M332.8 448h-51.2c-14.171429 0-25.6 11.428571-25.6 25.6s11.428571 25.6 25.6 25.6h51.2c14.171429 0 25.6-11.428571 25.6-25.6s-11.428571-25.6-25.6-25.6zM742.4 448h-51.2c-14.171429 0-25.6 11.428571-25.6 25.6s11.428571 25.6 25.6 25.6h51.2c14.171429 0 25.6-11.428571 25.6-25.6 0-14.171429-11.428571-25.6-25.6-25.6z" fill="#89A2F6" /></svg>