<?xml version="1.0" standalone="no"?><!DOCTYPE svg PUBLIC "-//W3C//DTD SVG 1.1//EN" "http://www.w3.org/Graphics/SVG/1.1/DTD/svg11.dtd"><svg class="icon" width="128px" height="128.00px" viewBox="0 0 1024 1024" version="1.1" xmlns="http://www.w3.org/2000/svg"><path d="M490.057748 343.904462c-12.799647 0-23.770773-9.714018-25.027882-22.74223-0.228565-2.057086-4.571303-51.198589 10.971126-114.396846C496.686136 122.539136 543.084857 52.71249 610.283005 4.713813c11.313974-8.114062 26.970685-5.485563 35.084747 5.828411 8.114062 11.313974 5.485563 26.970685-5.828411 35.084747-57.598412 41.141723-96.111636 98.854418-114.282564 171.423846-13.82819 55.312761-10.171148 98.9687-10.171148 99.42583 1.257108 13.82819-8.91404 26.056425-22.74223 27.313533-0.685695 0.114283-1.485673 0.114283-2.285651 0.114282z" fill="#25467A" /><path d="M516.342737 1024c-150.281571 0-268.221177-42.513114-341.01917-123.082321-32.227683-35.65616-55.427043-78.512121-68.912386-127.196494-13.599625-49.370068-17.485232-105.254241-11.313974-166.395413 11.771104-117.482476 59.655498-234.050691 134.739143-328.219523 31.884835-39.998897 67.426713-73.940819 102.625742-98.283005 39.198919-26.970685 75.655057-40.684593 108.339871-40.684593 9.714018 0 31.884835 12.342517 75.540774 12.342517s65.826757-12.342517 75.540775-12.342517c32.684813 0 69.140951 13.713908 108.339871 40.684593 35.19903 24.227904 70.740907 58.169825 102.625742 98.283005 75.083644 94.168833 122.968039 210.85133 134.739143 328.219523 6.171258 61.026889 2.285651 117.025345-11.313974 166.395413-13.485343 48.798655-36.684703 91.540334-68.912386 127.196494C784.563915 981.486886 666.624309 1024 516.342737 1024z" fill="#25467A" /><path d="M887.532505 612.354205c-26.28499-260.678528-235.993494-448.216215-313.477073-418.845597 0 0-29.827749 9.485453-57.712695 9.485453s-57.712695-9.485453-57.712694-9.485453C381.146464 164.252272 171.43796 351.675677 145.15297 612.354205 119.439393 867.775735 286.063371 973.715672 516.342737 973.715672s396.903344-105.939937 371.189768-361.361467z" fill="#FFE99C" /><path d="M516.342737 973.715672c-190.737599 0-337.819259-72.683711-368.104138-242.736166 79.312099 56.684152 176.337996 89.940378 281.24939 89.940378 198.280248 0 368.789834-119.196714 443.644913-289.820582 6.628389 26.056425 11.542539 53.255675 14.399603 81.254903C913.246082 867.775735 746.622104 973.715672 516.342737 973.715672z" fill="#F5E096" /><path d="M251.550037 683.552242m-25.599294 0a25.599294 25.599294 0 1 0 51.198588 0 25.599294 25.599294 0 1 0-51.198588 0Z" fill="#EAC785" /><path d="M200.351448 760.350125m-25.599294 0a25.599294 25.599294 0 1 0 51.198589 0 25.599294 25.599294 0 1 0-51.198589 0Z" fill="#EAC785" /><path d="M302.748626 760.350125m-25.599295 0a25.599294 25.599294 0 1 0 51.198589 0 25.599294 25.599294 0 1 0-51.198589 0Z" fill="#EAC785" /><path d="M772.449963 683.552242m-25.599294 0a25.599294 25.599294 0 1 0 51.198588 0 25.599294 25.599294 0 1 0-51.198588 0Z" fill="#EAC785" /><path d="M435.202117 235.450309m-25.599294 0a25.599294 25.599294 0 1 0 51.198588 0 25.599294 25.599294 0 1 0-51.198588 0Z" fill="#EAC785" /><path d="M584.709521 260.715777a25.599294 25.599294 0 1 0 8.202451-50.537266 25.599294 25.599294 0 1 0-8.202451 50.537266Z" fill="#EAC785" /><path d="M512 257.278279m-25.599294 0a25.599294 25.599294 0 1 0 51.198588 0 25.599294 25.599294 0 1 0-51.198588 0Z" fill="#EAC785" /><path d="M721.251374 760.350125m-25.599294 0a25.599294 25.599294 0 1 0 51.198589 0 25.599294 25.599294 0 1 0-51.198589 0Z" fill="#EAC785" /><path d="M823.648552 760.350125m-25.599295 0a25.599294 25.599294 0 1 0 51.198589 0 25.599294 25.599294 0 1 0-51.198589 0Z" fill="#EAC785" /><path d="M512 640.353433c-35.313312 0-63.998236-28.684924-63.998236-63.998236 0-7.085519 5.714128-12.799647 12.799647-12.799647s12.799647 5.714128 12.799648 12.799647c0 21.256557 17.256667 38.398941 38.398941 38.398942s38.398941-17.142385 38.398941-38.398942c0-7.085519 5.714128-12.799647 12.799648-12.799647s12.799647 5.714128 12.799647 12.799647c0 35.313312-28.684924 63.883953-63.998236 63.998236z" fill="#25467A" /><path d="M384.003528 473.95802m-38.398941 0a38.398941 38.398941 0 1 0 76.797883 0 38.398941 38.398941 0 1 0-76.797883 0Z" fill="#25467A" /><path d="M639.996472 473.95802m-38.398942 0a38.398941 38.398941 0 1 0 76.797883 0 38.398941 38.398941 0 1 0-76.797883 0Z" fill="#25467A" /><path d="M332.80494 537.956256h-51.198589c-14.171038 0-25.599294 11.428256-25.599294 25.599294s11.428256 25.599294 25.599294 25.599295h51.198589c14.171038 0 25.599294-11.428256 25.599294-25.599295s-11.428256-25.599294-25.599294-25.599294zM742.393649 537.956256h-51.198589c-14.171038 0-25.599294 11.428256-25.599294 25.599294s11.428256 25.599294 25.599294 25.599295h51.198589c14.171038 0 25.599294-11.428256 25.599294-25.599295s-11.428256-25.599294-25.599294-25.599294z" fill="#FFF7D9" /></svg>