<?xml version="1.0" standalone="no"?><!DOCTYPE svg PUBLIC "-//W3C//DTD SVG 1.1//EN" "http://www.w3.org/Graphics/SVG/1.1/DTD/svg11.dtd"><svg class="icon" width="128px" height="128.00px" viewBox="0 0 1024 1024" version="1.1" xmlns="http://www.w3.org/2000/svg"><path d="M512 1024c-48.914286 0-88.571429-1.828571-120.914286-10.285714-33.485714-2.514286-62.628571-9.028571-88.685714-19.657143-42.171429-8.457143-79.2-21.714286-110.171429-39.542857-41.371429-23.657143-72.342857-55.314286-92.114285-94.171429-16.114286-31.542857-24.914286-65.942857-26.285715-102.285714-1.142857-30.742857 2.857143-62.514286 12.342858-96.914286 16.228571-59.085714 45.714286-114.4 69.371428-158.742857 8.685714-16.342857 16.914286-31.657143 23.2-44.914286 15.085714-31.657143 23.2-81.028571 30.971429-128.8 12.114286-73.485714 24.571429-149.371429 64.685714-202.285714 24.228571-31.885714 53.714286-56.228571 87.771429-72.228571 10.628571-12.342857 26.4-23.314286 47.428571-32.8C439.771429 7.542857 475.085714 0 509.142857 0c41.371429 0 74.742857 10.628571 95.428572 19.428571 15.314286 6.628571 33.714286 16.571429 47.428571 30.285715 38.171429 15.885714 70.971429 41.6 97.6 76.571428 40.114286 52.914286 52.685714 128.914286 64.685714 202.285715 7.885714 47.771429 16 97.142857 30.971429 128.8 6.285714 13.257143 14.514286 28.571429 23.2 44.914285 23.657143 44.342857 53.142857 99.657143 69.371428 158.742857 9.485714 34.4 13.485714 66.057143 12.342858 96.914286-1.371429 36.342857-10.171429 70.742857-26.285715 102.285714-19.771429 38.857143-50.742857 70.514286-92.114285 94.171429-30.971429 17.714286-68 30.971429-110.171429 39.542857-26.057143 10.628571-55.2 17.028571-88.685714 19.657143-32.342857 8.571429-72 10.4-120.914286 10.4z" fill="#25467A" /><path d="M802.514286 478.742857c-41.828571-88-32.8-248-91.2-324.914286C631.657143 48.685714 512 83.657143 512 83.657143s-119.657143-34.971429-199.428571 70.057143c-58.4 76.914286-49.371429 237.028571-91.2 324.914285S76.228571 711.885714 141.714286 840.342857c79.771429 156.342857 370.285714 113.257143 370.285714 113.257143s290.514286 43.2 370.285714-113.257143c65.485714-128.457143-37.942857-273.714286-79.771428-361.6z" fill="#D32F2F" /><path d="M730.742857 478.742857c-31.428571-88-24.685714-248-68.571428-324.914286C602.057143 48.685714 512 83.657143 512 83.657143s-90.057143-34.971429-150.057143 70.057143c-44 76.914286-37.142857 237.028571-68.571428 324.914285s-125.142857 233.142857-75.771429 361.6C277.6 996.685714 425.142857 966.4 512 966.4s234.4 30.285714 294.514286-126.057143c49.257143-128.457143-44.342857-273.714286-75.771429-361.6z" fill="#E53935" /><path d="M657.828571 478.742857c-21.028571-88-16.457143-248-45.714285-324.914286-40-105.028571-100.114286-70.057143-100.114286-70.057142s-60.114286-34.971429-100.114286 70.057142c-29.371429 76.914286-24.8 237.028571-45.714285 324.914286s-80.228571 232.342857-50.514286 361.6c27.542857 120 49.828571 137.485714 196.342857 137.485714s168.8-17.371429 196.342857-137.485714c29.714286-129.257143-29.485714-273.714286-50.514286-361.6z" fill="#D32F2F" /><path d="M623.085714 91.2c0 13.485714-50.971429 3.885714-113.942857 3.885714s-113.942857 9.6-113.942857-3.885714 50.971429-45.028571 113.942857-45.028571 113.942857 31.542857 113.942857 45.028571z" fill="#D4E157" /><path d="M512 550.4c-35.314286 0-64-28.685714-64-64 0-7.085714 5.714286-12.8 12.8-12.8s12.8 5.714286 12.8 12.8c0 21.257143 17.257143 38.4 38.4 38.4s38.4-17.142857 38.4-38.4c0-7.085714 5.714286-12.8 12.8-12.8s12.8 5.714286 12.8 12.8c0 35.314286-28.685714 64-64 64z" fill="#25467A" /><path d="M384 384m-38.4 0a38.4 38.4 0 1 0 76.8 0 38.4 38.4 0 1 0-76.8 0Z" fill="#25467A" /><path d="M640 384m-38.4 0a38.4 38.4 0 1 0 76.8 0 38.4 38.4 0 1 0-76.8 0Z" fill="#25467A" /><path d="M332.8 448h-51.2c-14.171429 0-25.6 11.428571-25.6 25.6 0 14.171429 11.428571 25.6 25.6 25.6h51.2c14.171429 0 25.6-11.428571 25.6-25.6s-11.428571-25.6-25.6-25.6zM742.4 448h-51.2c-14.171429 0-25.6 11.428571-25.6 25.6s11.428571 25.6 25.6 25.6h51.2c14.171429 0 25.6-11.428571 25.6-25.6 0-14.171429-11.542857-25.6-25.6-25.6z" fill="#F48784" /></svg>