<?xml version="1.0" standalone="no"?><!DOCTYPE svg PUBLIC "-//W3C//DTD SVG 1.1//EN" "http://www.w3.org/Graphics/SVG/1.1/DTD/svg11.dtd"><svg class="icon" width="128px" height="128.00px" viewBox="0 0 1024 1024" version="1.1" xmlns="http://www.w3.org/2000/svg"><path d="M967.168 508.928l54.272-64c4.096-4.608 4.096-11.264 0-15.872l-66.048-78.336L983.04 266.24c2.048-5.632-0.512-11.776-6.144-14.848l-74.752-42.496V144.896c0-6.144-4.096-10.752-9.728-12.288l-132.608-34.304-20.48-48.64c-2.56-5.12-7.68-8.704-13.312-8.192l-134.656 8.704-71.68-47.616c-4.608-3.072-10.752-3.072-15.36 0l-71.68 47.616-134.656-8.704C291.84 40.96 286.72 44.032 284.16 49.152l-20.48 49.152-132.608 34.304c-5.632 1.536-9.728 6.656-9.728 12.288v63.488L46.592 251.392c-5.12 3.072-7.68 9.216-6.144 14.848l28.16 84.48L3.072 429.056c-4.096 4.608-4.096 11.264 0 15.872l54.272 64L3.072 572.928c-4.096 4.608-4.096 11.264 0 15.872l66.048 78.336L40.96 752.64c-2.048 5.632 0.512 11.776 6.144 14.848l74.752 42.496v63.488c0 6.144 4.096 10.752 9.728 12.288l132.608 34.304 20.48 48.64c2.56 5.12 7.68 8.704 13.312 8.192l128-8.192 78.336 52.224c4.608 3.072 10.752 3.072 15.36 0l78.336-52.224 128 8.192c5.632 0.512 11.264-2.56 13.312-8.192l20.48-48.64 132.608-34.304c5.632-1.536 9.728-6.656 9.728-12.288v-63.488l74.752-42.496c5.12-3.072 7.68-9.216 6.144-14.848l-28.16-85.504 66.048-78.336c4.096-4.608 4.096-11.264 0-15.872l-53.76-64z" fill="#25467A" /><path d="M439.808 916.992l-118.784 7.68-19.968-47.104-128.512-33.28v-63.488l-73.216-41.984 27.136-82.432-63.488-75.264 60.928-72.192-60.928-72.192 63.488-75.264-27.136-81.408 73.216-41.984V175.104l128.512-33.28 19.968-47.104L446.464 102.4l65.536-43.52 65.536 43.52 125.44-8.192 19.968 47.104 128.512 33.28v63.488l73.216 41.984-27.136 81.408 63.488 75.264-60.928 72.192 60.928 72.192-63.488 75.264 27.136 82.432-73.216 41.984v63.488l-128.512 33.28-19.968 47.104-118.784-7.68-72.192 48.128-72.192-48.128z" fill="#DEB51D" /><path d="M512 550.4c-35.328 0-64-28.672-64-64 0-7.168 5.632-12.8 12.8-12.8s12.8 5.632 12.8 12.8c0 20.992 17.408 38.4 38.4 38.4s38.4-17.408 38.4-38.4c0-7.168 5.632-12.8 12.8-12.8s12.8 5.632 12.8 12.8c0 35.328-28.672 64-64 64zM345.6 384c0 20.992 17.408 38.4 38.4 38.4s38.4-17.408 38.4-38.4-17.408-38.4-38.4-38.4-38.4 16.896-38.4 38.4zM601.6 384c0 20.992 17.408 38.4 38.4 38.4s38.4-17.408 38.4-38.4-17.408-38.4-38.4-38.4-38.4 17.408-38.4 38.4z" fill="#25467A" /><path d="M332.8 448H281.6c-14.336 0-25.6 11.264-25.6 25.6s11.264 25.6 25.6 25.6h51.2c14.336 0 25.6-11.264 25.6-25.6s-11.264-25.6-25.6-25.6z m409.6 0h-51.2c-14.336 0-25.6 11.264-25.6 25.6s11.264 25.6 25.6 25.6h51.2c14.336 0 25.6-11.264 25.6-25.6s-11.264-25.6-25.6-25.6z" fill="#FED500" /><path d="M619.52 151.04s-30.72-36.352-44.032-39.424c-12.8-2.56-56.32 17.92-56.32 17.92s47.616-41.984 60.928-39.424c13.312 3.072 39.424 60.928 39.424 60.928z m125.952 56.832s-16.896-44.544-28.16-51.712c-11.264-7.168-58.88-2.048-58.88-2.048s58.88-23.552 70.656-16.896c11.264 7.168 16.384 70.656 16.384 70.656z m90.624 98.816s5.12-47.616-1.536-58.88c-7.168-11.264-51.712-28.672-51.712-28.672s63.488 5.632 70.144 16.896c6.656 11.776-16.896 70.656-16.896 70.656z m27.648 114.688s18.432-44.032 14.848-56.832c-3.584-12.8-41.472-41.984-41.472-41.984s59.392 23.552 62.464 36.352c3.584 12.8-35.84 62.464-35.84 62.464z m-1.536 137.728s30.72-36.864 30.72-50.176c0.512-13.312-27.648-52.224-27.648-52.224s49.664 39.424 49.664 52.736c0 13.312-52.736 49.664-52.736 49.664z m-29.184 132.608s39.424-27.136 43.52-39.936-12.288-57.856-12.288-57.856 37.376 51.712 33.28 64.512c-4.096 12.8-64.512 33.28-64.512 33.28z m-150.528 22.016s35.328 1.024 43.52-4.608 17.92-39.936 17.92-39.936-0.512 47.104-8.192 52.736c-8.704 5.632-53.248-8.192-53.248-8.192z m115.712-100.864s23.552-26.624 24.064-36.352-18.944-39.424-18.944-39.424 35.84 30.72 35.328 40.448-40.448 35.328-40.448 35.328z m25.088-134.656s15.36-32.256 13.312-41.472c-2.048-9.728-29.184-32.256-29.184-32.256s43.008 19.456 45.056 29.184c1.536 9.216-29.184 44.544-29.184 44.544z m-164.352-259.072s-24.064-26.112-33.792-27.648c-9.728-1.536-40.96 14.848-40.96 14.848s34.304-32.768 44.032-30.72 30.72 43.52 30.72 43.52z m96.256 74.24s-5.12-34.816-11.776-41.984S701.44 240.64 701.44 240.64s46.592-7.68 53.76-0.512 0 53.248 0 53.248z m-178.688 465.92s32.768 12.8 42.496 10.24c9.216-2.56 30.208-31.232 30.208-31.232s-16.384 44.032-25.6 47.104c-9.728 2.56-47.104-26.112-47.104-26.112z m199.68 25.6s47.616-6.656 56.832-15.872c9.216-9.728 14.848-56.832 14.848-56.832s10.24 62.976 0.512 72.192c-9.216 9.728-72.192 0.512-72.192 0.512z m-126.464 74.752s47.104 8.192 58.88 2.048 31.744-49.664 31.744-49.664-9.728 62.976-21.504 69.12c-11.264 6.144-69.12-21.504-69.12-21.504z m-122.368 29.184s45.056 16.896 57.344 12.8c12.8-4.096 40.448-43.008 40.448-43.008s-20.992 59.904-33.792 64c-12.288 4.096-64-33.792-64-33.792zM404.48 151.04s30.72-36.352 44.032-39.424c12.8-2.56 56.32 17.92 56.32 17.92s-47.616-41.984-60.928-39.424S404.48 151.04 404.48 151.04zM278.528 207.872s16.896-44.544 28.16-51.712c11.264-7.168 58.88-2.048 58.88-2.048s-58.88-23.552-70.656-16.896c-11.264 7.168-16.384 70.656-16.384 70.656zM187.904 306.688s-5.12-47.616 1.536-58.88c7.168-11.264 51.712-28.672 51.712-28.672s-63.488 5.632-70.144 16.896 16.896 70.656 16.896 70.656z m-27.648 114.688s-18.432-44.032-14.848-56.832c3.584-12.8 41.472-41.984 41.472-41.984s-59.392 23.552-62.464 36.352c-3.584 12.8 35.84 62.464 35.84 62.464z m1.536 137.728s-30.72-36.864-30.72-50.176c-0.512-13.312 27.648-52.224 27.648-52.224s-49.664 39.424-49.664 52.736c0 13.312 52.736 49.664 52.736 49.664z m29.184 132.608s-39.424-27.136-43.52-39.936c-4.096-12.8 12.288-57.856 12.288-57.856s-37.376 51.712-33.28 64.512c4.096 12.8 64.512 33.28 64.512 33.28z m150.528 22.016s-35.328 1.024-43.52-4.608c-7.68-5.632-17.92-39.936-17.92-39.936s0.512 47.104 8.192 52.736c8.704 5.632 53.248-8.192 53.248-8.192z m-115.712-100.864s-23.552-26.624-24.064-36.352c-0.512-9.728 18.944-39.424 18.944-39.424s-35.84 30.72-35.328 40.448c1.024 9.728 40.448 35.328 40.448 35.328z m-25.088-134.656s-15.36-32.256-13.312-41.472c2.048-9.728 29.184-32.256 29.184-32.256s-43.008 19.456-45.056 29.184c-1.536 9.216 29.184 44.544 29.184 44.544z m164.352-259.072s24.064-26.112 33.792-27.648c9.728-1.536 40.96 14.848 40.96 14.848s-34.304-32.768-44.032-30.72-30.72 43.52-30.72 43.52zM268.8 293.376s5.12-34.816 11.776-41.984S322.56 240.64 322.56 240.64s-46.592-7.68-53.76-0.512 0 53.248 0 53.248z m178.688 465.92s-32.768 12.8-42.496 10.24c-9.216-2.56-30.208-31.232-30.208-31.232s16.384 44.032 25.6 47.104c9.728 2.56 47.104-26.112 47.104-26.112z m-199.68 25.6s-47.616-6.656-56.832-15.872c-9.216-9.728-14.848-56.832-14.848-56.832s-10.24 62.976-0.512 72.192c9.216 9.728 72.192 0.512 72.192 0.512z m126.464 74.752s-47.104 8.192-58.88 2.048-31.744-49.664-31.744-49.664 9.728 62.976 21.504 69.12 69.12-21.504 69.12-21.504z m122.368 29.184s-45.056 16.896-57.344 12.8c-12.8-4.096-40.448-43.008-40.448-43.008s20.992 59.904 33.792 64c12.288 4.096 64-33.792 64-33.792z" fill="#25467A" /></svg>