<?xml version="1.0" standalone="no"?><!DOCTYPE svg PUBLIC "-//W3C//DTD SVG 1.1//EN" "http://www.w3.org/Graphics/SVG/1.1/DTD/svg11.dtd"><svg class="icon" width="128px" height="128.00px" viewBox="0 0 1024 1024" version="1.1" xmlns="http://www.w3.org/2000/svg"><path d="M768.548563 1023.999989a69.439999 69.439999 0 0 1-32.548571-8.137143l-20.948571-11.188571-23.782857-1.794286a68.571428 68.571428 0 0 1-45.188571-21.634286l-12.674286-13.6-14.125714-4.639999a68.331428 68.331428 0 0 1-43.108571-42.057143l-3.428571-9.942857-9.051429-7.508571a66.902856 66.902856 0 0 1-23.999999-44.925714l-1.142858-10.982857-5.805714-7.291429a66.582856 66.582856 0 0 1-11.234285-62.685713l-3.268572-7.931429a66.285714 66.285714 0 0 1 0.137143-51.085713l8.182857-19.577143L527.999994 679.999992a67.017142 67.017142 0 0 1 29.142857-50.217142l3.428571-2.342857 1.222857-3.954286a68.057142 68.057142 0 0 1 44.171429-44.342856l18.799999-6.057143 21.874286-16a68.994285 68.994285 0 0 1 35.519999-13.062857l34.72-2.605714 32.48-9.382857a69.211428 69.211428 0 0 1 38.502856 0l32.48 9.382857 34.72 2.605714a69.005714 69.005714 0 0 1 35.519999 13.051428l21.874286 16 18.811428 6.068572a68.011428 68.011428 0 0 1 44.171428 44.342856l1.222857 3.942857 3.428572 2.342858A67.051428 67.051428 0 0 1 1009.142846 679.999992l1.485714 18.994286 8.171429 19.577143a66.285714 66.285714 0 0 1 0.137142 51.085713l-3.257142 7.931429a66.639999 66.639999 0 0 1-11.234286 62.685713l-5.805714 7.291429-1.142857 10.971428a66.845714 66.845714 0 0 1-24 44.937143l-9.051428 7.508571-3.428572 9.942857a68.377142 68.377142 0 0 1-43.108571 42.057142l-14.125714 4.64-12.685714 13.611429a68.571428 68.571428 0 0 1-45.188571 21.622857l-23.771428 1.794285-20.994286 11.211429a69.428571 69.428571 0 0 1-32.594285 8.137143z" fill="#25467A" /><path d="M475.919995 0m36.079999 0l0.011429 0q36.08 0 36.079999 36.08l0 131.82857q0 36.08-36.079999 36.079999l-0.011429 0q-36.08 0-36.079999-36.079999l0-131.82857q0-36.08 36.079999-36.08Z" fill="#25467A" /><path d="M511.999994 1023.999989a97.782856 97.782856 0 0 1-45.908571-11.428572l-57.531428-30.719999-65.142856-4.902857a95.279999 95.279999 0 0 1-62.857142-29.828572l-38.754285-41.588571-45.84-15.039999c-27.52-9.017143-49.428571-30.125714-58.628571-56.457143l-13.428571-38.445713L90.674285 767.999991a88.06857 88.06857 0 0 1-31.885714-59.039999l-4.342857-42.857142-24.331429-30.502857a86.457142 86.457142 0 0 1-14.685714-81.599999l7.314286-21.805714-16.228571-39.451428a85.611428 85.611428 0 0 1 0.182857-65.942857l22.137142-53.028571 4.114286-52.571428c2.068571-26.502857 16.228571-50.605714 38.857142-66.137142l24.925714-17.142857 9.142858-29.245714c8.685714-27.897143 31.131428-50.125714 60.034285-59.42857l50.914285-16.4 56.422856-41.188571a96.674285 96.674285 0 0 1 49.76-18.194286l83.42857-6.274285L484.75428 44.571428a98.285713 98.285713 0 0 1 54.491428 0l78.274285 22.617143 83.428571 6.274285A96.559999 96.559999 0 0 1 750.742849 91.657142l56.491428 41.245714 50.914285 16.411428c28.902857 9.302857 51.348571 31.531428 60.034285 59.428571l9.142857 29.245714 24.925714 17.142857c22.617143 15.52 36.777142 39.634285 38.857142 66.137142l4.114286 52.571428 22.137143 53.028571a85.611428 85.611428 0 0 1 0.182857 65.942856l-16.228571 39.451428 7.314285 21.805714a86.457142 86.457142 0 0 1-14.685714 81.599999l-24.331428 30.548571-4.342857 42.857143A88.06857 88.06857 0 0 1 933.325704 767.999991l-33.222857 27.554286-13.428571 38.445714c-9.2 26.285714-31.108571 47.439999-58.617142 56.457142l-45.851428 15.04-38.754286 41.588571a95.279999 95.279999 0 0 1-62.857142 29.828571l-65.142856 4.902857L557.908565 1012.571417A97.90857 97.90857 0 0 1 511.999994 1023.999989z" fill="#25467A" /><path d="M972.422846 443.851424l-22.285714-53.382857a41.657142 41.657142 0 0 1-3.12-12.891428L942.857132 324.651425a43.188571 43.188571 0 0 0-18.891428-32.148571l-25.645714-17.6a43.691428 43.691428 0 0 1-17.142857-22.982857l-9.36-30.045714a44.571428 44.571428 0 0 0-29.177142-28.902857l-51.325714-16.537142a46.468571 46.468571 0 0 1-13.142857-6.685714l-56.822857-41.485714a46.994285 46.994285 0 0 0-24.194285-8.845714L613.439993 113.142856a48.354285 48.354285 0 0 1-9.657143-1.737143L525.245708 88.685713a47.885714 47.885714 0 0 0-26.491428 0l-78.537142 22.697143a48.354285 48.354285 0 0 1-9.657143 1.76L326.857139 119.417142a46.994285 46.994285 0 0 0-24.194285 8.845714l-56.822857 41.485714a46.468571 46.468571 0 0 1-13.142857 6.685714l-51.325713 16.537142a44.64 44.64 0 0 0-29.188572 28.902857l-9.348571 30.045714a43.691428 43.691428 0 0 1-17.142857 22.982857l-25.645714 17.6A43.188571 43.188571 0 0 0 81.142856 324.651425l-4.137143 52.925714a41.657142 41.657142 0 0 1-3.12 12.891428l-22.285714 53.382857a41.782857 41.782857 0 0 0-0.091428 32.057142l16.571428 40.285714a41.68 41.68 0 0 1 0.971429 29.211428L61.439999 567.999994A41.977142 41.977142 0 0 0 68.571428 607.714279L93.359999 638.857136a42.445714 42.445714 0 0 1 9.142857 22.182857l4.422857 43.565713a42.982857 42.982857 0 0 0 15.497143 28.697143l33.748571 28a43.428571 43.428571 0 0 1 13.371428 19.119999L183.154284 819.428562a44.674285 44.674285 0 0 0 28.502856 27.428571l46.491429 15.245715a45.965714 45.965714 0 0 1 19.302856 12.274285l39.2 42.194285a46.525714 46.525714 0 0 0 30.56 14.491429l65.714285 4.948571a47.417142 47.417142 0 0 1 18.719999 5.417143l58.034286 30.982857a47.622857 47.622857 0 0 0 44.639999 0l58.034285-30.982857a47.359999 47.359999 0 0 1 18.72-5.428571l65.714285-4.948572A46.525714 46.525714 0 0 0 707.348564 916.571418l39.199999-42.079999a45.965714 45.965714 0 0 1 19.302857-12.274286l46.491428-15.245714a44.674285 44.674285 0 0 0 28.502857-27.428571l13.714285-39.085714a43.428571 43.428571 0 0 1 13.371429-19.12l33.748571-27.999999a43.028571 43.028571 0 0 0 15.497143-28.697143l4.422857-43.565714a42.445714 42.445714 0 0 1 9.142857-22.182857l24.685714-31.177142a42 42 0 0 0 7.131428-39.714285l-7.6-22.64a41.748571 41.748571 0 0 1 0.982857-29.211428l16.56-40.285714a41.725714 41.725714 0 0 0-0.08-32.011428z" fill="#FF5252" /><path d="M621.085707 193.999998s-31.165714-34.228571-44.674285-37.131428c-12.982857-2.411429-57.142857 16.88-57.142856 16.879999s48.308571-39.542857 61.817142-37.131428c13.508571 2.891429 40 57.382857 39.999999 57.382857zM748.879992 238.571426s-17.142857-41.954285-28.571429-48.708571-59.737142-1.92-59.737142-1.92 59.737142-22.194285 71.691428-15.92c11.428571 6.754286 16.628571 66.548571 16.628571 66.548571zM840.811419 330.148568s5.2-44.845714-1.554286-55.462857c-7.268571-10.605714-52.468571-27.005714-52.46857-27.005714s64.422856 5.302857 71.177142 15.92c6.754286 11.085714-17.142857 66.548571-17.142857 66.548571zM867.314276 566.765708s31.165714-34.72 31.165714-47.257142c0.525714-12.571428-28.057143-49.142857-28.057143-49.142857s50.399999 37.142857 50.4 49.679999-53.508571 46.765714-53.508571 46.765714zM837.714276 676.011421s40-25.565714 44.148571-37.622857-12.457143-54.491428-12.457142-54.491428 37.92 48.708571 33.759999 60.765714S837.714276 676.011421 837.714276 676.011421zM780.045706 763.77142s48.308571-6.262857 57.657142-14.948571c9.348571-9.142857 15.062857-53.531428 15.062857-53.531428s10.388571 59.325714 0.514285 67.999999c-9.337143 9.142857-73.234285 0.48-73.234284 0.48zM651.737136 840.422848s47.782857 7.714286 59.737142 1.931428 32.205714-46.777142 32.205714-46.777142-9.874286 59.314285-21.817143 65.142856c-11.428571 5.782857-70.125714-20.251428-70.125713-20.251428zM527.577137 882.491419s45.714285 15.92 58.182856 12.057142c12.994286-3.862857 41.04-40.502857 41.04-40.502856s-21.302857 56.411428-34.285714 60.274285c-12.468571 3.862857-64.937142-31.828571-64.937142-31.828571zM402.914281 193.999998s31.165714-34.228571 44.674285-37.131428c12.982857-2.411429 57.142857 16.88 57.142857 16.879999s-48.319999-39.542857-61.817142-37.131428-40 57.382857-40 57.382857zM275.119997 238.571426s17.142857-41.954285 28.571428-48.708571 59.737142-1.92 59.737142-1.92-59.737142-22.228571-71.679999-15.92c-11.428571 6.754286-16.628571 66.548571-16.628571 66.548571zM183.177141 330.148568s-5.2-44.845714 1.554286-55.462857c7.28-10.605714 52.468571-27.005714 52.46857-27.005714s-64.411428 5.302857-71.165713 15.92 17.142857 66.548571 17.142857 66.548571zM880.297133 441.314281s18.708571-41.474285 15.074286-53.531428-42.08-39.542857-42.08-39.542857 60.262856 22.182857 63.371428 34.285714c3.634286 12.057143-36.365714 58.834285-36.365714 58.834285zM143.702856 441.314281s-18.697143-41.474285-15.062857-53.531428 42.068571-39.542857 42.068571-39.542857-60.251428 22.182857-63.371428 34.285714c-3.634286 12.057143 36.365714 58.834285 36.365714 58.834285zM156.685713 566.765708s-31.165714-34.72-31.165714-47.257142c-0.525714-12.571428 28.045714-49.142857 28.045714-49.142857S103.177142 507.428566 103.177142 519.999994s53.508571 46.765714 53.508571 46.765714zM186.285712 676.011421s-40-25.565714-44.159999-37.622857 12.468571-54.491428 12.468571-54.491428-37.92 48.708571-33.76 60.765714S186.285712 676.011421 186.285712 676.011421zM684.982849 716.194278s35.84 0.971429 44.148571-4.342857S747.314277 674.285707 747.314277 674.285707s-0.514286 44.365714-8.308571 49.668571c-8.834286 5.302857-54.022857-7.714286-54.022857-7.714286zM802.377134 606.857136s23.897143-25.074285 24.411428-34.285714-19.211428-37.131428-19.211428-37.131428 36.365714 29.017143 35.851428 38.182857S802.377134 606.857136 802.377134 606.857136zM827.839991 482.365709s15.577143-30.377143 13.497142-39.062857c-2.068571-9.142857-29.611428-30.377143-29.611428-30.377142s43.634285 18.285714 45.714285 27.485714c1.565714 8.685714-29.6 41.954285-29.599999 41.954285zM661.085707 253.862854s-24.411428-24.594285-34.285714-26.045714-41.554285 13.988571-41.554285 13.988572 34.8-30.857143 44.674285-28.937143 31.165714 40.994285 31.165714 40.994285zM758.742849 338.731425s-5.188571-32.788571-11.942857-39.542857-42.594285-10.125714-42.594286-10.125714 47.268571-7.234286 54.537143-0.48 0 50.148571 0 50.148571zM577.451422 793.554277s33.245714 12.057143 43.12 9.645714c9.348571-2.411429 30.64-29.417143 30.639999-29.417142s-16.617143 41.474285-25.965714 44.365713c-9.874286 2.411429-47.794285-24.594285-47.794285-24.594285zM339.017139 716.194278s-35.84 0.971429-44.148571-4.342857C287.074283 706.548564 276.685711 674.285707 276.685711 674.285707s0.514286 44.365714 8.308572 49.668571c8.834286 5.302857 54.022857-7.714286 54.022856-7.714286zM221.622855 606.857136s-23.897143-25.074285-24.411429-34.285714 19.211428-37.131428 19.211429-37.131428-36.354285 29.017143-35.851428 38.182857c1.04 9.142857 41.04 33.268571 41.039999 33.268571zM196.159998 482.365709s-15.588571-30.377143-13.497143-39.062857c2.068571-9.142857 29.611428-30.377143 29.611428-30.377142s-43.634285 18.285714-45.714285 27.485714c-1.565714 8.685714 29.6 41.954285 29.6 41.954285zM362.914282 253.862854s24.411428-24.594285 34.285714-26.045714 41.554285 13.988571 41.554285 13.988572-34.8-30.857143-44.674285-28.937143-31.165714 40.994285-31.165714 40.994285zM265.25714 338.731425s5.188571-32.788571 11.942857-39.542857 42.594285-10.125714 42.594285-10.125714-47.268571-7.234286-54.537142-0.48 0 50.148571 0 50.148571zM446.548566 793.554277s-33.245714 12.057143-43.119999 9.645714c-9.348571-2.411429-30.64-29.417143-30.64-29.417142s16.617143 41.474285 25.965714 44.365713c9.874286 2.411429 47.794285-24.594285 47.794285-24.594285zM243.954283 763.77142s-48.308571-6.262857-57.657142-14.948571c-9.36-9.142857-15.062857-53.531428-15.062857-53.531428s-10.388571 59.325714-0.525714 67.999999c9.348571 9.142857 73.245713 0.48 73.245713 0.48zM372.262853 840.422848s-47.794285 7.714286-59.737142 1.931428-32.205714-46.777142-32.205714-46.777142 9.862857 59.314285 21.817142 65.142856 70.125714-20.251428 70.125714-20.251428zM496.411423 882.491419s-45.714285 15.92-58.171428 12.057142c-12.994286-3.862857-41.04-40.502857-41.039999-40.502856s21.291428 56.411428 34.285713 60.274285c12.457143 3.862857 64.925714-31.828571 64.925714-31.828571z" fill="#D50000" /><path d="M768.548563 998.857132a44.251428 44.251428 0 0 1-20.754286-5.177143l-25.622856-13.714286-29.062857-2.194285a43.428571 43.428571 0 0 1-28.674286-13.714286l-17.142857-18.342857-20.274285-6.651428a43.131428 43.131428 0 0 1-27.211428-26.457143l-5.714286-16.548571-14.434286-11.908571A41.874285 41.874285 0 0 1 564.571422 855.99999l-1.851428-18.285714-10.422857-13.074285a41.577142 41.577142 0 0 1-6.982857-39.257143l2.902857-8.651428-6.857143-16.594286a41.291428 41.291428 0 0 1 0.091429-31.839999l9.714285-23.291429 1.805714-23.017142a42.022857 42.022857 0 0 1 18.285714-31.44l10.605715-7.28 3.828571-12.274285a42.868571 42.868571 0 0 1 27.862857-27.885714l22.662857-7.302857 25.142857-18.354286a43.908571 43.908571 0 0 1 22.617142-8.308571l37.314286-2.8 34.982856-10.114286a44.194285 44.194285 0 0 1 24.537143 0l34.982857 10.114286 37.314285 2.8a43.874285 43.874285 0 0 1 22.582857 8.285714l25.142857 18.354285 22.651428 7.302858a42.845714 42.845714 0 0 1 27.874285 27.897142l3.817143 12.262857 10.605714 7.28a42.045714 42.045714 0 0 1 18.285714 31.44l1.794286 23.017142 9.725714 23.291429a41.291428 41.291428 0 0 1 0.08 31.839999l-6.857142 16.594286 2.902857 8.651428a41.577142 41.577142 0 0 1-6.982857 39.268571L974.377132 837.714276 972.571418 855.99999a41.862857 41.862857 0 0 1-15.074286 28.125714l-14.48 11.988572-5.782857 16.548571a43.108571 43.108571 0 0 1-27.199999 26.457143l-20.285715 6.651428-17.085714 18.342857a43.508571 43.508571 0 0 1-28.685714 13.714286l-29.062856 2.194285-25.622857 13.714286a44.24 44.24 0 0 1-20.742857 5.12z" fill="#25467A" /><path d="M974.514275 737.142849l-9.942857-23.931428a18.468571 18.468571 0 0 1-1.394286-5.714286l-1.851428-23.68a19.325714 19.325714 0 0 0-8.457143-14.377142l-11.428572-7.874286a19.428571 19.428571 0 0 1-7.657142-10.285714l-4.194286-13.44a19.908571 19.908571 0 0 0-13.051428-12.925714l-22.96-7.394286a21.188571 21.188571 0 0 1-5.885714-2.994286l-25.417143-18.559999A20.96 20.96 0 0 0 851.428562 591.999993l-37.462857-2.822857a21.142857 21.142857 0 0 1-4.32-0.777143l-35.142857-10.148571a21.325714 21.325714 0 0 0-11.851428 0l-35.131428 10.148571a21.28 21.28 0 0 1-4.32 0.777143L685.714278 591.999993a20.914285 20.914285 0 0 0-10.811428 3.954286l-25.428572 18.56a20.88 20.88 0 0 1-5.885714 2.994286L620.571422 624.857136a19.942857 19.942857 0 0 0-13.062857 12.925714L603.428565 651.22285a19.6 19.6 0 0 1-7.657143 10.285714l-11.428571 7.874286a19.302857 19.302857 0 0 0-8.445715 14.377142L573.942851 707.428564a19.12 19.12 0 0 1-1.394286 5.714285l-9.977143 24a18.685714 18.685714 0 0 0 0 14.342857l7.405714 18.022857a18.697143 18.697143 0 0 1 0.445715 13.062857l-3.428572 10.125714a18.777143 18.777143 0 0 0 3.2 17.748571l11.085715 13.92a18.982857 18.982857 0 0 1 4.068571 9.92l1.977143 19.428571a19.222857 19.222857 0 0 0 6.96 12.845714l15.097142 12.571429a19.497143 19.497143 0 0 1 5.977143 8.548571l6.114286 17.485714a19.965714 19.965714 0 0 0 12.742857 12.285714l20.8 6.857143a20.571428 20.571428 0 0 1 8.639999 5.497143L681.14285 948.571418a20.857143 20.857143 0 0 0 13.714285 6.48l29.394285 2.217143a21.222857 21.222857 0 0 1 8.32 2.388571l25.954286 13.862857a21.348571 21.348571 0 0 0 19.965714 0l25.965714-13.862857a21.108571 21.108571 0 0 1 8.377143-2.422857l29.451428-2.217143a20.834285 20.834285 0 0 0 13.714285-6.48l17.542857-18.822857a20.571428 20.571428 0 0 1 8.628572-5.497142l20.799999-6.857143A19.988571 19.988571 0 0 0 915.657133 905.142847l6.114285-17.485714a19.428571 19.428571 0 0 1 5.977143-8.548571l15.097143-12.571429a19.268571 19.268571 0 0 0 6.937143-12.822857l1.977142-19.428571a18.982857 18.982857 0 0 1 4.068572-9.92l11.085714-13.92a18.777143 18.777143 0 0 0 3.188571-17.748571l-3.428571-10.125714a18.697143 18.697143 0 0 1 0.434286-13.062857l7.417142-18.022857a18.685714 18.685714 0 0 0-0.011428-14.342857z" fill="#FF5252" /><path d="M582.057136 754.582849c0-97.58857 86.651428-158.685713 186.491427-158.685713s186.491426 61.097142 186.491426 158.685713-86.651428 198.137141-186.491426 198.13714S582.057136 852.171419 582.057136 754.582849z" fill="#FFEBEE" /><path d="M511.999994 575.314279a69.279999 69.279999 0 0 1-69.18857-69.222856 13.851428 13.851428 0 0 1 27.679999-0.822857v0.822857a41.52 41.52 0 0 0 83.028571 0 13.84 13.84 0 1 1 27.668571-0.822857v0.822857A69.268571 69.268571 0 0 1 511.999994 575.314279zM332.068568 395.428567a41.52 41.52 0 0 0 83.02857 0 41.52 41.52 0 1 0-83.02857 0zM608.834279 395.428567a41.52 41.52 0 0 0 83.02857 0.068571V395.428567a41.52 41.52 0 1 0-83.02857 0z" fill="#25467A" /><path d="M318.239996 464.617138h-55.291428a27.668571 27.668571 0 1 0 0 55.337142h55.382857a27.668571 27.668571 0 1 0 0-55.337142h-0.091429z m442.811424 0h-55.359999a27.668571 27.668571 0 0 0 0 55.337142h55.359999a27.668571 27.668571 0 1 0 0-55.337142z" fill="#FFEBEE" /></svg>