<?xml version="1.0" standalone="no"?><!DOCTYPE svg PUBLIC "-//W3C//DTD SVG 1.1//EN" "http://www.w3.org/Graphics/SVG/1.1/DTD/svg11.dtd"><svg class="icon" width="128px" height="128.00px" viewBox="0 0 1024 1024" version="1.1" xmlns="http://www.w3.org/2000/svg"><path d="M899.76 483.291429a76.64 76.64 0 0 0-28.297143-17.988572c8.72-22.582857 12.411429-43.737143 11.325714-63.131428 76.411429-23.497143 138.091429-101.108571 141.097143-187.794286 1.828571-52.491429-18.708571-102.491429-59.371428-144.605714-38.411429-39.782857-93.554286-69.714286-128.262857-69.714286-18.137143 0-30.445714 7.245714-37.554286 13.302857-27.428571 23.36-19.154286 53.645714-10.925714 71.794286L763.428571 96.765714a173.485714 173.485714 0 0 0-66.377142 56A140.24 140.24 0 0 0 512 147.428571a140.251429 140.251429 0 0 0-185.051429 5.325715 173.508571 173.508571 0 0 0-66.377142-56l-24.342858-11.657143c8.228571-18.148571 16.525714-48.434286-10.902857-71.771429C218.194286 7.245714 205.897143 0 187.748571 0 153.04 0 97.897143 30 59.485714 69.771429 18.822857 111.885714-1.714286 161.885714 0.114286 214.377143c3.005714 86.674286 64.674286 164.274286 141.074285 187.794286-1.04 18.468571 2.285714 38.571429 10.171429 59.965714a76.297143 76.297143 0 0 0-39.908571 21.154286L48.114286 546.64A76.8 76.8 0 0 0 102.411429 677.714286a77.428571 77.428571 0 0 0 13.554285-1.142857 76.891429 76.891429 0 0 0 97.851429 99.154285 76.822857 76.822857 0 0 0 57.508571 119.382857A101.851429 101.851429 0 0 0 256 948.948571c0 33.371429 26.754286 72.354286 102.182857 72.354286a174.285714 174.285714 0 0 0 35.851429-3.577143 113.497143 113.497143 0 0 0 66.571428-2.971428 114.034286 114.034286 0 0 0 95.874286-2.742857 114.285714 114.285714 0 0 0 45.12 9.337142 112.422857 112.422857 0 0 0 28.354286-3.622857 174.285714 174.285714 0 0 0 35.851428 3.577143c75.428571 0 102.194286-38.982857 102.194286-72.354286a101.794286 101.794286 0 0 0-16.491429-55.668571 76.88 76.88 0 0 0 45.885715-117.554286A76.902857 76.902857 0 0 0 895.245714 676.571429a77.462857 77.462857 0 0 0 13.565715 1.142857 76.8 76.8 0 0 0 54.297142-131.108572z" fill="#25467A" /><path d="M665.611429 897.737143c-0.297143 0-0.56 0.08-0.845715 0.091428a63.497143 63.497143 0 0 0-112.251428-32.285714 63.108571 63.108571 0 0 0-86.857143-6.342857 63.542857 63.542857 0 0 0-106.365714 38.628571c-0.285714 0-0.548571-0.091429-0.834286-0.091428a51.2 51.2 0 0 0-51.2 51.2c0 21.714286 60.194286 26.685714 88.24 15.074286a62.548571 62.548571 0 0 0 66.948571-8.262858 63.234286 63.234286 0 0 0 92.297143-6.342857 63.017143 63.017143 0 0 0 73.828572 14.605715c28.045714 11.611429 88.251429 6.64 88.251428-15.074286a51.2 51.2 0 0 0-51.211428-51.2zM251.348571 614.4H384v51.2H261.954286l-55.862857 55.862857a25.601143 25.601143 0 1 1-36.205715-36.205714l63.36-63.36a25.542857 25.542857 0 0 1 18.102857-7.497143zM340.948571 729.6h132.662858v51.2h-122.057143l-55.862857 55.862857a25.601143 25.601143 0 1 1-36.205715-36.205714l63.36-63.314286a25.542857 25.542857 0 0 1 18.102857-7.542857zM165.714286 512h132.708571v51.2h-122.057143l-55.862857 55.862857A25.6 25.6 0 0 1 84.308571 582.857143l63.348572-63.36A25.554286 25.554286 0 0 1 165.714286 512zM759.862857 614.4H627.211429v51.2H749.257143l55.862857 55.862857a25.601143 25.601143 0 0 0 36.205714-36.205714l-63.36-63.36a25.542857 25.542857 0 0 0-18.102857-7.497143zM670.262857 729.6H537.611429v51.2H659.657143l55.862857 55.862857a25.601143 25.601143 0 1 0 36.205714-36.205714L688.365714 737.142857a25.542857 25.542857 0 0 0-18.102857-7.542857zM845.451429 512H712.788571v51.2h122.057143l55.862857 55.862857A25.601143 25.601143 0 0 0 926.914286 582.857143l-63.36-63.36a25.554286 25.554286 0 0 0-18.102857-7.497143z" fill="#EA5100" /><path d="M512.011429 768m-128 0a128 128 0 1 0 256 0 128 128 0 1 0-256 0Z" fill="#FE6100" /><path d="M512.011429 588.8m-179.2 0a179.2 179.2 0 1 0 358.4 0 179.2 179.2 0 1 0-358.4 0Z" fill="#EA5100" /><path d="M825.851429 384c-23.268571-39.737143-89.451429-0.48-188.308572-51.2C567.611429 296.914286 559.84 256 512 256s-55.6 40.914286-125.542857 76.8c-98.857143 50.72-165.04 11.428571-188.308572 51.2-25.874286 44.16 34.971429 132.434286 87.874286 179.2C372.902857 640 478.548571 640 512 640s139.097143 0 225.965714-76.8c52.891429-46.765714 113.76-135.04 87.885715-179.2z" fill="#FE6100" /><path d="M512 550.4a64.068571 64.068571 0 0 1-64-64 12.8 12.8 0 0 1 25.6 0 38.4 38.4 0 0 0 76.8 0 12.8 12.8 0 1 1 25.6 0 64.08 64.08 0 0 1-64 64z" fill="#25467A" /><path d="M332.811429 448h-51.2a25.6 25.6 0 0 0 0 51.2h51.2a25.6 25.6 0 1 0 0-51.2zM742.411429 448h-51.2a25.6 25.6 0 1 0 0 51.2h51.2a25.6 25.6 0 0 0 0-51.2z" fill="#E62325" /><path d="M422.411429 256m-89.6 0a89.6 89.6 0 1 0 179.2 0 89.6 89.6 0 1 0-179.2 0Z" fill="#FFFFFF" /><path d="M422.411429 256m-38.4 0a38.4 38.4 0 1 0 76.8 0 38.4 38.4 0 1 0-76.8 0Z" fill="#25467A" /><path d="M601.611429 256m-89.6 0a89.6 89.6 0 1 0 179.2 0 89.6 89.6 0 1 0-179.2 0Z" fill="#FFFFFF" /><path d="M601.611429 256m-38.4 0a38.4 38.4 0 1 0 76.8 0 38.4 38.4 0 1 0-76.8 0Z" fill="#25467A" /><path d="M719.2 270.857143c12.491429 57.245714 69.348571 85.92 112.674286 87.44 73.748571 2.594286 138.285714-71.417143 140.845714-145.737143 3.805714-109.645714-128.96-170.422857-140.845714-160.308571-8.194286 6.982857 38.217143 50.08 30.537143 114.8-5.211429 43.897143-33.04 78.525714-38.354286 76.571428-4.091429-1.542857 7.302857-24 0-51.017143-6.148571-22.754286-22.857143-38.777143-38.514286-49.657143-50.377143 24.125714-77.234286 77.954286-66.342857 127.908572zM304.8 270.857143c-12.491429 57.245714-69.348571 85.92-112.674286 87.44-73.748571 2.594286-138.285714-71.417143-140.845714-145.737143C47.474286 102.914286 180.24 42.137143 192.125714 52.251429c8.194286 6.982857-38.217143 50.08-30.537143 114.8 5.211429 43.897143 33.04 78.525714 38.354286 76.571428 4.091429-1.542857-7.302857-24 0-51.017143 6.148571-22.754286 22.857143-38.777143 38.514286-49.657143 50.377143 24.125714 77.234286 77.954286 66.342857 127.908572z" fill="#FE6100" /><path d="M140.788571 652.8A12.777143 12.777143 0 0 1 128 640.64c-5.565714-112 49.142857-209.691429 136.205714-242.994286 52.571429-20.102857 103.302857-11.211429 136.594286-0.194285a12.8 12.8 0 0 1-8 24.297142c-29.36-9.702857-73.908571-17.622857-119.405714-0.194285-75.428571 28.88-124.731429 118.434286-119.794286 217.805714a12.8 12.8 0 0 1-12.148571 13.417143zM883.222857 652.8A12.777143 12.777143 0 0 0 896 640.64c5.565714-112-49.142857-209.691429-136.205714-242.994286-52.571429-20.102857-103.302857-11.211429-136.594286-0.194285a12.8 12.8 0 0 0 8 24.297142c29.36-9.702857 73.908571-17.622857 119.417143-0.194285 75.428571 28.88 124.72 118.434286 119.794286 217.805714a12.777143 12.777143 0 0 0 12.137142 13.417143z" fill="#FAAD96" /></svg>