<?xml version="1.0" standalone="no"?><!DOCTYPE svg PUBLIC "-//W3C//DTD SVG 1.1//EN" "http://www.w3.org/Graphics/SVG/1.1/DTD/svg11.dtd"><svg class="icon" width="128px" height="128.00px" viewBox="0 0 1024 1024" version="1.1" xmlns="http://www.w3.org/2000/svg"><path d="M923.156268 158.443946a51.096573 51.096573 0 1 0-70.71921-69.839221c-0.628564-0.491423-1.142844-1.039988-1.828551-1.519983-107.941652-82.284796-227.208893-85.48476-278.134039-86.856173-4.079954-0.114284-9.611321-0.228569-16.411245-0.228569-74.124887 0-215.871876 14.765549-332.316292 113.610161C108.068222 211.837636 47.017475 367.001618 42.286099 574.782156c-1.862836 81.141952-16.194105 130.467115-27.725404 170.100959-13.29128 45.713776-25.85114 88.924722 2.708541 138.192744C88.354157 1005.71449 261.117943 1024 357.779721 1024c8.879901 0 15.748396-0.159998 20.056919-0.285711 283.99683-7.828484 610.278903-213.014765 643.227107-506.005781 11.691298-103.633129-9.851319-247.894376-97.907479-359.264562z" fill="#25467A" /><path d="M93.451243 576.005c4.571378-198.763496 63.393578-338.350509 163.426747-423.286704 122.810058-104.273122 278.579748-102.181717 314.282207-101.233156 46.742335 1.2457 153.666856 4.091383 248.442941 76.364862C943.316043 222.180377 984.195587 387.54996 970.184315 512.005714c-31.325365 278.111182-348.40754 453.777793-593.764802 460.566289-34.411045 0.948561-245.060122 5.279941-314.876486-115.141573-34.502472-59.542193 27.816832-102.376 31.908216-281.42543z" fill="#FED500" /><path d="M970.127173 512.005714C938.893236 790.116896 621.822489 965.714936 376.44237 972.572003c-34.433901 1.02856-245.128693 5.257084-314.899343-115.061573-28.799679-49.668017 9.862747-87.816163 25.862569-203.266303A516.622806 516.622806 0 0 0 454.395786 806.379572c255.368578 0 467.731923-184.70651 510.611444-427.778083 8.44562 46.216627 9.83989 92.033259 5.119943 133.404225z" fill="#F2CB00" /><path d="M511.995143 550.382429a64.079285 64.079285 0 0 1-63.999286-63.999286 12.799857 12.799857 0 0 1 25.599714 0 38.399571 38.399571 0 0 0 76.799143 0 12.799857 12.799857 0 0 1 25.599715 0 64.079285 64.079285 0 0 1-63.999286 63.999286z" fill="#25467A" /><path d="M383.996571 383.984286m-38.399571 0a38.399571 38.399571 0 1 0 76.799143 0 38.399571 38.399571 0 1 0-76.799143 0Z" fill="#25467A" /><path d="M639.993714 383.984286m-38.399571 0a38.399571 38.399571 0 1 0 76.799143 0 38.399571 38.399571 0 1 0-76.799143 0Z" fill="#25467A" /><path d="M332.797143 448.006428h-51.199429a25.599714 25.599714 0 0 0 0 51.199429h51.199429a25.599714 25.599714 0 1 0 0-51.199429zM742.392572 448.006428h-51.199429a25.599714 25.599714 0 1 0 0 51.199429h51.199429a25.599714 25.599714 0 0 0 0-51.199429z" fill="#FBEAAE" /></svg>