<?xml version="1.0" standalone="no"?><!DOCTYPE svg PUBLIC "-//W3C//DTD SVG 1.1//EN" "http://www.w3.org/Graphics/SVG/1.1/DTD/svg11.dtd"><svg class="icon" width="128px" height="128.00px" viewBox="0 0 1024 1024" version="1.1" xmlns="http://www.w3.org/2000/svg"><path d="M155.191715 1024c-66.263904 0-120.17812-55.049253-120.17812-122.707277v-2.331759l0.197398-2.319422c39.479518-468.597205-2.46747-587.467566-11.350362-606.541108l-0.641542-1.381783c-21.429976-46.018313-28.06747-90.95094-19.739759-133.551808 9.86988-49.448096 46.104675-116.242506 115.971084-142.397686A201.802024 201.802024 0 0 1 190.007715 0c37.999036 0 73.283855 10.708819 103.029205 30.843373a151.514988 151.514988 0 0 1 143.187277 4.392097 152.15653 152.15653 0 0 1 151.749398 0A151.514988 151.514988 0 0 1 731.062173 30.843373c29.745349-20.072867 65.030169-30.843373 103.029205-30.843373a201.604627 201.604627 0 0 1 70.322892 12.70747c70.076145 26.216867 106.347952 93.011277 116.156144 142.274313 8.37706 42.785928 1.739566 87.718554-19.739759 133.736868l-0.641542 1.381783c-8.821205 19.073542-50.854554 137.943904-11.350361 606.541108l0.197397 2.319422v2.331759c0 67.658024-53.914217 122.707277-120.17812 122.707277z" fill="#25467A" /><path d="M966.22439 165.789301c-7.871229-39.479518-35.778313-84.20241-81.105735-101.166265-50.583133-18.777446-111.591325-10.215325-150.34294 37.012048a96.231325 96.231325 0 0 0-146.900819 5.650506 96.231325 96.231325 0 0 0-151.749397 0 96.231325 96.231325 0 0 0-146.90082-5.650506c-38.751614-47.215036-99.722795-55.777157-150.342939-37.012048-45.376771 16.976193-73.234506 61.686747-81.105735 101.166265-9.512096 48.596819 11.44906 90.556145 16.285301 101.055229 28.684337 61.982843 49.349398 241.812048 16.272964 634.448193 0 37.271133 28.968096 67.361928 64.820433 67.361928h713.690988c35.852337 0 64.820434-30.090795 64.820434-67.361928-33.101108-392.599133-12.411373-572.453012 16.272964-634.448193 4.836241-10.499084 25.797398-52.45841 16.285301-101.055229z" fill="#E3A772" /><path d="M155.191715 940.969639c-20.159229 0-36.62959-17.272289-37.135421-38.652916 27.83306-330.93706 21.146217-560.695518-18.85147-647.106313l-0.715566-1.542169c-5.169349-11.103614-20.89947-44.858602-13.509398-82.549205 6.069976-30.497928 28.116819-67.300241 63.636048-80.587566A118.561928 118.561928 0 0 1 190.007715 83.030361c31.114795 0 58.799807 12.830843 77.922699 36.136097-1.776578 12.867855 8.154988 24.267566 20.208579 24.613012s22.602024-10.499084 21.553349-23.440964a68.570988 68.570988 0 0 1 104.756434 4.009639c-2.208386 15.12559 9.549108 27.746699 21.775421 27.746698s23.983807-12.621108 21.763085-27.746698a68.620337 68.620337 0 0 1 108.186217 0c-2.220723 15.12559 9.536771 27.746699 21.763084 27.746698s23.983807-12.621108 21.775422-27.746698a68.570988 68.570988 0 0 1 104.756433-4.009639c-1.048675 12.94188 9.499759 23.774072 21.55335 23.440964s21.985157-11.745157 20.208578-24.613012c19.122892-23.305253 46.807904-36.136096 77.922699-36.136097a118.734651 118.734651 0 0 1 41.404144 7.525784c35.445205 13.262651 57.492048 50.064964 63.586699 80.649253 7.40241 37.604241-8.364723 71.359229-13.571084 82.462843l-0.752578 1.616193c-39.960675 86.361446-46.647518 316.095229-18.814458 647.032289-0.505831 21.405301-16.976193 38.652916-37.135422 38.652916z" fill="#FFE0B8" /><path d="M630.685499 591.946024l-258.751229 98.205301a69.187855 69.187855 0 0 0 49.10265 129.369446L679.800487 721.327807a69.195258 69.195258 0 1 0-49.114988-129.381783zM630.685499 246.006747L371.93427 344.212048a69.19279 69.19279 0 0 0 49.10265 129.381783L679.800487 375.376193a69.189089 69.189089 0 1 0-49.114988-129.369446z" fill="#FFE06C" /><path d="M512.012535 567.357687a69.274217 69.274217 0 0 1-69.200193-69.187856 13.842506 13.842506 0 1 1 27.685012 0 41.515181 41.515181 0 1 0 83.018024 0 13.842506 13.842506 0 0 1 27.685012 0A69.274217 69.274217 0 0 1 512.012535 567.357687z" fill="#25467A" /><path d="M373.649161 387.466795m-41.51518 0a41.515181 41.515181 0 1 0 83.030361 0 41.515181 41.515181 0 1 0-83.030361 0Z" fill="#25467A" /><path d="M650.400583 387.466795m-41.515181 0a41.515181 41.515181 0 1 0 83.030362 0 41.515181 41.515181 0 1 0-83.030362 0Z" fill="#25467A" /><path d="M318.316149 456.654651h-55.382361a27.685012 27.685012 0 0 0 0 55.357686H318.316149a27.685012 27.685012 0 0 0 0-55.357686zM761.103619 456.654651H705.70892a27.685012 27.685012 0 0 0 0 55.345349h55.394699a27.685012 27.685012 0 0 0 0-55.357687z" fill="#FAAD96" /></svg>