<?xml version="1.0" standalone="no"?><!DOCTYPE svg PUBLIC "-//W3C//DTD SVG 1.1//EN" "http://www.w3.org/Graphics/SVG/1.1/DTD/svg11.dtd"><svg class="icon" width="128px" height="128.00px" viewBox="0 0 1024 1024" version="1.1" xmlns="http://www.w3.org/2000/svg"><path d="M742.4 742.4m-281.6 0a281.6 281.6 0 1 0 563.2 0 281.6 281.6 0 1 0-563.2 0Z" fill="#25467A" /><path d="M448 1024c-27.097143 0-45.245714-17.291429-55.28-27.188571C157.36 971.6 0 778.377143 0 512S157.245714 52.571429 392.708571 27.2C402.742857 17.291429 420.891429 0 448 0s45.245714 17.291429 55.28 27.188571C738.64 52.4 896 245.622857 896 512S738.754286 971.428571 503.291429 996.8C493.257143 1006.708571 475.108571 1024 448 1024z" fill="#25467A" /><path d="M844.8 512c0 228.697143-128 416.297143-358.4 434.971429-12.571429 1.085714-25.348571 25.828571-38.4 25.828571s-25.851429-24.742857-38.4-25.828571C179.2 928.297143 51.2 740.697143 51.2 512s128-416.297143 358.4-434.971429c12.571429-1.142857 25.348571-25.828571 38.4-25.828571s25.851429 24.742857 38.4 25.828571C716.8 95.702857 844.8 283.302857 844.8 512z" fill="#C4881C" /><path d="M844.8 512c0 228.731429-128 416.251429-358.4 434.948571-12.571429 1.142857-25.348571 25.851429-38.4 25.851429s-25.851429-24.708571-38.4-25.851429c-133.12-10.754286-231.931429-77.954286-291.714286-176.777142a508.48 508.48 0 0 0 189.314286 36.228571c267.908571 0 487.805714-205.828571 510.08-467.965714C835.428571 391.554286 844.8 450.285714 844.8 512z" fill="#B87F1A" /><path d="M742.4 742.4m-243.2 0a243.2 243.2 0 1 0 486.4 0 243.2 243.2 0 1 0-486.4 0Z" fill="#9C6D1E" /><path d="M742.4 742.4m-217.6 0a217.6 217.6 0 1 0 435.2 0 217.6 217.6 0 1 0-435.2 0Z" fill="#B4E876" /><path d="M742.4 742.4m-51.2 0a51.2 51.2 0 1 0 102.4 0 51.2 51.2 0 1 0-102.4 0Z" fill="#FBEFC6" /><path d="M755.2 581.177143c-1.92 48.4-7.817143 95.085714-12.8 95.085714s-10.88-46.685714-12.8-95.085714c0-18.057143 5.782857-20.114286 12.8-20.114286s12.8 2.057143 12.8 20.114286z" fill="#81B532" /><path d="M742.4 646.4m-6.4 0a6.4 6.4 0 1 0 12.8 0 6.4 6.4 0 1 0-12.8 0Z" fill="#272727" /><path d="M865.451429 637.451429c-35.588571 32.857143-72.765714 61.714286-76.285715 58.182857s25.325714-40.697143 58.182857-76.285715c12.765714-12.765714 18.285714-10.137143 23.268572-5.165714s7.6 10.502857-5.165714 23.268572z" fill="#81B532" /><path d="M810.285714 674.514286m-6.4 0a6.4 6.4 0 1 0 12.8 0 6.4 6.4 0 1 0-12.8 0Z" fill="#272727" /><path d="M903.622857 755.2c-48.4-1.92-95.085714-7.817143-95.085714-12.8s46.685714-10.88 95.085714-12.8c18.057143 0 20.114286 5.782857 20.114286 12.8s-2.057143 12.8-20.114286 12.8z" fill="#81B532" /><path d="M838.4 742.4m-6.4 0a6.4 6.4 0 1 0 12.8 0 6.4 6.4 0 1 0-12.8 0Z" fill="#272727" /><path d="M847.348571 865.451429c-32.857143-35.588571-61.714286-72.765714-58.182857-76.285715s40.697143 25.325714 76.285715 58.182857c12.765714 12.765714 10.137143 18.285714 5.165714 23.268572s-10.502857 7.6-23.268572-5.165714z" fill="#81B532" /><path d="M810.285714 810.285714m-6.4 0a6.4 6.4 0 1 0 12.8 0 6.4 6.4 0 1 0-12.8 0Z" fill="#272727" /><path d="M729.6 903.622857c1.92-48.4 7.817143-95.085714 12.8-95.085714s10.88 46.685714 12.8 95.085714c0 18.057143-5.782857 20.114286-12.8 20.114286s-12.8-2.057143-12.8-20.114286z" fill="#81B532" /><path d="M742.4 838.4m-6.4 0a6.4 6.4 0 1 0 12.8 0 6.4 6.4 0 1 0-12.8 0Z" fill="#272727" /><path d="M619.348571 847.348571c35.588571-32.857143 72.765714-61.714286 76.285715-58.182857s-25.325714 40.697143-58.182857 76.285715c-12.765714 12.765714-18.285714 10.137143-23.268572 5.165714s-7.6-10.502857 5.165714-23.268572z" fill="#81B532" /><path d="M674.514286 810.285714m-6.4 0a6.4 6.4 0 1 0 12.8 0 6.4 6.4 0 1 0-12.8 0Z" fill="#272727" /><path d="M581.177143 729.6c48.4 1.92 95.085714 7.817143 95.085714 12.8s-46.685714 10.88-95.085714 12.8c-18.057143 0-20.114286-5.782857-20.114286-12.8s2.057143-12.8 20.114286-12.8z" fill="#81B532" /><path d="M646.4 742.4m-6.4 0a6.4 6.4 0 1 0 12.8 0 6.4 6.4 0 1 0-12.8 0Z" fill="#272727" /><path d="M637.451429 619.348571c32.857143 35.588571 61.714286 72.765714 58.182857 76.285715s-40.697143-25.325714-76.285715-58.182857c-12.765714-12.765714-10.137143-18.285714-5.165714-23.268572s10.502857-7.6 23.268572 5.165714z" fill="#81B532" /><path d="M674.514286 674.514286m-6.4 0a6.4 6.4 0 1 0 12.8 0 6.4 6.4 0 1 0-12.8 0Z" fill="#272727" /><path d="M786.411429 586.777143c-11.337143 47.085714-26.285714 91.737143-31.108572 90.765714s-1.554286-47.92 6-95.76c3.52-17.714286 9.588571-18.605714 16.468572-17.234286s12.16 4.514286 8.64 22.228572z" fill="#81B532" /><path d="M761.131429 648.24m-6.4 0a6.4 6.4 0 1 0 12.8 0 6.4 6.4 0 1 0-12.8 0Z" fill="#272727" /><path d="M883.565714 663.474286c-41.314286 25.291429-83.428571 46.32-86.182857 42.182857s32.788571-34.982857 72-63.462857c15.017143-10.034286 19.931429-6.377143 23.84-0.537143s5.348571 11.782857-9.657143 21.817143z" fill="#81B532" /><path d="M822.217143 689.062857m-6.4 0a6.4 6.4 0 1 0 12.8 0 6.4 6.4 0 1 0-12.8 0Z" fill="#272727" /><path d="M898.022857 786.411429c-47.085714-11.337143-91.737143-26.285714-90.765714-31.108572s47.92-1.554286 95.76 6c17.714286 3.52 18.605714 9.588571 17.234286 16.468572s-4.514286 12.16-22.228572 8.64z" fill="#81B532" /><path d="M836.56 761.131429m-6.4 0a6.4 6.4 0 1 0 12.8 0 6.4 6.4 0 1 0-12.8 0Z" fill="#272727" /><path d="M821.325714 883.565714c-25.291429-41.314286-46.32-83.428571-42.182857-86.182857s34.982857 32.788571 63.462857 72c10.034286 15.017143 6.377143 19.931429 0.537143 23.84s-11.782857 5.348571-21.817143-9.657143z" fill="#81B532" /><path d="M795.737143 822.217143m-6.4 0a6.4 6.4 0 1 0 12.8 0 6.4 6.4 0 1 0-12.8 0Z" fill="#272727" /><path d="M698.388571 898.022857c11.337143-47.085714 26.228571-91.737143 31.108572-90.765714s1.554286 47.92-6 95.76c-3.52 17.714286-9.588571 18.605714-16.468572 17.234286s-12.171429-4.514286-8.64-22.228572z" fill="#81B532" /><path d="M723.668571 836.56m-6.4 0a6.4 6.4 0 1 0 12.8 0 6.4 6.4 0 1 0-12.8 0Z" fill="#272727" /><path d="M601.234286 821.325714c41.314286-25.291429 83.428571-46.32 86.182857-42.182857s-32.788571 34.982857-72 63.462857c-15.017143 10.034286-19.931429 6.377143-23.84 0.537143s-5.291429-11.782857 9.657143-21.817143z" fill="#81B532" /><path d="M662.582857 795.737143m-6.4 0a6.4 6.4 0 1 0 12.8 0 6.4 6.4 0 1 0-12.8 0Z" fill="#272727" /><path d="M586.777143 698.388571c47.085714 11.337143 91.737143 26.228571 90.765714 31.108572s-47.92 1.554286-95.76-6c-17.714286-3.52-18.605714-9.588571-17.234286-16.468572s4.514286-12.171429 22.228572-8.64z" fill="#81B532" /><path d="M648.24 723.668571m-6.4 0a6.4 6.4 0 1 0 12.8 0 6.4 6.4 0 1 0-12.8 0Z" fill="#272727" /><path d="M663.474286 601.234286c25.291429 41.314286 46.32 83.428571 42.182857 86.182857s-34.982857-32.788571-63.462857-72c-10.034286-15.017143-6.377143-19.931429-0.537143-23.84s11.782857-5.291429 21.817143 9.657143z" fill="#81B532" /><path d="M689.062857 662.582857m-6.4 0a6.4 6.4 0 1 0 12.8 0 6.4 6.4 0 1 0-12.8 0Z" fill="#272727" /><path d="M815.92 598.354286c-20.297143 43.977143-43.611429 84.857143-48.217143 82.948571s7.828571-47.302857 24.571429-92.742857c6.857143-16.685714 13.028571-16.377143 19.52-13.714286s11.062857 6.868571 4.125714 23.508572z" fill="#81B532" /><path d="M779.142857 653.702857m-6.4 0a6.4 6.4 0 1 0 12.8 0 6.4 6.4 0 1 0-12.8 0Z" fill="#272727" /><path d="M896.24 692.571429c-45.44 16.742857-90.834286 29.165714-92.742857 24.571428s38.971429-27.92 82.948571-48.217143c16.685714-6.857143 20.8-2.365714 23.485715 4.125715s2.994286 12.571429-13.691429 19.52z" fill="#81B532" /><path d="M831.097143 705.657143m-6.4 0a6.4 6.4 0 1 0 12.8 0 6.4 6.4 0 1 0-12.8 0Z" fill="#272727" /><path d="M886.445714 815.92c-43.977143-20.297143-84.857143-43.611429-82.948571-48.217143s47.302857 7.828571 92.742857 24.571429c16.685714 6.857143 16.377143 13.028571 13.714286 19.52s-6.822857 11.062857-23.508572 4.125714z" fill="#81B532" /><path d="M831.097143 779.142857m-6.4 0a6.4 6.4 0 1 0 12.8 0 6.4 6.4 0 1 0-12.8 0Z" fill="#272727" /><path d="M792.274286 896.24c-16.742857-45.44-29.165714-90.834286-24.571429-92.742857s27.92 38.971429 48.217143 82.948571c6.914286 16.685714 2.365714 20.8-4.125714 23.485715s-12.617143 2.994286-19.52-13.691429z" fill="#81B532" /><path d="M779.142857 831.097143m-6.4 0a6.4 6.4 0 1 0 12.8 0 6.4 6.4 0 1 0-12.8 0Z" fill="#272727" /><path d="M668.88 886.445714c20.297143-43.977143 43.611429-84.857143 48.217143-82.948571s-7.828571 47.302857-24.571429 92.742857c-6.857143 16.685714-13.028571 16.377143-19.52 13.714286s-11.04-6.822857-4.125714-23.508572z" fill="#81B532" /><path d="M705.657143 831.097143m-6.4 0a6.4 6.4 0 1 0 12.8 0 6.4 6.4 0 1 0-12.8 0Z" fill="#272727" /><path d="M588.571429 792.274286c45.44-16.742857 90.834286-29.165714 92.742857-24.571429s-38.971429 27.92-82.948572 48.217143C581.714286 822.857143 577.554286 818.285714 574.857143 811.794286s-2.982857-12.617143 13.714286-19.52z" fill="#81B532" /><path d="M653.702857 779.142857m-6.4 0a6.4 6.4 0 1 0 12.8 0 6.4 6.4 0 1 0-12.8 0Z" fill="#272727" /><path d="M598.354286 668.88c43.931429 20.262857 84.857143 43.611429 82.948571 48.217143S634 709.268571 588.571429 692.571429c-16.685714-6.857143-16.377143-13.028571-13.714286-19.52s6.857143-11.085714 23.497143-4.171429z" fill="#81B532" /><path d="M653.702857 705.657143m-6.4 0a6.4 6.4 0 1 0 12.8 0 6.4 6.4 0 1 0-12.8 0Z" fill="#272727" /><path d="M692.571429 588.571429c16.742857 45.44 29.165714 90.834286 24.571428 92.742857S689.142857 642.285714 668.88 598.354286c-6.857143-16.685714-2.365714-20.8 4.125714-23.485715S685.622857 571.874286 692.571429 588.571429z" fill="#81B532" /><path d="M705.657143 653.702857m-6.4 0a6.4 6.4 0 1 0 12.8 0 6.4 6.4 0 1 0-12.8 0Z" fill="#272727" /><path d="M842.605714 615.462857c-28.48 39.165714-59.325714 74.72-63.462857 72s16.891429-44.868571 42.182857-86.182857c10.034286-15.005714 16-13.508571 21.817143-9.611429s9.497143 8.777143-0.537143 23.794286z" fill="#81B532" /><path d="M795.737143 662.582857m-6.4 0a6.4 6.4 0 1 0 12.8 0 6.4 6.4 0 1 0-12.8 0Z" fill="#272727" /><path d="M903.017143 723.497143c-47.84 7.554286-94.788571 10.88-95.76 6s43.68-19.771429 90.765714-31.108572c17.714286-3.52 20.857143 1.748571 22.228572 8.64s0.48 12.971429-17.234286 16.468572z" fill="#81B532" /><path d="M836.56 723.668571m-6.4 0a6.4 6.4 0 1 0 12.8 0 6.4 6.4 0 1 0-12.8 0Z" fill="#272727" /><path d="M869.337143 842.605714c-39.165714-28.48-74.72-59.325714-72-63.462857s44.868571 16.891429 86.182857 42.182857c15.005714 10.034286 13.508571 16 9.611429 21.817143s-8.777143 9.497143-23.794286-0.537143z" fill="#81B532" /><path d="M822.217143 795.737143m-6.4 0a6.4 6.4 0 1 0 12.8 0 6.4 6.4 0 1 0-12.8 0Z" fill="#272727" /><path d="M761.302857 903.017143c-7.554286-47.84-10.88-94.788571-6-95.76s19.771429 43.68 31.108572 90.765714c3.52 17.714286-1.748571 20.857143-8.64 22.228572s-12.948571 0.48-16.468572-17.234286z" fill="#81B532" /><path d="M761.131429 836.56m-6.4 0a6.4 6.4 0 1 0 12.8 0 6.4 6.4 0 1 0-12.8 0Z" fill="#272727" /><path d="M642.194286 869.337143c28.48-39.165714 59.325714-74.72 63.462857-72s-16.891429 44.948571-42.182857 86.228571c-10.034286 15.005714-16 13.508571-21.817143 9.611429s-9.497143-8.822857 0.537143-23.84z" fill="#81B532" /><path d="M689.062857 822.217143m-6.4 0a6.4 6.4 0 1 0 12.8 0 6.4 6.4 0 1 0-12.8 0Z" fill="#272727" /><path d="M581.782857 761.302857c47.84-7.554286 94.788571-10.88 95.76-6s-43.68 19.771429-90.765714 31.108572c-17.714286 3.52-20.857143-1.748571-22.228572-8.64s-0.48-12.948571 17.234286-16.468572z" fill="#81B532" /><path d="M648.24 761.131429m-6.4 0a6.4 6.4 0 1 0 12.8 0 6.4 6.4 0 1 0-12.8 0Z" fill="#272727" /><path d="M615.462857 642.194286c39.165714 28.48 74.72 59.325714 72 63.462857s-44.868571-16.891429-86.182857-42.182857c-15.005714-10.034286-13.508571-16-9.611429-21.817143s8.777143-9.497143 23.794286 0.537143z" fill="#81B532" /><path d="M662.582857 689.062857m-6.4 0a6.4 6.4 0 1 0 12.8 0 6.4 6.4 0 1 0-12.8 0Z" fill="#272727" /><path d="M723.497143 581.782857c7.554286 47.84 10.88 94.788571 6 95.76s-19.771429-43.68-31.108572-90.765714c-3.52-17.714286 1.748571-20.857143 8.64-22.228572s12.971429-0.48 16.468572 17.234286z" fill="#81B532" /><path d="M723.668571 648.24m-6.4 0a6.4 6.4 0 1 0 12.8 0 6.4 6.4 0 1 0-12.8 0Z" fill="#272727" /><path d="M384 550.4a64.068571 64.068571 0 0 1-64-64 12.8 12.8 0 1 1 25.6 0 38.4 38.4 0 0 0 76.8 0 12.8 12.8 0 1 1 25.6 0 64.068571 64.068571 0 0 1-64 64z" fill="#25467A" /><path d="M256 384m-38.4 0a38.4 38.4 0 1 0 76.8 0 38.4 38.4 0 1 0-76.8 0Z" fill="#25467A" /><path d="M512 384m-38.4 0a38.4 38.4 0 1 0 76.8 0 38.4 38.4 0 1 0-76.8 0Z" fill="#25467A" /><path d="M204.8 448h-51.2a25.6 25.6 0 1 0 0 51.2h51.2a25.6 25.6 0 1 0 0-51.2zM614.4 448h-51.2a25.6 25.6 0 1 0 0 51.2h51.2a25.6 25.6 0 0 0 0-51.2z" fill="#FFB000" /></svg>