<?xml version="1.0" standalone="no"?><!DOCTYPE svg PUBLIC "-//W3C//DTD SVG 1.1//EN" "http://www.w3.org/Graphics/SVG/1.1/DTD/svg11.dtd"><svg class="icon" width="128px" height="128.00px" viewBox="0 0 1024 1024" version="1.1" xmlns="http://www.w3.org/2000/svg"><path d="M511.999549 1024c-223.94261 0-332.799632-41.874239-332.799633-127.999859 0-3.691424-0.08-8.685705-0.16-14.857126-0.342857-23.257117-0.879999-60.479933 0.8-105.885597q-6.651421 0.434285-13.1657 0.434285c-40.274241 0-71.874206-13.348557-99.428462-41.988525C22.617232 687.371801 0.000114 612.777597 0.000114 512.000566a511.485149 511.485149 0 0 1 72.845634-263.416852C146.959952 125.406707 269.816959 38.538232 409.953947 10.286834A515.199431 515.199431 0 0 1 511.999549 0.001131a506.685154 506.685154 0 0 1 192.251216 37.451388A511.588006 511.588006 0 0 1 1023.998983 512.000566c0 43.039952-5.47428 83.508479-16.285696 120.285581-14.697127 50.057088-39.874242 94.857038-70.857065 126.079861l-1.291427 1.26857c-17.977123 17.474266-43.428523 27.942826-79.634198 32.411393 1.965712 42.891381 1.805712 76.937058 1.714284 96.057036V896.000141c-0.045714 86.125619-113.085589 127.999859-345.645332 127.999859z" fill="#25467A" /><path d="M230.39986 896.000141c0-70.697065-25.599972-601.599335 281.599689-601.599335S806.399223 825.303077 806.399223 896.000141 582.696613 972.800057 511.999549 972.800057s-281.599689-6.10285-281.599689-76.799916z" fill="#FDCFAD" /><path d="M806.399223 896.000141c0 70.651351-223.748324 76.799915-294.399674 76.799916s-281.599689-6.148565-281.599689-76.799916c0-2.948568 0-6.525707-0.125714-10.879988A509.450866 509.450866 0 0 0 403.199669 915.20012c160.125537 0 303.108237-73.599919 396.925276-188.799791 7.554277 81.154196 6.274279 147.588408 6.274278 169.599812z" fill="#F2C6A6" /><path d="M972.799039 512.000566c0 39.428528-4.99428 74.491346-14.205698 105.851311-18.94855 64.434215-51.108515 97.394178-58.114222 104.434171l-0.125714 0.125714C847.004893 776.000274 581.976614 710.857489 409.599662 704.000354c-189.99979-7.588563-248.148297 53.714226-305.485377-5.79428C54.19434 646.343274 51.200058 551.463379 51.200058 512.000566a458.98235 458.98235 0 0 1 65.531356-237.051167c65.542785-108.937022 174.719807-188.57122 303.359665-214.536906A462.856631 462.856631 0 0 1 511.999549 51.201075a456.890924 456.890924 0 0 1 172.925523 33.668534A460.342349 460.342349 0 0 1 972.799039 512.000566z" fill="#F5E8DE" /><path d="M972.799039 512.000566c0 39.428528-4.99428 74.491346-14.205698 105.851311-18.94855 64.514214-51.074229 97.417035-58.114222 104.457028l-0.125714 0.125714c-27.268541 27.428541-109.714164 23.805688-206.719771 12.799986C827.5192 642.948992 915.199103 488.446306 915.199103 313.600785c0-8.708562-0.251428-17.405695-0.639999-25.988543A458.66235 458.66235 0 0 1 972.799039 512.000566z" fill="#EBDED5" /><path d="M537.59952 249.600856c0 116.5713-94.594181 211.199767-211.199766 211.199766-108.034166 0-197.119782-81.142767-209.66834-185.851223 65.542785-108.937022 174.719807-188.57122 303.359665-214.536906A210.93691 210.93691 0 0 1 537.59952 249.600856zM853.507743 202.492336A108.79988 108.79988 0 1 1 684.925072 84.869609a461.496633 461.496633 0 0 1 168.582671 117.622727z" fill="#FDCFAD" /><path d="M511.999549 550.400523a64.068501 64.068501 0 0 1-63.99993-63.999929 12.799986 12.799986 0 1 1 25.599972 0 38.399958 38.399958 0 0 0 76.799915 0 12.799986 12.799986 0 1 1 25.599972 0 64.068501 64.068501 0 0 1-63.999929 63.999929z" fill="#25467A" /><path d="M383.99969 384.000707m-38.399958 0a38.399958 38.399958 0 1 0 76.799916 0 38.399958 38.399958 0 1 0-76.799916 0Z" fill="#25467A" /><path d="M639.999407 384.000707m-38.399957 0a38.399958 38.399958 0 1 0 76.799915 0 38.399958 38.399958 0 1 0-76.799915 0Z" fill="#25467A" /><path d="M332.799747 448.000636h-51.199944a25.599972 25.599972 0 1 0 0 51.199944h51.199944a25.599972 25.599972 0 1 0 0-51.199944zM742.399294 448.000636h-51.199943a25.599972 25.599972 0 1 0 0 51.199944h51.199943a25.599972 25.599972 0 0 0 0-51.199944z" fill="#F7AAC3" /></svg>