<?xml version="1.0" standalone="no"?><!DOCTYPE svg PUBLIC "-//W3C//DTD SVG 1.1//EN" "http://www.w3.org/Graphics/SVG/1.1/DTD/svg11.dtd"><svg class="icon" width="128px" height="128.00px" viewBox="0 0 1024 1024" version="1.1" xmlns="http://www.w3.org/2000/svg"><path d="M512.034114 1024c-120.788571 0-225.142857 0-326.594285-70.308571C21.062686 839.817143 1.039829 634.137143 0.034114 550.994286c-0.777143-65.382857 10.285714-288.662857 184.251429-416.274286C298.194114 51.2 421.7484 51.2 512.034114 51.2s213.84 0 327.714286 83.52C1013.7484 262.331429 1024.776971 485.611429 1024.034114 550.994286c-0.971429 83.142857-20.994286 288.822857-185.371428 402.697143C737.176971 1024 632.822686 1024 512.034114 1024z" fill="#25467A" /><path d="M377.954114 550.4c0 254.468571 195.531429 422.4 114.342857 422.4-39.851429 0-163.017143 10.628571-277.714285-60.925714C95.851257 838.011429 51.256971 679.805714 51.256971 550.4s44.571429-294.148571 163.348572-374.651429c114.674286-77.828571 237.84-73.348571 277.714286-73.348571 81.165714 0-114.365714 193.531429-114.365715 448z" fill="#FE8500" /><path d="M453.7484 550.4c0 254.491429 88.114286 422.4 14.765714 422.4S217.645543 804.891429 217.645543 550.4s177.531429-448 250.891428-448S453.7484 295.908571 453.7484 550.4z" fill="#FE9726" /><path d="M646.114114 550.4c0 254.468571-195.531429 422.4-114.342857 422.4 39.851429 0 163.017143 10.628571 277.714286-60.925714 118.731429-73.862857 163.325714-232.068571 163.325714-361.474286s-44.571429-294.148571-163.348571-374.651429c-114.674286-77.828571-237.84-73.348571-277.714286-73.348571-81.165714 0 114.365714 193.531429 114.365714 448z" fill="#FE8500" /><path d="M570.319829 550.4c0 254.491429-88.114286 422.4-14.765715 422.4s250.868571-167.908571 250.868572-422.4-177.531429-448-250.891429-448S570.319829 295.908571 570.319829 550.4z" fill="#FE9726" /><path d="M614.434114 550.4c0 254.491429-45.851429 422.4-102.4 422.4s-102.4-167.908571-102.4-422.4 45.851429-448 102.4-448 102.4 193.508571 102.4 448z" fill="#FEA340" /><path d="M512.034114 550.4a64.08 64.08 0 0 1-64-64 12.8 12.8 0 1 1 25.6 0 38.4 38.4 0 0 0 76.8 0 12.8 12.8 0 1 1 25.6 0 64.08 64.08 0 0 1-64 64z" fill="#25467A" /><path d="M384.045543 384m-38.4 0a38.4 38.4 0 1 0 76.8 0 38.4 38.4 0 1 0-76.8 0Z" fill="#25467A" /><path d="M640.022686 384m-38.4 0a38.4 38.4 0 1 0 76.8 0 38.4 38.4 0 1 0-76.8 0Z" fill="#25467A" /><path d="M332.845543 448h-51.2a25.6 25.6 0 0 0 0 51.2h51.2a25.6 25.6 0 1 0 0-51.2zM742.422686 448h-51.2a25.6 25.6 0 1 0 0 51.2h51.2a25.6 25.6 0 0 0 0-51.2z" fill="#FFD191" /><path d="M550.434114 89.6C532.3884 50.857143 535.4284 15.165714 537.634114 0h-51.2c2.205714 15.165714 5.245714 50.857143-12.8 89.6a156.434286 156.434286 0 0 1-38.4 51.2 236.982857 236.982857 0 0 0 76.8 12.8 237.074286 237.074286 0 0 0 76.8-12.8 156.434286 156.434286 0 0 1-38.4-51.2z" fill="#25467A" /></svg>