<?xml version="1.0" standalone="no"?><!DOCTYPE svg PUBLIC "-//W3C//DTD SVG 1.1//EN" "http://www.w3.org/Graphics/SVG/1.1/DTD/svg11.dtd"><svg class="icon" width="128px" height="128.00px" viewBox="0 0 1024 1024" version="1.1" xmlns="http://www.w3.org/2000/svg"><path d="M407.04 1021.44c-73.216 0-141.824-12.288-197.632-35.84-2.048-0.512-8.704-1.536-26.624-1.536h-18.432c-25.6 0-68.608 0-97.792-29.184-29.184-29.696-29.184-72.704-28.672-107.52 0-11.776 0-29.696-1.536-35.328C-34.304 644.096-8.704 365.056 176.64 179.2 289.28 67.072 448.512 2.56 614.4 2.56c71.168 0 138.752 12.288 195.072 35.84 2.048 0.512 8.704 1.536 26.624 1.536h18.432c25.6 0 69.12 0 97.792 29.184 29.184 29.696 29.184 72.704 28.672 107.52 0 11.776 0 29.696 1.536 35.328 74.752 177.664 56.32 451.584-122.88 630.784-111.104 112.128-280.576 178.688-452.608 178.688z" fill="#25467A" /><path d="M824.32 807.936c-167.424 167.424-441.856 195.584-595.456 131.072-32.768-13.824-101.376 5.632-126.464-19.968s-6.144-94.208-19.968-126.464C17.92 638.976 44.544 382.464 212.48 215.04s423.936-194.048 577.536-130.048c32.768 13.824 101.376-5.632 126.464 19.968 25.6 25.6 6.144 94.208 19.968 126.464 64.512 153.6 55.296 409.088-112.128 576.512z" fill="#FEDC33" /><path d="M824.32 807.936c-167.424 167.424-441.856 195.584-595.456 131.072-32.768-13.824-101.376 5.632-126.464-19.968-25.6-25.6-6.144-93.696-19.968-126.464-8.704-21.504-15.872-44.544-21.504-69.12 164.352 91.136 437.76 118.784 649.728-2.56 130.56-75.264 216.064-194.048 262.144-317.952 6.144 135.168-34.304 290.816-148.48 404.992z" fill="#F0D030" /><path d="M509.44 547.328c-35.328 0-64-28.672-64-64 0-7.168 5.632-12.8 12.8-12.8S471.04 476.16 471.04 483.328c0 20.992 17.408 38.4 38.4 38.4s38.4-17.408 38.4-38.4c0-7.168 5.632-12.8 12.8-12.8s12.8 5.632 12.8 12.8c0 35.328-28.672 64-64 64zM343.04 380.928c0 20.992 17.408 38.4 38.4 38.4s38.4-17.408 38.4-38.4-17.408-38.4-38.4-38.4c-21.504 0-38.4 16.896-38.4 38.4zM599.04 380.928c0 20.992 17.408 38.4 38.4 38.4s38.4-17.408 38.4-38.4-17.408-38.4-38.4-38.4c-21.504 0-38.4 16.896-38.4 38.4z" fill="#25467A" /><path d="M330.24 444.928h-51.2c-14.336 0-25.6 11.264-25.6 25.6s11.264 25.6 25.6 25.6h51.2c14.336 0 25.6-11.264 25.6-25.6s-11.776-25.6-25.6-25.6z m409.6 0h-51.2c-14.336 0-25.6 11.264-25.6 25.6s11.264 25.6 25.6 25.6h51.2c14.336 0 25.6-11.264 25.6-25.6s-11.776-25.6-25.6-25.6z" fill="#FBEAAE" /><path d="M176.64 768c0 14.336 11.264 25.6 25.6 25.6s25.6-11.264 25.6-25.6-11.264-25.6-25.6-25.6-25.6 11.776-25.6 25.6zM227.84 870.4c0 14.336 11.264 25.6 25.6 25.6s25.6-11.264 25.6-25.6-11.264-25.6-25.6-25.6-25.6 11.776-25.6 25.6zM547.84 857.6c0 14.336 11.264 25.6 25.6 25.6s25.6-11.264 25.6-25.6-11.264-25.6-25.6-25.6-25.6 11.776-25.6 25.6zM99.84 819.2c0 14.336 11.264 25.6 25.6 25.6s25.6-11.264 25.6-25.6-11.264-25.6-25.6-25.6-25.6 11.776-25.6 25.6z" fill="#E3C029" /></svg>