<?xml version="1.0" standalone="no"?><!DOCTYPE svg PUBLIC "-//W3C//DTD SVG 1.1//EN" "http://www.w3.org/Graphics/SVG/1.1/DTD/svg11.dtd"><svg class="icon" width="128px" height="128.00px" viewBox="0 0 1024 1024" version="1.1" xmlns="http://www.w3.org/2000/svg"><path d="M67.596337 1024C30.325205 1024 0 993.267663 0 955.490699V429.746892L138.388048 152.983133V71.161831c0-39.232771 30.53494-71.161831 68.077494-71.161831h611.068916c37.542554 0 68.077494 31.92906 68.077494 71.161831V152.983133L1024 429.746892v526.10159A68.23788 68.23788 0 0 1 955.848482 1024z" fill="#25467A" /><path d="M830.303614 166.060723L691.890892 442.812145v525.830168h264.019277a12.793831 12.793831 0 0 0 12.793831-12.793831V442.812145z" fill="#C2DBF4" /><path d="M830.303614 71.174169v94.886554H193.696386V71.174169c0-8.697831 5.72453-15.816482 12.732144-15.816482h611.068916c7.044627 0 12.806169 7.118651 12.806168 15.816482zM55.357687 442.812145v512.690891c0 7.254361 5.477783 13.139277 12.23865 13.139277h624.26988V442.812145z" fill="#F7F7F7" /><path d="M373.624289 774.921253A69.274217 69.274217 0 0 1 304.436434 705.696386a13.842506 13.842506 0 1 1 27.672674 0 41.515181 41.515181 0 0 0 83.030362 0 13.842506 13.842506 0 1 1 27.672675 0 69.274217 69.274217 0 0 1-69.187856 69.224867z" fill="#25467A" /><path d="M235.236241 595.018024m-41.515181 0a41.515181 41.515181 0 1 0 83.030362 0 41.515181 41.515181 0 1 0-83.030362 0Z" fill="#25467A" /><path d="M512 595.018024m-41.515181 0a41.515181 41.515181 0 1 0 83.030362 0 41.515181 41.515181 0 1 0-83.030362 0Z" fill="#25467A" /><path d="M179.890892 664.218217H124.607229a27.672675 27.672675 0 1 0 0 55.345349h55.345349a27.672675 27.672675 0 1 0 0-55.345349zM622.703036 664.218217h-55.357687a27.672675 27.672675 0 0 0 0 55.345349h55.357687a27.672675 27.672675 0 1 0 0-55.345349z" fill="#95C4F3" /><path d="M830.266602 166.048386L691.878554 442.812145H55.345349l138.388049-276.763759h636.533204z" fill="#FFFFFF" /><path d="M203.566265 339.277108l46.005976-98.698795h-15.989205l7.673831-16.458024h45.438458l-7.11865 90.198362 77.379855-90.198362h45.907277L395.189976 240.578313h-16.038554L333.108434 339.277108h16.038554l-7.673831 16.458025h-49.978603l7.673832-16.458025h15.841156l46.005976-98.698795-100.11759 116.464579h-3.91094l8.956916-116.464579-46.005976 98.698795h14.595084l-7.673831 16.458025h-46.968289L187.527711 339.277108zM374.389205 339.277108l46.005976-98.698795h-14.323663l7.673831-16.458024h48.695518L454.767036 240.578313H440.443373l-46.005975 98.698795h14.323662l-7.673831 16.458025h-48.695518l7.673831-16.458025zM435.002602 339.277108l46.005976-98.698795H463.884337l7.673832-16.458024h54.284337L518.168675 240.578313h-16.346988l-46.005976 98.698795h40.713253l20.862458-44.747566h18.666409l-28.548626 61.205591h-97.354024l7.673831-16.458025zM537.044819 339.277108l46.005976-98.698795h-16.606072l7.673831-16.458024h53.741494L620.186217 240.578313h-17.087229l-46.005976 98.698795h15.273639l-7.673832 16.458025h-51.927903l7.673831-16.458025z m45.438458-53.050602l63.858121-45.648193h-15.17494l7.673831-16.458024H690.891566L683.19306 240.578313h-14.126265l-62.167903 45.648193 17.272289 53.050602h14.224964l-7.673832 16.458025h-53.901879l7.673831-16.458025h14.311325z" fill="#009BEF" /></svg>