<?xml version="1.0" standalone="no"?><!DOCTYPE svg PUBLIC "-//W3C//DTD SVG 1.1//EN" "http://www.w3.org/Graphics/SVG/1.1/DTD/svg11.dtd"><svg class="icon" width="128px" height="128.00px" viewBox="0 0 1024 1024" version="1.1" xmlns="http://www.w3.org/2000/svg"><path d="M426.971429 1024c-121.6 0-225.257143-34.4-299.657143-99.428571-40.914286-35.771429-72.571429-80.457143-93.942857-132.8C11.2 737.714286 0 675.314286 0 606.4c0-67.771429 10.971429-140.457143 31.771429-210.4 20.457143-68.914286 50.514286-135.314286 86.857142-192.114286C157.714286 142.971429 202.514286 94.4 252 59.428571 307.771429 20 366.628571 0 426.971429 0s119.2 20 174.971428 59.428571c49.371429 34.971429 94.171429 83.542857 133.257143 144.457143 36.342857 56.8 66.4 123.2 86.857143 192.114286 20.8 69.942857 31.771429 142.742857 31.771428 210.4 0 68.914286-11.2 131.314286-33.371428 185.371429-21.371429 52.228571-53.028571 96.914286-93.942857 132.8-74.285714 65.028571-177.942857 99.428571-299.542857 99.428571z" fill="#25467A" /><path d="M707.885714 1024c-92.457143 0-170.057143-27.2-224.457143-78.628571-28.914286-27.428571-51.428571-61.714286-66.628571-102.057143-16.571429-43.657143-24.914286-94.742857-24.914286-151.885715 0-117.828571 35.657143-248.228571 95.314286-348.914285 29.828571-50.285714 64.914286-91.542857 101.485714-119.542857 38.742857-29.6 78.857143-44.685714 119.2-44.685715s80.457143 14.971429 119.2 44.685715c36.685714 28 71.771429 69.371429 101.485715 119.542857C988.342857 443.2 1024 573.6 1024 691.428571c0 57.257143-8.342857 108.342857-24.914286 151.885715-15.314286 40.342857-37.714286 74.628571-66.628571 102.057143-54.4 51.428571-132.114286 78.628571-224.571429 78.628571z" fill="#25467A" /><path d="M707.885714 959.428571c-77.828571 0-141.828571-21.714286-185.142857-62.628571-21.942857-20.685714-38.971429-46.971429-50.742857-77.942857-13.6-35.771429-20.457143-78.628571-20.457143-127.428572 0-105.942857 32.114286-223.314286 85.828572-314.057142 25.6-43.314286 55.314286-78.514286 85.714285-101.714286 28.457143-21.714286 57.028571-32.8 84.685715-32.8s56.228571 11.085714 84.685714 32.8c30.4 23.2 60.114286 58.4 85.714286 101.714286 53.714286 90.742857 85.828571 208.114286 85.828571 314.057142 0 48.8-6.857143 91.657143-20.457143 127.428572-11.771429 30.971429-28.8 57.142857-50.742857 77.942857-43.085714 41.028571-107.085714 62.628571-184.914286 62.628571z" fill="#527801" /><path d="M426.971429 1000c-115.771429 0-213.828571-32.342857-283.771429-93.485714-38.171429-33.371429-67.542857-75.085714-87.542857-123.885715C34.628571 731.542857 24 672.228571 24 606.4c0-65.485714 10.628571-135.885714 30.857143-203.542857 19.885714-66.742857 48.914286-131.085714 84.114286-185.942857 37.371429-58.285714 80-104.571429 126.857142-137.714286 51.657143-36.571429 105.942857-55.085714 161.142858-55.085714s109.485714 18.514286 161.142857 55.085714c46.857143 33.142857 89.485714 79.428571 126.857143 137.714286 35.2 54.857143 64.228571 119.2 84.114285 185.942857 20.114286 67.771429 30.857143 138.171429 30.857143 203.542857 0 65.828571-10.628571 125.142857-31.542857 176.228571-20 48.8-49.485714 90.4-87.542857 123.771429-70.057143 61.257143-168.114286 93.6-283.885714 93.6z" fill="#25467A" /><path d="M806.971429 606.4C806.971429 866.285714 636.8 977.142857 426.971429 977.142857S46.857143 866.285714 46.857143 606.4 217.028571 46.857143 426.971429 46.857143s380 299.657143 380 559.542857z" fill="#527801" /><path d="M426.971429 965.714286c-107.2 0-197.142857-29.142857-260.228572-84.342857-33.6-29.371429-59.542857-66.171429-77.257143-109.485715C70.285714 725.142857 60.571429 670.285714 60.571429 608.914286c0-126.4 41.257143-266.285714 110.514285-374.4 34.514286-53.942857 75.2-98.285714 117.714286-128.342857C333.714286 74.4 380.228571 58.285714 426.971429 58.285714s93.257143 16.114286 138.171428 47.885715c42.514286 30.057143 83.2 74.4 117.714286 128.342857 69.142857 108 110.514286 248 110.514286 374.4 0 61.371429-9.714286 116.228571-28.914286 162.971428-17.714286 43.314286-43.771429 80.114286-77.257143 109.485715-63.085714 55.2-153.028571 84.342857-260.228571 84.342857z" fill="#ACCB42" /><path d="M426.971429 907.657143c-93.485714 0-172-25.485714-226.971429-73.6-29.257143-25.6-52-57.714286-67.428571-95.428572-16.685714-40.8-25.142857-88.685714-25.142858-142.171428 0-110.171429 36-232.228571 96.342858-326.514286 30.057143-46.971429 65.6-85.714286 102.628571-111.885714 39.2-27.771429 79.771429-41.714286 120.571429-41.714286s81.371429 14.057143 120.571428 41.714286c37.028571 26.171429 72.571429 64.914286 102.628572 111.885714 60.342857 94.171429 96.342857 216.228571 96.342857 326.514286 0 53.485714-8.457143 101.371429-25.142857 142.171428-15.428571 37.714286-38.171429 69.828571-67.428572 95.428572-54.971429 48.228571-133.485714 73.6-226.971428 73.6z" fill="#FCFA95" /><path d="M193.942857 610.4c0-136.914286 104.342857-262.742857 233.028572-262.742857s233.028571 125.828571 233.028571 262.742857-104.342857 233.142857-233.028571 233.142857-233.028571-96.228571-233.028572-233.142857z" fill="#F28F00" /><path d="M660 610.4c0 136.914286-104.342857 233.142857-233.028571 233.142857-100.8 0-186.742857-59.085714-219.2-150.514286 46.285714 42.628571 113.371429 67.771429 188.114285 67.771429 139.542857 0 252.685714-87.885714 252.685715-212.914286 0-6.171429-0.228571-12.342857-0.8-18.514285 7.885714 25.828571 12.228571 53.257143 12.228571 81.028571z" fill="#D98F18" /><path d="M427.542857 724.342857c-35.314286 0-64-28.685714-64-64 0-7.085714 5.714286-12.8 12.8-12.8s12.8 5.714286 12.8 12.8c0 21.257143 17.257143 38.4 38.4 38.4s38.4-17.142857 38.4-38.4c0-7.085714 5.714286-12.8 12.8-12.8s12.8 5.714286 12.8 12.8c0 35.428571-28.685714 64-64 64z" fill="#25467A" /><path d="M299.542857 557.942857m-38.4 0a38.4 38.4 0 1 0 76.8 0 38.4 38.4 0 1 0-76.8 0Z" fill="#25467A" /><path d="M555.542857 557.942857m-38.4 0a38.4 38.4 0 1 0 76.8 0 38.4 38.4 0 1 0-76.8 0Z" fill="#25467A" /><path d="M248.342857 621.942857h-51.2c-14.171429 0-25.6 11.428571-25.6 25.6 0 14.171429 11.428571 25.6 25.6 25.6h51.2c14.171429 0 25.6-11.428571 25.6-25.6 0-14.057143-11.428571-25.485714-25.6-25.6zM657.942857 621.942857h-51.2c-14.171429 0-25.6 11.428571-25.6 25.6 0 14.171429 11.428571 25.6 25.6 25.6h51.2c14.171429 0 25.6-11.428571 25.6-25.6 0-14.057143-11.428571-25.485714-25.6-25.6z" fill="#D1EB7D" /></svg>