<?xml version="1.0" standalone="no"?><!DOCTYPE svg PUBLIC "-//W3C//DTD SVG 1.1//EN" "http://www.w3.org/Graphics/SVG/1.1/DTD/svg11.dtd"><svg class="icon" width="128px" height="128.00px" viewBox="0 0 1024 1024" version="1.1" xmlns="http://www.w3.org/2000/svg"><path d="M511.783502 1023.988576c-48.219063 0-93.959203-11.35507-138.842572-34.602118a76.926599 76.926599 0 0 1-108.901287-29.70139 77.269307 77.269307 0 0 1-21.396424 3.00441 76.938022 76.938022 0 0 1-72.425696-51.314862c-1.427951 0.079965-2.867326 0.114236-4.306701 0.114236a76.241182 76.241182 0 0 1-54.285001-22.493091 77.212189 77.212189 0 0 1-13.776876-18.666181A76.880904 76.880904 0 0 1 25.594604 793.688572v-51.177779a76.149793 76.149793 0 0 1 19.557222-51.189202C19.757138 657.507701 0.005714 613.549645 0.005714 550.594123c0.079965-5.780347 1.382257-50.869341 22.755834-98.928475 10.018507-22.515938 28.136355-44.894793 54.010834-66.725313v-42.267362a152.790802 152.790802 0 0 1-63.972223-124.734413C12.800159 133.278177 81.673112 64.405224 166.333495 64.405224h51.177779v102.355558h2.387535a138.842572 138.842572 0 0 1-2.387535-25.58889A140.738892 140.738892 0 1 1 482.310585 207.200366a209.943129 209.943129 0 0 1 58.945834 0 140.681774 140.681774 0 1 1 262.4232-40.439584h2.376111V64.405224h51.177779c84.660384 0 153.54476 68.872953 153.54476 153.533336a152.813649 152.813649 0 0 1-63.972224 124.734413v42.267362c25.863056 21.830521 43.980904 44.197952 53.999411 66.736737 21.385 48.047709 22.675869 93.136703 22.755834 98.128821 0 63.515279-19.751424 107.64469-45.146112 141.504274a76.149793 76.149793 0 0 1 19.568646 51.200626v51.177779a76.880904 76.880904 0 0 1-72.231494 76.641008 77.075106 77.075106 0 0 1-68.061877 41.125001c-1.439375 0-2.87875 0-4.295277-0.114236a76.972293 76.972293 0 0 1-93.856391 48.287605 76.880904 76.880904 0 0 1-108.912711 29.70139C605.742705 1012.633507 560.002566 1023.988576 511.783502 1023.988576z" fill="#25467A" /><path d="M179.12794 409.855231v-127.944447a25.588889 25.588889 0 0 0-51.177779 0v127.944447a25.588889 25.588889 0 0 0 51.177779 0zM383.839055 345.883007v-127.944447a25.588889 25.588889 0 1 0-51.177779 0v127.944447a25.588889 25.588889 0 1 0 51.177779 0zM690.905728 345.883007v-127.944447a25.588889 25.588889 0 1 0-51.177779 0v127.944447a25.588889 25.588889 0 1 0 51.177779 0zM895.616843 409.855231v-127.944447a25.588889 25.588889 0 0 0-51.177779 0v127.944447a25.588889 25.588889 0 1 0 51.177779 0z" fill="#FAAD96" /><path d="M939.300733 724.415793l-36.178577-36.190001-36.190001 36.190001L895.616843 753.111904v40.576668a25.600313 25.600313 0 0 0 51.189202 0v-51.177779a25.508924 25.508924 0 0 0-7.505312-18.095zM709.411978 906.188296l-90.475002-90.463578a25.582035 25.582035 0 0 0-36.178577 36.178577l90.463579 90.475002A25.590032 25.590032 0 1 0 709.411978 906.188296zM799.018786 867.804962l-90.475002-90.463578a25.582035 25.582035 0 1 0-36.178577 36.178577L762.828785 904.040657a25.590032 25.590032 0 0 0 36.190001-36.19zM875.785454 816.627183l-90.463578-90.463578A25.602598 25.602598 0 1 0 749.131875 762.387877L839.641148 852.817184a25.590032 25.590032 0 0 0 36.19-36.190001zM84.266271 724.415793l36.190001-36.190001 36.190001 36.190001L127.950161 753.111904v40.576668a25.588889 25.588889 0 0 1-51.177779 0v-51.177779a25.554619 25.554619 0 0 1 7.493889-18.095zM314.155026 906.188296l90.475002-90.463578a25.588889 25.588889 0 0 1 36.190001 36.178577l-90.475002 90.475002A25.590032 25.590032 0 1 1 314.155026 906.188296zM224.548219 867.804962l90.475001-90.463578a25.588889 25.588889 0 1 1 36.190001 36.178577L260.738219 904.040657a25.590032 25.590032 0 1 1-36.19-36.19zM147.78155 816.627183l90.475002-90.463578A25.602598 25.602598 0 0 1 274.446553 762.387877L183.925857 852.817184a25.590032 25.590032 0 0 1-36.190001-36.190001z" fill="#E65800" /><path d="M639.727949 307.499673c-83.472328-33.391216-76.766668-51.177779-127.944447-51.177778s-44.460695 17.786563-127.944447 51.177778c-171.35417 35.801598-289.200145 108.524308-314.320666 164.968372a222.97747 222.97747 0 0 0-18.277778 78.126078c0 115.938231 81.2333 149.934899 151.934031 222.234935C287.583706 859.134441 373.375027 972.810798 511.783502 972.810798s224.199796-113.676356 308.643131-199.98174c70.723578-72.300036 151.934031-106.239585 151.934031-222.234935a223.148824 223.148824 0 0 0-18.34632-78.126078C928.928094 416.001134 811.082119 343.301271 639.727949 307.499673z" fill="#FE6100" /><path d="M972.394935 550.594123c0 115.915384-81.244724 149.946322-152.002573 222.246358C735.949027 859.0659 650.226248 972.810798 511.783502 972.810798s-224.154102-113.744898-308.597437-199.970317c-49.007293-50.035418-103.132363-81.758786-131.65712-135.118475 94.815974 103.772085 231.191046 168.76101 382.69098 168.761011 227.489796 0 420.685911-146.496392 490.415634-350.316466a99.16837 99.16837 0 0 1 9.470174 16.255799 224.828095 224.828095 0 0 1 18.289202 78.171773z" fill="#F25D00" /><path d="M511.783502 550.594123a64.052189 64.052189 0 0 1-63.972223-63.972224 12.794445 12.794445 0 1 1 25.588889 0 38.383334 38.383334 0 0 0 76.766668 0 12.794445 12.794445 0 1 1 25.58889 0 64.040765 64.040765 0 0 1-63.972224 63.972224z" fill="#25467A" /><path d="M332.661276 448.238565h-51.177778a25.588889 25.588889 0 1 0 0 51.177779h51.177778a25.588889 25.588889 0 1 0 0-51.177779zM742.083507 448.238565h-51.177779a25.588889 25.588889 0 1 0 0 51.177779h51.177779a25.588889 25.588889 0 0 0 0-51.177779z" fill="#E62325" /><path d="M358.250166 141.171892m-89.561113 0a89.561113 89.561113 0 1 0 179.122226 0 89.561113 89.561113 0 1 0-179.122226 0Z" fill="#FFFFFF" /><path d="M358.250166 141.171892m-38.383334 0a38.383334 38.383334 0 1 0 76.766668 0 38.383334 38.383334 0 1 0-76.766668 0Z" fill="#25467A" /><path d="M268.689053 217.93856a102.355558 102.355558 0 1 1-102.355558-102.355557v102.355557z" fill="#FE6100" /><path d="M665.316839 141.171892m-89.561113 0a89.561113 89.561113 0 1 0 179.122225 0 89.561113 89.561113 0 1 0-179.122225 0Z" fill="#FFFFFF" /><path d="M665.316839 141.171892m-38.383335 0a38.383334 38.383334 0 1 0 76.766669 0 38.383334 38.383334 0 1 0-76.766669 0Z" fill="#25467A" /><path d="M754.877951 217.93856a102.366981 102.366981 0 1 0 102.355558-102.355557v102.355557z" fill="#FE6100" /></svg>