<?xml version="1.0" standalone="no"?><!DOCTYPE svg PUBLIC "-//W3C//DTD SVG 1.1//EN" "http://www.w3.org/Graphics/SVG/1.1/DTD/svg11.dtd"><svg class="icon" width="128px" height="128.00px" viewBox="0 0 1024 1024" version="1.1" xmlns="http://www.w3.org/2000/svg"><path d="M512 0a38.4 38.4 0 0 0-38.4 38.4V191.999998h76.8V38.4A38.4 38.4 0 0 0 512 0z" fill="#25467A" /><path d="M624.78857 1023.999989c-36.845714 0-74.697142-7.874286-112.78857-23.44-38.091428 15.565714-75.931428 23.44-112.78857 23.44a256.37714 256.37714 0 0 1-39.131428-2.994286C254.308574 1004.639989 152.742861 919.99999 81.428576 788.857134c-107.257142-197.291426-93.359999-383.817139-44.571428-492.571423 8.194286-18.285714 84.399999-179.702855 234.091426-213.919998a208.822855 208.822855 0 0 1 46.982857-5.542857c28.971428 0 53.142857 6.651428 76.514285 13.085714 29.131428 8 62.159999 17.142857 117.577141 17.142857s88.445713-9.142857 117.577142-17.142857c23.371428-6.434286 47.542857-13.085714 76.571427-13.085714a208.994283 208.994283 0 0 1 46.971428 5.52C902.651424 116.571427 978.948566 277.954283 987.15428 296.251425c48.777142 108.78857 62.674285 295.314282-44.571428 492.571423C871.257139 919.99999 769.691426 1004.639989 663.919998 1021.005703a256.342854 256.342854 0 0 1-39.119999 2.994286z" fill="#25467A" /><path d="M940.44571 317.211425c-4.742857-10.594286-72.274285-156.06857-198.731427-184.959998-77.782856-17.782857-101.599999 25.931428-229.714283 25.931428s-151.885713-43.714285-229.714283-25.931428C155.828575 161.142855 88.308576 306.617139 83.55429 317.211425-24.251423 557.714279 154.388575 937.382847 367.908573 970.411418c55.942857 8.651428 106.479999-7.622857 144.091427-25.908571 37.611428 18.285714 88.14857 34.56 144.091427 25.908571C869.611425 937.382847 1048.251423 557.714279 940.44571 317.211425z" fill="#B4E876" /><path d="M656.125713 970.365703c-55.931428 8.708571-106.491427-7.554286-144.125713-25.851428-37.634285 18.285714-88.194285 34.56-144.125713 25.851428-99.714285-15.485714-191.874284-106.491427-250.754283-223.611426 85.245713 45.954285 185.348569 72.445713 292.479997 72.445714 280.571425 0 513.142851-181.714284 556.03428-419.714281 43.508571 236.285712-119.039999 541.439994-309.508568 570.879993z" fill="#AADB70" /><path d="M512 550.399994a64.068571 64.068571 0 0 1-63.999999-63.999999 12.8 12.8 0 1 1 25.599999 0 38.4 38.4 0 0 0 76.8 0 12.8 12.8 0 1 1 25.599999 0 64.068571 64.068571 0 0 1-63.999999 63.999999z" fill="#25467A" /><path d="M384.000001 383.999996m-38.399999 0a38.4 38.4 0 1 0 76.799999 0 38.4 38.4 0 1 0-76.799999 0Z" fill="#25467A" /><path d="M639.999999 383.999996m-38.4 0a38.4 38.4 0 1 0 76.799999 0 38.4 38.4 0 1 0-76.799999 0Z" fill="#25467A" /><path d="M332.800002 447.999995h-51.199999a25.6 25.6 0 1 0 0 51.199999h51.199999a25.6 25.6 0 1 0 0-51.199999zM742.399997 447.999995h-51.199999a25.6 25.6 0 1 0 0 51.199999h51.199999a25.6 25.6 0 0 0 0-51.199999z" fill="#D7F4BD" /></svg>