<?xml version="1.0" standalone="no"?><!DOCTYPE svg PUBLIC "-//W3C//DTD SVG 1.1//EN" "http://www.w3.org/Graphics/SVG/1.1/DTD/svg11.dtd"><svg class="icon" width="128px" height="128.00px" viewBox="0 0 1024 1024" version="1.1" xmlns="http://www.w3.org/2000/svg"><path d="M365.085714 1024c-54.628571 0-104.228571-8.228571-147.542857-24.571429-43.771429-16.457143-81.257143-41.142857-111.428571-73.485714-29.371429-31.314286-51.657143-69.714286-66.285715-113.942857-13.828571-41.942857-20.914286-89.485714-20.914285-141.142857 0-111.771429 20.342857-204 60.342857-274.171429 25.142857-44.114286 58.171429-79.428571 98.171428-105.028571 31.657143-20.228571 67.771429-34.4 107.657143-42.285714v-77.714286c-44.571429-3.085714-79.885714-40.342857-79.885714-85.714286 0-47.428571 38.514286-85.942857 85.942857-85.942857h316.114286c47.428571 0 85.942857 38.514286 85.942857 85.942857 0 43.771429-32.914286 80.114286-75.314286 85.257143l29.257143 98.971429c4.571429-0.228571 9.028571-0.228571 13.485714-0.228572 85.257143 0 162.4 34.057143 223.085715 98.514286 50.4 53.485714 87.885714 125.942857 108.571428 209.485714 11.314286 45.828571 15.085714 89.6 10.971429 130.171429-4.228571 42.857143-17.142857 82.057143-38.171429 116.8-21.485714 35.314286-51.314286 65.6-88.8 90.057143-36.8 24.114286-81.257143 42.628571-132.114285 55.314285-38.4 9.485714-75.2 14.285714-109.6 14.285715-25.828571 0-50.628571-2.742857-74.057143-8.114286-53.371429 31.657143-118.971429 47.542857-195.428572 47.542857z m91.085715-772.228571l9.942857 2.4-9.942857-33.714286v31.314286z" fill="#25467A" /><path d="M473.2 100.244571l65.657143-19.380571 96.739428 327.738286-65.657142 19.380571z" fill="#B46620" /><path d="M943.6 590.057143c39.771429 160.571429-26.285714 285.6-211.428571 331.428571-185.142857 45.828571-301.828571-33.828571-341.6-194.4s-4.342857-347.885714 195.085714-397.257143c199.542857-49.257143 318.171429 99.657143 357.942857 260.228572z" fill="#F9A02E" /><path d="M732.171429 921.485714c-115.314286 28.571429-204 8.457143-264.228572-49.6 48.571429 4.228571 104-0.8 165.942857-16.114285C859.6 799.885714 944.285714 664 902.228571 493.942857c-2.171429-8.8-4.571429-17.485714-7.314285-26.171428 21.828571 37.6 37.942857 79.542857 48.571428 122.285714 39.885714 160.685714-26.171429 285.6-211.314285 331.428571z" fill="#E8952B" /><path d="M653.63339 889.496282a35.2 68.571429 76.09 1 0 133.12108-32.968794 35.2 68.571429 76.09 1 0-133.12108 32.968794Z" fill="#B46620" /><path d="M720.285714 841.942857l16.342857 11.085714 29.142858-4.8c6.857143-1.142857 10.628571 2.742857 6.4 6.514286l-17.942858 16.228572 8.8 14.514285c2.057143 3.428571-4.228571 7.885714-10.628571 7.657143l-27.428571-1.142857-23.657143 13.714286c-5.6 3.2-13.257143 2.171429-13.028572-1.828572l1.028572-16.914285-23.428572-6.057143c-5.485714-1.371429-3.885714-6.628571 2.628572-8.8l28-9.371429 9.257143-17.485714c2.057143-3.771429 10.628571-5.828571 14.514285-3.314286z" fill="#704618" /><path d="M335.485714 89.371429h70.4v255.2h-70.4z" fill="#B46620" /><path d="M643.028571 85.942857c0 19.657143-16 35.657143-35.657142 35.657143H291.257143c-19.657143 0-35.657143-16-35.657143-35.657143s16-35.657143 35.657143-35.657143h316.114286c19.771429 0 35.657143 16 35.657142 35.657143z" fill="#B46620" /><path d="M335.485714 89.371429h70.4v255.2h-70.4z" fill="#B46620" /><path d="M643.028571 85.942857c0 19.657143-16 35.657143-35.657142 35.657143H291.257143c-19.657143 0-35.657143-16-35.657143-35.657143s16-35.657143 35.657143-35.657143h316.114286c19.771429 0 35.657143 16 35.657142 35.657143z" fill="#99571B" /><path d="M365.085714 997.257143c-51.428571 0-97.828571-7.657143-138.057143-22.857143-39.885714-14.971429-73.942857-37.485714-101.257142-66.742857-26.628571-28.457143-46.971429-63.542857-60.457143-104.114286C52.285714 764.342857 45.771429 719.657143 45.771429 670.857143c0-112.685714 21.142857-204 62.857142-271.085714 25.6-41.142857 58.971429-73.142857 99.428572-95.085715 44-23.885714 96.914286-36 157.142857-36s113.028571 12.114286 157.142857 36c40.342857 21.942857 73.828571 53.828571 99.428572 95.085715 41.714286 67.2 62.857143 158.4 62.857142 271.085714 0 48.8-6.628571 93.485714-19.542857 132.8-13.371429 40.571429-33.714286 75.657143-60.457143 104.114286-27.314286 29.257143-61.485714 51.657143-101.257142 66.742857-40.457143 15.085714-86.857143 22.742857-138.285715 22.742857z" fill="#25467A" /><path d="M660.971429 670.857143c0 185.028571-97.828571 302.857143-295.885715 302.857143S69.314286 855.885714 69.314286 670.857143s59.542857-378.628571 295.885714-378.628572S660.971429 485.828571 660.971429 670.857143z" fill="#FFAC40" /><path d="M660.971429 670.857143c0 185.028571-97.828571 302.857143-295.771429 302.857143-140.457143 0-230.4-59.2-270.971429-159.657143 53.371429 34.171429 124 52.8 212.114286 52.8 225.028571 0 336.114286-121.6 336.114286-312.571429 0-16.571429-0.457143-33.257143-1.6-49.828571 14.514286 52.342857 20.114286 109.828571 20.114286 166.4z" fill="#EDA03C" /><path d="M293.885714 917.828571a71.2 39.314286 0 1 0 142.4 0 71.2 39.314286 0 1 0-142.4 0Z" fill="#B46620" /><path d="M372.971429 884.228571l13.714285 16.457143 30.514286 2.628572c7.2 0.571429 10.057143 5.828571 4.8 8.8l-22.057143 12.8 5.257143 18.057143c1.257143 4.228571-6.285714 7.428571-12.685714 5.485714l-27.314286-8.571429-27.314286 8.571429c-6.4 2.057143-13.828571-1.257143-12.685714-5.485714l5.257143-18.057143-22.057143-12.8c-5.142857-2.971429-2.285714-8.228571 4.8-8.8l30.514286-2.628572 13.714285-16.457143c3.085714-3.885714 12.342857-3.885714 15.542858 0z" fill="#704618" /><path d="M363.942857 705.028571c-36.342857 0-65.942857-29.6-65.942857-65.942857 0-7.314286 5.942857-13.142857 13.142857-13.142857s13.142857 5.942857 13.142857 13.142857c0 21.942857 17.828571 39.542857 39.542857 39.542857s39.542857-17.714286 39.542858-39.542857c0-7.314286 5.942857-13.142857 13.142857-13.142857s13.142857 5.942857 13.142857 13.142857c0.228571 36.457143-29.371429 65.942857-65.714286 65.942857z" fill="#25467A" /><path d="M232.057143 533.6m-39.542857 0a39.542857 39.542857 0 1 0 79.085714 0 39.542857 39.542857 0 1 0-79.085714 0Z" fill="#25467A" /><path d="M495.828571 533.6m-39.542857 0a39.542857 39.542857 0 1 0 79.085715 0 39.542857 39.542857 0 1 0-79.085715 0Z" fill="#25467A" /><path d="M179.257143 599.542857h-52.8c-14.628571 0-26.4 11.771429-26.4 26.4s11.771429 26.4 26.4 26.4h52.8c14.628571 0 26.4-11.771429 26.4-26.4 0-14.514286-11.771429-26.4-26.4-26.4zM601.314286 599.542857H548.628571c-14.628571 0-26.4 11.771429-26.4 26.4s11.771429 26.4 26.4 26.4h52.8c14.628571 0 26.4-11.771429 26.4-26.4-0.114286-14.628571-12-26.4-26.514285-26.4z" fill="#F9D79A" /></svg>