<?xml version="1.0" standalone="no"?><!DOCTYPE svg PUBLIC "-//W3C//DTD SVG 1.1//EN" "http://www.w3.org/Graphics/SVG/1.1/DTD/svg11.dtd"><svg class="icon" width="128px" height="128.00px" viewBox="0 0 1024 1024" version="1.1" xmlns="http://www.w3.org/2000/svg"><path d="M526.514286 10.171429c-21.257143 0-38.285714 19.085714-38.285715 42.4v106.742857-103.085715 106.742858c0 23.428571 17.142857 42.4 38.285715 42.4 21.257143 0 38.285714-19.085714 38.285714-42.4V56.228571v103.085715V52.571429c0-23.314286-17.142857-42.4-38.285714-42.4z" fill="#25467A" /><path d="M695.2 68.457143H357.714286c-18.971429 0-34.171429-15.314286-34.171429-34.171429 0-18.971429 15.314286-34.285714 34.171429-34.285714h337.485714c18.971429 0 34.171429 15.314286 34.171429 34.171429 0.114286 18.971429-15.2 34.285714-34.171429 34.285714zM518.971429 1024c-36.571429 0-72-13.142857-99.657143-36.914286-12.8-10.971429-23.657143-23.885714-32.342857-38.628571-2.285714 0.114286-4.8 0.228571-7.2 0.228571-49.257143 0-93.828571-30.514286-111.657143-76.342857-27.771429-4.571429-53.257143-18.742857-71.885715-40.114286-19.542857-22.285714-30.285714-50.742857-30.285714-80.342857 0-13.828571 2.285714-27.542857 6.971429-40.685714-21.028571-27.657143-32.571429-61.828571-32.571429-96.342857 0-32.685714 9.828571-64 28.457143-90.742857-4.114286-14.057143-6.171429-28.571429-6.171429-43.2v-4.457143c-15.542857-9.257143-29.257143-20.914286-40.571428-34.857143-22.285714-27.314286-34.628571-61.714286-34.628572-97.028571 0-84.457143 68.8-153.257143 153.257143-153.257143 4.914286 0 9.942857 0.228571 14.971429 0.685714 5.828571-10.057143 13.028571-19.314286 21.371428-27.542857 24-23.428571 55.542857-36.342857 88.914286-36.342857 19.542857 0 38.857143 4.457143 56.228572 13.028571 5.485714-5.142857 11.542857-10.057143 17.828571-14.514286C465.714286 108.8 495.885714 99.428571 527.314286 99.428571c34.4 0 68.342857 11.885714 95.542857 33.371429 8.342857 6.628571 16 14.171429 22.742857 22.514286 13.714286-4.914286 28.228571-7.428571 43.2-7.428572 36.914286 0 71.771429 15.885714 95.771429 43.542857 84 0.685714 152.114286 69.142857 152.114285 153.257143 0 71.657143-50.171429 133.942857-119.657143 149.485715-0.914286 10.514286-2.857143 20.685714-5.714285 30.514285 7.542857 7.657143 14.285714 16.228571 20.114285 25.371429 15.2 24.228571 23.2 52 23.2 80.685714 0 31.428571-9.485714 61.371429-27.314285 86.857143 5.485714 14.514286 8.342857 29.6 8.342857 45.142857 0 69.6-56.571429 126.171429-126.171429 126.171429-12.685714 0-25.371429-1.942857-37.714285-5.828572-2.971429 37.371429-19.314286 72-46.514286 98.171429-28.8 27.542857-66.514286 42.742857-106.285714 42.742857z" fill="#25467A" /><path d="M240.571429 344.685714m-102.971429 0a102.971429 102.971429 0 1 0 205.942857 0 102.971429 102.971429 0 1 0-205.942857 0Z" fill="#AB47BC" /><path d="M320.457143 343.885714c0 47.542857-38.514286 86.057143-86.057143 86.057143-20 0-38.285714-6.742857-52.8-18.171428 5.828571 1.257143 11.885714 1.942857 18.057143 1.942857 47.542857 0 86.057143-38.514286 86.057143-86.057143 0-27.657143-13.028571-52.114286-33.142857-67.885714 38.628571 8.228571 67.885714 42.742857 67.885714 84.114285z" fill="#8E24AA" /><path d="M413.257143 344.685714m-102.971429 0a102.971429 102.971429 0 1 0 205.942857 0 102.971429 102.971429 0 1 0-205.942857 0Z" fill="#AB47BC" /><path d="M348.914286 355.885714m-24 0a24 24 0 1 0 48 0 24 24 0 1 0-48 0Z" fill="#E1BEE7" /><path d="M602.514286 344.685714m-102.971429 0a102.971429 102.971429 0 1 0 205.942857 0 102.971429 102.971429 0 1 0-205.942857 0Z" fill="#AB47BC" /><path d="M783.428571 344.685714m-102.971428 0a102.971429 102.971429 0 1 0 205.942857 0 102.971429 102.971429 0 1 0-205.942857 0Z" fill="#AB47BC" /><path d="M872.228571 347.085714c0 43.771429-35.428571 79.428571-79.428571 79.428572-18.4 0-35.2-6.285714-48.685714-16.8 5.371429 1.142857 10.971429 1.714286 16.571428 1.714285 43.771429 0 79.428571-35.428571 79.428572-79.428571 0-25.485714-12-48-30.628572-62.628571 36 7.771429 62.742857 39.542857 62.742857 77.714285z" fill="#8E24AA" /><path d="M505.028571 480.914286m-102.971428 0a102.971429 102.971429 0 1 0 205.942857 0 102.971429 102.971429 0 1 0-205.942857 0Z" fill="#AB47BC" /><path d="M498.285714 356.114286c0 39.771429-32.228571 72.114286-72.114285 72.114285-16.8 0-32-5.714286-44.342858-15.314285 4.914286 1.028571 9.942857 1.6 15.085715 1.6 39.771429 0 72.114286-32.228571 72.114285-72.114286 0-23.2-10.857143-43.657143-27.885714-56.914286 32.685714 6.971429 57.142857 36 57.142857 70.628572z" fill="#8E24AA" /><path d="M404.914286 609.028571m-102.971429 0a102.971429 102.971429 0 1 0 205.942857 0 102.971429 102.971429 0 1 0-205.942857 0Z" fill="#AB47BC" /><path d="M315.771429 480.914286m-102.971429 0a102.971429 102.971429 0 1 0 205.942857 0 102.971429 102.971429 0 1 0-205.942857 0Z" fill="#BA68C8" /><path d="M299.428571 614.971429m-108.914285 0a108.914286 108.914286 0 1 0 217.828571 0 108.914286 108.914286 0 1 0-217.828571 0Z" fill="#AB47BC" /><path d="M585.828571 603.542857m-102.971428 0a102.971429 102.971429 0 1 0 205.942857 0 102.971429 102.971429 0 1 0-205.942857 0Z" fill="#AB47BC" /><path d="M363.657143 681.371429c-29.714286 29.942857-77.942857 30.057143-107.771429 0.228571-12.571429-12.457143-19.885714-28.228571-21.942857-44.457143 2.857143 4.457143 6.285714 8.571429 10.171429 12.457143 29.942857 29.714286 78.171429 29.6 107.771428-0.228571 17.257143-17.371429 24.457143-40.8 21.6-63.314286 19.314286 29.485714 16.114286 69.485714-9.828571 95.314286z" fill="#8E24AA" /><path d="M634.171429 372.914286m-90.514286 0a90.514286 90.514286 0 1 0 181.028571 0 90.514286 90.514286 0 1 0-181.028571 0Z" fill="#A042B0" /><path d="M707.2 331.428571c19.2 28.8 11.428571 67.657143-17.371429 86.971429-12.114286 8.114286-25.942857 11.428571-39.314285 10.4 4-1.6 7.885714-3.657143 11.657143-6.171429 28.8-19.2 36.457143-58.057143 17.371428-86.971428-11.2-16.685714-29.028571-26.4-47.542857-27.771429 26.857143-10.742857 58.4-1.6 75.2 23.542857z" fill="#8E24AA" /><path d="M592.114286 337.028571m-24 0a24 24 0 1 0 48 0 24 24 0 1 0-48 0Z" fill="#E1BEE7" /><path d="M664.228571 480.914286m-102.971428 0a102.971429 102.971429 0 1 0 205.942857 0 102.971429 102.971429 0 1 0-205.942857 0Z" fill="#BA68C8" /><path d="M709.371429 762.628571m-76 0a76 76 0 1 0 152 0 76 76 0 1 0-152 0Z" fill="#923CA1" /><path d="M771.542857 769.828571c0 30.742857-25.028571 55.771429-55.771428 55.771429-12.914286 0-24.8-4.342857-34.285715-11.771429 3.771429 0.8 7.657143 1.257143 11.657143 1.257143 30.742857 0 55.771429-25.028571 55.771429-55.771428 0-17.942857-8.457143-33.828571-21.485715-44 25.142857 5.257143 44.114286 27.657143 44.114286 54.514285z" fill="#791E91" /><path d="M703.428571 630.628571m-100.914285 0a100.914286 100.914286 0 1 0 201.828571 0 100.914286 100.914286 0 1 0-201.828571 0Z" fill="#AB47BC" /><path d="M365.828571 255.542857m-77.028571 0a77.028571 77.028571 0 1 0 154.057143 0 77.028571 77.028571 0 1 0-154.057143 0Z" fill="#AB47BC" /><path d="M379.771429 828.914286m-69.714286 0a69.714286 69.714286 0 1 0 139.428571 0 69.714286 69.714286 0 1 0-139.428571 0Z" fill="#993FA8" /><path d="M351.657143 813.142857m-24 0a24 24 0 1 0 48 0 24 24 0 1 0-48 0Z" fill="#E1BEE7" /><path d="M750.857143 706.742857c-32.457143 21.828571-76.685714 13.142857-98.4-19.428571-9.142857-13.714286-12.914286-29.371429-11.885714-44.571429 1.828571 4.571429 4.114286 9.028571 6.971428 13.257143 21.828571 32.457143 65.942857 41.142857 98.4 19.428571 18.971429-12.685714 29.828571-32.8 31.314286-53.828571 12.228571 30.4 1.942857 66.171429-26.4 85.142857zM433.6 266.857143c0 28-22.742857 50.628571-50.628571 50.628571-11.771429 0-22.628571-4-31.2-10.742857 3.428571 0.685714 6.971429 1.142857 10.628571 1.142857 28 0 50.628571-22.742857 50.628571-50.628571 0-16.228571-7.657143-30.742857-19.542857-39.885714 22.857143 4.685714 40.114286 25.028571 40.114286 49.485714z" fill="#8E24AA" /><path d="M527.314286 252.685714m-102.971429 0a102.971429 102.971429 0 1 0 205.942857 0 102.971429 102.971429 0 1 0-205.942857 0Z" fill="#BA68C8" /><path d="M434.057143 832c0 28.228571-22.857143 50.971429-50.971429 50.971429-11.885714 0-22.742857-4-31.428571-10.742858 3.428571 0.685714 6.971429 1.142857 10.628571 1.142858 28.228571 0 50.971429-22.857143 50.971429-50.971429 0-16.342857-7.657143-30.971429-19.657143-40.228571 23.085714 4.8 40.457143 25.257143 40.457143 49.828571z" fill="#84219E" /><path d="M518.971429 870.742857m-102.971429 0a102.971429 102.971429 0 1 0 205.942857 0 102.971429 102.971429 0 1 0-205.942857 0Z" fill="#A042B0" /><path d="M464.114286 850.857143m-24 0a24 24 0 1 0 48 0 24 24 0 1 0-48 0Z" fill="#E1BEE7" /><path d="M288 752m-71.885714 0a71.885714 71.885714 0 1 0 143.771428 0 71.885714 71.885714 0 1 0-143.771428 0Z" fill="#BA68C8" /><path d="M346.742857 758.857143c0 29.142857-23.657143 52.8-52.8 52.8-12.228571 0-23.428571-4.114286-32.342857-11.2 3.542857 0.8 7.2 1.142857 11.085714 1.142857 29.142857 0 52.8-23.657143 52.8-52.8 0-16.914286-8-32-20.342857-41.6 23.657143 5.028571 41.6 26.171429 41.6 51.657143z" fill="#8E24AA" /><path d="M254.742857 729.485714m-16.685714 0a16.685714 16.685714 0 1 0 33.371428 0 16.685714 16.685714 0 1 0-33.371428 0Z" fill="#E1BEE7" /><path d="M438.171429 730.285714m-111.314286 0a111.314286 111.314286 0 1 0 222.628571 0 111.314286 111.314286 0 1 0-222.628571 0Z" fill="#AB47BC" /><path d="M616.571429 253.028571c0 48.457143-39.314286 87.885714-87.885715 87.885715-20.342857 0-39.085714-6.971429-53.942857-18.628572 5.942857 1.257143 12.114286 1.942857 18.4 1.942857 48.457143 0 87.885714-39.314286 87.885714-87.885714 0-28.228571-13.257143-53.257143-33.828571-69.371428 39.657143 8.571429 69.371429 43.885714 69.371429 86.057142z" fill="#8E24AA" /><path d="M604.228571 874.742857c0 38.742857-31.542857 70.285714-70.285714 70.285714-16.342857 0-31.314286-5.6-43.085714-14.857142 4.8 1.028571 9.714286 1.6 14.742857 1.6 38.742857 0 70.285714-31.542857 70.285714-70.285715 0-22.514286-10.628571-42.514286-27.085714-55.428571 31.542857 6.628571 55.428571 34.971429 55.428571 68.685714z" fill="#84219E" /><path d="M517.6 737.942857c0 41.714286-33.828571 75.657143-75.657143 75.657143-17.6 0-33.6-5.942857-46.4-16 5.142857 1.142857 10.4 1.714286 15.885714 1.714286 41.714286 0 75.657143-33.828571 75.657143-75.657143 0-24.342857-11.428571-45.828571-29.257143-59.657143 34.057143 7.2 59.771429 37.714286 59.771429 73.942857z" fill="#8E24AA" /><path d="M585.828571 752.342857m-102.971428 0a102.971429 102.971429 0 1 0 205.942857 0 102.971429 102.971429 0 1 0-205.942857 0Z" fill="#BA68C8" /><path d="M771.314286 306.628571m-24 0a24 24 0 1 0 48 0 24 24 0 1 0-48 0Z" fill="#E1BEE7" /><path d="M688.685714 275.085714m-77.028571 0a77.028571 77.028571 0 1 0 154.057143 0 77.028571 77.028571 0 1 0-154.057143 0Z" fill="#BA68C8" /><path d="M753.142857 298.857143c-10.285714 28.8-41.942857 43.542857-70.628571 33.257143-12.114286-4.342857-21.714286-12.457143-28.114286-22.514286 3.2 2.057143 6.742857 3.657143 10.514286 5.028571 28.8 10.285714 60.342857-4.571429 70.628571-33.257142 5.942857-16.685714 3.428571-34.285714-5.371428-48.228572 21.828571 13.6 32 40.8 22.971428 65.714286zM670.057143 762.057143c0 41.714286-33.828571 75.657143-75.657143 75.657143-17.6 0-33.6-5.942857-46.4-16 5.142857 1.142857 10.4 1.714286 15.885714 1.714285 41.714286 0 75.657143-33.828571 75.657143-75.657142 0-24.342857-11.428571-45.828571-29.257143-59.657143 34.057143 7.2 59.771429 37.6 59.771429 73.942857z" fill="#8E24AA" /><path d="M185.714286 311.428571m-24 0a24 24 0 1 0 48 0 24 24 0 1 0-48 0Z" fill="#E1BEE7" /><path d="M483.428571 205.371429m-24 0a24 24 0 1 0 48 0 24 24 0 1 0-48 0Z" fill="#E1BEE7" /><path d="M661.485714 247.542857m-24 0a24 24 0 1 0 48 0 24 24 0 1 0-48 0Z" fill="#E1BEE7" /><path d="M538.057143 720m-24 0a24 24 0 1 0 48 0 24 24 0 1 0-48 0Z" fill="#E1BEE7" /><path d="M380.114286 685.828571m-24 0a24 24 0 1 0 48 0 24 24 0 1 0-48 0Z" fill="#E1BEE7" /><path d="M336.342857 229.257143m-24 0a24 24 0 1 0 48 0 24 24 0 1 0-48 0Z" fill="#E1BEE7" /><path d="M717.371429 541.942857H666.285714c-14.171429 0-25.6 11.428571-25.6 25.6s11.428571 25.6 25.6 25.6h51.085715c14.171429 0 25.6-11.428571 25.6-25.6-0.114286-14.171429-11.428571-25.6-25.6-25.6z" fill="#E1BEE7" /><path d="M487.314286 645.371429c-35.314286 0-64-28.685714-64-64 0-7.085714 5.714286-12.8 12.8-12.8s12.8 5.714286 12.8 12.8c0 21.257143 17.257143 38.4 38.4 38.4s38.4-17.142857 38.4-38.4c0-7.085714 5.714286-12.8 12.8-12.8s12.8 5.714286 12.8 12.8c0 35.314286-28.685714 64-64 64z" fill="#25467A" /><path d="M359.314286 478.971429m-38.4 0a38.4 38.4 0 1 0 76.8 0 38.4 38.4 0 1 0-76.8 0Z" fill="#25467A" /><path d="M603.167338 515.385144a38.4 38.4 0 1 0 24.283814-72.859704 38.4 38.4 0 1 0-24.283814 72.859704Z" fill="#25467A" /><path d="M308.114286 542.971429h-51.2c-14.171429 0-25.6 11.428571-25.6 25.6 0 14.171429 11.428571 25.6 25.6 25.6h51.2c14.171429 0 25.6-11.428571 25.6-25.6 0-14.171429-11.428571-25.6-25.6-25.6z" fill="#E1BEE7" /></svg>