<?xml version="1.0" standalone="no"?><!DOCTYPE svg PUBLIC "-//W3C//DTD SVG 1.1//EN" "http://www.w3.org/Graphics/SVG/1.1/DTD/svg11.dtd"><svg class="icon" width="128px" height="128.00px" viewBox="0 0 1024 1024" version="1.1" xmlns="http://www.w3.org/2000/svg"><path d="M954.057143 4.571429a38.411429 38.411429 0 0 0-51.977143 15.771428L829.714286 155.771429l67.702857 36.228571 72.4-135.474286A38.4 38.4 0 0 0 954.057143 4.571429z" fill="#25467A" /><path d="M372.034286 1024c-91.6 0-217.725714-19.577143-298.388572-112.788571C-20.571429 802.285714-25.005714 618.708571 64 510.354286c62.731429-76.342857 152.091429-93.325714 230.925714-108.32 81.462857-15.485714 151.805714-28.868571 206.445715-96.217143 8-9.931429 15.222857-20.365714 23.531428-32.445714 16.4-23.851429 36.4-52.925714 71.68-89.714286a90.034286 90.034286 0 0 1 11.428572-23.474286c28.571429-42.697143 112.56-103.337143 210.434285-105.005714 2.708571-0.114286 5.268571-0.16 7.68-0.16 3.348571 0 6.411429 0.091429 9.142857 0.24 18.914286 1.04 47.451429 2.594286 78.137143 19.2 91.702857 46.102857 112.32 153.897143 110.377143 204.662857-0.868571 23.017143-6.022857 39.851429-13.188571 52.16-6.262857 113.771429-44.057143 242.868571-102.594286 348.982857-46.514286 84.011429-142.857143 258.034286-360.914286 319.908572-2.685714 0.754286-6.022857 1.702857-10.285714 2.834285C486.24 1016.548571 427.714286 1024 372.057143 1024z" fill="#25467A" /><path d="M956.72 312.582857c-2.88 107.645714-38.971429 238.594286-97.234286 344.194286-42.662857 77.051429-131.954286 238.72-328.182857 294.4-2.125714 0.594286-5.314286 1.497143-9.451428 2.605714-109.142857 29.177143-307.691429 38.468571-405.714286-74.8-77.714286-89.782857-83.428571-246.56-8.754286-337.405714 105.942857-128.902857 309.84-47.325714 437.588572-204.8 28.731429-35.428571 45.051429-72.388571 104.331428-131.074286 97.622857-96.64 158.308571-100.662857 182.857143-99.325714 16.411429 0.891429 35.005714 1.92 54.697143 12.8 51.257143 28.411429 72.457143 102.537143 69.862857 193.405714z" fill="#B07CE8" /><path d="M931.714286 474.88c-16.765714 62.971429-41.348571 125.954286-72.194286 181.885714-42.754286 77.062857-131.965714 238.72-328.194286 294.4-2.171429 0.64-5.371429 1.542857-9.474285 2.56-109.177143 29.188571-307.702857 38.525714-405.714286-74.754285-20.857143-24.057143-36.48-52.857143-46.72-83.965715A637.394286 637.394286 0 0 0 345.6 857.6c261.885714 0 487.04-157.314286 586.114286-382.72z" fill="#A475D9" /><path d="M947.2 320c-7.817143 2.56-24.64-12.674286-64-89.6-27.68 41.68-78.171429 50.148571-105.76 29.577143C758.857143 246.08 750.857143 219.108571 755.2 192c-83.954286 24.194286-102.697143 20.4-105.885714 13.714286-8.88-18.651429 81.714286-104.16 182.857143-99.325715 15.405714 0.731429 34.285714 1.634286 54.697142 12.8C968 163.565714 968.194286 313.142857 947.2 320z" fill="#95D13C" /><path d="M409.6 768a64.068571 64.068571 0 0 1-64-64 12.8 12.8 0 1 1 25.6 0 38.4 38.4 0 0 0 76.8 0 12.8 12.8 0 1 1 25.6 0 64.068571 64.068571 0 0 1-64 64z" fill="#25467A" /><path d="M281.6 601.6m-38.4 0a38.4 38.4 0 1 0 76.8 0 38.4 38.4 0 1 0-76.8 0Z" fill="#25467A" /><path d="M537.6 601.6m-38.4 0a38.4 38.4 0 1 0 76.8 0 38.4 38.4 0 1 0-76.8 0Z" fill="#25467A" /><path d="M230.4 665.6h-51.2a25.6 25.6 0 1 0 0 51.2h51.2a25.6 25.6 0 0 0 0-51.2zM640 665.6h-51.2a25.6 25.6 0 0 0 0 51.2H640a25.6 25.6 0 1 0 0-51.2z" fill="#E4ADEA" /></svg>