<?xml version="1.0" standalone="no"?><!DOCTYPE svg PUBLIC "-//W3C//DTD SVG 1.1//EN" "http://www.w3.org/Graphics/SVG/1.1/DTD/svg11.dtd"><svg class="icon" width="128px" height="128.00px" viewBox="0 0 1024 1024" version="1.1" xmlns="http://www.w3.org/2000/svg"><path d="M512 1024c-43.04 0-80-1.52-119.394286-18.765714a555.714286 555.714286 0 0 1-78.72 6.194285c-77.222857 0-135.474286-21.348571-173.165714-63.428571-47.211429-52.72-50.057143-109.462857-53.657143-181.28-2.114286-42.285714-4.754286-94.777143-16.125714-163.325714-10.822857-65.142857-26.285714-120.697143-39.885714-169.657143-29.131429-104.742857-52.137143-187.428571 0.068571-267.851429 17.222857-26.525714 36.982857-40.628571 54.434286-53.074285 57.142857-40.845714 129.028571-61.554286 213.474285-61.554286 36.571429 0 75.428571 3.931429 115.805715 11.68a811.234286 811.234286 0 0 1 194.285714 0c40.342857-7.748571 79.257143-11.68 115.805714-11.68 84.445714 0 156.274286 20.708571 213.485715 61.554286 17.44 12.445714 37.2 26.548571 54.422857 53.074285 52.205714 80.377143 29.2 163.108571 0.068571 267.851429-13.622857 48.96-29.062857 104.468571-39.885714 169.657143-11.371429 68.571429-14.011429 121.142857-16.125714 163.325714-3.6 71.817143-6.445714 128.56-53.714286 181.28-37.714286 42.08-96 63.428571-173.154286 63.428571a557.417143 557.417143 0 0 1-78.72-6.148571C592 1022.48 555.04 1024 512 1024z" fill="#25467A" /><path d="M512 0a38.4 38.4 0 0 0-38.4 38.4V192h76.8V38.4A38.4 38.4 0 0 0 512 0z" fill="#25467A" /><path d="M902.708571 594.96c33.291429-200.377143 107.36-308.948571 47.405715-401.234286-11.691429-17.988571-24.857143-27.577143-41.257143-39.28C773.28 57.691429 570.731429 121.611429 512 142.205714c-58.731429-20.571429-261.28-84.514286-396.857143 12.24-16.4 11.702857-29.565714 21.291429-41.257143 39.28C13.931429 286.011429 88 394.582857 121.291429 594.96c30.697143 184.937143 0.182857 254.857143 57.451428 318.857143 37.657143 42.045714 122.285714 73.222857 333.257143 12.434286 210.937143 60.788571 295.6 29.611429 333.257143-12.434286 57.268571-63.942857 26.742857-133.92 57.451428-318.857143z" fill="#00884B" /><path d="M919.165714 513.36c-6.011429 25.474286-11.645714 52.48-16.514285 81.542857-30.582857 184.96-0.125714 254.971429-57.337143 318.857143-30.205714 33.794286-90.628571 60.411429-221.954286 38.525714C590.857143 946.777143 553.988571 938.285714 512 926.297143c-41.988571 12.022857-78.857143 20.48-111.36 25.977143-131.325714 21.885714-191.748571-4.731429-221.954286-38.525715-41.851429-46.72-36.857143-96.605714-43.005714-192.251428A575.771429 575.771429 0 0 0 317.714286 788.308571a587.36 587.36 0 0 0 104.708571 9.474286 572.685714 572.685714 0 0 0 287.485714-76.8 578.982857 578.982857 0 0 0 209.257143-207.622857z" fill="#007D45" /><path d="M712.754286 602.217143c5.965714-269.131429 92.16-378.857143 25.142857-444.137143C710.525714 131.428571 624.902857 108.262857 512 108.262857S313.474286 131.428571 286.148571 158.08c-67.062857 65.28 19.131429 175.005714 25.142858 444.137143C315.428571 792 313.622857 892 373.965714 935.314286c46.32 33.245714 75.314286 37.485714 138.034286 37.485714s91.714286-4.24 138.034286-37.485714c60.342857-43.314286 58.537143-143.314286 62.72-333.097143z" fill="#00AA5E" /><path d="M709.885714 720.982857c-3.84 114.685714-13.565714 181.12-59.897143 214.4a258.057143 258.057143 0 0 1-26.628571 16.891429c-32.891429 17.794286-61.44 20.48-111.36 20.48s-78.468571-2.685714-111.36-20.48a258.057143 258.057143 0 0 1-26.628571-16.891429c-36.342857-26.114286-50.171429-72.708571-56.32-147.074286a587.36 587.36 0 0 0 104.708571 9.474286 572.685714 572.685714 0 0 0 287.485714-76.8z" fill="#009E57" /><path d="M512 550.4a64.068571 64.068571 0 0 1-64-64 12.8 12.8 0 1 1 25.6 0 38.4 38.4 0 0 0 76.8 0 12.8 12.8 0 1 1 25.6 0 64.068571 64.068571 0 0 1-64 64z" fill="#25467A" /><path d="M384 384m-38.4 0a38.4 38.4 0 1 0 76.8 0 38.4 38.4 0 1 0-76.8 0Z" fill="#25467A" /><path d="M640 384m-38.4 0a38.4 38.4 0 1 0 76.8 0 38.4 38.4 0 1 0-76.8 0Z" fill="#25467A" /><path d="M332.8 448h-51.2a25.6 25.6 0 1 0 0 51.2h51.2a25.6 25.6 0 1 0 0-51.2zM742.4 448h-51.2a25.6 25.6 0 1 0 0 51.2h51.2a25.6 25.6 0 0 0 0-51.2z" fill="#57D785" /></svg>