<?xml version="1.0" standalone="no"?><!DOCTYPE svg PUBLIC "-//W3C//DTD SVG 1.1//EN" "http://www.w3.org/Graphics/SVG/1.1/DTD/svg11.dtd"><svg class="icon" width="128px" height="128.00px" viewBox="0 0 1024 1024" version="1.1" xmlns="http://www.w3.org/2000/svg"><path d="M448 1024C184.228571 1024 0 813.451429 0 512S184.228571 0 448 0c131.977143 0 241.382857 90.56 337.897143 170.445714 11.097143 9.142857 22.091429 18.285714 33.028571 27.188572l8.96 7.268571C928.742857 286.765714 1024 364.102857 1024 512c0 168.948571-64.982857 304.297143-187.92 391.417143C734.308571 975.542857 578.354286 1024 448 1024z" fill="#25467A" /><path d="M51.2 512C51.2 257.508571 193.508571 51.2 448 51.2c127.245714 0 236.045714 102.777143 338.64 186.16S972.8 384.754286 972.8 512c0 139.84-47.085714 265.142857-166.331429 349.645714C708.708571 930.925714 562.651429 972.8 448 972.8 193.508571 972.8 51.2 766.491429 51.2 512z" fill="#FFBDB3" /><path d="M921.6 512c0 114.045714-34.045714 205.314286-101.634286 271.748571a314.091429 314.091429 0 0 1-30.971428 27.005715c-3.965714 3.2-8.068571 6.137143-12.16 9.142857-84.48 59.908571-219.782857 101.714286-328.834286 101.714286-104.834286 0-192.765714-40.068571-253.954286-115.965715C134.914286 732.571429 102.4 628.228571 102.4 512c0-107.908571 28.034286-205.565714 79.485714-277.508571 3.84-5.497143 7.942857-10.88 12.16-16.125715 3.428571-4.217143 6.914286-8.445714 10.628572-12.411428 60.571429-67.84 144.377143-103.554286 243.325714-103.554286 95.108571 0 185.348571 74.754286 272.64 146.948571 11.268571 9.337143 22.525714 18.685714 33.668571 27.771429l9.142858 7.291429C867.325714 368.765714 921.6 417.28 921.6 512z" fill="#FF534D" /><path d="M819.965714 783.748571a314.091429 314.091429 0 0 1-30.971428 27.005715c-3.965714 3.2-8.068571 6.137143-12.16 9.142857-84.48 59.908571-219.782857 101.714286-328.834286 101.714286-104.834286 0-192.765714-40.068571-253.954286-115.965715C134.914286 732.571429 102.4 628.228571 102.4 512c0-107.908571 28.034286-205.565714 79.485714-277.508571 3.84-5.497143 7.942857-10.88 12.16-16.125715 3.428571-4.217143 6.914286-8.445714 10.628572-12.411428a410.971429 410.971429 0 0 1 44.674285-2.434286c66.937143 0 119.542857 16.125714 152.182858 46.594286 33.28 31.097143 37.12 68.354286 40.834285 104.445714 3.588571 35.2 7.04 68.48 37.382857 101.714286 40.32 44.285714 92.022857 48.125714 146.811429 52.091428 52.354286 3.977143 106.365714 7.942857 147.074286 49.794286 44.651429 46 61.44 128.811429 46.331428 225.588571z" fill="#FF7873" /><path d="M788.994286 810.754286c-3.965714 3.2-8.068571 6.137143-12.16 9.142857-84.48 59.908571-219.782857 101.714286-328.834286 101.714286-104.834286 0-192.765714-40.068571-253.954286-115.965715C134.914286 732.571429 102.4 628.228571 102.4 512c0-107.908571 28.034286-205.565714 79.485714-277.508571C268.571429 221.188571 345.142857 232.445714 384 268.8c55.428571 51.714286 8.068571 129.531429 76.8 204.8 88.571429 97.028571 221.954286 27.771429 294.4 102.4 45.314286 46.594286 55.165714 137.725714 33.794286 234.754286z" fill="#FF645E" /><path d="M204.8 601.6c51.12-76.514286 173.302857-82.971429 256-12.8 63.165714 53.588571 64 105.142857 25.6 166.4-49.908571 79.68-153.6 115.2-217.6 51.2s-103.714286-145.36-64-204.8z" fill="#FF7873" /><path d="M418.137143 669.862857a59.737143 59.737143 0 1 1-119.474286 0c0-32.982857 26.742857-42.662857 59.737143-42.662857s59.737143 9.68 59.737143 42.662857z" fill="#FFCECC" /><path d="M512 550.4a64.068571 64.068571 0 0 1-64-64 12.8 12.8 0 1 1 25.6 0 38.4 38.4 0 0 0 76.8 0 12.8 12.8 0 1 1 25.6 0 64.068571 64.068571 0 0 1-64 64z" fill="#25467A" /><path d="M384 384m-38.4 0a38.4 38.4 0 1 0 76.8 0 38.4 38.4 0 1 0-76.8 0Z" fill="#25467A" /><path d="M640 384m-38.4 0a38.4 38.4 0 1 0 76.8 0 38.4 38.4 0 1 0-76.8 0Z" fill="#25467A" /><path d="M332.8 448h-51.2a25.6 25.6 0 1 0 0 51.2h51.2a25.6 25.6 0 1 0 0-51.2zM742.4 448h-51.2a25.6 25.6 0 1 0 0 51.2h51.2a25.6 25.6 0 0 0 0-51.2z" fill="#E62325" /></svg>