<?xml version="1.0" standalone="no"?><!DOCTYPE svg PUBLIC "-//W3C//DTD SVG 1.1//EN" "http://www.w3.org/Graphics/SVG/1.1/DTD/svg11.dtd"><svg class="icon" width="128px" height="128.00px" viewBox="0 0 1024 1024" version="1.1" xmlns="http://www.w3.org/2000/svg"><path d="M508.058092 1024c-217.565695 0-478.8571-172.319985-505.862812-419.599963-14.319999-131.074274 34.674283-325.851399 349.497111-509.417097C412.572386 59.428658 514.572377 0.000091 636.229509 0.000091a360.514254 360.514254 0 0 1 105.577133 15.725713c127.245703 38.948568 211.028553 139.89713 247.02855 221.382838 63.897137 144.708559 39.359996 349.119969-62.51428 520.777096C834.012348 913.451438 694.640932 1009.897144 544.000946 1022.514286c-11.82857 0.982857-23.897141 1.485714-35.942854 1.485714z" fill="#25467A" /><path d="M52.983847 598.857181C25.143849 344.605775 308.332395 179.520075 377.452389 139.222936 450.983811 96.34294 581.555228 20.217232 726.858072 64.6858c102.777134 31.451426 179.885698 113.142847 215.222838 193.14284 108.182847 244.914264-81.245707 686.857082-402.411392 713.691365C325.646679 989.405717 77.269559 820.982875 52.983847 598.857181z" fill="#FE6100" /><path d="M434.412384 966.148577c-8.445714-1.405714-16.765713-3.2-25.211426-5.245714 28.285712-87.039992 17.017141-111.99999 8.057142-119.03999-19.325713-15.359999-70.399994 11.005713-94.857134 23.679998l-6.651428 3.325714a511.485669 511.485669 0 0 1-61.439995 26.285712c-9.142856-5.714285-17.919998-11.782856-26.628569-18.045712a506.502812 506.502812 0 0 0 76.571422-30.982855l6.399999-3.325714c33.782854-17.405713 90.285706-46.594282 122.491418-20.868569 17.782856 14.034284 33.01714 45.017139 1.268571 144.21713z" fill="#FC835C" /><path d="M497.646664 972.67429c-8.834285-0.251429-17.66857-0.765714-26.502855-1.668571C520.000948 823.805732 530.286661 738.560025 501.486664 716.925742c-23.554284-17.657141-73.599993 3.428571-113.794276 20.228569-7.039999 2.948571-13.82857 5.885714-20.354284 8.445714a873.234208 873.234208 0 0 1-220.674266 57.348566C139.886696 795.428592 133.486697 787.428593 127.46384 779.428593c99.977134-11.005713 174.342842-35.199997 230.399979-57.599995 6.399999-2.434285 13.062856-5.245714 19.977142-8.194285 48.502853-20.354284 103.679991-43.519996 139.005701-17.142855 39.417139 29.65714 34.29714 114.137133-19.199998 276.182832z" fill="#FC835C" /><path d="M573.715229 967.040005q-13.839999 2.502857-28.034283 3.84C630.378081 696.582886 614.858082 612.868608 585.578085 592.000039c-28.285712-20.217141-79.485707-1.531428-133.634274 18.434284-10.742856 3.965714-21.622855 7.931428-32.502854 11.645713-87.817135 30.342854-198.788554 60.571423-343.942827 65.919994-3.325714-8.319999-6.399999-16.639999-9.142856-25.211426 146.045701-4.571428 257.142834-34.685711 344.708541-64.902852 10.617142-3.702857 21.371427-7.542856 31.999997-11.519999 60.662852-22.262855 118.011418-43.428568 157.302843-15.222855C653.715222 609.142894 645.612365 732.160026 573.715229 967.040005z" fill="#FC835C" /><path d="M660.080935 940.422865c-9.862856 4.342857-19.839998 8.319999-30.079997 11.897141C732.652357 599.805752 708.33236 493.714333 669.71522 466.948621c-33.279997-22.788569-86.399992-5.12-153.737129 17.142856-14.331427 4.731428-29.051426 9.725713-44.28571 14.457141-108.262847 33.554283-246.045692 67.337137-420.514248 68.491423-0.125714-8.697142 0.125714-17.279998 0.765714-25.599998 171.017128-1.28 305.919973-34.434283 412.159963-67.428565 14.982856-4.571428 29.57714-9.474285 43.782853-14.079999 71.165708-23.679998 132.571417-44.159996 176.251413-14.079999 65.79428 45.154282 57.862852 207.074267-24.057141 494.571385z" fill="#FC835C" /><path d="M757.09807 880.000013c-10.754285 8.708571-21.885712 17.02857-33.279997 24.708569 117.245704-428.799962 69.119994-536.708524 29.954283-562.822807-38.274282-25.462855-95.108563-7.931428-173.954271 16.262856-17.657141 5.371428-36.21714 11.131428-55.805709 16.639998-160.388557 45.714282-306.045687 68.99428-450.434245 71.039994 3.428571-8.834285 7.165714-17.405713 11.26857-25.862855 138.491416-2.937143 278.399975-25.851426 432.125676-69.714279 19.42857-5.497142 37.885711-11.131428 55.428566-16.502856 82.171421-25.348569 147.199987-45.314282 195.577126-13.062856 77.188565 51.417138 73.474279 239.439979-10.879999 559.314236z" fill="#FC835C" /><path d="M870.640917 750.720024a593.074233 593.074233 0 0 1-39.302854 54.399996C940.572339 362.114345 883.052344 246.148641 837.715205 216.834358c-43.131425-28.034283-103.039991-10.754285-193.919982 15.485713-20.994284 6.022857-43.428568 12.422856-67.428566 18.822855C424.000956 291.840065 283.623826 315.428635 148.458124 322.434348c7.805714-9.474285 15.999999-18.559998 24.319998-27.268569 125.439989-8.445714 255.999977-31.09714 397.062821-68.731422 23.805712-6.399999 46.079996-12.799999 66.937137-18.811427C730.858072 180.571504 798.858066 161.028648 851.692347 195.325788c84.228564 54.662852 90.628563 241.245693 18.94857 555.394236zM781.806639 87.165798c-22.022855 5.257142-46.468567 11.90857-73.862851 19.337141-24.319998 6.651428-50.559995 13.817142-79.097136 20.982855-115.83999 29.188569-225.91998 49.919996-331.51997 62.228566 18.285713-12.674285 35.199997-23.428569 49.40571-32.262854C435.178098 145.02865 526.85809 126.72008 622.572367 102.662939c28.411426-7.177142 54.525709-14.217142 78.594279-20.868569 14.857142-4.091428 28.925712-7.931428 42.491425-11.428571a330.159971 330.159971 0 0 1 38.148568 16.799999z" fill="#FC835C" /><path d="M514.800948 534.182901a64.068566 64.068566 0 0 1-63.999994-63.999994 12.799999 12.799999 0 1 1 25.599998 0 38.399997 38.399997 0 1 0 76.799993 0 12.799999 12.799999 0 0 1 25.599998 0 64.079994 64.079994 0 0 1-63.999995 63.999994z" fill="#25467A" /><path d="M386.80096 367.782916m-38.399997 0a38.399997 38.399997 0 1 0 76.799993 0 38.399997 38.399997 0 1 0-76.799993 0Z" fill="#25467A" /><path d="M642.800937 367.782916m-38.399997 0a38.399997 38.399997 0 1 0 76.799993 0 38.399997 38.399997 0 1 0-76.799993 0Z" fill="#25467A" /><path d="M335.600964 431.78291h-51.199995a25.599998 25.599998 0 0 0 0 51.199995h51.199995a25.599998 25.599998 0 1 0 0-51.199995zM745.200928 431.78291h-51.199996a25.599998 25.599998 0 1 0 0 51.199995h51.199996a25.599998 25.599998 0 1 0 0-51.199995z" fill="#FAAD96" /></svg>