<?xml version="1.0" standalone="no"?><!DOCTYPE svg PUBLIC "-//W3C//DTD SVG 1.1//EN" "http://www.w3.org/Graphics/SVG/1.1/DTD/svg11.dtd"><svg class="icon" width="128px" height="128.00px" viewBox="0 0 1024 1024" version="1.1" xmlns="http://www.w3.org/2000/svg"><path d="M512 0a38.4 38.4 0 0 0-38.4 38.4V192h76.8V38.4A38.4 38.4 0 0 0 512 0z" fill="#25467A" /><path d="M737.508571 100.571429A140.788571 140.788571 0 0 0 620.8 38.4c-22.091429 0-47.634286 5.257143-72.457143 14.125714-12.011429-0.777143-24.091429-1.325714-36.342857-1.325714s-24.331429 0.548571-36.342857 1.325714c-24.822857-8.868571-50.365714-14.125714-72.457143-14.125714A140.788571 140.788571 0 0 0 286.491429 100.571429C115.428571 180.48 0 349.851429 0 550.4 0 824.822857 215.325714 1024 512 1024s512-199.177143 512-473.6C1024 349.851429 908.571429 180.48 737.508571 100.571429z" fill="#25467A" /><path d="M972.8 550.4c0 254.491429-206.308571 422.4-460.8 422.4S51.2 804.891429 51.2 550.4s206.308571-448 460.8-448 460.8 193.508571 460.8 448z" fill="#C45433" /><path d="M972.8 550.4c0 254.468571-206.331429 422.4-460.8 422.4-211.074286 0-388.994286-115.588571-443.52-300.16A516.171429 516.171429 0 0 0 416 806.4c262.651429 0 479.611429-195.2 513.668571-448.514286 27.645714 57.725714 43.131429 122.88 43.131429 192.514286z" fill="#BA5030" /><path d="M512 550.4a64.068571 64.068571 0 0 1-64-64 12.8 12.8 0 1 1 25.6 0 38.4 38.4 0 0 0 76.8 0 12.8 12.8 0 1 1 25.6 0 64.068571 64.068571 0 0 1-64 64z" fill="#25467A" /><path d="M384 384m-38.4 0a38.4 38.4 0 1 0 76.8 0 38.4 38.4 0 1 0-76.8 0Z" fill="#25467A" /><path d="M640 384m-38.4 0a38.4 38.4 0 1 0 76.8 0 38.4 38.4 0 1 0-76.8 0Z" fill="#25467A" /><path d="M332.8 448h-51.2a25.6 25.6 0 1 0 0 51.2h51.2a25.6 25.6 0 1 0 0-51.2zM742.4 448h-51.2a25.6 25.6 0 1 0 0 51.2h51.2a25.6 25.6 0 0 0 0-51.2z" fill="#FE8500" /><path d="M313.6 179.2a89.6 89.6 0 0 1 89.6-89.6c49.485714 0 140.8 40.114286 140.8 89.6s-91.314286 64-140.8 64-89.6-14.514286-89.6-64z" fill="#81B532" /><path d="M480 179.2c0-49.485714 91.314286-89.6 140.8-89.6a89.6 89.6 0 0 1 89.6 89.6c0 49.485714-40.114286 64-89.6 64S480 228.685714 480 179.2z" fill="#81B532" /><path d="M409.6 179.2c0-49.485714 52.914286-89.6 102.4-89.6s102.4 40.114286 102.4 89.6S561.485714 256 512 256s-102.4-27.314286-102.4-76.8z" fill="#95D13C" /></svg>