<?xml version="1.0" standalone="no"?><!DOCTYPE svg PUBLIC "-//W3C//DTD SVG 1.1//EN" "http://www.w3.org/Graphics/SVG/1.1/DTD/svg11.dtd"><svg class="icon" width="128px" height="128.00px" viewBox="0 0 1024 1024" version="1.1" xmlns="http://www.w3.org/2000/svg"><path d="M727.085714 275.314286c-33.371429 0-64.685714-12.685714-87.771428-34.171429-5.371429 0.685714-10.742857 1.028571-16.114286 1.028572-20.8 0-41.028571-4.914286-58.971429-14.057143-16.114286 7.085714-33.828571 10.742857-52.228571 10.742857s-36-3.657143-52.228571-10.742857c-17.942857 9.142857-38.171429 14.057143-58.971429 14.057143-5.371429 0-10.742857-0.342857-16.114286-1.028572-23.085714 21.485714-54.514286 34.171429-87.771428 34.171429-69.142857 0-125.485714-53.6-125.485715-119.428572S227.771429 36.457143 296.914286 36.457143c5.371429 0 10.742857 0.342857 16.114285 1.028571C336.114286 16 367.542857 3.314286 400.8 3.314286c18.4 0 36 3.657143 52.228571 10.742857C470.971429 4.914286 491.2 0 512 0s41.028571 4.914286 58.971429 14.057143c16.114286-7.085714 33.828571-10.742857 52.228571-10.742857 33.371429 0 64.685714 12.685714 87.771429 34.171428 5.371429-0.685714 10.742857-1.028571 16.114285-1.028571 69.142857 0 125.485714 53.6 125.485715 119.428571s-56.342857 119.428571-125.485715 119.428572z" fill="#25467A" /><path d="M512 1024c-69.942857 0-133.371429-4.685714-188.457143-13.942857-62.857143-10.514286-117.257143-27.428571-161.828571-50.171429-51.085714-26.057143-90.857143-60.685714-117.942857-102.628571C14.742857 812.342857 0 758.742857 0 697.942857c0-67.428571 18.171429-134.057143 53.942857-197.942857 30.057143-53.714286 73.485714-106.971429 129.257143-158.4-28.114286-48.228571-37.028571-125.6-5.485714-175.657143 9.028571-14.4 22.285714-26.514286 38.171428-35.085714 21.485714-11.542857 44.114286-17.371429 67.2-17.371429 22.057143 0 43.2 5.485714 61.828572 15.542857 14.971429-5.942857 31.2-9.028571 47.885714-9.028571 20 0 39.314286 4.457143 56.571429 12.8 18.857143-10.285714 40.342857-16 62.628571-16 22.171429 0 43.771429 5.714286 62.628571 16 17.257143-8.342857 36.571429-12.8 56.571429-12.8 16.685714 0 32.914286 3.085714 47.885714 9.028571 18.628571-10.057143 39.885714-15.542857 61.828572-15.542857 23.2 0 45.828571 5.828571 67.2 17.371429 15.885714 8.571429 29.028571 20.685714 38.171428 35.085714 31.542857 50.057143 22.742857 127.428571-5.485714 175.657143 55.771429 51.542857 99.2 104.8 129.257143 158.4 35.771429 63.885714 53.942857 130.514286 53.942857 197.942857 0 60.8-14.742857 114.4-43.771429 159.314286-27.085714 41.942857-66.857143 76.571429-118.057142 102.628571-44.571429 22.742857-98.971429 39.657143-161.828572 50.171429C645.371429 1019.314286 581.942857 1024 512 1024z" fill="#25467A" /><path d="M727.085714 84.457143c-12.914286 0-25.028571 3.085714-35.657143 8.571428-11.885714-24.685714-37.942857-41.714286-68.228571-41.714285-21.257143 0-40.342857 8.342857-54.057143 21.828571-13.714286-15.428571-34.285714-25.142857-57.142857-25.142857s-43.428571 9.714286-57.142857 25.142857c-13.6-13.485714-32.8-21.828571-54.057143-21.828571-30.285714 0-56.457143 17.142857-68.228571 41.714285-10.628571-5.485714-22.742857-8.571429-35.657143-8.571428-41.485714 0-75.085714 32-75.085715 71.428571s33.6 71.428571 75.085715 71.428572c30.285714 0 56.457143-17.142857 68.228571-41.714286 10.628571 5.485714 22.742857 8.571429 35.657143 8.571429 22.857143 0 43.428571-9.714286 57.142857-25.142858 13.6 13.485714 32.8 21.828571 54.057143 21.828572 21.257143 0 40.342857-8.342857 54.057143-21.828572 13.714286 15.428571 34.285714 25.142857 57.142857 25.142858 12.914286 0 25.028571-3.085714 35.657143-8.571429 11.885714 24.685714 37.942857 41.714286 68.228571 41.714286 41.485714 0 75.085714-32 75.085715-71.428572s-33.6-71.428571-75.085715-71.428571z" fill="#FFF3E0" /><path d="M359.885714 122.742857a45.142857 30.857143 90 1 0 61.714286 0 45.142857 30.857143 90 1 0-61.714286 0Z" fill="#FF8A65" /><path d="M456.914286 122.742857a45.142857 30.857143 90 1 0 61.714285 0 45.142857 30.857143 90 1 0-61.714285 0Z" fill="#FF8A65" /><path d="M553.828571 122.742857a45.142857 30.857143 90 1 0 61.714286 0 45.142857 30.857143 90 1 0-61.714286 0Z" fill="#FF8A65" /><path d="M650.857143 122.742857a45.142857 30.857143 90 1 0 61.714286 0 45.142857 30.857143 90 1 0-61.714286 0Z" fill="#FF8A65" /><path d="M408.457143 122.742857a45.142857 30.857143 90 1 0 61.714286 0 45.142857 30.857143 90 1 0-61.714286 0Z" fill="#F4511E" /><path d="M311.428571 122.742857a45.142857 30.857143 90 1 0 61.714286 0 45.142857 30.857143 90 1 0-61.714286 0Z" fill="#F4511E" /><path d="M505.371429 122.742857a45.142857 30.857143 90 1 0 61.714285 0 45.142857 30.857143 90 1 0-61.714285 0Z" fill="#F4511E" /><path d="M602.4 122.742857a45.142857 30.857143 90 1 0 61.714286 0 45.142857 30.857143 90 1 0-61.714286 0Z" fill="#F4511E" /><path d="M378.4 150.057143a46.971429 30.857143 90 1 0 61.714286 0 46.971429 30.857143 90 1 0-61.714286 0Z" fill="#FF7043" /><path d="M281.371429 150.057143a46.971429 30.857143 90 1 0 61.714285 0 46.971429 30.857143 90 1 0-61.714285 0Z" fill="#FF7043" /><path d="M475.314286 150.057143a46.971429 30.857143 90 1 0 61.714285 0 46.971429 30.857143 90 1 0-61.714285 0Z" fill="#FF7043" /><path d="M572.342857 150.057143a46.971429 30.857143 90 1 0 61.714286 0 46.971429 30.857143 90 1 0-61.714286 0Z" fill="#FF7043" /><path d="M669.371429 150.057143a46.971429 30.857143 90 1 0 61.714285 0 46.971429 30.857143 90 1 0-61.714285 0Z" fill="#FF7043" /><path d="M426.857143 150.057143a46.971429 30.857143 90 1 0 61.714286 0 46.971429 30.857143 90 1 0-61.714286 0Z" fill="#FF8A65" /><path d="M329.942857 150.057143a46.971429 30.857143 90 1 0 61.714286 0 46.971429 30.857143 90 1 0-61.714286 0Z" fill="#FF8A65" /><path d="M523.885714 150.057143a46.971429 30.857143 90 1 0 61.714286 0 46.971429 30.857143 90 1 0-61.714286 0Z" fill="#FF8A65" /><path d="M620.8 150.057143a46.971429 30.857143 90 1 0 61.714286 0 46.971429 30.857143 90 1 0-61.714286 0Z" fill="#FF8A65" /><path d="M512 997.828571c-68.342857 0-130.171429-4.571429-183.657143-13.485714-59.885714-10.057143-111.657143-26.057143-153.6-47.428571C77.028571 887.085714 27.428571 806.628571 27.428571 698.057143c0-63.085714 17.028571-125.6 50.742858-185.6 30.285714-54.171429 75.085714-108 133.142857-160.228572 4.114286-3.657143 4.914286-9.714286 1.828571-13.942857-28.342857-38.971429-40.228571-113.828571-12-158.742857 6.628571-10.514286 16.342857-19.428571 28.114286-25.828571 17.257143-9.257143 35.314286-14.057143 53.714286-14.057143 21.942857 0 42.971429 6.971429 59.885714 19.428571 14.971429-8.457143 32.114286-13.028571 49.828571-13.028571 20.914286 0 40.914286 6.285714 57.371429 17.714286 17.257143-13.371429 39.085714-20.914286 61.714286-20.914286 22.628571 0 44.457143 7.542857 61.714285 20.914286 16.571429-11.428571 36.457143-17.714286 57.371429-17.714286 17.714286 0 34.857143 4.571429 49.828571 13.028571 17.028571-12.571429 37.942857-19.428571 59.885715-19.428571 18.4 0 36.457143 4.685714 53.714285 14.057143 11.771429 6.285714 21.485714 15.2 28.114286 25.828571 28.342857 44.914286 16.457143 119.771429-12 158.742857-3.085714 4.228571-2.285714 10.171429 1.828571 13.942857 58.057143 52.228571 102.857143 106.171429 133.142858 160.228572 33.6 60.114286 50.742857 122.514286 50.742857 185.6 0 108.571429-49.6 189.028571-147.314286 238.857143-41.942857 21.371429-93.6 37.371429-153.6 47.428571-53.028571 8.914286-114.857143 13.485714-183.2 13.485714z" fill="#25467A" /><path d="M796.914286 367.885714c-12.228571-11.085714-14.514286-29.028571-4.914286-42.171428 24.457143-33.6 33.714286-99.2 11.085714-135.085715-4.8-7.542857-11.657143-13.714286-19.771428-18.057142-39.085714-21.028571-78.742857-10.285714-100.457143 14.971428-13.485714-12.228571-31.657143-19.657143-51.657143-19.657143-23.542857 0-44.571429 10.285714-58.285714 26.4-13.6-17.942857-35.771429-29.714286-60.914286-29.714285-25.028571 0-47.2 11.657143-60.914286 29.714285-13.714286-16.114286-34.742857-26.4-58.285714-26.4-20 0-38.285714 7.542857-51.657143 19.657143-21.714286-25.257143-61.371429-36-100.457143-14.971428-8.114286 4.342857-14.971429 10.4-19.771428 18.057142-22.628571 35.885714-13.257143 101.485714 11.085714 135.085715 9.6 13.257143 7.314286 31.2-4.914286 42.171428-107.657143 96.8-176.685714 205.714286-176.685714 330.057143C50.4 913.028571 257.028571 976 512 976s461.6-63.085714 461.6-278.057143c0-124.342857-69.142857-233.257143-176.685714-330.057143z" fill="#FFF3E0" /><path d="M973.6 697.942857C973.6 913.028571 766.971429 976 512 976c-245.028571 0-445.485714-58.285714-460.685714-253.714286 98.057143 86.628571 234.4 140.228571 385.142857 140.228572 231.771429 0 429.485714-126.857143 506.514286-305.257143 19.771429 44.685714 30.628571 91.428571 30.628571 140.685714z" fill="#F5E9D7" /><path d="M512 695.428571c-35.314286 0-64-28.685714-64-64 0-7.085714 5.714286-12.8 12.8-12.8 7.085714 0 12.8 5.714286 12.8 12.8 0 21.257143 17.257143 38.4 38.4 38.4s38.4-17.142857 38.4-38.4c0-7.085714 5.714286-12.8 12.8-12.8s12.8 5.714286 12.8 12.8c0 35.314286-28.685714 63.885714-64 64z" fill="#25467A" /><path d="M384 529.028571m-38.4 0a38.4 38.4 0 1 0 76.8 0 38.4 38.4 0 1 0-76.8 0Z" fill="#25467A" /><path d="M640 529.028571m-38.4 0a38.4 38.4 0 1 0 76.8 0 38.4 38.4 0 1 0-76.8 0Z" fill="#25467A" /><path d="M332.8 593.028571h-51.2c-14.171429 0-25.6 11.428571-25.6 25.6 0 14.171429 11.428571 25.6 25.6 25.6h51.2c14.171429 0 25.6-11.428571 25.6-25.6 0-14.171429-11.428571-25.6-25.6-25.6zM742.4 593.028571h-51.2c-14.171429 0-25.6 11.428571-25.6 25.6 0 14.171429 11.428571 25.6 25.6 25.6h51.2c14.171429 0 25.6-11.428571 25.6-25.6 0-14.171429-11.428571-25.6-25.6-25.6z" fill="#FCCEC7" /></svg>