<?xml version="1.0" standalone="no"?><!DOCTYPE svg PUBLIC "-//W3C//DTD SVG 1.1//EN" "http://www.w3.org/Graphics/SVG/1.1/DTD/svg11.dtd"><svg class="icon" width="128px" height="128.00px" viewBox="0 0 1024 1024" version="1.1" xmlns="http://www.w3.org/2000/svg"><path d="M678.525714 127.36A260.571429 260.571429 0 0 1 742.4 51.2c-18.56-10.491429-61.051429-30.971429-115.2-25.6A182.857143 182.857143 0 0 0 576 38.4a83.085714 83.085714 0 0 0-25.6-25.6A84.834286 84.834286 0 0 0 512 0a84.834286 84.834286 0 0 0-38.4 12.8A83.085714 83.085714 0 0 0 448 38.4a182.857143 182.857143 0 0 0-51.2-12.8c-54.148571-5.371429-96.64 15.108571-115.2 25.6a260.571429 260.571429 0 0 1 63.874286 76.16C136.708571 191.611429 0 370.948571 0 588.8 0 853.12 200.96 1024 512 1024s512-170.88 512-435.2c0-217.851429-136.708571-397.188571-345.474286-461.44z" fill="#25467A" /><path d="M358.4 64a92.262857 92.262857 0 0 1 51.2 0c30.948571 9.142857 46.948571 31.874286 51.2 38.4a129.028571 129.028571 0 0 1 12.8-25.6A131.691429 131.691429 0 0 1 512 38.4V192h-102.4a149.714286 149.714286 0 0 0-51.2-128zM665.6 64a92.262857 92.262857 0 0 0-51.2 0c-30.948571 9.142857-46.948571 31.874286-51.2 38.4a129.028571 129.028571 0 0 0-12.8-25.6A131.691429 131.691429 0 0 0 512 38.4V192h102.4a149.714286 149.714286 0 0 1 51.2-128z" fill="#CC3335" /><path d="M972.8 588.8c0 188.674286-113.405714 308.731429-275.84 358.011429-56.571429 17.28-119.165714 25.988571-184.96 25.988571-254.468571 0-460.8-129.531429-460.8-384S257.531429 153.6 512 153.6c226.285714 0 414.468571 142.857143 453.371429 353.405714a448.571429 448.571429 0 0 1 7.428571 81.794286z" fill="#E63A3C" /><path d="M972.8 588.8c0 188.674286-113.405714 308.731429-275.84 358.011429-56.571429 17.28-119.165714 25.988571-184.96 25.988571-232.571429 0-424.96-108.285714-456.32-321.28A509.634286 509.634286 0 0 0 422.4 806.4c249.988571 0 458.114286-179.2 503.04-416.125714a416.731429 416.731429 0 0 1 39.931429 116.731428 448.571429 448.571429 0 0 1 7.428571 81.794286z" fill="#DB3739" /><path d="M512 550.4a64.068571 64.068571 0 0 1-64-64 12.8 12.8 0 1 1 25.6 0 38.4 38.4 0 0 0 76.8 0 12.8 12.8 0 1 1 25.6 0 64.068571 64.068571 0 0 1-64 64z" fill="#25467A" /><path d="M384 384m-38.4 0a38.4 38.4 0 1 0 76.8 0 38.4 38.4 0 1 0-76.8 0Z" fill="#25467A" /><path d="M640 384m-38.4 0a38.4 38.4 0 1 0 76.8 0 38.4 38.4 0 1 0-76.8 0Z" fill="#25467A" /><path d="M332.8 448h-51.2a25.6 25.6 0 1 0 0 51.2h51.2a25.6 25.6 0 1 0 0-51.2zM742.4 448h-51.2a25.6 25.6 0 1 0 0 51.2h51.2a25.6 25.6 0 0 0 0-51.2z" fill="#FFAA9D" /><path d="M512 721.92V972.8c-153.474286 0-289.405714-47.108571-373.12-140.285714 67.714286 14.331429 112.251429 3.965714 142.72-13.314286 38.788571-22.011429 81.28-70.148571 166.4-89.6a311.2 311.2 0 0 1 64-7.68zM512 721.92V972.8c153.474286 0 289.405714-47.108571 373.12-140.285714-67.714286 14.342857-112.251429 3.965714-142.72-13.314286-38.788571-22.011429-81.28-70.148571-166.4-89.6a311.2 311.2 0 0 0-64-7.68z" fill="#F8D0C3" /><path d="M581.131429 883.702857m-15.051429 0a15.051429 15.051429 0 1 0 30.102857 0 15.051429 15.051429 0 1 0-30.102857 0Z" fill="#E62325" /><path d="M442.857143 883.714286m-15.051429 0a15.051429 15.051429 0 1 0 30.102857 0 15.051429 15.051429 0 1 0-30.102857 0Z" fill="#E62325" /><path d="M655.314286 826.777143m-15.051429 0a15.051429 15.051429 0 1 0 30.102857 0 15.051429 15.051429 0 1 0-30.102857 0Z" fill="#E62325" /><path d="M535.565714 895.92m-15.051428 0a15.051429 15.051429 0 1 0 30.102857 0 15.051429 15.051429 0 1 0-30.102857 0Z" fill="#E62325" /><path d="M402.022857 860.125714m-15.051428 0a15.051429 15.051429 0 1 0 30.102857 0 15.051429 15.051429 0 1 0-30.102857 0Z" fill="#E62325" /><path d="M621.977143 860.125714m-15.051429 0a15.051429 15.051429 0 1 0 30.102857 0 15.051429 15.051429 0 1 0-30.102857 0Z" fill="#E62325" /><path d="M488.411429 895.908571m-15.051429 0a15.051429 15.051429 0 1 0 30.102857 0 15.051429 15.051429 0 1 0-30.102857 0Z" fill="#E62325" /><path d="M368.674286 826.788571m-15.051429 0a15.051429 15.051429 0 1 0 30.102857 0 15.051429 15.051429 0 1 0-30.102857 0Z" fill="#E62325" /><path d="M563.84 841.977143m-15.051429 0a15.051429 15.051429 0 1 0 30.102858 0 15.051429 15.051429 0 1 0-30.102858 0Z" fill="#E62325" /><path d="M460.137143 841.988571m-15.051429 0a15.051429 15.051429 0 1 0 30.102857 0 15.051429 15.051429 0 1 0-30.102857 0Z" fill="#E62325" /><path d="M619.485714 799.291429m-15.051428 0a15.051429 15.051429 0 1 0 30.102857 0 15.051429 15.051429 0 1 0-30.102857 0Z" fill="#E62325" /><path d="M529.68 851.142857m-15.051429 0a15.051429 15.051429 0 1 0 30.102858 0 15.051429 15.051429 0 1 0-30.102858 0Z" fill="#E62325" /><path d="M429.508571 824.297143m-15.051428 0a15.051429 15.051429 0 1 0 30.102857 0 15.051429 15.051429 0 1 0-30.102857 0Z" fill="#E62325" /><path d="M594.48 824.297143m-15.051429 0a15.051429 15.051429 0 1 0 30.102858 0 15.051429 15.051429 0 1 0-30.102858 0Z" fill="#E62325" /><path d="M494.308571 851.142857m-15.051428 0a15.051429 15.051429 0 1 0 30.102857 0 15.051429 15.051429 0 1 0-30.102857 0Z" fill="#E62325" /><path d="M404.491429 799.291429m-15.051429 0a15.051429 15.051429 0 1 0 30.102857 0 15.051429 15.051429 0 1 0-30.102857 0Z" fill="#E62325" /><path d="M546.56 800.251429m-15.051429 0a15.051429 15.051429 0 1 0 30.102858 0 15.051429 15.051429 0 1 0-30.102858 0Z" fill="#E62325" /><path d="M477.428571 800.262857m-15.051428 0a15.051429 15.051429 0 1 0 30.102857 0 15.051429 15.051429 0 1 0-30.102857 0Z" fill="#E62325" /><path d="M575.874286 780.662857m-15.051429 0a15.051429 15.051429 0 1 0 30.102857 0 15.051429 15.051429 0 1 0-30.102857 0Z" fill="#E62325" /><path d="M511.988571 807.12m-15.051428 0a15.051429 15.051429 0 1 0 30.102857 0 15.051429 15.051429 0 1 0-30.102857 0Z" fill="#E62325" /><path d="M448.125714 780.674286m-15.051428 0a15.051429 15.051429 0 1 0 30.102857 0 15.051429 15.051429 0 1 0-30.102857 0Z" fill="#E62325" /><path d="M529.28 758.525714m-15.051429 0a15.051429 15.051429 0 1 0 30.102858 0 15.051429 15.051429 0 1 0-30.102858 0Z" fill="#E62325" /><path d="M494.708571 758.525714m-15.051428 0a15.051429 15.051429 0 1 0 30.102857 0 15.051429 15.051429 0 1 0-30.102857 0Z" fill="#E62325" /><path d="M598.411429 925.428571m-15.051429 0a15.051429 15.051429 0 1 0 30.102857 0 15.051429 15.051429 0 1 0-30.102857 0Z" fill="#E62325" /><path d="M425.577143 925.428571m-15.051429 0a15.051429 15.051429 0 1 0 30.102857 0 15.051429 15.051429 0 1 0-30.102857 0Z" fill="#E62325" /><path d="M699.735252 842.306441m-14.64894 3.457464a15.051429 15.051429 0 1 0 29.29788-6.914928 15.051429 15.051429 0 1 0-29.29788 6.914928Z" fill="#E62325" /><path d="M556.045714 938.285714m-15.051428 0a15.051429 15.051429 0 1 0 30.102857 0 15.051429 15.051429 0 1 0-30.102857 0Z" fill="#E62325" /><path d="M386.53524 904.566744m-13.905707 5.759932a15.051429 15.051429 0 1 0 27.811414-11.519864 15.051429 15.051429 0 1 0-27.811414 11.519864Z" fill="#E62325" /><path d="M671.668571 876.48m-15.051428 0a15.051429 15.051429 0 1 0 30.102857 0 15.051429 15.051429 0 1 0-30.102857 0Z" fill="#E62325" /><path d="M511.988571 942.617143m-15.051428 0a15.051429 15.051429 0 1 0 30.102857 0 15.051429 15.051429 0 1 0-30.102857 0Z" fill="#E62325" /><path d="M352.32 876.48m-15.051429 0a15.051429 15.051429 0 1 0 30.102858 0 15.051429 15.051429 0 1 0-30.102858 0Z" fill="#E62325" /><path d="M637.462857 904.56m-15.051428 0a15.051429 15.051429 0 1 0 30.102857 0 15.051429 15.051429 0 1 0-30.102857 0Z" fill="#E62325" /><path d="M467.889426 938.320398m-14.64894 3.457464a15.051429 15.051429 0 1 0 29.29788-6.914928 15.051429 15.051429 0 1 0-29.29788 6.914928Z" fill="#E62325" /><path d="M324.228571 842.262857m-15.051428 0a15.051429 15.051429 0 1 0 30.102857 0 15.051429 15.051429 0 1 0-30.102857 0Z" fill="#E62325" /></svg>