<?xml version="1.0" standalone="no"?><!DOCTYPE svg PUBLIC "-//W3C//DTD SVG 1.1//EN" "http://www.w3.org/Graphics/SVG/1.1/DTD/svg11.dtd"><svg class="icon" width="128px" height="128.00px" viewBox="0 0 1024 1024" version="1.1" xmlns="http://www.w3.org/2000/svg"><path d="M511.988572 1024c-27.667954 0-45.81612-17.668177-55.873039-27.862235C190.955738 968.846945 0 772.382759 0 524.502578 0 331.089752 114.500301 192.189996 311.993036 137.734068l-62.410036-46.856097 124.797215-60.878641-10.285485-29.99933h295.730542l-10.285485 29.99933 124.797214 60.878641-62.352894 46.856097c197.515591 54.455927 311.993036 193.355684 311.993036 386.76851 0 247.903038-191.001451 444.390081-456.115533 471.635187C557.804692 1006.331823 539.645097 1024 511.988572 1024z" fill="#25467A" /><path d="M486.389143 38.422h-51.198857l25.599429 76.798285-63.998572-51.198857-51.198857 25.599429 166.396286 127.997143V102.420571l-25.599429-63.998571z" fill="#95D13C" /><path d="M537.588 38.422h51.198857l-25.599428 76.798285 63.998571-51.198857 51.198857 25.599429-166.396285 127.997143V102.420571l25.599428-63.998571z" fill="#95D13C" /><path d="M972.778286 521.954064c0 239.67465-185.84728 410.882257-422.390571 430.321823-12.674003 1.01712-25.473717 26.925113-38.399143 26.925113s-25.72514-25.907993-38.399143-26.925113c-236.566148-19.428138-422.390572-190.647173-422.390572-430.321823 0-252.497221 206.326823-368.334635 460.789715-368.334636s460.789715 115.837414 460.789714 368.334636z" fill="#DC3788" /><path d="M972.778286 521.954064c0 239.67465-185.84728 410.882257-422.390571 430.321823-12.674003 1.01712-25.473717 26.925113-38.399143 26.925113s-25.72514-25.907993-38.399143-26.925113c-185.344434-15.245374-339.420995-123.585813-397.705409-285.02221a512.399991 512.399991 0 0 0 346.506552 134.134149c264.188389 0 481.65782-198.521283 509.040066-453.441307 26.502266 48.524631 41.347648 106.306199 41.347648 174.007545z" fill="#D13481" /><path d="M511.988572 550.410571a64.067141 64.067141 0 0 1-63.998572-63.998571 12.799714 12.799714 0 1 1 25.599429 0 38.399143 38.399143 0 0 0 76.798286 0 12.799714 12.799714 0 1 1 25.599428 0 64.067141 64.067141 0 0 1-63.998571 63.998571z" fill="#25467A" /><path d="M383.991429 384.014285m-38.399143 0a38.399143 38.399143 0 1 0 76.798286 0 38.399143 38.399143 0 1 0-76.798286 0Z" fill="#25467A" /><path d="M639.985715 384.014285m-38.399143 0a38.399143 38.399143 0 1 0 76.798285 0 38.399143 38.399143 0 1 0-76.798285 0Z" fill="#25467A" /><path d="M332.792572 448.012857h-51.198858a25.599429 25.599429 0 1 0 0 51.198857h51.198858a25.599429 25.599429 0 1 0 0-51.198857zM742.383429 448.012857h-51.198857a25.599429 25.599429 0 1 0 0 51.198857h51.198857a25.599429 25.599429 0 0 0 0-51.198857z" fill="#F87EAC" /></svg>