<?xml version="1.0" standalone="no"?><!DOCTYPE svg PUBLIC "-//W3C//DTD SVG 1.1//EN" "http://www.w3.org/Graphics/SVG/1.1/DTD/svg11.dtd"><svg class="icon" width="128px" height="128.00px" viewBox="0 0 1024 1024" version="1.1" xmlns="http://www.w3.org/2000/svg"><path d="M511.542857 1024c-65.028571 0-189.714286-9.142857-293.828571-70.514286C109.371429 889.6 52.114286 786.4 52.114286 654.742857c0-100.571429 29.828571-186.628571 88.685714-256 48.571429-57.257143 106.857143-91.428571 145.371429-114.057143 11.542857-6.742857 25.714286-15.085714 30.742857-19.2 1.714286-3.2 7.085714-15.771429 11.542857-52.342857 3.542857-29.485714 5.142857-63.2 6.628571-93.028571 3.085714-64 4.228571-88 22.285715-106.057143L371.542857 0H652.571429l14.057142 14.057143c18.171429 18.171429 19.314286 42.057143 22.285715 106.057143 1.371429 29.714286 2.971429 63.542857 6.628571 93.028571 4.457143 36.685714 9.828571 49.142857 11.542857 52.342857 5.028571 4.114286 19.2 12.457143 30.742857 19.2 38.514286 22.628571 96.8 56.685714 145.371429 114.057143 58.857143 69.371429 88.685714 155.428571 88.685714 256 0 131.657143-57.257143 234.971429-165.485714 298.742857C702.171429 1014.857143 577.485714 1024 512.457143 1024h-0.914286z" fill="#25467A" /><path d="M671.771429 298.171429c-37.714286-38.971429-25.714286-236.8-39.085715-250.171429H391.314286c-13.371429 13.371429-1.485714 211.2-39.085715 250.171429-37.714286 38.971429-252.114286 98.514286-252.114285 356.571428S341.371429 976 511.542857 976h0.914286c170.171429 0 411.428571-63.314286 411.428571-321.257143s-214.4-317.485714-252.114285-356.571428z" fill="#FAF9F8" /><path d="M641.257143 298.171429C610.742857 259.2 620.457143 61.371429 609.6 48H414.4c-10.857143 13.371429-1.142857 211.2-31.657143 250.171429-30.514286 38.971429-204 98.514286-204 356.571428S373.942857 976 511.657143 976h0.685714c137.714286 0 332.914286-63.314286 332.914286-321.257143s-173.485714-317.485714-204-356.571428z" fill="#E7E0DE" /><path d="M631.2 298.171429C603.085714 259.2 612 61.371429 601.942857 48H422.057143c-10.057143 13.371429-1.028571 211.2-29.142857 250.171429-28.114286 38.971429-188.114286 98.514286-188.114286 356.571428S384.685714 976 511.657143 976h0.685714c126.857143 0 306.857143-63.314286 306.857143-321.257143s-159.885714-317.485714-188-356.571428z" fill="#FAF9F8" /><path d="M583.885714 298.171429C566.971429 259.2 572.342857 61.371429 566.285714 48h-108.571428c-6.057143 13.371429-0.685714 211.2-17.6 250.171429-16.914286 38.971429-113.485714 98.514286-113.485715 356.571428s108.571429 321.257143 185.142858 321.257143h0.457142c76.571429 0 185.257143-63.314286 185.257143-321.257143s-96.571429-317.485714-113.6-356.571428z" fill="#E7E0DE" /><path d="M573.828571 298.171429c-14.628571-38.971429-9.942857-236.8-15.085714-250.171429H465.371429c-5.142857 13.371429-0.571429 211.2-15.085715 250.171429-14.628571 38.971429-97.485714 98.514286-97.485714 356.571428S445.942857 976 511.771429 976h0.457142c65.828571 0 159.085714-63.314286 159.085715-321.257143s-82.971429-317.485714-97.485715-356.571428z" fill="#FAF9F8" /><path d="M510.285714 976h1.257143-2.857143 1.6zM514.057143 976h1.371428-2.857142 1.485714z" fill="#EFEBE9" /><path d="M510.285714 976h1.257143-1.485714 0.228571zM513.714286 976h0.228571-1.485714 1.257143z" fill="#D7CCC8" /><path d="M510.285714 976h1.257143-1.485714 0.228571zM513.714286 976h0.228571-1.485714 1.257143z" fill="#EFEBE9" /><path d="M512 758.971429c-38.171429 0-69.142857-30.971429-69.142857-69.257143-0.228571-7.657143 5.828571-14.057143 13.371428-14.285715s14.057143 5.828571 14.285715 13.371429v0.8c0 22.971429 18.628571 41.485714 41.485714 41.485714 22.971429 0 41.485714-18.628571 41.485714-41.485714-0.228571-7.657143 5.828571-14.057143 13.371429-14.285714s14.057143 5.828571 14.285714 13.371428v0.8c0 38.514286-30.971429 69.485714-69.142857 69.485715zM332.114286 579.085714c0 22.971429 18.514286 41.485714 41.485714 41.485715 22.971429 0 41.485714-18.514286 41.485714-41.485715 0-22.971429-18.628571-41.485714-41.485714-41.485714-22.971429 0-41.485714 18.628571-41.485714 41.485714zM608.8 579.085714c0 22.971429 18.514286 41.485714 41.485714 41.6 22.971429 0 41.485714-18.514286 41.6-41.485714v-0.114286c0-22.971429-18.628571-41.485714-41.485714-41.485714s-41.6 18.628571-41.6 41.485714z" fill="#25467A" /><path d="M318.285714 648.342857h-55.314285c-15.314286 0-27.657143 12.342857-27.657143 27.657143 0 15.314286 12.342857 27.657143 27.657143 27.657143h55.314285c15.314286 0 27.657143-12.342857 27.657143-27.657143 0-15.314286-12.342857-27.657143-27.657143-27.657143z m442.742857 0h-55.314285c-15.314286 0-27.657143 12.457143-27.657143 27.657143 0 15.314286 12.342857 27.657143 27.657143 27.657143h55.314285c15.314286 0 27.657143-12.342857 27.657143-27.657143 0.114286-15.314286-12.342857-27.657143-27.657143-27.657143z" fill="#FFCDD2" /><path d="M661.828571 281.942857H362.171429c25.6-60.685714 17.142857-221.828571 29.142857-233.942857h241.257143c12.114286 12.114286 3.657143 173.257143 29.257142 233.942857z" fill="#DCE775" /><path d="M633.6 281.942857H390.4c20.8-60.685714 13.942857-221.828571 23.657143-233.942857h195.885714c9.828571 12.114286 2.971429 173.257143 23.657143 233.942857z" fill="#C0CA33" /><path d="M624.914286 281.942857H399.085714c19.314286-60.685714 12.914286-221.828571 21.942857-233.942857h181.828572c9.142857 12.114286 2.742857 173.257143 22.057143 233.942857z" fill="#DCE775" /><path d="M579.314286 281.942857H444.685714c11.428571-60.685714 7.657143-221.828571 13.142857-233.942857h108.342858c5.371429 12.114286 1.6 173.257143 13.142857 233.942857z" fill="#C0CA33" /><path d="M569.828571 281.942857H454.171429c9.828571-60.685714 6.628571-221.828571 11.314285-233.942857h93.142857c4.571429 12.114286 1.371429 173.257143 11.2 233.942857z" fill="#DCE775" /></svg>