<?xml version="1.0" standalone="no"?><!DOCTYPE svg PUBLIC "-//W3C//DTD SVG 1.1//EN" "http://www.w3.org/Graphics/SVG/1.1/DTD/svg11.dtd"><svg class="icon" width="128px" height="128.00px" viewBox="0 0 1024 1024" version="1.1" xmlns="http://www.w3.org/2000/svg"><path d="M284.342857 1024c-47.542857 0-93.485714-5.714286-129.485714-16.228571-51.428571-14.971429-82.514286-39.428571-92.571429-72.8-10.171429-33.942857 2.971429-69.485714 38.971429-105.714286 4.114286-4.114286 8.457143-8.228571 13.142857-12.342857-23.428571-25.828571-43.085714-55.085714-58.628571-87.657143-26.285714-54.971429-39.542857-116.914286-39.542858-184 0-127.542857 44.228571-244.571429 128-338.4C215.771429 126.628571 313.142857 68.8 411.428571 48.342857c8.571429-1.942857 11.2-4.914286 18.628572-13.6C440.457143 22.628571 459.885714 0 495.428571 0c4.914286 0 9.942857 0.457143 14.971429 1.371429C574.857143 12.8 637.714286 34.628571 697.142857 66.285714c59.2 31.542857 112.342857 71.542857 157.942857 118.628572 47.428571 49.028571 84.571429 103.885714 110.628572 162.971428 27.771429 63.314286 41.942857 129.6 41.942857 197.257143 0 67.428571-13.942857 130.057143-41.371429 186.057143-15.657143 32-36 61.6-59.771428 87.542857 5.485714 4.571429 10.514286 9.028571 15.2 13.371429 14.057143 13.371429 24.342857 26.057143 31.428571 38.971428 15.085714 27.428571 12.8 50.4 8.228572 64.8-6.285714 19.771429-20.342857 36.228571-41.828572 49.028572-14.171429 8.457143-32.114286 15.542857-53.485714 21.142857-36.8 9.6-83.085714 14.628571-133.6 14.628571-48.914286 0-97.942857-4.914286-141.714286-14.057143-36.114286-7.542857-67.657143-17.828571-94.171428-30.628571-70.857143 42.857143-169.142857 48-212.228572 48z" fill="#25467A" /><path d="M806.514286 811.428571c-120.114286-69.485714-300.457143-82.742857-347.314286-14.628571-15.2 22.171429-17.257143 54.4-3.771429 80.685714C516.571429 995.428571 890.971429 992 913.485714 921.028571c12.8-40.228571-89.142857-99.2-106.971428-109.6z" fill="#95D13C" /><path d="M202.971429 813.6c105.142857-66.971429 264.914286-76.457143 307.885714-7.885714 13.942857 22.4 16.457143 54.514286 4.914286 80.457143-51.657143 116.457143-384.114286 105.257143-405.485715 34.4-12.114286-40.114286 77.028571-96.914286 92.685715-106.971429z" fill="#B4E876" /><path d="M501.6 50.628571c-33.714286-5.942857-29.942857 35.771429-79.771429 46.628572C255.085714 132 66.285714 294.514286 66.285714 545.371429c0 264.342857 231.771429 397.028571 445.6 311.428571 204.457143 91.657143 445.6-47.2 445.6-311.428571-0.114286-250.857143-217.142857-452.457143-455.885714-494.742858z" fill="#F8D0C3" /><path d="M957.485714 545.371429c0 264.228571-241.142857 403.085714-445.6 311.428571-171.542857 68.685714-354.628571-3.2-420.342857-170.742857 88.914286 76 204.342857 121.828571 330.4 121.828571 253.6 0 463.885714-185.485714 502.628572-428.114285 21.142857 51.542857 32.914286 107.2 32.914285 165.6z" fill="#EDC7BA" /><path d="M511.771429 536.8c-37.371429 0-67.657143-30.285714-67.657143-67.657143 0-7.542857 6.057143-13.485714 13.485714-13.485714 7.542857 0 13.485714 6.057143 13.485714 13.485714 0 22.514286 18.285714 40.571429 40.571429 40.571429 22.4 0 40.571429-18.171429 40.571428-40.571429 0-7.542857 6.057143-13.485714 13.485715-13.485714 7.542857 0 13.485714 6.057143 13.485714 13.485714 0.228571 37.371429-30.057143 67.657143-67.428571 67.657143z" fill="#25467A" /><path d="M376.457143 360.914286m-40.571429 0a40.571429 40.571429 0 1 0 81.142857 0 40.571429 40.571429 0 1 0-81.142857 0Z" fill="#25467A" /><path d="M647.2 360.914286m-40.571429 0a40.571429 40.571429 0 1 0 81.142858 0 40.571429 40.571429 0 1 0-81.142858 0Z" fill="#25467A" /><path d="M322.4 428.571429h-54.171429c-14.971429 0-27.085714 12.114286-27.085714 27.085714s12.114286 27.085714 27.085714 27.085714h54.171429c14.971429 0 27.085714-12.114286 27.085714-27.085714S337.371429 428.571429 322.4 428.571429zM755.428571 428.571429h-54.171428c-14.971429 0-27.085714 12.114286-27.085714 27.085714s12.114286 27.085714 27.085714 27.085714H755.428571c14.971429 0 27.085714-12.114286 27.085715-27.085714S770.4 428.571429 755.428571 428.571429z" fill="#F87EAC" /></svg>