<?xml version="1.0" standalone="no"?><!DOCTYPE svg PUBLIC "-//W3C//DTD SVG 1.1//EN" "http://www.w3.org/Graphics/SVG/1.1/DTD/svg11.dtd"><svg class="icon" width="128px" height="128.00px" viewBox="0 0 1024 1024" version="1.1" xmlns="http://www.w3.org/2000/svg"><path d="M512 0a38.4 38.4 0 0 0-38.4 38.4V192h76.8V38.4A38.4 38.4 0 0 0 512 0z" fill="#25467A" /><path d="M512 1024C215.325714 1024 0 824.822857 0 550.4 0 270.48 224.902857 51.2 512 51.2s512 219.28 512 499.2C1024 824.822857 808.674286 1024 512 1024z" fill="#25467A" /><path d="M972.8 550.4c0 254.491429-206.308571 422.4-460.8 422.4S51.2 804.891429 51.2 550.4s206.308571-448 460.8-448 460.8 193.508571 460.8 448z" fill="#C3E897" /><path d="M780.8 550.4c0 254.491429-120.342857 422.4-268.8 422.4S243.2 804.891429 243.2 550.4s120.342857-448 268.8-448 268.8 193.508571 268.8 448z" fill="#9FDB58" /><path d="M742.4 550.4c0 254.491429-103.154286 422.4-230.4 422.4S281.6 804.891429 281.6 550.4s103.154286-448 230.4-448 230.4 193.508571 230.4 448z" fill="#C3E897" /><path d="M512 550.4a64.068571 64.068571 0 0 1-64-64 12.8 12.8 0 1 1 25.6 0 38.4 38.4 0 0 0 76.8 0 12.8 12.8 0 1 1 25.6 0 64.068571 64.068571 0 0 1-64 64z" fill="#25467A" /><path d="M384 384m-38.4 0a38.4 38.4 0 1 0 76.8 0 38.4 38.4 0 1 0-76.8 0Z" fill="#25467A" /><path d="M640 384m-38.4 0a38.4 38.4 0 1 0 76.8 0 38.4 38.4 0 1 0-76.8 0Z" fill="#25467A" /><path d="M332.8 448h-51.2a25.6 25.6 0 1 0 0 51.2h51.2a25.6 25.6 0 1 0 0-51.2zM742.4 448h-51.2a25.6 25.6 0 1 0 0 51.2h51.2a25.6 25.6 0 0 0 0-51.2z" fill="#95D13C" /><path d="M972.8 550.4c0 254.468571-206.331429 422.4-460.8 422.4-211.074286 0-388.994286-115.588571-443.52-300.16A516.171429 516.171429 0 0 0 416 806.4c262.651429 0 479.611429-195.2 513.668571-448.514286 27.645714 57.725714 43.131429 122.88 43.131429 192.514286z" fill="#BADE90" /><path d="M111.611429 768.891429c5.714286 9.222857 11.908571 18.285714 18.285714 27.017142a323.862857 323.862857 0 0 1-18.285714-27.017142zM131.2 797.565714c6.857143 9.142857 14.205714 17.92 21.714286 26.502857-7.634286-8.457143-14.925714-17.417143-21.714286-26.502857zM189.954286 860.285714c8.834286 7.554286 17.92 14.72 27.257143 21.634286a344 344 0 0 1-27.257143-21.634286zM512 972.8c-2.434286 0-4.994286 0-7.428571-0.125714a4.834286 4.834286 0 0 0-1.405715-0.125715c2.948571 0.125714 5.885714 0.251429 8.834286 0.251429z" fill="#C3E897" /><path d="M512 972.8c-2.434286 0-4.994286 0-7.428571-0.125714a4.834286 4.834286 0 0 0-1.405715-0.125715c2.948571 0.125714 5.885714 0.251429 8.834286 0.251429z" fill="#C3E897" /><path d="M772.091429 664.708571c-29.44 184-129.531429 301.565714-249.977143 307.702858 95.611429-6.651429 176-108.925714 206.857143-271.097143a512.125714 512.125714 0 0 0 43.12-36.605715zM503.04 972.571429c-90.754286-4.102857-169.988571-71.302857-216.32-182.537143 11.52 3.074286 23.165714 5.634286 35.074286 7.817143 39.805714 105.828571 105.851429 169.954286 181.245714 174.72z" fill="#96CF53" /><path d="M512 972.8c-2.434286 0-4.994286 0-7.428571-0.125714a4.834286 4.834286 0 0 0-1.405715-0.125715c2.948571 0.125714 5.885714 0.251429 8.834286 0.251429z" fill="#C3E897" /></svg>