<?xml version="1.0" standalone="no"?><!DOCTYPE svg PUBLIC "-//W3C//DTD SVG 1.1//EN" "http://www.w3.org/Graphics/SVG/1.1/DTD/svg11.dtd"><svg class="icon" width="128px" height="128.00px" viewBox="0 0 1024 1024" version="1.1" xmlns="http://www.w3.org/2000/svg"><path d="M513.210137 967.901262a190.100234 190.100234 0 1 0 268.837638-268.847022 190.100234 190.100234 0 1 0-268.837638 268.847022Z" fill="#25467A" /><path d="M699.059053 888.900662a190.100234 190.100234 0 1 0 268.837638-268.847022 190.100234 190.100234 0 1 0-268.837638 268.847022Z" fill="#25467A" /><path d="M307.667477 907.431587c-37.014709 0-74.48639-3.541531-111.501099-10.510349-71.858803-13.709152-147.259136-59.406323-179.361399-108.873512C-0.559946 761.314881-1.588132 738.580538 1.153698 723.271985c1.827887-12.452479 8.910948-31.416806 33.815907-43.640799 7.42579-3.655774 15.19431-6.054875 23.305558-8.682462 9.482163-2.970316 22.505857-7.083062 28.218003-11.881265 4.226988-3.541531 9.596406-10.396107 15.651281-18.393112 16.679468-21.820399 41.927155-54.722363 96.763761-88.081298 58.49238-35.643794 102.133179-47.296573 130.922397-55.065092 7.42579-1.94213 15.651281-4.226988 20.449485-5.940632 1.94213-2.170616 4.569717-5.369418 6.854576-7.997005 16.222496-19.192812 43.526556-51.180832 92.765258-89.6807s90.937372-50.266889 118.469918-58.149651c6.968819-1.94213 16.222496-4.569717 20.106755-6.397604 1.599401-2.056373 3.998503-5.597904 5.940633-8.225491 14.508852-20.67797 38.842596-55.293578 88.309784-88.880999 39.756539-26.961331 71.059102-39.185325 93.793445-48.096273 12.566722-4.912446 22.505857-8.796706 29.131947-13.25218 8.796706-6.968819 30.845591-38.271381 42.726855-55.065092 9.025191-12.680965 17.479168-24.676473 24.904959-34.158636 8.910948-11.31005 25.590416-32.444992 53.237205-32.444991 1.370915 0 2.74183 0 3.998503 0.114242 36.329252 2.856073 54.151148 39.642296 59.977538 51.86629 21.820399 45.2402 34.158636 110.35867 33.016206 174.220468-1.599401 87.73857-27.989518 171.59288-76.42852 242.651981-36.557737 53.694177-115.84233 157.084028-234.997705 245.27957-58.949352 43.640799-120.412047 77.913678-182.674444 101.904692-72.658503 27.989518-147.259136 42.155641-221.745526 42.155641z" fill="#25467A" /><path d="M389.465415 739.722967c-49.92416 0-98.363162-9.824892-143.946091-29.131947-44.097771-18.621597-83.625824-45.2402-117.555975-79.284593-33.93015-33.815907-60.662995-73.458204-79.284593-117.441731-19.307055-45.582929-29.131947-94.021931-29.131947-143.946091s9.824892-98.363162 29.131947-143.946091c18.621597-44.097771 45.2402-83.625824 79.284593-117.555974 33.93015-33.93015 73.458204-60.662995 117.555975-79.284593C291.102252 9.824892 339.541254 0 389.465415 0S487.828577 9.824892 533.525748 29.131947c44.097771 18.621597 83.625824 45.2402 117.555975 79.284593 33.93015 33.93015 60.662995 73.458204 79.284593 117.555974 19.307055 45.582929 29.131947 94.021931 29.131946 143.946091s-9.824892 98.363162-29.131946 143.946091c-18.621597 44.097771-45.2402 83.625824-79.284593 117.555974-33.93015 33.93015-73.458204 60.662995-117.555975 79.284593-45.697172 19.192812-94.136174 29.017704-144.060333 29.017704z" fill="#25467A" /><path d="M389.465415 369.918605m-319.651717 0a319.651716 319.651716 0 1 0 639.303433 0 319.651716 319.651716 0 1 0-639.303433 0Z" fill="#B3E070" /><path d="M346.738559 388.882931c-35.301065 0-63.97604-28.674975-63.97604-63.97604 0-7.083062 5.712146-12.795208 12.795208-12.795208s12.795208 5.712146 12.795208 12.795208c0 21.249185 17.250682 38.385624 38.385624 38.385624s38.385624-17.136439 38.385624-38.385624c0-7.083062 5.712146-12.795208 12.795208-12.795208s12.795208 5.712146 12.795208 12.795208c0 35.301065-28.674975 63.861797-63.97604 63.97604z" fill="#25467A" /><path d="M218.786478 222.545226m-38.385624 0a38.385624 38.385624 0 1 0 76.771248 0 38.385624 38.385624 0 1 0-76.771248 0Z" fill="#25467A" /><path d="M474.69064 222.545226m-38.385624 0a38.385624 38.385624 0 1 0 76.771248 0 38.385624 38.385624 0 1 0-76.771248 0Z" fill="#25467A" /><path d="M167.605646 286.521267h-51.180832c-14.166123 0-25.590416 11.424293-25.590417 25.590416s11.424293 25.590416 25.590417 25.590416h51.180832c14.166123 0 25.590416-11.424293 25.590416-25.590416s-11.424293-25.590416-25.590416-25.590416zM577.052304 286.521267h-51.180832c-14.166123 0-25.590416 11.424293-25.590416 25.590416s11.424293 25.590416 25.590416 25.590416h51.180832c14.166123 0 25.590416-11.424293 25.590417-25.590416s-11.424293-25.590416-25.590417-25.590416z" fill="#F0F4C3" /><path d="M307.667477 880.584499c-35.301065 0-71.173345-3.427288-106.588653-10.053378-64.204526-12.223993-133.664227-53.922663-161.653745-96.992247-10.510349-16.108253-14.394609-31.531048-11.652779-45.697172 0.799701-6.968819 4.798203-17.022196 19.07857-23.991015 5.597904-2.74183 12.109751-4.798203 19.649783-7.197304 12.223993-3.88426 27.532546-8.682463 37.357438-16.907954 6.511847-5.483661 12.452479-13.137937 19.764027-22.734343 16.450982-21.363428 38.842596-50.723861 89.452214-81.455208 55.179335-33.701664 96.535275-44.668985 123.953578-51.980533 12.795208-3.427288 22.962829-6.169118 29.360433-9.710649 2.056373-1.713644 7.083062-7.654276 11.424293-12.795208 15.651281-18.393112 41.698669-49.12446 88.766756-85.910683 45.125957-35.186822 82.140666-45.811415 109.21624-53.465691 13.937637-3.998503 24.904959-7.083062 30.731348-11.995507 1.827887-1.599401 6.283361-7.997005 9.939135-13.137937 13.480666-19.192812 35.986523-51.295075 81.455209-82.026424 37.243195-25.247687 65.689684-36.329252 88.53827-45.2402 14.394609-5.597904 25.704659-10.053378 34.844093-16.450981 11.195807-7.768519 34.044393-40.099268 49.12446-61.462696 28.332246-40.213511 38.956839-55.179335 56.207521-55.179335 0.685458 0 1.256672 0 1.94213 0.114243 14.280366 1.028186 26.275874 12.795208 37.814409 36.67198 15.422795 32.102263 31.531048 91.622829 30.274377 161.996474-1.485158 82.483395-26.275874 161.311016-71.74456 228.028887-35.643794 52.323262-112.757771 152.971282-228.828587 238.881965-57.007222 42.155641-116.299302 75.28609-176.391083 98.363162-69.459701 26.732845-140.861532 40.327754-212.034877 40.327754z" fill="#25467A" /><path d="M49.821186 731.040505c0-11.767022 42.612613-12.795208 68.203029-34.044393 25.590416-21.363428 36.215009-59.520566 106.588653-102.247422 80.883994-49.238703 127.837838-46.839601 153.428254-61.805425 11.652779-6.854576 34.044393-46.839601 102.247421-100.191049s116.185059-45.354443 140.633046-66.032413c13.594909-11.538536 29.817405-53.237205 89.452214-93.793445s95.849818-42.612613 123.610849-61.805425 81.340966-113.557472 92.765259-112.757771c25.133444 1.94213 103.389851 210.20699-20.335241 391.853248-100.191049 147.03065-357.694612 422.813081-701.2231 358.265826-82.369152-15.651281-163.824361-81.11248-155.370384-117.441731z" fill="#9CCC65" /><path d="M925.95021 363.178272c4.798203 31.416806-3.084559 62.833611-21.820399 88.309785-18.850083 25.476173-46.496872 42.269884-77.913678 46.953843s-62.833611-3.084559-88.309784-21.820399c-3.655774-2.74183-7.197305-5.712146-10.624593-8.796706 23.191315 13.25218 49.92416 18.393112 76.771249 14.39461 31.416806-4.798203 59.063594-21.477671 77.913678-46.953844s26.618603-56.892979 21.820399-88.309785c-4.112745-26.847088-16.793711-50.838104-36.443494-69.116972 3.998503 2.284859 7.882762 4.798203 11.538536 7.540033 25.590416 18.73584 42.384127 46.382629 47.068086 77.799435zM732.194202 587.665628c-3.084559 33.701664-19.078569 64.204526-45.011714 85.79644-25.933145 21.591914-58.720866 31.873777-92.42253 28.903461-33.701664-3.084559-64.204526-19.078569-85.796439-45.011714-3.198802-3.770017-6.054875-7.768519-8.682463-11.767022 20.563727 19.649784 46.953844 31.645291 75.743062 34.272879 33.701664 3.084559 66.489385-7.197305 92.42253-28.903461 25.933145-21.591914 41.927155-52.094776 45.011714-85.79644 2.627587-28.789218-4.569717-56.892979-20.106756-80.655508 3.541531 3.313045 6.854576 6.968819 10.053378 10.738835 21.591914 25.933145 31.873777 58.835109 28.789218 92.42253zM483.715831 735.95295c-5.483661 33.358935-23.648286 62.605125-51.066589 82.25491-27.418303 19.649784-60.891481 27.532546-94.250417 22.048885-33.358935-5.483661-62.605125-23.648286-82.254909-51.066589-2.856073-3.998503-5.483661-8.111248-7.882762-12.45248 19.078569 21.020699 44.554742 34.958336 73.001232 39.75654 33.358935 5.483661 66.832114-2.399102 94.250416-22.048886s45.582929-48.895974 51.06659-82.254909c4.68396-28.560732-0.342729-57.007222-14.166123-81.91218 3.313045 3.655774 6.397604 7.42579 9.253677 11.424293 19.649784 27.30406 27.532546 60.891481 22.048885 94.250416z" fill="#7CB342" /><path d="M796.121162 912.9361a162.681931 162.681931 0 1 0 74.772499-316.655517 162.681931 162.681931 0 1 0-74.772499 316.655517Z" fill="#25467A" /><path d="M833.527681 754.460305m-139.833346 0a139.833345 139.833345 0 1 0 279.666691 0 139.833345 139.833345 0 1 0-279.666691 0Z" fill="#9CCC65" /><path d="M962.507948 754.460305c0 34.501365-13.480666 66.946357-37.81441 91.280101-24.333744 24.333744-56.778736 37.81441-91.2801 37.814409s-66.946357-13.480666-91.280101-37.814409c-3.541531-3.541531-6.854576-7.311547-9.939135-11.195808 22.734343 18.050383 50.609618 27.875275 80.084294 27.875275 34.501365 0 66.946357-13.480666 91.2801-37.814409 24.333744-24.333744 37.81441-56.778736 37.81441-91.280101 0-29.474676-9.824892-57.349951-27.875275-80.084293 3.88426 3.084559 7.654276 6.397604 11.195807 9.939135 24.447987 24.333744 37.81441 56.778736 37.81441 91.2801z" fill="#7CB342" /><path d="M610.240245 991.893404a162.681931 162.681931 0 1 0 74.772499-316.655517 162.681931 162.681931 0 1 0-74.772499 316.655517Z" fill="#25467A" /><path d="M647.654435 833.516412m-139.833346 0a139.833345 139.833345 0 1 0 279.666691 0 139.833345 139.833345 0 1 0-279.666691 0Z" fill="#B3E070" /><path d="M776.748945 833.516412c0 34.501365-13.480666 66.946357-37.81441 91.280101-24.333744 24.333744-56.778736 37.81441-91.2801 37.814409s-66.946357-13.480666-91.280101-37.814409c-3.541531-3.541531-6.854576-7.311547-9.939135-11.195807 22.734343 18.050383 50.609618 27.875275 80.084294 27.875274 34.501365 0 66.946357-13.480666 91.2801-37.814409 24.333744-24.333744 37.81441-56.778736 37.81441-91.280101 0-29.474676-9.824892-57.349951-27.875275-80.084293 3.88426 3.084559 7.654276 6.397604 11.195807 9.939135 24.333744 24.333744 37.81441 56.778736 37.81441 91.2801z" fill="#9FC764" /></svg>