<?xml version="1.0" standalone="no"?><!DOCTYPE svg PUBLIC "-//W3C//DTD SVG 1.1//EN" "http://www.w3.org/Graphics/SVG/1.1/DTD/svg11.dtd"><svg class="icon" width="128px" height="128.00px" viewBox="0 0 1024 1024" version="1.1" xmlns="http://www.w3.org/2000/svg"><path d="M512 1024c-151.885714 0-227.657143-26.628571-271.428571-46.742857-99.428571-45.485714-162.285714-125.6-186.971429-238.057143-23.085714-105.142857 0.228571-213.028571 67.428571-312.114286 52.685714-77.714286 131.085714-148.114286 220.685715-198.171428 47.885714-26.742857 77.028571-63.428571 86.857143-108.914286 4.571429-21.257143 2.057143-66.857143-0.228572-95.314286C427.085714 11.314286 437.6 0 450.971429 0h123.2c13.371429 0 24 11.542857 22.742857 24.8-2.628571 29.371429-5.6 77.028571-0.457143 98.742857 10.514286 43.885714 39.428571 79.314286 85.942857 105.257143C772 278.857143 850.285714 349.257143 903.085714 426.971429c67.2 99.085714 90.514286 207.085714 67.428572 312.114285-24.685714 112.457143-87.657143 192.571429-186.971429 238.057143-91.428571 42.057143-198.742857 46.857143-271.542857 46.857143z" fill="#25467A" /><path d="M659.085714 266.742857C535.2 197.485714 539.428571 87.2 544.114286 53.028571c0.8-5.485714-3.542857-10.4-9.028572-10.4h-46.171428c-5.6 0-9.828571 4.914286-9.028572 10.4 4.685714 34.057143 8.914286 144.457143-114.971428 213.6C217.028571 349.371429 54.628571 521.142857 99.657143 725.6 147.2 941.942857 341.485714 972.8 512 972.8s364.8-30.857143 412.342857-247.2C969.371429 521.142857 806.971429 349.371429 659.085714 266.742857z" fill="#BA5441" /><path d="M626.285714 266.742857c-114.971429-82.628571-87.885714-224-87.885714-224h-52.8s27.085714 141.371429-87.885714 224S156.571429 521.142857 191.542857 725.6C228.457143 941.942857 379.542857 972.8 512 972.8s283.542857-30.857143 320.457143-247.2C867.428571 521.142857 741.142857 349.371429 626.285714 266.742857z" fill="#8F4032" /><path d="M615.085714 266.742857c-103.657143-82.628571-79.314286-224-79.314285-224h-47.542858s24.457143 141.371429-79.314285 224S191.314286 521.142857 222.857143 725.6c33.371429 216.342857 169.6 247.2 289.142857 247.2s255.771429-30.857143 289.142857-247.2c31.542857-204.457143-82.4-376.228571-186.057143-458.857143z" fill="#BA5441" /><path d="M558.285714 266.742857c-46.514286-82.628571-35.542857-224-35.542857-224H501.371429s10.971429 141.371429-35.542858 224-97.6 254.514286-83.428571 458.857143c14.971429 216.342857 76.114286 247.2 129.714286 247.2s114.742857-30.857143 129.714285-247.2c14.057143-204.457143-37.028571-376.228571-83.542857-458.857143z" fill="#8F4032" /><path d="M549.142857 266.742857c-37.371429-82.628571-28.571429-224-28.571428-224h-17.142858s8.8 141.371429-28.571428 224S396.571429 521.142857 407.885714 725.6c12 216.342857 61.028571 247.2 104.114286 247.2s92.114286-30.857143 104.114286-247.2c11.314286-204.457143-29.714286-376.228571-66.971429-458.857143z" fill="#BA5441" /><path d="M512 744.685714c-35.314286 0-64-28.685714-64-64 0-7.085714 5.714286-12.8 12.8-12.8s12.8 5.714286 12.8 12.8c0 21.257143 17.257143 38.4 38.4 38.4s38.4-17.142857 38.4-38.4c0-7.085714 5.714286-12.8 12.8-12.8s12.8 5.714286 12.8 12.8c0 35.314286-28.685714 64-64 64z" fill="#25467A" /><path d="M384 578.285714m-38.4 0a38.4 38.4 0 1 0 76.8 0 38.4 38.4 0 1 0-76.8 0Z" fill="#25467A" /><path d="M640 578.285714m-38.4 0a38.4 38.4 0 1 0 76.8 0 38.4 38.4 0 1 0-76.8 0Z" fill="#25467A" /><path d="M332.8 642.285714h-51.2c-14.171429 0-25.6 11.428571-25.6 25.6s11.428571 25.6 25.6 25.6h51.2c14.171429 0 25.6-11.428571 25.6-25.6 0-14.057143-11.428571-25.6-25.6-25.6zM742.4 642.285714h-51.2c-14.171429 0-25.6 11.428571-25.6 25.6s11.428571 25.6 25.6 25.6h51.2c14.171429 0 25.6-11.428571 25.6-25.6S756.571429 642.285714 742.4 642.285714z" fill="#EF9A9A" /><path d="M884 482.742857c-52.8-93.714286-141.142857-169.142857-224.914286-216C535.2 197.485714 539.428571 87.2 544.114286 53.028571c0.8-5.485714-3.542857-10.4-9.028572-10.4h-46.171428c-5.6 0-9.828571 4.914286-9.028572 10.4 4.685714 34.057143 8.914286 144.457143-114.971428 213.6-83.771429 46.857143-172.228571 122.285714-224.914286 216 0 0 102.4-101.485714 146.628571-131.2 36.114286-24.228571 93.485714-57.257143 93.485715-57.257142-47.885714 60.914286-65.942857 186.285714-50.742857 166.742857 25.6-33.028571 103.657143-179.085714 133.371428-179.085715 10.171429 0 14.171429 174.742857 49.142857 174.742858s38.971429-174.742857 49.142857-174.742858c29.828571 0 107.771429 146.057143 133.371429 179.085715 15.2 19.542857-2.857143-105.828571-50.742857-166.742857 0 0 57.371429 33.028571 93.485714 57.257142 44.457143 29.828571 146.857143 131.314286 146.857143 131.314286z" fill="#AED581" /><path d="M884 482.742857c-52.8-93.714286-141.142857-169.142857-224.914286-216C535.2 197.485714 539.428571 87.2 544.114286 53.028571c0.8-5.485714-3.542857-10.4-9.028572-10.4h-46.171428c-5.6 0-9.828571 4.914286-9.028572 10.4 4.685714 34.057143 8.914286 144.457143-114.971428 213.6-83.771429 46.857143-172.228571 122.285714-224.914286 216 0 0 102.4-101.485714 146.628571-131.2 36.114286-24.228571 93.485714-57.257143 93.485715-57.257142-47.885714 60.914286-65.942857 186.285714-50.742857 166.742857 25.6-33.028571 103.657143-179.085714 133.371428-179.085715 10.171429 0 14.171429 174.742857 49.142857 174.742858s38.971429-174.742857 49.142857-174.742858c29.828571 0 107.771429 146.057143 133.371429 179.085715 15.2 19.542857-2.857143-105.828571-50.742857-166.742857 0 0 57.371429 33.028571 93.485714 57.257142 44.457143 29.828571 146.857143 131.314286 146.857143 131.314286z" fill="#DDC67A" /></svg>