<?xml version="1.0" standalone="no"?><!DOCTYPE svg PUBLIC "-//W3C//DTD SVG 1.1//EN" "http://www.w3.org/Graphics/SVG/1.1/DTD/svg11.dtd"><svg class="icon" width="128px" height="128.00px" viewBox="0 0 1024 1024" version="1.1" xmlns="http://www.w3.org/2000/svg"><path d="M571.314286 1024c-61.371429 0-134.742857-20.571429-164.571429-77.485714-10.514286 0.571429-20.914286 0.914286-31.085714 0.914285-27.085714 0-51.771429-2.057143-69.257143-5.942857-36.457143-7.885714-68.914286-22.4-93.714286-41.828571-33.485714-26.171429-52.8-60.8-55.771428-99.885714-1.371429-17.828571 3.314286-34.285714 10.4-48.457143-7.085714-2.971429-13.714286-6.285714-19.657143-10.057143-32-20.114286-58.285714-45.028571-76-71.885714-23.771429-36.114286-32-75.2-23.657143-113.028572 0.685714-2.971429 1.485714-5.828571 2.4-8.685714-12.914286-10.4-23.542857-22.514286-31.542857-36C0.228571 481.257143-4.571429 445.142857 4.342857 407.428571c7.085714-29.942857 32.342857-55.085714 72.8-72.685714 30.4-13.142857 66.514286-20.8 99.2-20.8 5.142857 0 10.285714 0.228571 15.314286 0.571429 2.857143 0.228571 9.257143 0.571429 19.428571 0.571428 28 0 128.8-3.2 251.657143-43.771428 76.228571-25.142857 104.685714-55.314286 134.857143-87.314286 14.4-15.314286 29.257143-30.971429 48.457143-45.257143-1.028571-4.114286-1.942857-8.342857-2.628572-12.685714-3.085714-19.885714-2.4-41.142857 2.057143-59.771429 12-50.285714 45.028571-61.714286 58.628572-64.342857 6.857143-1.257143 13.828571-1.942857 20.571428-1.942857 20.228571 0 35.885714 5.828571 48.457143 10.514286 10.285714 3.771429 18.4 6.857143 30.628572 7.657143 11.657143 0.8 22.171429 1.142857 31.314285 1.485714 18.4 0.685714 32.914286 1.257143 46.285715 4.114286 31.314286 6.857143 46.171429 26.057143 53.028571 40.914285 14.742857 31.771429 4 61.142857-7.428571 92.228572-4.342857 11.771429-12 21.942857-20.457143 30.4 5.485714 11.771429 13.257143 24.914286 24.342857 37.942857C986.285714 289.942857 1018.171429 374.857143 1023.2 470.857143c4 77.142857-9.485714 160.457143-37.942857 234.857143-22.857143 59.657143-53.828571 112.457143-91.885714 157.142857-32 37.485714-69.371429 69.371429-110.971429 94.971428-71.885714 44.114286-140.228571 58.971429-174.514286 63.885715-11.657143 1.485714-24 2.285714-36.571428 2.285714z" fill="#25467A" /><path d="M730.057143 84.228571s-17.257143 71.542857-48.914286 93.142858c-57.142857 39.085714-73.028571 101.028571-203.2 144-139.2 45.942857-255.657143 48-289.828571 45.485714-57.6-4.228571-127.885714 24.342857-134.628572 53.028571-11.428571 48 11.2 86.742857 63.885715 106.171429 61.6 22.742857 183.085714 73.028571 399.428571-10.057143 112.8-43.314286 207.314286-91.314286 219.085714-260.342857 5.257143-75.428571 40.342857-156.571429 40.342857-156.571429l-46.171428-14.857143z" fill="#FDC51D" /><path d="M749.6 94.857143c-10.628571 25.257143-19.542857 62.971429-30.4 84.228571-38.057143 74.171429-122.4 207.657143-258.742857 251.085715-132.342857 42.171429-264.8 56.8-301.257143 50.514285-52.571429-8.914286-82.057143-12.457143-108.457143-32.228571-0.571429-9.028571 0.342857-18.514286 2.742857-28.342857 6.857143-28.685714 77.028571-57.371429 134.628572-53.028572 34.285714 2.514286 150.628571 0.457143 289.828571-45.485714 130.057143-42.971429 146.057143-104.914286 203.085714-144 31.657143-21.6 48.914286-93.142857 48.914286-93.142857l19.657143 10.4z" fill="#FDDA72" /><path d="M738.971429 164.8s-2.285714 88.457143-29.714286 116.228571c-49.485714 50.171429-82.285714 131.314286-187.2 181.942858-133.257143 64.228571-266.514286 53.714286-300.8 52.571428-57.714286-1.942857-118.171429 23.771429-124.457143 52.571429-10.971429 50.057143 28.342857 97.714286 76.571429 128.114285 48.228571 30.4 261.942857 57.6 460.457142-69.028571C737.371429 561.142857 808.342857 487.314286 791.314286 318.857143c-7.542857-75.085714-4.571429-149.142857-4.571429-149.142857l-47.771428-4.914286z" fill="#FDC51D" /><path d="M588.228571 509.371429c-59.314286 44.114286-126.742857 70.4-261.714285 92.685714 0 0-112.914286 18.628571-225.257143-16.8-1.942857-0.571429-4.114286-1.257143-6.285714-2.057143 0.114286-4.914286 0.685714-9.942857 1.828571-14.971429 6.285714-28.8 66.742857-54.514286 124.457143-52.571428 34.285714 1.142857 167.542857 11.657143 300.8-52.571429 104.914286-50.628571 137.714286-131.771429 187.2-181.942857 27.428571-27.771429 29.714286-116.228571 29.714286-116.228571l26.971428 2.857143c-20.914286 181.485714-64.114286 257.028571-177.714286 341.6z" fill="#FDDA72" /><path d="M780.228571 166.285714s18.171429 101.485714-10.514285 143.771429c-40.342857 59.428571-70.4 183.2-155.2 268.228571-107.771429 107.885714-271.771429 112.685714-304.571429 123.657143-55.314286 18.514286-105.142857 64.114286-102.857143 93.714286 4 51.314286 54.971429 82.628571 109.485715 94.4 54.514286 11.771429 295.657143 16.8 447.428571-173.142857 79.2-99.085714 143.771429-266.057143 79.2-419.657143-28.8-68.571429-15.085714-124.342857-15.085714-124.342857l-47.885715-6.628572z" fill="#FDC51D" /><path d="M784.571429 377.942857c-25.828571 213.942857-182.628571 306.628571-248 330.171429-65.485714 23.542857-238.857143 20.228571-320.8 60.8 16.457143-25.6 53.828571-53.485714 94.171428-67.085715 32.8-10.971429 196.8-15.771429 304.571429-123.657142 84.914286-84.914286 114.971429-208.8 155.314285-268.228572 28.685714-42.285714 10.514286-143.771429 10.514286-143.771428l26.971429 3.657142c8.457143 96.342857-11.085714 111.885714-22.742857 208.114286z" fill="#FDDA72" /><path d="M796.114286 158.057143s46.285714 89.942857 31.2 140c-21.257143 70.514286-14.171429 198.4-70.4 308.914286-71.314286 140.114286-225.485714 202.285714-253.371429 224.228571-47.085714 36.914286-65.942857 56.914286-55.314286 84.114286 18.514286 47.314286 97.6 61.942857 152.685715 53.942857 55.085714-7.885714 248-49.942857 337.485714-283.314286 46.628571-121.714286 60.114286-302.742857-45.142857-425.828571-46.971429-54.857143-49.942857-112.571429-49.942857-112.571429l-47.2 10.514286z" fill="#FDC51D" /><path d="M722.171429 777.257143c-76 73.6-192.685714 131.771429-276.571429 127.428571-2.4-22.285714 17.257143-41.485714 58.057143-73.485714 28-21.942857 182.057143-84.114286 253.371428-224.228571 56.114286-110.4 49.142857-238.4 70.4-308.914286 15.085714-50.171429-31.2-140-31.2-140l19.771429-4.457143c31.885714 61.6 44.571429 144.228571 49.371429 175.428571 25.257143 164.914286-30.628571 339.2-143.2 448.228572z" fill="#FDDA72" /><path d="M713.257143 53.828571c31.771429-6.057143 45.485714 14.171429 87.542857 16.8 54.4 3.428571 80.228571-0.571429 88.228571 16.8 5.257143 11.314286 0.114286 25.371429-9.142857 50.514286-4.228571 11.428571-30.742857 31.771429-51.771428 34.742857-61.257143 8.8-89.942857-2.285714-121.028572-25.714285-21.828571-16.228571-20.114286-88.228571 6.171429-93.142858z" fill="#C7D93B" /><path d="M828.342857 252c-3.885714-24-12.571429-48.8-20-66.971429 1.828571 28.571429 0.914286 49.485714-1.6 68.342858-7.428571 0.342857-14.628571 0.571429-21.6 0.571428 3.085714-42.628571-4.914286-87.771429-4.914286-87.771428l21.257143 2.857142c-3.2-6.971429-5.371429-11.085714-5.371428-11.085714l19.771428-4.457143c15.428571 29.828571 26.4 64.685714 34.057143 96.228572-7.428571 0.914286-14.514286 1.714286-21.6 2.285714zM765.942857 167.657143c-3.657143 31.314286-7.885714 59.428571-13.028571 85.028571-9.371429-0.8-18.285714-1.942857-26.857143-3.314285 11.657143-36.457143 12.914286-84.571429 12.914286-84.571429l26.971428 2.857143zM749.6 94.857143c-10.628571 25.257143-19.542857 62.971429-30.4 84.228571-3.2 6.285714-6.857143 13.142857-10.742857 20.228572-3.314286-1.6-6.628571-3.428571-9.942857-5.485715-7.428571-4.457143-13.942857-9.485714-19.885715-14.628571 0.8-0.571429 1.714286-1.142857 2.514286-1.714286 31.657143-21.6 48.914286-93.142857 48.914286-93.142857l19.542857 10.514286z" fill="#C7D93B" /><path d="M581.6 664.914286c-35.314286 0-64-28.685714-64-64 0-7.085714 5.714286-12.8 12.8-12.8s12.8 5.714286 12.8 12.8c0 21.257143 17.257143 38.4 38.4 38.4s38.4-17.142857 38.4-38.4c0-7.085714 5.714286-12.8 12.8-12.8s12.8 5.714286 12.8 12.8c0 35.314286-28.685714 64-64 64z" fill="#25467A" /><path d="M453.6 498.514286m-38.4 0a38.4 38.4 0 1 0 76.8 0 38.4 38.4 0 1 0-76.8 0Z" fill="#25467A" /><path d="M709.6 498.514286m-38.4 0a38.4 38.4 0 1 0 76.8 0 38.4 38.4 0 1 0-76.8 0Z" fill="#25467A" /><path d="M402.4 562.514286h-51.2c-14.171429 0-25.6 11.428571-25.6 25.6 0 14.171429 11.428571 25.6 25.6 25.6h51.2c14.171429 0 25.6-11.428571 25.6-25.6 0-14.057143-11.428571-25.6-25.6-25.6zM812 562.514286h-51.2c-14.171429 0-25.6 11.428571-25.6 25.6 0 14.171429 11.428571 25.6 25.6 25.6h51.2c14.171429 0 25.6-11.428571 25.6-25.6 0-14.057143-11.428571-25.6-25.6-25.6z" fill="#FDEDBE" /></svg>