<?xml version="1.0" standalone="no"?><!DOCTYPE svg PUBLIC "-//W3C//DTD SVG 1.1//EN" "http://www.w3.org/Graphics/SVG/1.1/DTD/svg11.dtd"><svg class="icon" width="128px" height="128.00px" viewBox="0 0 1024 1024" version="1.1" xmlns="http://www.w3.org/2000/svg"><path d="M1000.102857 747.828571c-22.354286-21.497143-56.308571-35.771429-96-40.88-1.04-32-5.348571-64.685714-10.948571-95.04 1.371429-0.754286 2.708571-1.565714 4.011428-2.4 16.102857-10.422857 35.428571-32.502857 36.182857-78.468571 1.142857-73.885714-49.622857-214.274286-166.217142-295.028571a380.571429 380.571429 0 0 0-34-20.88c-17.908571-25.668571-35.874286-47.222857-53.508572-64.171429C624.4 97.805714 541.508571 60.571429 447.428571 44.571429c-1.062857-1.142857-2-2.285714-3.097142-3.428572a141.097143 141.097143 0 0 0-199.12 0c-0.994286 0.994286-1.851429 2.08-2.822858 3.097143C177.394286 55.725714 123.337143 78.628571 87.52 110.857143c-1.485714 1.245714-2.937143 2.56-4.434286 4C31.062857 164.891429 0 259.257143 0 367.28c0 131.737143 45.097143 253.714286 120.628571 326.377143C184.24 754.822857 288 802.491429 357.714286 829.885714c12.114286 42.902857 38.331429 102.251429 91.817143 112.868572a84.125714 84.125714 0 0 0 16.377142 1.577143c34.788571 0 69.908571-19.954286 87.382858-49.691429 0.891429-1.485714 1.702857-2.982857 2.468571-4.48 52.32 11.291429 100.685714 17.691429 142.548571 18.8 4.948571 34.148571 17.874286 68.662857 42.971429 92.8 15.337143 14.754286 32.182857 22.228571 50.057143 22.24 50.902857 0 64.948571-50.502857 74.228571-83.931429 4.137143-14.857143 11.805714-42.48 18.96-49.36 7.52-7.222857 36.857143-14.765714 52.571429-18.811428 34.925714-8.971429 74.502857-19.154286 84.811428-58.16 3.634286-13.348571 5.52-39.668571-21.805714-65.908572z" fill="#25467A" /><path d="M559.68 232c22.251429-26.662857 115.737143 1.794286 178.285714 45.257143 126.331429 87.76 168.251429 265.691429 131.428572 289.622857-33.314286 21.622857-137.268571-78.217143-168.914286-108.571429-71.234286-68.434286-169.977143-191.394286-140.8-226.308571z" fill="#DEEDF7" /><path d="M836.285714 810.845714a78.708571 78.708571 0 0 1-13.817143 18.434286c-1.542857 1.542857-3.2 2.948571-4.868571 4.354286-103.165714 81.92-528.891429-48.388571-661.371429-176.251429-67.714286-65.28-100.571429-170.114286-104.708571-269.828571l30.72 29.714285c20.571429 19.977143 54.148571 19.977143 74.88 0a50.182857 50.182857 0 0 0 0-72.445714l-92.674286-89.6c11.268571-44.034286 29.565714-81.017143 54.148572-104.697143a17.554286 17.554286 0 0 1 2.434285-2.057143 147.84 147.84 0 0 1 25.257143-18.582857c114.685714-69.497143 374.4-62.331429 497.92 56.834286 127.062857 122.502857 256.468571 505.085714 192.08 624.125714z" fill="#175D8D" /><path d="M836.285714 810.845714a78.708571 78.708571 0 0 1-13.817143 18.434286c-1.542857 1.542857-3.2 2.948571-4.868571 4.354286-103.165714 81.92-528.891429-48.388571-661.371429-176.251429-67.714286-65.28-100.571429-170.114286-104.708571-269.828571l30.72 29.714285c20.571429 19.977143 54.148571 19.977143 74.88 0a50.182857 50.182857 0 0 0 0-72.445714l-92.674286-89.6c11.268571-44.034286 29.565714-81.017143 54.148572-104.697143a17.554286 17.554286 0 0 1 2.434285-2.057143 147.84 147.84 0 0 1 25.257143-18.582857c177.748571 78.342857 384.342857 248.834286 518.48 418.948572C702.4 596.571429 786.285714 702.948571 836.285714 810.845714z" fill="#009BEF" /><path d="M817.6 833.634286c-103.165714 81.92-528.891429-48.388571-661.371429-176.251429-67.714286-65.28-100.571429-170.114286-104.708571-269.828571l30.72 29.714285c20.571429 19.977143 54.148571 19.977143 74.88 0a50.182857 50.182857 0 0 0 0-72.445714l-92.674286-89.6c11.268571-44.034286 29.565714-81.017143 54.148572-104.697143a17.554286 17.554286 0 0 1 2.434285-2.057143c114.56 78.857143 237.714286 179.337143 358.857143 296.194286 136.88 132.08 252.342857 266.605714 337.714286 388.971429z" fill="#C2DBF4" /><path d="M776.868571 966.411429c-39.862857-38.445714-39.862857-142.571429 0-181.017143s147.817143-38.457143 187.68 0-75.622857 31.165714-115.497142 69.622857-32.308571 149.851429-72.182858 111.394286zM521.405714 538.982857C430.914286 626.285714 267.2 744.285714 141.885714 642.525714l-0.251428-0.251428c-4.48-5.245714-8.834286-10.491429-13.062857-16.125715-49.28-64.765714-73.462857-153.474286-76.925715-238.468571L82.285714 417.245714c20.571429 19.977143 54.148571 19.977143 74.88 0a50.182857 50.182857 0 0 0 0-72.445714l-92.571428-89.474286c0.777143-3.062857 1.542857-6.011429 2.434285-8.96 11.268571-40.182857 28.8-73.851429 51.588572-95.862857 86.857143-83.84 347.897143-92.8 493.177143 9.462857 5.714286 4.228571 11.428571 8.457143 16.777143 12.8 0 0.137143 0 0.137143 0.125714 0.137143C734.4 293.714286 612.034286 451.554286 521.405714 538.982857zM409.954286 702.445714c23.2-10.285714 80.182857 60.571429 99.222857 119.634286 6.377143 19.76 7.485714 35.074286 0 47.851429-9.748571 16.594286-32.994286 27.211429-49.611429 23.92-54-10.742857-81.222857-177.28-49.611428-191.405715z" fill="#DEEDF7" /><path d="M344.765714 139.234286m-89.6 0a89.6 89.6 0 1 0 179.2 0 89.6 89.6 0 1 0-179.2 0Z" fill="#FFFFFF" /><path d="M344.765714 139.234286m-38.4 0a38.4 38.4 0 1 0 76.8 0 38.4 38.4 0 1 0-76.8 0Z" fill="#25467A" /></svg>