<?xml version="1.0" standalone="no"?><!DOCTYPE svg PUBLIC "-//W3C//DTD SVG 1.1//EN" "http://www.w3.org/Graphics/SVG/1.1/DTD/svg11.dtd"><svg class="icon" width="128px" height="128.00px" viewBox="0 0 1024 1024" version="1.1" xmlns="http://www.w3.org/2000/svg"><path d="M512 512m-512 0a512 512 0 1 0 1024 0 512 512 0 1 0-1024 0Z" fill="#25467A" /><path d="M512 512m-460.8 0a460.8 460.8 0 1 0 921.6 0 460.8 460.8 0 1 0-921.6 0Z" fill="#57D785" /><path d="M972.8 512a458.285714 458.285714 0 0 1-155.52 345.142857 453.302857 453.302857 0 0 1-122.285714 77.828572 415.645714 415.645714 0 0 1-47.611429 17.531428 452.137143 452.137143 0 0 1-107.52 19.428572c-9.222857 0.64-18.56 0.891429-27.908571 0.891428-12.925714 0-25.851429-0.514286-38.525715-1.531428a457.84 457.84 0 0 1-96.902857-18.822858 415.645714 415.645714 0 0 1-47.611428-17.531428 453.302857 453.302857 0 0 1-122.285715-77.828572A458.285714 458.285714 0 0 1 51.2 512c0-154.114286 75.771429-290.685714 192-374.4l28.285714-18.811429a466.034286 466.034286 0 0 1 92.571429-43.428571c15.097143-4.994286 30.457143-9.348571 46.205714-12.925714a461.097143 461.097143 0 0 1 70.914286-10.285715c10.285714-0.64 20.48-1.028571 30.857143-1.028571 12.571429 0 25.142857 0.514286 37.371428 1.531429A445.84 445.84 0 0 1 613.714286 62.468571c15.748571 3.577143 31.108571 7.931429 46.205714 12.925715a466.034286 466.034286 0 0 1 92.571429 43.428571l28.308571 18.777143c116.228571 83.714286 192 220.285714 192 374.4z" fill="#57D785" /><path d="M556.034286 911.234286l-35.428572 36.731428 19.337143 23.942857c-9.222857 0.64-18.56 0.891429-27.908571 0.891429-12.925714 0-25.851429-0.514286-38.525715-1.531429l-7.04-8.708571a25.577143 25.577143 0 0 1 1.531429-33.794286l35.428571-36.731428-36.868571-45.314286a25.565714 25.565714 0 0 1 1.28-33.794286l35.588571-37.245714-36.742857-44.8a25.28 25.28 0 0 1 1.142857-33.794286l35.588572-37.714285-36.742857-44.285715a25.565714 25.565714 0 0 1 1.028571-33.794285l35.714286-38.137143-36.571429-43.782857a25.714286 25.714286 0 0 1 0.777143-33.92l35.84-38.651429-36.571428-43.268571a25.554286 25.554286 0 0 1 0.777142-33.794286l35.76-39.337143-36.48-42.754286a25.565714 25.565714 0 0 1 0.502858-33.794285l35.977142-39.68-36.48-42.365715a25.702857 25.702857 0 0 1 0.377143-33.794285L503.428571 77.828571 481.142857 52.228571c10.285714-0.64 20.48-1.028571 30.857143-1.028571 12.571429 0 25.142857 0.514286 37.371429 1.531429l7.554285 8.582857a25.725714 25.725714 0 0 1-0.251428 33.92l-36.228572 40.194285 36.571429 42.491429a25.565714 25.565714 0 0 1-0.502857 33.794286l-36.102857 39.805714 36.571428 42.88a25.428571 25.428571 0 0 1-0.64 33.92l-35.965714 39.291429 36.742857 43.428571a25.725714 25.725714 0 0 1-0.777143 33.92l-35.965714 38.788571 36.742857 43.897143a25.588571 25.588571 0 0 1-0.902857 33.92l-35.84 38.274286 36.868571 44.285714a25.588571 25.588571 0 0 1-1.142857 33.92l-35.714286 37.714286 36.868572 44.937143a25.451429 25.451429 0 0 1-1.142857 33.92l-35.542857 37.257143 36.868571 45.44a25.6 25.6 0 0 1-1.405714 33.92zM372.091429 911.108571c9.737143 15.737143 14.342857 31.485714 10.502857 35.428572-2.285714 2.285714-4.228571 4.228571-6.022857 5.885714a415.645714 415.645714 0 0 1-47.611429-17.531428c-0.388571-0.514286-0.891429-1.142857-1.28-1.794286-10.285714-15.108571-14.331429-27.268571-9.988571-29.44a80.365714 80.365714 0 0 0 16.777142-11.005714c-17.28-27.005714-25.474286-40-41.348571-64.765715-8.708571-13.714286-11.645714-26.377143-7.04-30.594285a172.571429 172.571429 0 0 0 18.285714-19.588572c-14.468571-24-21.382857-35.577143-34.822857-57.474286-7.417143-12.16-8.96-25.142857-3.965714-31.36 8.32-10.285714 12.411429-15.862857 20.868571-28.022857-12.16-20.971429-17.874286-30.96-29.165714-49.52-6.4-10.491429-6.651429-23.68-0.891429-32 9.462857-13.44 14.205714-20.731429 24.182858-36.217143-10.102857-17.794286-15.097143-26.114286-24.571429-41.474285-5.371429-8.582857-4.354286-21.885714 2.285714-32.125715 11.005714-16.64 16.64-25.474286 28.285715-44.297142-8.445714-14.331429-12.571429-20.857143-20.571429-32.891429-4.571429-6.788571-2.434286-19.965714 5.371429-31.874286 12.914286-19.874286 19.577143-30.16 33.394285-52.091428a234.594286 234.594286 0 0 0-17.794285-24.068572c-3.965714-4.857143-0.377143-17.794286 8.708571-31.485714 15.108571-22.788571 22.857143-34.685714 39.291429-59.428571-6.262857-7.165714-9.337143-10.285714-15.737143-15.234286-3.714286-2.811429 1.142857-15.485714 11.771428-30.582857 17.794286-25.6 27.005714-38.788571 46.205715-66.182857a40.285714 40.285714 0 0 0-13.177143-5.942858c15.097143-4.994286 30.457143-9.348571 46.205714-12.925714-15.874286 23.68-25.085714 37.371429-41.348571 61.44a122.034286 122.034286 0 0 1 14.08 18.045714c3.2 4.857143-2.045714 21.12-11.897143 36.571429-16.388571 25.851429-24.32 38.274286-39.554286 62.205714a310.24 310.24 0 0 1 16.514286 27.142857c3.84 6.857143 0.251429 23.542857-8.194286 37.371429-13.828571 22.914286-20.354286 33.92-33.28 54.914286 7.725714 13.177143 11.645714 20.377143 19.714286 35.965714 4.571429 8.96 2.685714 25.725714-4.354286 37.714286-11.52 19.84-17.142857 29.314286-27.908571 47.108571 9.222857 16.64 13.954286 25.6 23.817142 44.662857 5.622857 10.754286 5.371429 27.52-0.64 37.714286C307.588571 579.965714 302.857143 587.771429 293.714286 602.285714c11.131429 20.091429 16.891429 30.72 28.925714 53.12 6.788571 12.571429 8.194286 29.188571 3.074286 37.371429-8.068571 13.188571-12.034286 19.337143-19.84 30.468571 13.314286 23.165714 20.354286 35.428571 34.811428 61.051429 8.194286 14.217143 11.142857 30.468571 6.788572 36.48-6.914286 9.737143-10.285714 14.217143-17.142857 21.897143 16.034286 26.194286 24.354286 39.885714 41.76 68.434285zM271.485714 118.788571v0.251429c-0.891429 4.48-10.285714 20.731429-21.12 36.731429-18.045714 26.628571-26.491429 39.554286-42.365714 64.514285 0 9.6 0 15.108571 0.251429 27.52 0.137143 7.165714-6.137143 24.582857-14.205715 39.302857-13.314286 24.32-19.428571 35.965714-31.097143 58.365715 2.045714 14.08 3.2 21.714286 6.011429 38.525714 1.668571 9.6-1.531429 27.52-7.291429 40.708571-9.222857 21.371429-13.44 31.611429-21.508571 50.811429 4.868571 18.171429 7.554286 27.908571 13.565714 48.64 3.325714 11.645714 3.2 29.828571-0.377143 40.96-5.897143 18.045714-8.582857 26.491429-13.577142 42.285714 8.194286 21.714286 12.674286 33.142857 22.537142 57.474286 5.497143 13.565714 8.445714 31.36 6.525715 40.194286-3.074286 14.205714-4.48 20.571429-7.165715 32.502857 12.285714 24.834286 18.937143 37.897143 33.28 65.028571 8 15.108571 13.942857 32.125714 13.302858 38.4-0.765714 7.165714-1.142857 11.428571-1.531429 16.125715a460.914286 460.914286 0 0 1-38.148571-37.714286 9.611429 9.611429 0 0 1-0.251429-4.091429c1.794286-6.914286 2.685714-10.88 4.48-19.965714-14.331429-25.474286-20.868571-37.714286-33.142857-61.062857-6.914286-12.925714-10.114286-26.754286-8.057143-33.531429 3.325714-10.88 4.982857-16.902857 8.822857-30.08C130.285714 647.931429 125.714286 637.314286 117.245714 617.142857c-4.731429-11.428571-5.714286-25.725714-2.285714-34.685714 5.497143-14.72 8.32-22.525714 14.72-39.428572-6.537143-19.325714-9.348571-28.285714-14.72-44.925714-3.074286-9.474286-1.542857-23.805714 3.428571-34.811428 8.32-18.182857 12.8-27.782857 22.274286-47.874286-3.428571-15.485714-4.994286-22.525714-7.805714-35.2-1.668571-7.291429 2.171429-21.371429 9.211428-34.171429 11.771429-21.12 18.045714-32.137143 31.36-55.177143-1.142857-11.257143-1.668571-16.125714-2.685714-24.697142-0.514286-4.868571 5.714286-18.182857 15.234286-32.388572 15.737143-23.68 24.182857-35.84 41.977143-61.177143 0.514286-6.788571 0.765714-9.474286 1.028571-13.577143 0.125714-1.92 5.714286-10.285714 14.205714-21.371428zM766.72 611.325714c-11.268571 18.56-17.028571 28.571429-29.188571 49.542857 8.457143 12.16 12.571429 17.782857 20.868571 28.022858 4.994286 6.274286 3.428571 19.2-3.965714 31.36-13.44 21.897143-20.354286 33.417143-34.822857 57.474285a172.571429 172.571429 0 0 0 18.285714 19.588572c4.571429 4.217143 1.668571 16.891429-7.04 30.594285-15.874286 24.822857-24.068571 37.714286-41.348572 64.765715a80.365714 80.365714 0 0 0 16.777143 11.005714c4.342857 2.171429 0.251429 14.331429-9.988571 29.44-0.388571 0.64-0.891429 1.28-1.28 1.794286a415.645714 415.645714 0 0 1-47.611429 17.531428c-1.794286-1.657143-3.714286-3.577143-6.022857-5.885714-3.84-3.965714 0.765714-19.714286 10.502857-35.428571 17.405714-28.571429 25.725714-42.285714 41.725715-68.48-6.857143-7.68-10.285714-12.16-17.142858-21.897143-4.354286-6.011429-1.405714-22.262857 6.788572-36.48 14.457143-25.6 21.497143-37.885714 34.811428-61.051429-7.805714-11.131429-11.771429-17.28-19.84-30.468571-5.12-8.182857-3.714286-24.822857 3.074286-37.371429 12.034286-22.4 17.794286-33.028571 28.925714-53.12-9.142857-14.468571-13.828571-22.274286-23.428571-38.788571-6.011429-10.285714-6.262857-27.005714-0.64-37.714286 9.862857-19.062857 14.594286-28.022857 23.817143-44.662857-10.754286-17.794286-16.388571-27.268571-27.908572-47.108572-7.04-12.034286-8.96-28.8-4.354285-37.714285 8.08-15.702857 12-22.902857 19.725714-36.08-12.925714-20.994286-19.428571-32-33.28-54.914286-8.445714-13.828571-12.034286-30.468571-8.194286-37.371429a310.24 310.24 0 0 1 16.514286-27.142857c-15.234286-23.931429-23.165714-36.354286-39.554286-62.205714-9.851429-15.485714-15.097143-31.748571-11.897143-36.571429a122.034286 122.034286 0 0 1 14.08-18.045714c-16.262857-24.068571-25.474286-37.714286-41.348571-61.44 15.748571 3.577143 31.108571 7.931429 46.205714 12.925714a40.285714 40.285714 0 0 0-13.177143 6.011429c19.2 27.428571 28.411429 40.582857 46.205715 66.182857 10.617143 15.097143 15.485714 27.771429 11.771428 30.582857-6.4 4.994286-9.474286 8.068571-15.737143 15.234286 16.377143 24.708571 24.182857 36.571429 39.291429 59.428571 9.142857 13.714286 12.674286 26.628571 8.708571 31.485715a234.594286 234.594286 0 0 0-17.794285 24.068571c13.817143 21.862857 20.48 32.148571 33.405714 52.022857 7.805714 11.908571 9.988571 25.085714 5.371429 31.874286-8 12.034286-12.16 18.56-20.571429 32.891429 11.645714 18.822857 17.28 27.657143 28.285714 44.297142 6.662857 10.285714 7.68 23.542857 2.285715 32.125715-9.474286 15.36-14.468571 23.68-24.571429 41.474285 9.977143 15.485714 14.72 22.777143 24.182857 36.217143 5.748571 8.32 5.497143 21.508571-0.902857 32zM906.754286 617.142857c-8.445714 20.228571-13.062857 30.857143-23.165715 53.508572 3.84 13.177143 5.497143 19.2 8.822858 30.08 2.057143 6.777143-1.142857 20.571429-8.057143 33.531428-12.285714 23.302857-18.822857 35.588571-33.142857 61.062857 1.794286 9.085714 2.685714 13.051429 4.48 19.965715a9.611429 9.611429 0 0 1-0.251429 4.091428 460.914286 460.914286 0 0 1-38.148571 37.714286c-0.388571-4.731429-0.765714-8.96-1.531429-16.125714-0.64-6.274286 5.245714-23.291429 13.302857-38.4 14.342857-27.131429 20.994286-40.194286 33.28-65.028572-2.685714-11.897143-4.091429-18.285714-7.165714-32.502857-1.92-8.834286 1.028571-26.628571 6.525714-40.194286 9.862857-24.32 14.342857-35.714286 22.537143-57.474285-4.994286-15.748571-7.68-24.194286-13.577143-42.285715-3.577143-11.131429-3.702857-29.314286-0.377143-40.96 6.011429-20.731429 8.697143-30.468571 13.565715-48.64-8.068571-19.2-12.285714-29.44-21.508572-50.811428-5.714286-13.188571-8.96-31.108571-7.291428-40.708572 2.811429-16.765714 3.965714-24.445714 6.011428-38.525714-11.645714-22.4-17.782857-34.045714-31.097143-58.365714-8.068571-14.72-14.342857-32.137143-14.205714-39.302857 0.251429-12.411429 0.251429-17.92 0.251429-27.52-15.874286-24.96-24.32-37.885714-42.365715-64.514286-10.88-16-20.228571-32.251429-21.12-36.731429v-0.251428l28.274286 18.845714c8.445714 11.131429 14.08 19.428571 14.205714 21.371429 0.262857 4.102857 0.514286 6.788571 1.028572 13.577142 17.794286 25.337143 26.285714 37.497143 41.977143 61.177143 9.474286 14.205714 15.748571 27.52 15.234285 32.388572-1.017143 8.571429-1.531429 13.44-2.685714 24.697143 13.314286 23.04 19.588571 34.057143 31.36 55.177142 7.04 12.8 10.88 26.88 9.211429 34.171429-2.811429 12.674286-4.342857 19.714286-7.805715 35.2 9.474286 20.091429 13.954286 29.714286 22.274286 47.874286 4.994286 11.005714 6.525714 25.337143 3.428571 34.811428-5.371429 16.64-8.182857 25.6-14.72 44.925715 6.4 16.902857 9.222857 24.708571 14.72 39.428571 3.485714 8.96 2.457143 23.314286-2.274285 34.742857z" fill="#00AA5E" /><path d="M512 550.4a64.068571 64.068571 0 0 1-64-64 12.8 12.8 0 1 1 25.6 0 38.4 38.4 0 0 0 76.8 0 12.8 12.8 0 1 1 25.6 0 64.068571 64.068571 0 0 1-64 64z" fill="#25467A" /><path d="M384 384m-38.4 0a38.4 38.4 0 1 0 76.8 0 38.4 38.4 0 1 0-76.8 0Z" fill="#25467A" /><path d="M640 384m-38.4 0a38.4 38.4 0 1 0 76.8 0 38.4 38.4 0 1 0-76.8 0Z" fill="#25467A" /><path d="M332.8 448h-51.2a25.6 25.6 0 1 0 0 51.2h51.2a25.6 25.6 0 1 0 0-51.2zM742.4 448h-51.2a25.6 25.6 0 1 0 0 51.2h51.2a25.6 25.6 0 0 0 0-51.2z" fill="#CEF3D1" /></svg>