<?xml version="1.0" standalone="no"?><!DOCTYPE svg PUBLIC "-//W3C//DTD SVG 1.1//EN" "http://www.w3.org/Graphics/SVG/1.1/DTD/svg11.dtd"><svg class="icon" width="128px" height="128.00px" viewBox="0 0 1024 1024" version="1.1" xmlns="http://www.w3.org/2000/svg"><path d="M409.211905 91.316464h-37.325605c-9.245792 0-16.7794-7.533608-16.7794-16.7794V16.7794c0-9.245792 7.533608-16.7794 16.7794-16.7794h37.325605c9.245792 0 16.7794 7.533608 16.7794 16.7794v57.871809c-0.114146 9.131646-7.533608 16.665255-16.7794 16.665255z" fill="#25467A" /><path d="M778.472857 404.646082c-7.077026-91.088173-31.732471-171.560807-71.226842-232.856984-28.079813-43.489466-67.345892-79.331178-113.346561-103.415895-40.407535-21.231078-110.835358-35.499275-157.749192-31.275889 0 0-22.71497-1.255601-45.658232-1.712184-22.943262 0.456582-45.658232 1.712184-45.658232 1.712184-46.913833-4.223386-117.341656 10.044811-157.749192 31.275889-46.000669 24.198863-85.266748 59.92643-113.346561 103.415895C34.243674 233.085275 9.588229 313.557909 2.511203 404.646082-4.565823 495.277673 5.707279 596.410657 32.303199 697.201204c20.317913 76.934121 63.350797 143.480994 127.84305 198.042582 57.301081 48.397726 118.254821 75.221937 152.498495 87.663805 7.191172 4.794114 13.583324 10.158957 18.948166 15.866236 15.181362 15.980381 36.640731 25.226173 58.784974 25.226173 22.258388 0 43.603612-9.131646 58.784974-25.226173 5.364842-5.707279 11.756995-11.072121 18.948166-15.866236 34.243674-12.441868 95.197414-39.26608 152.498496-87.663805 64.492253-54.447442 107.525137-121.108461 127.843049-198.042582 26.824211-100.790547 37.097314-201.923531 30.020288-292.555122z" fill="#25467A" /><path d="M867.163973 1022.744399c-8.78921 0-17.692565-2.168766-25.454465-6.278007l-137.545424-72.368298-137.545424 72.368298c-7.876045 4.109241-16.665255 6.278007-25.454464 6.278007-16.208672 0-31.50418-7.077026-41.891428-19.518895-10.387248-12.327723-14.838925-28.536395-12.099432-44.516776l26.253484-153.183369-111.291941-108.438301c-15.067217-14.610634-20.317913-36.184149-13.811615-56.159625 6.506298-19.975477 23.399844-34.243674 44.174339-37.325605l153.754097-22.372534 68.829785-139.371753c9.245792-18.834021 28.079813-30.591015 49.082599-30.591016s39.836807 11.756995 49.0826 30.591016l68.829785 139.371753L975.944711 603.601828c20.774496 2.967785 37.782187 17.350128 44.174339 37.325605 6.506298 19.975477 1.141456 41.548991-13.811615 56.159625l-111.291941 108.438301 26.253484 153.183369c2.739494 15.980381-1.712184 32.189054-12.099432 44.516776-10.615539 12.441868-25.796901 19.518894-42.005573 19.518895z" fill="#25467A" /><path d="M390.49203 114.488017c30.47687-59.241556 196.78698-44.288485 278.40107 82.070672 71.226842 110.26463 87.892097 291.185375 35.613421 489.113811-54.105005 204.891316-278.971798 269.954297-314.014491 269.954297V114.488017zM390.49203 955.512652c-34.928548 0-259.795341-65.062981-314.014491-269.954297-52.278676-197.928436-35.499275-378.735035 35.613421-488.999666 81.61409-126.359157 247.9242-141.312228 278.40107-82.070672v841.024635z" fill="#BACF3D" /><path d="M642.639617 196.558689C568.787426 70.313677 418.11526 55.246461 390.49203 114.488017 362.868799 55.246461 212.310779 70.313677 138.344443 196.558689c-64.492253 110.26463-79.559469 291.07123-32.189053 489.113811 32.645636 136.403968 133.77862 210.826887 207.060082 245.298852 19.290603 9.017501 37.097314 21.116932 51.593802 36.41244 6.392152 6.734589 15.523799 10.957976 25.682756 10.957976s19.290603-4.223386 25.682755-10.957976c14.496489-15.295508 32.303199-27.280794 51.593803-36.41244 73.281462-34.471965 174.414447-108.894884 207.060082-245.298852 47.370416-198.042582 32.303199-378.849181-32.189053-489.113811z" fill="#F8CF3D" /><path d="M390.49203 76.363393c14.039906 0 77.618995-6.278007 109.693902 123.163081 28.079813 113.11827 34.700256 298.718983 14.039907 501.669825-21.345223 210.256159-110.036339 276.803032-123.733809 276.803032V76.363393zM390.49203 978.227622c-13.811615 0-102.388585-66.661019-123.733809-276.803032-20.66035-203.179133-14.039906-388.665701 14.039906-501.78397C312.987181 70.199532 376.452124 76.477539 390.49203 76.477539v901.750083z" fill="#F8BE3D" /><path d="M390.49203 76.363393c11.528704 0 63.579088-6.278007 89.832571 123.163081 23.057407 113.11827 28.422249 298.718983 11.528704 501.783971C474.389031 911.566604 401.792442 978.227622 390.49203 978.227622V76.363393zM390.49203 978.227622c-11.300412 0-83.897001-66.661019-101.361275-276.803032-16.893546-202.950842-11.528704-388.551555 11.528703-501.669825C327.027087 70.085386 378.963326 76.477539 390.49203 76.477539v901.750083z" fill="#E1CF3D" /><path d="M406.700702 539.452012c0 262.991417-7.305317 438.889756-16.208672 438.889756-8.903355 0-16.208672-175.898339-16.208673-438.889756S381.588675 76.477539 390.49203 76.477539c8.903355-0.114146 16.208672 199.983057 16.208672 462.974473z" fill="#BACF3D" /><path d="M390.49203 528.379891c-35.499275 0-64.378107-28.878832-64.378107-64.378107 0-7.077026 5.707279-12.898451 12.89845-12.898451 7.077026 0 12.898451 5.707279 12.898451 12.898451 0 21.345223 17.350128 38.581206 38.695351 38.581206s38.581206-17.235983 38.581207-38.581206c0-7.077026 5.821425-12.898451 12.89845-12.898451 7.077026 0 12.898451 5.821425 12.898451 12.898451-0.114146 35.499275-28.992977 64.378107-64.492253 64.378107z" fill="#25467A" /><path d="M261.735815 360.928325m-38.581206 0a38.581206 38.581206 0 1 0 77.162413 0 38.581206 38.581206 0 1 0-77.162413 0Z" fill="#25467A" /><path d="M519.248244 360.928325m-38.581206 0a38.581206 38.581206 0 1 0 77.162412 0 38.581206 38.581206 0 1 0-77.162412 0Z" fill="#25467A" /><path d="M210.256159 425.306432H158.662356c-14.268198 0-25.796901 11.528704-25.682755 25.796901 0 14.154052 11.528704 25.682756 25.682755 25.682756h51.479657c14.268198 0 25.796901-11.528704 25.796901-25.682756 0.114146-14.154052-11.414558-25.682756-25.682755-25.796901zM622.321703 425.306432H570.727901c-14.268198 0-25.796901 11.528704-25.796901 25.682755 0 14.268198 11.528704 25.796901 25.682755 25.796902H622.093412c14.268198 0 25.796901-11.528704 25.682756-25.796902 0.228291-14.154052-11.300412-25.56861-25.454465-25.682755z" fill="#F8E088" /><path d="M867.163973 999.915283c-5.136551 0-10.273102-1.255601-14.838926-3.652659l-145.421469-76.477539c-0.799019-0.456582-1.826329-0.684873-2.739494-0.684873s-1.940475 0.228291-2.739494 0.684873l-145.421469 76.477539c-4.565823 2.397057-9.702374 3.652659-14.838925 3.652659-9.474083 0-18.377438-4.109241-24.427154-11.414558-6.049716-7.191172-8.675064-16.665255-7.077026-25.911047l27.737376-161.972578c0.342437-1.940475-0.342437-3.88095-1.712184-5.250697L417.886969 680.650095c-8.78921-8.560919-11.87114-21.116932-8.104336-32.759782s13.69747-19.975477 25.796901-21.801806l162.657452-23.628135c1.940475-0.228291 3.538513-1.483893 4.451677-3.196076l72.710735-147.361944c5.364842-10.957976 16.436964-17.806711 28.650541-17.80671 12.213577 0 23.285698 6.848735 28.65054 17.80671L805.411214 599.264296c0.913165 1.712184 2.511203 2.967785 4.451678 3.196076L972.520343 626.202653c12.099432 1.712184 22.030097 10.044811 25.796901 21.801806 3.766804 11.642849 0.684873 24.198863-8.104336 32.759781L872.528815 795.366403c-1.369747 1.369747-2.05462 3.310222-1.712184 5.250697l27.737376 161.972578c1.598038 9.359938-0.913165 18.719875-7.077026 25.911047-5.93557 7.305317-14.953071 11.414558-24.313008 11.414558z" fill="#25467A" /><path d="M712.26842 462.061309l72.710735 147.361944c4.223386 8.446773 12.327723 14.382343 21.68766 15.75209l162.657452 23.628135c7.533608 1.141456 10.501393 10.273102 5.022406 15.523799L856.662579 779.043585c-6.734589 6.620444-9.81652 16.094527-8.218481 25.454464l27.737376 161.972579c1.255601 7.419463-6.506298 13.126742-13.240888 9.588228l-145.421469-76.477538c-8.332627-4.451678-18.377438-4.451678-26.710066 0l-145.421469 76.477538c-6.734589 3.538513-14.496489-2.168766-13.240887-9.588228l27.737376-161.972579c1.598038-9.359938-1.483893-18.834021-8.218482-25.454464L433.86735 664.327277c-5.364842-5.250697-2.397057-14.496489 5.022406-15.523799L601.547208 625.061197c9.359938-1.369747 17.464274-7.191172 21.68766-15.75209l72.710734-147.361944c3.310222-6.734589 13.012596-6.734589 16.322818 0.114146z" fill="#F8CF3D" /><path d="M718.203991 660.218036c0 63.579088-6.278007 63.00836-14.154052 63.00836-7.761899 0-14.154052 0.570728-14.154052-63.00836s8.78921-167.223275 14.154052-167.223275 14.154052 103.644187 14.154052 167.223275zM632.024078 702.337755c60.497158 19.63304 57.985955 25.454464 55.588897 32.873927s-3.766804 13.583324-64.263962-6.049716-156.379445-60.040575-154.667261-65.06298c1.483893-5.022406 102.845168 18.60573 163.342326 38.238769zM645.37911 797.306878c37.325605-51.479657 42.119719-47.25627 48.397726-42.690447s11.756995 7.876045-25.568609 59.241556c-37.325605 51.479657-105.470516 130.125961-109.693903 127.044031s49.539182-92.115483 86.864786-143.59514zM739.891651 813.972132c-37.325605-51.479657-31.960762-54.675733-25.56861-59.241556s11.072121-8.78921 48.397726 42.690447 91.202319 140.513209 86.864786 143.59514c-4.223386 3.081931-72.368298-75.67852-109.693902-127.044031zM784.865009 729.161966c-60.497158 19.63304-61.866904 13.469178-64.263961 6.049716s-4.90826-13.240887 55.588897-32.873927 161.858433-43.261175 163.456471-38.238769c1.598038 5.022406-94.284249 45.429941-154.781407 65.06298z" fill="#F8DD7C" /><path d="M712.839148 679.622785c0 13.583324-3.88095 16.893546-8.675064 16.893545s-8.675064-3.310222-8.675064-16.893545 3.88095-32.189054 8.675064-32.189054 8.675064 18.60573 8.675064 32.189054zM643.438636 712.496712c12.898451 4.223386 14.838925 8.903355 13.355032 13.469178s-5.821425 7.191172-18.719875 2.967785-29.44956-13.583324-27.965667-18.149147 20.432059-2.511203 33.33051 1.712184zM656.565377 791.713744c7.990191-10.957976 13.012596-11.414558 16.893546-8.560918 3.88095 2.85364 5.022406 7.761899-2.967785 18.719875-7.990191 10.957976-22.030097 23.742281-25.911047 21.002787s3.995095-20.203768 11.985286-31.161744zM737.951176 801.758555c-7.990191-10.957976-6.848735-15.866236-2.967785-18.719875s8.903355-2.397057 16.893546 8.560919 15.75209 28.308104 11.985286 31.161743-17.920856-10.044811-25.911047-21.002787zM767.743172 728.933675c-12.898451 4.223386-17.235983 1.598038-18.719875-2.967785s0.456582-9.245792 13.355033-13.469178 31.846617-6.278007 33.33051-1.712184-15.067217 13.925761-27.965668 18.149147z" fill="#F89359" /></svg>