<?xml version="1.0" standalone="no"?><!DOCTYPE svg PUBLIC "-//W3C//DTD SVG 1.1//EN" "http://www.w3.org/Graphics/SVG/1.1/DTD/svg11.dtd"><svg class="icon" width="128px" height="128.00px" viewBox="0 0 1024 1024" version="1.1" xmlns="http://www.w3.org/2000/svg"><path d="M512 1024c-12.411429 0-24.88-0.422857-37.074286-1.268571A585.542857 585.542857 0 0 1 371.428571 1007.44a537.337143 537.337143 0 0 1-114.971428-41.531429C95.885714 886.045714 0 732.137143 0 554.217143c0-169.634286 83.851429-298.011429 256.342857-392.48 57.337143-31.542857 188.4-118.948571 214.091429-136.16l10.88-7.211429c1.554286-1.142857 2.457143-1.691429 2.457143-1.691428L510.857143 0l29.371428 16.674286s0.902857 0.548571 2.457143 1.691428l3.497143 2.285715 1.474286 1.062857 5.828571 3.84c25.771429 17.268571 156.834286 104.674286 214.262857 136.262857C940.148571 256.205714 1024 384.582857 1024 554.217143c0 177.92-95.885714 331.828571-256.48 411.702857a537.84 537.84 0 0 1-115.2 41.577143A587.748571 587.748571 0 0 1 548.571429 1022.777143c-11.691429 0.8-24.16 1.222857-36.571429 1.222857z" fill="#25467A" /><path d="M972.8 550.4c0 169.6-91.657143 300.8-228.228571 369.28a483.428571 483.428571 0 0 1-104.182858 37.885714 530.788571 530.788571 0 0 1-94.857142 14.08c-11.005714 0.765714-22.262857 1.142857-33.531429 1.142857s-22.525714-0.388571-33.531429-1.142857a530.788571 530.788571 0 0 1-94.857142-14.08 483.428571 483.428571 0 0 1-104.182858-37.885714C142.857143 851.2 51.2 720 51.2 550.4c0-170.365714 92.411429-274.948571 229.885714-350.857143 56.32-31.234286 178.182857-112.765714 217.988572-139.645714l2.285714-1.542857c1.92-1.28 3.714286-2.434286 5.12-3.428572 2.057143-1.28 3.428571-2.285714 4.48-2.948571 0.64-0.514286 1.028571-0.765714 1.028571-0.765714s0.388571 0.251429 1.028572 0.765714c1.017143 0.64 2.422857 1.668571 4.48 2.948571 1.405714 1.017143 3.2 2.171429 5.12 3.428572l2.285714 1.542857c39.805714 26.88 161.668571 108.411429 217.988572 139.645714C880.388571 275.428571 972.8 380.034286 972.8 550.4z" fill="#CB71D7" /><path d="M832 550.914286c0 142.72-33.28 272.64-87.428571 368.765714a483.428571 483.428571 0 0 1-104.182858 37.885714 530.788571 530.788571 0 0 1-94.857142 14.08c-11.005714 0.765714-22.262857 1.142857-33.531429 1.142857s-22.525714-0.388571-33.531429-1.142857a530.788571 530.788571 0 0 1-94.857142-14.08 483.428571 483.428571 0 0 1-104.182858-37.885714C225.28 823.554286 192 693.634286 192 550.914286c0-260.742857 247.165714-449.142857 307.074286-491.005715l2.285714-1.542857a60.445714 60.445714 0 0 1 5.12-3.428571c2.057143-1.405714 3.588571-2.434286 4.48-2.948572 0.64-0.514286 1.028571-0.765714 1.028571-0.765714s0.388571 0.251429 1.028572 0.765714c0.891429 0.514286 2.422857 1.542857 4.48 2.948572 1.405714 1.017143 3.2 2.171429 5.12 3.428571l2.285714 1.542857C584.834286 101.714286 832 290.171429 832 550.914286z" fill="#D68ADF" /><path d="M716.8 542.72c0 167.68-29.828571 317.314286-76.411429 414.857143a530.788571 530.788571 0 0 1-94.857142 14.08c-11.005714 0.765714-22.262857 1.142857-33.531429 1.142857s-22.525714-0.388571-33.531429-1.142857a530.788571 530.788571 0 0 1-94.857142-14.08c-46.582857-97.531429-76.411429-247.165714-76.411429-414.857143 0-289.531429 198.4-485.371429 204.674286-491.428571l0.125714-0.125715 0.125714 0.125715c6.274286 6.057143 204.674286 201.897143 204.674286 491.428571z" fill="#E4ADEA" /><path d="M576 524.8c0 188.925714-12.16 354.434286-30.468571 446.857143-11.005714 0.765714-22.262857 1.142857-33.531429 1.142857s-22.525714-0.388571-33.531429-1.142857c-18.285714-92.411429-30.468571-257.92-30.468571-446.857143 0-289.794286 64-473.6 64-473.6s64 183.805714 64 473.6z" fill="#EFCEF3" /><path d="M512 550.4a64.068571 64.068571 0 0 1-64-64 12.8 12.8 0 1 1 25.6 0 38.4 38.4 0 0 0 76.8 0 12.8 12.8 0 1 1 25.6 0 64.068571 64.068571 0 0 1-64 64z" fill="#25467A" /><path d="M384 384m-38.4 0a38.4 38.4 0 1 0 76.8 0 38.4 38.4 0 1 0-76.8 0Z" fill="#25467A" /><path d="M640 384m-38.4 0a38.4 38.4 0 1 0 76.8 0 38.4 38.4 0 1 0-76.8 0Z" fill="#25467A" /><path d="M332.8 448h-51.2a25.6 25.6 0 1 0 0 51.2h51.2a25.6 25.6 0 1 0 0-51.2zM742.4 448h-51.2a25.6 25.6 0 1 0 0 51.2h51.2a25.6 25.6 0 0 0 0-51.2z" fill="#C22DD5" /></svg>