<?xml version="1.0" standalone="no"?><!DOCTYPE svg PUBLIC "-//W3C//DTD SVG 1.1//EN" "http://www.w3.org/Graphics/SVG/1.1/DTD/svg11.dtd"><svg class="icon" width="128px" height="128.00px" viewBox="0 0 1024 1024" version="1.1" xmlns="http://www.w3.org/2000/svg"><path d="M512 1024C215.325714 1024 0 831.142857 0 565.428571c0-121.371429 41.977143-250.822857 112.308571-346.285714C150.08 167.874286 512 0 512 0s361.92 167.874286 399.691429 219.154286c70.331429 95.451429 112.308571 224.902857 112.308571 346.285714C1024 831.142857 808.674286 1024 512 1024z" fill="#25467A" /><path d="M972.8 563.2c0 254.468571-206.331429 409.6-460.8 409.6S51.2 817.668571 51.2 563.2c0-109.714286 38.4-230.4 102.4-317.714286 35.428571-48.388571 358.4-194.285714 358.4-194.285714s322.948571 145.92 358.4 194.285714c64 87.314286 102.4 208.022857 102.4 317.714286z" fill="#95D13C" /><path d="M972.8 563.2c0 254.468571-206.331429 409.6-460.8 409.6-233.988571 0-427.428571-131.2-456.834286-350.205714C148.994286 734.971429 290.171429 806.4 448 806.4c244.994286 0 449.794286-172.16 500.228571-402.045714 15.862857 52.354286 24.571429 106.88 24.571429 158.845714z" fill="#8EC739" /><path d="M512 652.8a64.068571 64.068571 0 0 1-64-64 12.8 12.8 0 1 1 25.6 0 38.4 38.4 0 0 0 76.8 0 12.8 12.8 0 1 1 25.6 0 64.068571 64.068571 0 0 1-64 64z" fill="#25467A" /><path d="M384 486.4m-38.4 0a38.4 38.4 0 1 0 76.8 0 38.4 38.4 0 1 0-76.8 0Z" fill="#25467A" /><path d="M640 486.4m-38.4 0a38.4 38.4 0 1 0 76.8 0 38.4 38.4 0 1 0-76.8 0Z" fill="#25467A" /><path d="M332.8 550.4h-51.2a25.6 25.6 0 0 0 0 51.2h51.2a25.6 25.6 0 1 0 0-51.2zM742.4 550.4h-51.2a25.6 25.6 0 0 0 0 51.2h51.2a25.6 25.6 0 0 0 0-51.2z" fill="#B4E876" /><path d="M512 51.2L345.6 294.4c30.251429 6.857143 51.2 25.6 166.4 25.6s121.725714-15.542857 166.4-25.6z" fill="#FBEBB5" /><path d="M512 51.2L345.6 294.4c-33.142857 8.708571-49.405714 21.634286-130.56 2.045714a375.405714 375.405714 0 0 1-76.674286-27.771428c4.868571-8.194286 9.988571-16 15.234286-23.165715C189.051429 197.12 512 51.2 512 51.2z" fill="#FBF2D3" /><path d="M512 51.2l166.4 243.2c33.142857 8.708571 49.405714 21.634286 130.56 2.045714a375.405714 375.405714 0 0 0 76.674286-27.771428c-4.868571-8.194286-9.988571-16-15.234286-23.165715C834.948571 197.12 512 51.2 512 51.2z" fill="#FBE597" /></svg>