<?xml version="1.0" standalone="no"?><!DOCTYPE svg PUBLIC "-//W3C//DTD SVG 1.1//EN" "http://www.w3.org/Graphics/SVG/1.1/DTD/svg11.dtd"><svg class="icon" width="128px" height="128.00px" viewBox="0 0 1024 1024" version="1.1" xmlns="http://www.w3.org/2000/svg"><path d="M701.714286 1021.828571c-82.857143 0-159.885714-28.457143-216.8-80-59.428571-53.828571-92.114286-128.8-92.114286-211.085714 0-36.685714 7.542857-64.228571 22.857143-84.114286C427.428571 631.657143 449.371429 613.714286 488 613.714286c29.828571 0 62.971429 10.742857 97.942857 22.057143 36.914286 12 78.742857 25.485714 115.771429 25.485714 37.028571 0 78.857143-13.6 115.771428-25.6 34.971429-11.314286 68.114286-22.057143 97.942857-22.057143 38.628571 0 60.685714 17.942857 72.342858 33.028571 15.428571 19.885714 22.857143 47.428571 22.857142 84.114286 0 82.285714-32.685714 157.142857-92.114285 211.085714-56.914286 51.542857-133.942857 80-216.8 80zM501.714286 212.114286c-18.971429 0-34.285714-15.314286-34.285715-34.285715V34.285714c0-18.971429 15.314286-34.285714 34.285715-34.285714s34.285714 15.314286 34.285714 34.285714v143.542857c0 18.971429-15.428571 34.285714-34.285714 34.285715z" fill="#25467A" /><path d="M500.8 1024C324.571429 1024 187.542857 975.314286 104.571429 883.2c-35.428571-39.314286-60.914286-86.4-75.771429-139.885714C13.714286 688.914286 9.6 627.085714 16.685714 559.771429c7.771429-74.857143 25.714286-145.028571 53.371429-208.685715 24.457143-56.228571 56.571429-107.771429 95.428571-153.028571 61.942857-72.114286 142.971429-129.142857 222.4-156.571429 35.657143-12.342857 74.742857-18.857143 113.028572-18.857143s77.257143 6.514286 113.028571 18.857143c79.428571 27.428571 160.571429 84.457143 222.4 156.571429 38.857143 45.257143 70.971429 96.8 95.428572 153.028571 27.657143 63.657143 45.6 133.828571 53.371428 208.685715 6.971429 67.428571 2.857143 129.142857-12.114286 183.657142-14.857143 53.485714-40.228571 100.457143-75.771428 139.885715C814.057143 975.314286 677.028571 1024 500.8 1024z" fill="#25467A" /><path d="M939.542857 564.457143c-31.085714-298.514286-223.314286-439.314286-340.571428-479.771429-31.542857-10.857143-65.142857-16.342857-98.057143-16.342857s-66.514286 5.485714-98.057143 16.342857c-117.485714 40.457143-309.714286 181.257143-340.8 479.771429C31.657143 856.914286 228.571429 978.285714 500.8 978.285714s469.142857-121.371429 438.742857-413.828571z" fill="#FFEF66" /><path d="M500.914286 976.571429c-227.314286 0-402.057143-84.571429-435.885715-282.742858 92.685714 97.942857 223.2 158.857143 367.885715 158.857143 234.514286 0 431.885714-160.228571 490.857143-378.171428 7.2 28.457143 12.685714 57.942857 15.771428 88.342857 30.514286 292.342857-166.4 413.714286-438.628571 413.714286z" fill="#F2E573" /><path d="M500.8 552.114286c-35.314286 0-64-28.685714-64-64 0-7.085714 5.714286-12.8 12.8-12.8s12.8 5.714286 12.8 12.8c0 21.257143 17.257143 38.4 38.4 38.4s38.4-17.142857 38.4-38.4c0-7.085714 5.714286-12.8 12.8-12.8s12.8 5.714286 12.8 12.8c0 35.314286-28.685714 64-64 64z" fill="#25467A" /><path d="M372.8 385.714286m-38.4 0a38.4 38.4 0 1 0 76.8 0 38.4 38.4 0 1 0-76.8 0Z" fill="#25467A" /><path d="M628.8 385.714286m-38.4 0a38.4 38.4 0 1 0 76.8 0 38.4 38.4 0 1 0-76.8 0Z" fill="#25467A" /><path d="M321.6 449.714286h-51.2c-14.171429 0-25.6 11.428571-25.6 25.6s11.428571 25.6 25.6 25.6h51.2c14.171429 0 25.6-11.428571 25.6-25.6s-11.428571-25.6-25.6-25.6zM731.2 449.714286H680c-14.171429 0-25.6 11.428571-25.6 25.6s11.428571 25.6 25.6 25.6h51.2c14.171429 0 25.6-11.428571 25.6-25.6s-11.428571-25.6-25.6-25.6z" fill="#FBC02D" /><path d="M192 582.057143m-15.085714 0a15.085714 15.085714 0 1 0 30.171428 0 15.085714 15.085714 0 1 0-30.171428 0Z" fill="#FDD835" /><path d="M149.942857 637.142857m-15.085714 0a15.085714 15.085714 0 1 0 30.171428 0 15.085714 15.085714 0 1 0-30.171428 0Z" fill="#FDD835" /><path d="M234.057143 637.142857m-15.085714 0a15.085714 15.085714 0 1 0 30.171428 0 15.085714 15.085714 0 1 0-30.171428 0Z" fill="#FDD835" /><path d="M809.6 582.057143m-15.085714 0a15.085714 15.085714 0 1 0 30.171428 0 15.085714 15.085714 0 1 0-30.171428 0Z" fill="#FDD835" /><path d="M767.542857 637.142857m-15.085714 0a15.085714 15.085714 0 1 0 30.171428 0 15.085714 15.085714 0 1 0-30.171428 0Z" fill="#FDD835" /><path d="M851.657143 637.142857m-15.085714 0a15.085714 15.085714 0 1 0 30.171428 0 15.085714 15.085714 0 1 0-30.171428 0Z" fill="#FDD835" /><path d="M160.457143 715.428571m-15.085714 0a15.085714 15.085714 0 1 0 30.171428 0 15.085714 15.085714 0 1 0-30.171428 0Z" fill="#FDD835" /><path d="M118.514286 770.514286m-15.085715 0a15.085714 15.085714 0 1 0 30.171429 0 15.085714 15.085714 0 1 0-30.171429 0Z" fill="#FDD835" /><path d="M202.514286 770.514286m-15.085715 0a15.085714 15.085714 0 1 0 30.171429 0 15.085714 15.085714 0 1 0-30.171429 0Z" fill="#FDD835" /><path d="M841.142857 715.428571m-15.085714 0a15.085714 15.085714 0 1 0 30.171428 0 15.085714 15.085714 0 1 0-30.171428 0Z" fill="#FDD835" /><path d="M799.085714 770.514286m-15.085714 0a15.085714 15.085714 0 1 0 30.171429 0 15.085714 15.085714 0 1 0-30.171429 0Z" fill="#FDD835" /><path d="M883.085714 770.514286m-15.085714 0a15.085714 15.085714 0 1 0 30.171429 0 15.085714 15.085714 0 1 0-30.171429 0Z" fill="#FDD835" /><path d="M388.457143 192.228571m-15.085714 0a15.085714 15.085714 0 1 0 30.171428 0 15.085714 15.085714 0 1 0-30.171428 0Z" fill="#FDD835" /><path d="M430.514286 137.142857m-15.085715 0a15.085714 15.085714 0 1 0 30.171429 0 15.085714 15.085714 0 1 0-30.171429 0Z" fill="#FDD835" /><path d="M346.4 137.142857m-15.085714 0a15.085714 15.085714 0 1 0 30.171428 0 15.085714 15.085714 0 1 0-30.171428 0Z" fill="#FDD835" /><path d="M613.142857 192.228571m-15.085714 0a15.085714 15.085714 0 1 0 30.171428 0 15.085714 15.085714 0 1 0-30.171428 0Z" fill="#FDD835" /><path d="M655.2 137.142857m-15.085714 0a15.085714 15.085714 0 1 0 30.171428 0 15.085714 15.085714 0 1 0-30.171428 0Z" fill="#FDD835" /><path d="M571.085714 137.142857m-15.085714 0a15.085714 15.085714 0 1 0 30.171429 0 15.085714 15.085714 0 1 0-30.171429 0Z" fill="#FDD835" /><path d="M500.8 789.942857m-15.085714 0a15.085714 15.085714 0 1 0 30.171428 0 15.085714 15.085714 0 1 0-30.171428 0Z" fill="#FDD835" /><path d="M458.742857 845.028571m-15.085714 0a15.085714 15.085714 0 1 0 30.171428 0 15.085714 15.085714 0 1 0-30.171428 0Z" fill="#FDD835" /><path d="M542.857143 845.028571m-15.085714 0a15.085714 15.085714 0 1 0 30.171428 0 15.085714 15.085714 0 1 0-30.171428 0Z" fill="#FDD835" /><path d="M659.542857 894.171429a15.085714 15.085714 0 1 0 30.171429 0 15.085714 15.085714 0 1 0-30.171429 0Z" fill="#FDD835" /><path d="M726.742857 877.142857a15.085714 15.085714 0 1 0 30.171429 0 15.085714 15.085714 0 1 0-30.171429 0Z" fill="#FDD835" /><path d="M660.8 824.8a15.085714 15.085714 0 1 0 30.171429 0 15.085714 15.085714 0 1 0-30.171429 0Z" fill="#FDD835" /><path d="M312 894.171429a15.085714 15.085714 0 1 0 30.171429 0 15.085714 15.085714 0 1 0-30.171429 0Z" fill="#FDD835" /><path d="M248.164353 886.512276a15.085714 15.085714 0 1 0 23.642207-18.74463 15.085714 15.085714 0 1 0-23.642207 18.74463Z" fill="#FDD835" /><path d="M310.628571 824.8a15.085714 15.085714 0 1 0 30.171429 0 15.085714 15.085714 0 1 0-30.171429 0Z" fill="#FDD835" /><path d="M701.714286 998.971429c-77.142857 0-148.685714-26.285714-201.485715-74.057143-54.628571-49.485714-84.571429-118.4-84.571428-194.057143 0-31.428571 5.942857-54.4 18.057143-70.057143 12.457143-16 30.628571-24.114286 54.285714-24.114286 26.285714 0 56.228571 9.714286 90.857143 20.914286 38.514286 12.457143 82.171429 26.628571 122.857143 26.628571 40.685714 0 84.342857-14.171429 122.857143-26.628571C859.2 646.285714 889.142857 636.571429 915.428571 636.571429c23.542857 0 41.828571 8.114286 54.285715 24.228571 12.228571 15.771429 18.057143 38.628571 18.057143 70.171429 0 75.771429-30.057143 144.685714-84.571429 194.057142-52.685714 47.657143-124.228571 73.942857-201.485714 73.942858z" fill="#25467A" /><path d="M965.028571 730.742857c0 145.371429-117.942857 245.371429-263.2 245.371429s-263.2-100-263.2-245.371429 135.771429-23.771429 263.2-23.771428 263.2-121.6 263.2 23.771428z" fill="#FEF8E2" /><path d="M701.714286 964.685714c-68.685714 0-132-23.2-178.4-65.257143-47.314286-42.857143-73.371429-102.742857-73.371429-168.685714 0-23.2 3.657143-39.771429 10.971429-49.028571 5.714286-7.428571 14.4-10.857143 27.085714-10.857143 20.8 0 49.714286 9.371429 80.342857 19.314286 40.914286 13.257143 87.314286 28.342857 133.485714 28.342857 46.171429 0 92.571429-15.085714 133.485715-28.342857 30.628571-9.942857 59.428571-19.314286 80.342857-19.314286 12.8 0 21.371429 3.428571 27.085714 10.857143 7.2 9.371429 10.971429 25.942857 10.971429 49.142857 0 65.942857-26.057143 125.828571-73.371429 168.685714-46.514286 41.942857-109.942857 65.142857-178.628571 65.142857z" fill="#FCE68D" /><path d="M505.714286 780.342857c-39.085714 5.142857-43.885714-1.485714-44.914286-10.171428-1.142857-8.685714 1.828571-16.114286 40.914286-21.257143 39.085714-5.142857 99.542857-5.714286 100.685714 2.971428 1.028571 8.685714-57.6 23.428571-96.685714 28.457143zM550.971429 718.514286c0 10.057143-37.371429 18.285714-62.857143 18.285714s-29.714286-8.114286-29.714286-18.285714 4.228571-18.285714 29.714286-18.285715 62.857143 8.114286 62.857143 18.285715zM565.485714 794.285714c3.314286 9.485714-28.914286 29.828571-53.028571 38.4-24 8.685714-30.742857 2.285714-34.171429-7.2s-2.285714-18.628571 21.714286-27.314285c24.228571-8.571429 62.057143-13.371429 65.485714-3.885715zM686.628571 758.742857c10.057143 1.028571 14.514286 38.971429 12 64.342857-2.514286 25.371429-11.085714 28.8-21.142857 27.771429-10.057143-1.028571-17.828571-5.942857-15.314285-31.314286 2.514286-25.6 14.4-61.828571 24.457142-60.8zM618.4 839.2c8.8 5.142857-3.085714 41.485714-16 63.428571-12.8 21.942857-22.057143 21.485714-30.742857 16.342858-8.685714-5.142857-13.714286-12.8-0.685714-34.857143 12.685714-21.942857 38.628571-49.942857 47.428571-44.914286zM654.057143 851.657143c9.714286 3.314286 5.371429 41.485714-2.857143 65.714286-8.228571 24.228571-17.371429 25.714286-26.971429 22.4s-16.114286-9.828571-7.771428-34.171429c8-24.228571 27.885714-57.142857 37.6-53.942857zM646.4 752.914286c4.228571 7.085714-18.171429 28.228571-35.771429 38.857143s-24 6.742857-28.114285-0.228572c-4.114286-6.971429-4.8-14.4 12.914285-25.028571 17.485714-10.628571 46.742857-20.571429 50.971429-13.6zM682.971429 865.714286c9.028571 0.342857 14.971429 33.942857 14.057142 56.571428-0.914286 22.628571-8.342857 26.171429-17.371428 25.714286-8.914286-0.457143-16.114286-4.342857-15.2-27.085714 0.914286-22.514286 9.485714-55.428571 18.514286-55.2zM613.828571 728.114286c-0.571429 5.6-21.6 8.228571-35.771428 6.971428-14.171429-1.257143-16.114286-6.057143-15.542857-11.657143 0.571429-5.6 3.2-9.942857 17.371428-8.571428 14.171429 1.257143 34.4 7.657143 33.942857 13.257143zM605.942857 809.485714c6.4 7.542857-23.885714 43.542857-48.114286 64s-33.371429 17.714286-39.771428 10.171429c-6.4-7.542857-7.657143-17.028571 16.571428-37.485714 24.342857-20.342857 64.914286-44.114286 71.314286-36.685715zM665.485714 755.2c6.4 3.2-3.542857 35.428571-13.828571 55.771429-10.285714 20.342857-17.028571 21.028571-23.428572 17.828571-6.4-3.2-9.828571-9.142857 0.457143-29.485714 10.285714-20.114286 30.4-47.314286 36.8-44.114286z" fill="#FEF8E2" /><path d="M801.142857 751.885714c1.142857-8.685714 61.6-8 100.685714-2.971428 39.085714 5.142857 42.057143 12.571429 40.914286 21.257143-1.028571 8.685714-5.828571 15.314286-44.914286 10.171428-39.085714-5.028571-97.828571-19.771429-96.685714-28.457143zM915.428571 700.228571c25.485714 0 29.714286 8.114286 29.714286 18.285715s-4.228571 18.285714-29.714286 18.285714-62.857143-8.114286-62.857142-18.285714 37.371429-18.285714 62.857142-18.285715zM903.428571 798.285714c24 8.685714 25.142857 17.828571 21.714286 27.314286-3.314286 9.485714-10.057143 15.885714-34.171428 7.2-24-8.685714-56.342857-28.914286-53.028572-38.4 3.428571-9.6 41.257143-4.8 65.485714 3.885714zM741.371429 819.542857c2.514286 25.371429-5.257143 30.285714-15.314286 31.314286s-18.628571-2.285714-21.142857-27.771429c-2.514286-25.371429 1.942857-63.314286 12-64.342857 9.942857-1.028571 21.828571 35.2 24.457143 60.8zM832.571429 884.114286c13.028571 21.942857 7.885714 29.714286-0.685715 34.857143-8.685714 5.142857-17.942857 5.6-30.742857-16.342858-12.8-21.942857-24.8-58.285714-16-63.428571 8.685714-5.028571 34.628571 22.971429 47.428572 44.914286zM787.085714 905.6c8.342857 24.342857 1.714286 30.857143-7.771428 34.171429s-18.742857 1.942857-26.971429-22.4c-8.228571-24.228571-12.571429-62.4-2.857143-65.714286 9.714286-3.2 29.485714 29.714286 37.6 53.942857zM808.114286 766.514286c17.714286 10.628571 17.028571 18.057143 12.914285 25.028571-4.114286 6.971429-10.514286 10.857143-28.114285 0.228572s-40-31.885714-35.771429-38.857143c4.228571-6.971429 33.371429 2.971429 50.971429 13.6zM738.971429 921.028571c1.028571 22.742857-6.171429 26.628571-15.2 27.085715-8.914286 0.457143-16.457143-3.085714-17.371429-25.714286-0.914286-22.628571 5.028571-56.228571 14.057143-56.571429 9.028571-0.342857 17.714286 32.571429 18.514286 55.2zM823.542857 714.857143c14.171429-1.371429 16.8 2.971429 17.371429 8.571428s-1.371429 10.4-15.542857 11.657143c-14.171429 1.257143-35.2-1.257143-35.771429-6.971428-0.457143-5.6 19.771429-12 33.942857-13.257143zM868.8 846.171429c24.228571 20.457143 23.085714 30.057143 16.571429 37.485714-6.4 7.657143-15.542857 10.4-39.771429-10.171429s-54.514286-56.571429-48.114286-64c6.514286-7.428571 47.085714 16.342857 71.314286 36.685715zM774.857143 799.428571c10.285714 20.342857 6.857143 26.285714 0.457143 29.485715-6.4 3.2-13.142857 2.514286-23.428572-17.828572s-20.114286-52.685714-13.828571-55.771428c6.4-3.314286 26.514286 23.885714 36.8 44.114285z" fill="#FEF8E2" /><path d="M695.771429 726.171429a10.285714 5.942857 90 1 0 11.885714 0 10.285714 5.942857 90 1 0-11.885714 0Z" fill="#FDD835" /><path d="M675.314286 725.371429a10.285714 5.942857 90 1 0 11.885714 0 10.285714 5.942857 90 1 0-11.885714 0Z" fill="#FDD835" /><path d="M716.342857 725.371429a10.285714 5.942857 90 1 0 11.885714 0 10.285714 5.942857 90 1 0-11.885714 0Z" fill="#FDD835" /><path d="M653.485714 723.2a10.285714 5.942857 90 1 0 11.885715 0 10.285714 5.942857 90 1 0-11.885715 0Z" fill="#FDD835" /><path d="M738.171429 723.2a10.285714 5.942857 90 1 0 11.885714 0 10.285714 5.942857 90 1 0-11.885714 0Z" fill="#FDD835" /><path d="M632.114286 718.285714a10.285714 5.942857 90 1 0 11.885714 0 10.285714 5.942857 90 1 0-11.885714 0Z" fill="#FDD835" /><path d="M759.542857 718.285714a10.285714 5.942857 90 1 0 11.885714 0 10.285714 5.942857 90 1 0-11.885714 0Z" fill="#FDD835" /></svg>