<?xml version="1.0" standalone="no"?><!DOCTYPE svg PUBLIC "-//W3C//DTD SVG 1.1//EN" "http://www.w3.org/Graphics/SVG/1.1/DTD/svg11.dtd"><svg class="icon" width="128px" height="128.00px" viewBox="0 0 1024 1024" version="1.1" xmlns="http://www.w3.org/2000/svg"><path d="M512 1024c-23.874286 0-41.782857-11.657143-54.857143-20.16-2.377143-1.542857-5.714286-3.714286-7.805714-4.891429C321.897143 983.508571 212.834286 936.48 133.714286 862.857143 46.251429 781.302857 0 670.765714 0 543.165714 0 436.571429 37.177143 351.668571 110.514286 290.765714c47.554286-39.497143 110.468571-68.32 187.588571-86.034285l-58.857143-101.942858 147.885715-85.371428L396.182857 33.142857l30.434286-9.702857V0h170.765714v23.382857L627.817143 33.142857l9.051428-15.668571 147.885715 85.371428-58.857143 101.942857c77.12 17.714286 140.034286 46.537143 187.588571 86.034286C986.822857 351.668571 1024 436.571429 1024 543.165714c0 127.6-46.251429 238.137143-133.714286 319.657143-79.074286 73.657143-188.137143 120.685714-315.577143 136.125714-2.091429 1.142857-5.428571 3.348571-7.805714 4.891429C553.782857 1012.342857 535.874286 1024 512 1024z" fill="#25467A" /><path d="M493.668571 246.251429l-64.525714 20.582857-35.885714-182.434286 64.537143-20.582857 35.874285 182.434286zM594.857143 266.834286l-64.525714-20.582857 35.874285-182.434286 64.537143 20.582857-35.885714 182.434286z" fill="#558B2F" /><path d="M304.822857 120.365714l64.740572-37.377143 110.44 191.288-64.739429 37.377143zM654.435429 82.988571l64.739428 37.377143-110.44 191.288-64.739428-37.377143z" fill="#7CB342" /><path d="M474.617143 48h74.754286v228.24h-74.754286z" fill="#7CB342" /><path d="M512 231.44c-250.285714 0-464 70.685714-464 311.725714S227.234286 924.708571 458.102857 951.657143c17.68 2.068571 35.668571 24.342857 53.897143 24.342857s36.217143-22.274286 53.897143-24.342857C796.765714 924.708571 976 784.205714 976 543.165714S762.285714 231.44 512 231.44z" fill="#D1EDB2" /><path d="M976 543.165714c0 241.04-179.234286 381.542857-410.102857 408.491429C548.217143 953.714286 530.285714 976 512 976s-36.217143-22.285714-53.897143-24.342857c-117.062857-13.714286-220.857143-56.525714-294.72-126.857143 70.857143 32.182857 152 50.445714 238.251429 50.445714 277.074286 0 501.714286-188.571429 501.714285-421.28a359.542857 359.542857 0 0 0-24-129.142857C939.634286 373.291429 976 443.725714 976 543.165714z" fill="#C7E6A6" /><path d="M512 657.508571a69.28 69.28 0 0 1-69.188571-69.222857 13.851429 13.851429 0 0 1 27.68-0.834285v0.834285a41.52 41.52 0 0 0 83.028571 0 13.84 13.84 0 1 1 27.668571-0.834285v0.834285A69.268571 69.268571 0 0 1 512 657.508571zM332.068571 477.6a41.52 41.52 0 0 0 83.028572 0.057143v-0.057143a41.52 41.52 0 0 0-83.028572 0zM608.834286 477.6a41.52 41.52 0 0 0 83.028571 0.08v-0.08a41.52 41.52 0 0 0-83.028571 0z" fill="#25467A" /><path d="M318.24 546.8h-55.291429a27.68 27.68 0 0 0 0 55.348571h55.382858a27.68 27.68 0 1 0 0-55.348571h-0.091429z m442.811429 0h-55.36a27.68 27.68 0 0 0 0 55.348571h55.36a27.68 27.68 0 0 0 0-55.348571z" fill="#9CCC65" /></svg>