<?xml version="1.0" standalone="no"?><!DOCTYPE svg PUBLIC "-//W3C//DTD SVG 1.1//EN" "http://www.w3.org/Graphics/SVG/1.1/DTD/svg11.dtd"><svg class="icon" width="128px" height="128.00px" viewBox="0 0 1024 1024" version="1.1" xmlns="http://www.w3.org/2000/svg"><path d="M846.934048 367.387568c-5.485102-111.301864-27.082692-200.206227-64.107131-264.199085-31.310791-54.05111-72.106238-86.276085-109.130678-86.276085-5.142283 0-10.056021 0.571365-14.741212 1.828368-4.570918-0.799911-9.25611-1.371276-13.941301-1.371276-7.084924 0-13.941301 1.14273-20.340587 3.313916-7.542015 2.628278-14.28412 6.742105-19.883495 11.884388-1.94264-1.14273-3.885281-2.171186-5.827921-3.08537-3.313916-4.456645-7.199197-8.456199-11.770115-11.884388C575.535766 8.684745 561.137373 4.113827 544.567794 4.113827c-1.485548 0-2.971097 0-4.456646 0.114273-8.227653-2.856824-17.483763-4.2281-27.996875-4.2281-10.627385 0-19.997768 1.599821-27.996875 4.342373-1.599821-0.114273-3.199643-0.114273-4.799465-0.114273-16.569579 0-30.967972 4.570918-42.623814 13.484209-4.456645 3.428189-8.456199 7.427742-11.770115 11.884388-2.056913 0.914184-3.999554 2.056913-5.827921 3.08537-5.599375-5.142283-12.34148-9.25611-19.883495-11.884388-6.285013-2.171186-13.14139-3.313916-20.340587-3.313916-4.685191 0-9.370383 0.457092-13.941301 1.371276-4.799464-1.257003-9.713202-1.828367-14.741212-1.828368-37.024439 0-77.819886 32.224975-109.130678 86.276085-37.024439 63.992858-58.507756 152.782948-64.10713 264.199085-7.770561 155.411226-8.684745 262.256445-3.199643 346.361344 3.542462 53.479746 9.598929 96.789198 18.740765 132.442361 11.313023 44.223636 27.196965 76.677157 48.680281 99.074657 23.883049 24.911505 57.022207 43.652271 98.617565 55.536659 33.024886 9.484656 64.564223 12.798572 88.447272 13.712755 10.284566 6.056467 22.283227 9.370383 34.624707 9.370383h94.732284c12.34148 0 24.111595-3.313916 34.396161-9.25611 24.225868-0.685638 57.365026-3.771008 92.21828-13.827028 41.481085-11.998661 74.620243-30.625153 98.503292-55.536659 21.483317-22.3975 37.481531-54.851021 48.680281-99.074657 9.141837-35.653164 15.198304-78.962616 18.740765-132.442361 5.599375-84.561991 4.570918-191.407209-3.199642-346.475617z" fill="#25467A" /><path d="M557.137819 974.405535h-93.8181c-9.827475 0-17.712309-7.884834-17.712309-17.712309v-29.368151c0-9.827475 7.884834-17.712309 17.712309-17.712309h93.8181c9.827475 0 17.712309 7.884834 17.712309 17.712309v29.368151c0.114273 9.713202-7.884834 17.712309-17.712309 17.712309z" fill="#FFF59D" /><path d="M767.628613 381.785961c0-11.084477-10.513112-20.340587-24.797233-23.197411 14.28412-2.856824 24.797232-12.112934 24.797233-23.197411 0-11.655842-11.541569-21.254771-26.968419-23.54023 12.112934-3.313916 20.569133-11.084477 20.569133-20.340586 0-10.513112-11.19875-19.31213-26.168508-21.483317 0-0.228546-0.114273-0.571365-0.114273-0.799911 9.484656-2.856824 16.112487-9.370383 16.112488-17.026671 0-9.713202-10.855931-17.712309-24.454414-18.397947 7.542015-2.399732 12.684299-7.542015 12.684299-13.484209 0-8.227653-10.170293-14.969758-22.74032-14.969758h-1.485548c6.627832-2.628278 11.084477-7.427742 11.084477-12.798571 0-8.227653-10.170293-14.969758-22.740319-14.969758-1.14273 0-2.285459 0.114273-3.428189 0.228546-0.114273-0.571365-0.228546-1.028457-0.342819-1.485549 3.313916-2.171186 5.485102-5.142283 5.485102-8.456199 0-6.399286-7.770561-11.655842-17.255217-11.655842-8.11338 0-14.855485 3.771008-16.683852 8.913291-1.714094-1.257003-3.428189-2.514005-5.142283-3.656735 6.970651-1.94264 11.998661-6.513559 11.998661-11.884388 0.114273-7.313469-8.684745-13.369936-19.540677-13.484209-2.171186 0-4.113827 0.114273-6.056466 0.571365 0.228546-1.257003 0.342819-2.628278 0.342818-4.113827 0-7.884834-4.113827-14.169847-20.454859-14.169847-1.599821 0-3.08537 0.114273-4.570919 0.228546 2.856824-7.427742-2.742551-17.712309-13.369936-23.654503-5.142283-2.856824-10.398839-4.2281-15.198304-4.113826 0.114273-0.914184 0.114273-1.828367 0.114273-2.742551 0-7.884834-4.113827-14.169847-20.45486-14.169847-2.856824 0-5.256556 0.228546-7.427742 0.571364-2.514005-0.799911-5.370829-1.257003-8.341927-1.485548-1.714094-0.914184-3.428189-1.828367-5.256556-2.742551 1.028457-1.371276 1.714094-2.971097 1.714095-4.685192 0-5.713648-6.856378-10.284566-15.198304-10.284566-6.056467 0-11.313023 2.399732-13.827028 5.942194-1.828367-5.827921-9.484656-10.170293-18.740766-10.170294-9.370383 0-17.140944 4.456645-18.855038 10.39884-2.285459-3.656735-7.656288-6.17074-13.941302-6.17074-8.341926 0-15.198304 4.570918-15.198303 10.284566 0 2.285459 1.14273 4.456645 3.08537 6.17074-0.799911 0.342819-1.485548 0.799911-2.28546 1.257003-0.799911-0.114273-1.714094-0.114273-2.514005-0.114273-3.656735 0-7.084924 0.571365-10.170293 1.485548-2.056913-0.342819-4.456645-0.571365-7.199197-0.571364-16.22676 0-20.45486 6.399286-20.45486 14.169847 0 0.914184 0 1.94264 0.114273 2.742551-4.570918 0-9.713202 1.371276-14.626939 4.113826-10.627385 5.942194-16.22676 16.22676-13.369936 23.654503-1.485548-0.114273-3.199643-0.228546-5.02801-0.228546-16.22676 0-20.45486 6.399286-20.45486 14.169847 0 1.485548 0.114273 2.856824 0.457091 4.2281-1.714094-0.342819-3.656735-0.571365-5.599375-0.685638-10.970204-0.114273-19.883495 5.599375-19.997768 12.912845-0.114273 5.02801 3.999554 9.370383 10.056021 11.770115-1.371276 0.914184-2.742551 1.94264-4.113827 2.856824-2.514005-4.2281-8.799018-7.313469-15.998214-7.31347-9.484656 0-17.255217 5.256556-17.255217 11.655842 0 3.428189 2.171186 6.399286 5.599375 8.570472-0.114273 0.457092-0.228546 1.028457-0.342819 1.485549-1.14273-0.114273-2.399732-0.228546-3.656735-0.228546-12.570026 0-22.740319 6.742105-22.740319 14.969758 0 5.485102 4.456645 10.284566 11.084477 12.798571h-1.485548c-12.570026 0-22.740319 6.742105-22.740319 14.969758 0 5.713648 4.799464 10.627385 11.884387 13.14139 0 0.114273-0.114273 0.228546-0.114273 0.342819-13.14139 1.028457-23.425957 8.913291-23.425956 18.397947 0 6.856378 5.370829 12.912845 13.369936 16.112487-0.114273 0.799911-0.228546 1.485548-0.342819 2.28546-13.484209 2.742551-23.311684 11.084477-23.311684 20.911951 0 9.141837 8.570472 17.026671 20.683406 20.340587-15.312577 2.285459-26.854146 11.998661-26.854146 23.54023 0 11.084477 10.513112 20.340587 24.797233 23.197411-14.28412 2.856824-24.797232 12.112934-24.797233 23.197411 0 11.084477 10.627385 20.45486 25.025779 23.197411-14.398393 2.742551-25.025778 12.112934-25.025779 23.311684s10.627385 20.45486 25.025779 23.197411c-14.398393 2.742551-25.025778 12.112934-25.025779 23.311684 0 11.084477 10.513112 20.340587 24.797233 23.197411-14.28412 2.856824-24.797232 12.112934-24.797233 23.197411 0 11.084477 10.627385 20.45486 25.025779 23.197411-14.398393 2.742551-25.025778 12.112934-25.025779 23.311684 0 11.084477 10.627385 20.45486 25.025779 23.197411-14.398393 2.742551-25.025778 12.112934-25.025779 23.311684s10.627385 20.45486 25.025779 23.197411c-14.398393 2.742551-25.025778 12.112934-25.025779 23.311684s10.627385 20.45486 25.025779 23.197411C266.655954 686.780493 256.028568 696.150876 256.028568 707.349626c0 11.084477 10.627385 20.45486 25.025779 23.197411-14.398393 2.742551-25.025778 12.112934-25.025779 23.197411 0 11.084477 10.627385 20.45486 25.025779 23.197411-14.398393 2.742551-25.025778 12.112934-25.025779 23.311684s10.627385 20.45486 25.025779 23.197411C266.655954 826.193505 256.028568 835.563888 256.028568 846.762638c0 13.369936 15.198304 24.111595 34.053343 24.111595 7.542015 0 14.398393-1.714094 20.112041-4.685192 32.453521 47.194733 111.416137 80.448164 203.634415 80.448165 91.189823 0 169.466801-32.567794 202.60596-79.076889 5.02801 2.056913 10.741658 3.199643 16.912398 3.199643 18.855039 0 34.053342-10.741658 34.053342-24.111595 0-11.084477-10.627385-20.45486-25.025778-23.311684 14.398393-2.742551 25.025778-12.112934 25.025778-23.197411s-10.627385-20.45486-25.025778-23.311684c14.398393-2.742551 25.025778-12.112934 25.025778-23.197411 0-11.084477-10.627385-20.45486-25.025778-23.197411 14.398393-2.742551 25.025778-12.112934 25.025778-23.197411 0-11.084477-10.627385-20.45486-25.025778-23.311684 14.398393-2.742551 25.025778-12.112934 25.025778-23.197411s-10.627385-20.45486-25.025778-23.311684c14.398393-2.742551 25.025778-12.112934 25.025778-23.197411s-10.627385-20.45486-25.025778-23.311684c14.398393-2.742551 25.025778-12.112934 25.025778-23.197411 0-11.084477-10.627385-20.45486-25.025778-23.311684 14.398393-2.742551 25.025778-12.112934 25.025778-23.197411 0-11.084477-10.513112-20.340587-24.797232-23.197411 14.28412-2.856824 24.797232-12.112934 24.797232-23.197411 0-11.084477-10.627385-20.45486-25.025778-23.311684 14.398393-2.742551 25.025778-12.112934 25.025778-23.197411s-10.627385-20.45486-25.025778-23.311684c14.626939-2.742551 25.254324-12.112934 25.254324-23.197411zM638.842986 146.040844c0.114273 0 0.114273 0 0 0z" fill="#FFEE58" /><path d="M550.738534 161.467693c-2.171186-6.399286-7.770561-11.770115-17.940855-14.741212 10.741658-2.742551 15.998214-7.999107 17.940855-14.28412 2.056913 6.399286 7.199197 11.541569 17.940854 14.28412-10.170293 2.971097-15.769669 8.341926-17.940854 14.741212zM475.775471 161.467693c-2.171186-6.399286-7.770561-11.770115-17.940854-14.741212 10.741658-2.742551 15.998214-7.999107 17.940854-14.28412 2.056913 6.399286 7.199197 11.541569 17.940855 14.28412-10.284566 2.971097-15.769669 8.341926-17.940855 14.741212zM546.281888 116.444147c-1.94264-5.942194-7.084924-10.741658-16.455306-13.484209 9.827475-2.514005 14.626939-7.313469 16.455306-13.141391 1.828367 5.827921 6.627832 10.513112 16.455307 13.141391-9.370383 2.742551-14.398393 7.542015-16.455307 13.484209zM477.718112 116.444147c-1.94264-5.942194-7.084924-10.741658-16.455307-13.484209 9.827475-2.514005 14.626939-7.313469 16.455307-13.141391 1.828367 5.827921 6.627832 10.513112 16.455306 13.141391-9.370383 2.742551-14.512666 7.542015-16.455306 13.484209zM530.169401 83.533534c-0.799911-2.399732-2.971097-4.456645-6.856378-5.599375 4.113827-1.028457 6.056467-2.971097 6.856378-5.485102 0.799911 2.399732 2.742551 4.342373 6.856377 5.485102-3.999554 1.14273-6.056467 3.08537-6.856377 5.599375zM493.830599 83.533534c-0.799911-2.399732-2.971097-4.456645-6.856377-5.599375 4.113827-1.028457 6.056467-2.971097 6.856377-5.485102 0.799911 2.399732 2.742551 4.342373 6.856378 5.485102-3.885281 1.14273-5.942194 3.08537-6.856378 5.599375zM410.411338 163.524607c-1.94264-5.942194-7.084924-10.741658-16.455306-13.48421 9.827475-2.514005 14.626939-7.313469 16.455306-13.14139 1.828367 5.827921 6.627832 10.513112 16.455306 13.14139-9.370383 2.742551-14.512666 7.542015-16.455306 13.48421zM623.53041 163.524607c-1.94264-5.942194-7.084924-10.741658-16.455307-13.48421 9.827475-2.514005 14.626939-7.313469 16.455307-13.14139 1.828367 5.827921 6.627832 10.513112 16.455306 13.14139-9.370383 2.742551-14.512666 7.542015-16.455306 13.48421zM623.758955 211.633523c-2.171186-6.399286-7.770561-11.770115-17.940854-14.741212 10.741658-2.742551 15.998214-7.999107 17.940854-14.28412 2.056913 6.399286 7.199197 11.541569 17.940855 14.28412-10.170293 2.971097-15.769669 8.341926-17.940855 14.741212zM623.758955 258.371164c-2.171186-6.399286-7.770561-11.770115-17.940854-14.741212 10.741658-2.742551 15.998214-7.999107 17.940854-14.28412 2.056913 6.399286 7.199197 11.541569 17.940855 14.28412-10.170293 2.971097-15.769669 8.341926-17.940855 14.741212zM623.758955 305.108805c-2.171186-6.399286-7.770561-11.770115-17.940854-14.741212 10.741658-2.742551 15.998214-7.999107 17.940854-14.28412 2.056913 6.399286 7.199197 11.541569 17.940855 14.28412-10.170293 3.08537-15.769669 8.341926-17.940855 14.741212zM623.758955 397.55563c-2.171186-6.399286-7.770561-11.770115-17.940854-14.741212 10.741658-2.742551 15.998214-7.999107 17.940854-14.28412 2.056913 6.399286 7.199197 11.541569 17.940855 14.28412-10.170293 2.971097-15.769669 8.341926-17.940855 14.741212zM623.758955 444.293271c-2.171186-6.399286-7.770561-11.770115-17.940854-14.741212 10.741658-2.742551 15.998214-7.999107 17.940854-14.28412 2.056913 6.399286 7.199197 11.541569 17.940855 14.28412-10.170293 3.08537-15.769669 8.341926-17.940855 14.741212zM623.758955 491.145185c-2.171186-6.399286-7.770561-11.770115-17.940854-14.741212 10.741658-2.742551 15.998214-7.999107 17.940854-14.28412 2.056913 6.399286 7.199197 11.541569 17.940855 14.28412-10.170293 2.971097-15.769669 8.227653-17.940855 14.741212zM623.758955 537.882826c-2.171186-6.399286-7.770561-11.770115-17.940854-14.741212 10.741658-2.742551 15.998214-7.999107 17.940854-14.28412 2.056913 6.399286 7.199197 11.541569 17.940855 14.28412-10.170293 2.971097-15.769669 8.227653-17.940855 14.741212zM623.758955 583.477737c-2.171186-6.399286-7.770561-11.770115-17.940854-14.741212 10.741658-2.742551 15.998214-7.999107 17.940854-14.28412 2.056913 6.399286 7.199197 11.541569 17.940855 14.28412-10.170293 2.971097-15.769669 8.341926-17.940855 14.741212zM623.758955 630.329651c-2.171186-6.399286-7.770561-11.770115-17.940854-14.741212 10.741658-2.742551 15.998214-7.999107 17.940854-14.28412 2.056913 6.399286 7.199197 11.541569 17.940855 14.28412-10.170293 2.971097-15.769669 8.227653-17.940855 14.741212zM623.758955 677.067292c-2.171186-6.399286-7.770561-11.770115-17.940854-14.741212 10.741658-2.742551 15.998214-7.999107 17.940854-14.28412 2.056913 6.399286 7.199197 11.541569 17.940855 14.28412-10.170293 2.971097-15.769669 8.227653-17.940855 14.741212zM623.758955 723.804932c-2.171186-6.399286-7.770561-11.770115-17.940854-14.741211 10.741658-2.742551 15.998214-7.999107 17.940854-14.284121 2.056913 6.399286 7.199197 11.541569 17.940855 14.284121-10.170293 2.971097-15.769669 8.227653-17.940855 14.741211zM623.758955 769.514117c-2.171186-6.399286-7.770561-11.770115-17.940854-14.741212 10.741658-2.742551 15.998214-7.999107 17.940854-14.28412 2.056913 6.399286 7.199197 11.541569 17.940855 14.28412-10.170293 2.971097-15.769669 8.227653-17.940855 14.741212zM623.758955 816.251758c-2.171186-6.399286-7.770561-11.770115-17.940854-14.741212 10.741658-2.742551 15.998214-7.999107 17.940854-14.28412 2.056913 6.399286 7.199197 11.541569 17.940855 14.28412-10.170293 2.971097-15.769669 8.227653-17.940855 14.741212zM623.758955 862.989399c-2.171186-6.399286-7.770561-11.770115-17.940854-14.741212 10.741658-2.742551 15.998214-7.999107 17.940854-14.28412 2.056913 6.399286 7.199197 11.541569 17.940855 14.28412-10.170293 2.971097-15.769669 8.227653-17.940855 14.741212zM623.758955 909.727039c-2.171186-6.399286-7.770561-11.770115-17.940854-14.741212 10.741658-2.742551 15.998214-7.999107 17.940854-14.28412 2.056913 6.399286 7.199197 11.541569 17.940855 14.28412-10.170293 2.971097-15.769669 8.341926-17.940855 14.741212z" fill="#F5A816" /><path d="M474.747015 211.633523c-2.171186-6.399286-7.770561-11.770115-17.940855-14.741212 10.741658-2.742551 15.998214-7.999107 17.940855-14.28412 2.056913 6.399286 7.199197 11.541569 17.940855 14.28412-10.170293 2.971097-15.769669 8.341926-17.940855 14.741212zM474.747015 258.371164c-2.171186-6.399286-7.770561-11.770115-17.940855-14.741212 10.741658-2.742551 15.998214-7.999107 17.940855-14.28412 2.056913 6.399286 7.199197 11.541569 17.940855 14.28412-10.170293 2.971097-15.769669 8.341926-17.940855 14.741212zM474.747015 305.108805c-2.171186-6.399286-7.770561-11.770115-17.940855-14.741212 10.741658-2.742551 15.998214-7.999107 17.940855-14.28412 2.056913 6.399286 7.199197 11.541569 17.940855 14.28412-10.170293 3.08537-15.769669 8.341926-17.940855 14.741212zM474.747015 351.960719c-2.171186-6.399286-7.770561-11.770115-17.940855-14.741212 10.741658-2.742551 15.998214-7.999107 17.940855-14.28412 2.056913 6.399286 7.199197 11.541569 17.940855 14.28412-10.170293 2.971097-15.769669 8.227653-17.940855 14.741212zM474.747015 397.55563c-2.171186-6.399286-7.770561-11.770115-17.940855-14.741212 10.741658-2.742551 15.998214-7.999107 17.940855-14.28412 2.056913 6.399286 7.199197 11.541569 17.940855 14.28412-10.170293 2.971097-15.769669 8.341926-17.940855 14.741212zM474.747015 444.293271c-2.171186-6.399286-7.770561-11.770115-17.940855-14.741212 10.741658-2.742551 15.998214-7.999107 17.940855-14.28412 2.056913 6.399286 7.199197 11.541569 17.940855 14.28412-10.170293 3.08537-15.769669 8.341926-17.940855 14.741212zM474.747015 583.477737c-2.171186-6.399286-7.770561-11.770115-17.940855-14.741212 10.741658-2.742551 15.998214-7.999107 17.940855-14.28412 2.056913 6.399286 7.199197 11.541569 17.940855 14.28412-10.170293 2.971097-15.769669 8.341926-17.940855 14.741212zM474.747015 630.329651c-2.171186-6.399286-7.770561-11.770115-17.940855-14.741212 10.741658-2.742551 15.998214-7.999107 17.940855-14.28412 2.056913 6.399286 7.199197 11.541569 17.940855 14.28412-10.170293 2.971097-15.769669 8.227653-17.940855 14.741212zM474.747015 677.067292c-2.171186-6.399286-7.770561-11.770115-17.940855-14.741212 10.741658-2.742551 15.998214-7.999107 17.940855-14.28412 2.056913 6.399286 7.199197 11.541569 17.940855 14.28412-10.170293 2.971097-15.769669 8.227653-17.940855 14.741212zM474.747015 723.804932c-2.171186-6.399286-7.770561-11.770115-17.940855-14.741211 10.741658-2.742551 15.998214-7.999107 17.940855-14.284121 2.056913 6.399286 7.199197 11.541569 17.940855 14.284121-10.170293 2.971097-15.769669 8.227653-17.940855 14.741211zM474.747015 769.514117c-2.171186-6.399286-7.770561-11.770115-17.940855-14.741212 10.741658-2.742551 15.998214-7.999107 17.940855-14.28412 2.056913 6.399286 7.199197 11.541569 17.940855 14.28412-10.170293 2.971097-15.769669 8.227653-17.940855 14.741212zM474.747015 816.251758c-2.171186-6.399286-7.770561-11.770115-17.940855-14.741212 10.741658-2.742551 15.998214-7.999107 17.940855-14.28412 2.056913 6.399286 7.199197 11.541569 17.940855 14.28412-10.170293 2.971097-15.769669 8.227653-17.940855 14.741212zM474.747015 862.989399c-2.171186-6.399286-7.770561-11.770115-17.940855-14.741212 10.741658-2.742551 15.998214-7.999107 17.940855-14.28412 2.056913 6.399286 7.199197 11.541569 17.940855 14.28412-10.170293 2.971097-15.769669 8.227653-17.940855 14.741212zM474.747015 909.727039c-2.171186-6.399286-7.770561-11.770115-17.940855-14.741212 10.741658-2.742551 15.998214-7.999107 17.940855-14.28412 2.056913 6.399286 7.199197 11.541569 17.940855 14.28412-10.170293 2.971097-15.769669 8.341926-17.940855 14.741212z" fill="#F5A816" /><path d="M400.241045 211.633523c-2.171186-6.399286-7.770561-11.770115-17.940855-14.741212 10.741658-2.742551 15.998214-7.999107 17.940855-14.28412 2.056913 6.399286 7.199197 11.541569 17.940854 14.28412-10.170293 2.971097-15.769669 8.341926-17.940854 14.741212zM400.241045 258.371164c-2.171186-6.399286-7.770561-11.770115-17.940855-14.741212 10.741658-2.742551 15.998214-7.999107 17.940855-14.28412 2.056913 6.399286 7.199197 11.541569 17.940854 14.28412-10.170293 2.971097-15.769669 8.341926-17.940854 14.741212zM400.241045 305.108805c-2.171186-6.399286-7.770561-11.770115-17.940855-14.741212 10.741658-2.742551 15.998214-7.999107 17.940855-14.28412 2.056913 6.399286 7.199197 11.541569 17.940854 14.28412-10.170293 3.08537-15.769669 8.341926-17.940854 14.741212zM400.241045 397.55563c-2.171186-6.399286-7.770561-11.770115-17.940855-14.741212 10.741658-2.742551 15.998214-7.999107 17.940855-14.28412 2.056913 6.399286 7.199197 11.541569 17.940854 14.28412-10.170293 2.971097-15.769669 8.341926-17.940854 14.741212zM400.241045 444.293271c-2.171186-6.399286-7.770561-11.770115-17.940855-14.741212 10.741658-2.742551 15.998214-7.999107 17.940855-14.28412 2.056913 6.399286 7.199197 11.541569 17.940854 14.28412-10.170293 3.08537-15.769669 8.341926-17.940854 14.741212zM400.241045 491.145185c-2.171186-6.399286-7.770561-11.770115-17.940855-14.741212 10.741658-2.742551 15.998214-7.999107 17.940855-14.28412 2.056913 6.399286 7.199197 11.541569 17.940854 14.28412-10.170293 2.971097-15.769669 8.227653-17.940854 14.741212zM400.241045 537.882826c-2.171186-6.399286-7.770561-11.770115-17.940855-14.741212 10.741658-2.742551 15.998214-7.999107 17.940855-14.28412 2.056913 6.399286 7.199197 11.541569 17.940854 14.28412-10.170293 2.971097-15.769669 8.227653-17.940854 14.741212zM400.241045 583.477737c-2.171186-6.399286-7.770561-11.770115-17.940855-14.741212 10.741658-2.742551 15.998214-7.999107 17.940855-14.28412 2.056913 6.399286 7.199197 11.541569 17.940854 14.28412-10.170293 2.971097-15.769669 8.341926-17.940854 14.741212zM400.241045 630.329651c-2.171186-6.399286-7.770561-11.770115-17.940855-14.741212 10.741658-2.742551 15.998214-7.999107 17.940855-14.28412 2.056913 6.399286 7.199197 11.541569 17.940854 14.28412-10.170293 2.971097-15.769669 8.227653-17.940854 14.741212zM400.241045 677.067292c-2.171186-6.399286-7.770561-11.770115-17.940855-14.741212 10.741658-2.742551 15.998214-7.999107 17.940855-14.28412 2.056913 6.399286 7.199197 11.541569 17.940854 14.28412-10.170293 2.971097-15.769669 8.227653-17.940854 14.741212zM400.241045 723.804932c-2.171186-6.399286-7.770561-11.770115-17.940855-14.741211 10.741658-2.742551 15.998214-7.999107 17.940855-14.284121 2.056913 6.399286 7.199197 11.541569 17.940854 14.284121-10.170293 2.971097-15.769669 8.227653-17.940854 14.741211zM400.241045 769.514117c-2.171186-6.399286-7.770561-11.770115-17.940855-14.741212 10.741658-2.742551 15.998214-7.999107 17.940855-14.28412 2.056913 6.399286 7.199197 11.541569 17.940854 14.28412-10.170293 2.971097-15.769669 8.227653-17.940854 14.741212zM400.241045 816.251758c-2.171186-6.399286-7.770561-11.770115-17.940855-14.741212 10.741658-2.742551 15.998214-7.999107 17.940855-14.28412 2.056913 6.399286 7.199197 11.541569 17.940854 14.28412-10.170293 2.971097-15.769669 8.227653-17.940854 14.741212zM400.241045 862.989399c-2.171186-6.399286-7.770561-11.770115-17.940855-14.741212 10.741658-2.742551 15.998214-7.999107 17.940855-14.28412 2.056913 6.399286 7.199197 11.541569 17.940854 14.28412-10.170293 2.971097-15.769669 8.227653-17.940854 14.741212zM400.241045 909.727039c-2.171186-6.399286-7.770561-11.770115-17.940855-14.741212 10.741658-2.742551 15.998214-7.999107 17.940855-14.28412 2.056913 6.399286 7.199197 11.541569 17.940854 14.28412-10.170293 2.971097-15.769669 8.341926-17.940854 14.741212z" fill="#F5A816" /><path d="M331.448722 211.633523c-2.171186-6.399286-7.770561-11.770115-17.940855-14.741212 10.741658-2.742551 15.998214-7.999107 17.940855-14.28412 2.056913 6.399286 7.199197 11.541569 17.940855 14.28412-10.284566 2.971097-15.769669 8.341926-17.940855 14.741212zM331.448722 258.371164c-2.171186-6.399286-7.770561-11.770115-17.940855-14.741212 10.741658-2.742551 15.998214-7.999107 17.940855-14.28412 2.056913 6.399286 7.199197 11.541569 17.940855 14.28412-10.284566 2.971097-15.769669 8.341926-17.940855 14.741212zM331.448722 305.108805c-2.171186-6.399286-7.770561-11.770115-17.940855-14.741212 10.741658-2.742551 15.998214-7.999107 17.940855-14.28412 2.056913 6.399286 7.199197 11.541569 17.940855 14.28412-10.284566 3.08537-15.769669 8.341926-17.940855 14.741212zM331.448722 351.960719c-2.171186-6.399286-7.770561-11.770115-17.940855-14.741212 10.741658-2.742551 15.998214-7.999107 17.940855-14.28412 2.056913 6.399286 7.199197 11.541569 17.940855 14.28412-10.284566 2.971097-15.769669 8.227653-17.940855 14.741212zM331.448722 444.293271c-2.171186-6.399286-7.770561-11.770115-17.940855-14.741212 10.741658-2.742551 15.998214-7.999107 17.940855-14.28412 2.056913 6.399286 7.199197 11.541569 17.940855 14.28412-10.284566 3.08537-15.769669 8.341926-17.940855 14.741212zM331.448722 491.145185c-2.171186-6.399286-7.770561-11.770115-17.940855-14.741212 10.741658-2.742551 15.998214-7.999107 17.940855-14.28412 2.056913 6.399286 7.199197 11.541569 17.940855 14.28412-10.284566 2.971097-15.769669 8.227653-17.940855 14.741212zM331.448722 537.882826c-2.171186-6.399286-7.770561-11.770115-17.940855-14.741212 10.741658-2.742551 15.998214-7.999107 17.940855-14.28412 2.056913 6.399286 7.199197 11.541569 17.940855 14.28412-10.284566 2.971097-15.769669 8.227653-17.940855 14.741212zM331.448722 583.477737c-2.171186-6.399286-7.770561-11.770115-17.940855-14.741212 10.741658-2.742551 15.998214-7.999107 17.940855-14.28412 2.056913 6.399286 7.199197 11.541569 17.940855 14.28412-10.284566 2.971097-15.769669 8.341926-17.940855 14.741212zM331.448722 630.329651c-2.171186-6.399286-7.770561-11.770115-17.940855-14.741212 10.741658-2.742551 15.998214-7.999107 17.940855-14.28412 2.056913 6.399286 7.199197 11.541569 17.940855 14.28412-10.284566 2.971097-15.769669 8.227653-17.940855 14.741212zM331.448722 677.067292c-2.171186-6.399286-7.770561-11.770115-17.940855-14.741212 10.741658-2.742551 15.998214-7.999107 17.940855-14.28412 2.056913 6.399286 7.199197 11.541569 17.940855 14.28412-10.284566 2.971097-15.769669 8.227653-17.940855 14.741212zM331.448722 723.804932c-2.171186-6.399286-7.770561-11.770115-17.940855-14.741211 10.741658-2.742551 15.998214-7.999107 17.940855-14.284121 2.056913 6.399286 7.199197 11.541569 17.940855 14.284121-10.284566 2.971097-15.769669 8.227653-17.940855 14.741211zM331.448722 769.514117c-2.171186-6.399286-7.770561-11.770115-17.940855-14.741212 10.741658-2.742551 15.998214-7.999107 17.940855-14.28412 2.056913 6.399286 7.199197 11.541569 17.940855 14.28412-10.284566 2.971097-15.769669 8.227653-17.940855 14.741212zM331.448722 816.251758c-2.171186-6.399286-7.770561-11.770115-17.940855-14.741212 10.741658-2.742551 15.998214-7.999107 17.940855-14.28412 2.056913 6.399286 7.199197 11.541569 17.940855 14.28412-10.284566 2.971097-15.769669 8.227653-17.940855 14.741212zM331.448722 862.989399c-2.171186-6.399286-7.770561-11.770115-17.940855-14.741212 10.741658-2.742551 15.998214-7.999107 17.940855-14.28412 2.056913 6.399286 7.199197 11.541569 17.940855 14.28412-10.284566 2.971097-15.769669 8.227653-17.940855 14.741212zM331.448722 909.727039c-2.171186-6.399286-7.770561-11.770115-17.940855-14.741212 10.741658-2.742551 15.998214-7.999107 17.940855-14.28412 2.056913 6.399286 7.199197 11.541569 17.940855 14.28412-10.284566 2.971097-15.769669 8.341926-17.940855 14.741212z" fill="#F5A816" /><path d="M692.551278 211.633523c-2.171186-6.399286-7.770561-11.770115-17.940855-14.741212 10.741658-2.742551 15.998214-7.999107 17.940855-14.28412 2.056913 6.399286 7.199197 11.541569 17.940855 14.28412-10.170293 2.971097-15.769669 8.341926-17.940855 14.741212zM692.551278 258.371164c-2.171186-6.399286-7.770561-11.770115-17.940855-14.741212 10.741658-2.742551 15.998214-7.999107 17.940855-14.28412 2.056913 6.399286 7.199197 11.541569 17.940855 14.28412-10.170293 2.971097-15.769669 8.341926-17.940855 14.741212zM692.551278 305.108805c-2.171186-6.399286-7.770561-11.770115-17.940855-14.741212 10.741658-2.742551 15.998214-7.999107 17.940855-14.28412 2.056913 6.399286 7.199197 11.541569 17.940855 14.28412-10.170293 3.08537-15.769669 8.341926-17.940855 14.741212zM692.551278 351.960719c-2.171186-6.399286-7.770561-11.770115-17.940855-14.741212 10.741658-2.742551 15.998214-7.999107 17.940855-14.28412 2.056913 6.399286 7.199197 11.541569 17.940855 14.28412-10.170293 2.971097-15.769669 8.227653-17.940855 14.741212zM692.551278 444.293271c-2.171186-6.399286-7.770561-11.770115-17.940855-14.741212 10.741658-2.742551 15.998214-7.999107 17.940855-14.28412 2.056913 6.399286 7.199197 11.541569 17.940855 14.28412-10.170293 3.08537-15.769669 8.341926-17.940855 14.741212zM692.551278 491.145185c-2.171186-6.399286-7.770561-11.770115-17.940855-14.741212 10.741658-2.742551 15.998214-7.999107 17.940855-14.28412 2.056913 6.399286 7.199197 11.541569 17.940855 14.28412-10.170293 2.971097-15.769669 8.227653-17.940855 14.741212zM692.551278 537.882826c-2.171186-6.399286-7.770561-11.770115-17.940855-14.741212 10.741658-2.742551 15.998214-7.999107 17.940855-14.28412 2.056913 6.399286 7.199197 11.541569 17.940855 14.28412-10.170293 2.971097-15.769669 8.227653-17.940855 14.741212zM692.551278 583.477737c-2.171186-6.399286-7.770561-11.770115-17.940855-14.741212 10.741658-2.742551 15.998214-7.999107 17.940855-14.28412 2.056913 6.399286 7.199197 11.541569 17.940855 14.28412-10.170293 2.971097-15.769669 8.341926-17.940855 14.741212zM692.551278 630.329651c-2.171186-6.399286-7.770561-11.770115-17.940855-14.741212 10.741658-2.742551 15.998214-7.999107 17.940855-14.28412 2.056913 6.399286 7.199197 11.541569 17.940855 14.28412-10.170293 2.971097-15.769669 8.227653-17.940855 14.741212zM692.551278 677.067292c-2.171186-6.399286-7.770561-11.770115-17.940855-14.741212 10.741658-2.742551 15.998214-7.999107 17.940855-14.28412 2.056913 6.399286 7.199197 11.541569 17.940855 14.28412-10.170293 2.971097-15.769669 8.227653-17.940855 14.741212zM692.551278 723.804932c-2.171186-6.399286-7.770561-11.770115-17.940855-14.741211 10.741658-2.742551 15.998214-7.999107 17.940855-14.284121 2.056913 6.399286 7.199197 11.541569 17.940855 14.284121-10.170293 2.971097-15.769669 8.227653-17.940855 14.741211zM692.551278 769.514117c-2.171186-6.399286-7.770561-11.770115-17.940855-14.741212 10.741658-2.742551 15.998214-7.999107 17.940855-14.28412 2.056913 6.399286 7.199197 11.541569 17.940855 14.28412-10.170293 2.971097-15.769669 8.227653-17.940855 14.741212zM692.551278 816.251758c-2.171186-6.399286-7.770561-11.770115-17.940855-14.741212 10.741658-2.742551 15.998214-7.999107 17.940855-14.28412 2.056913 6.399286 7.199197 11.541569 17.940855 14.28412-10.170293 2.971097-15.769669 8.227653-17.940855 14.741212zM692.551278 862.989399c-2.171186-6.399286-7.770561-11.770115-17.940855-14.741212 10.741658-2.742551 15.998214-7.999107 17.940855-14.28412 2.056913 6.399286 7.199197 11.541569 17.940855 14.28412-10.170293 2.971097-15.769669 8.227653-17.940855 14.741212zM692.551278 909.727039c-2.171186-6.399286-7.770561-11.770115-17.940855-14.741212 10.741658-2.742551 15.998214-7.999107 17.940855-14.28412 2.056913 6.399286 7.199197 11.541569 17.940855 14.28412-10.170293 2.971097-15.769669 8.341926-17.940855 14.741212z" fill="#F5A816" /><path d="M549.252985 211.633523c-2.171186-6.399286-7.770561-11.770115-17.940855-14.741212 10.741658-2.742551 15.998214-7.999107 17.940855-14.28412 2.056913 6.399286 7.199197 11.541569 17.940855 14.28412-10.170293 2.971097-15.769669 8.341926-17.940855 14.741212zM549.252985 258.371164c-2.171186-6.399286-7.770561-11.770115-17.940855-14.741212 10.741658-2.742551 15.998214-7.999107 17.940855-14.28412 2.056913 6.399286 7.199197 11.541569 17.940855 14.28412-10.170293 2.971097-15.769669 8.341926-17.940855 14.741212zM549.252985 305.108805c-2.171186-6.399286-7.770561-11.770115-17.940855-14.741212 10.741658-2.742551 15.998214-7.999107 17.940855-14.28412 2.056913 6.399286 7.199197 11.541569 17.940855 14.28412-10.170293 3.08537-15.769669 8.341926-17.940855 14.741212zM549.252985 351.960719c-2.171186-6.399286-7.770561-11.770115-17.940855-14.741212 10.741658-2.742551 15.998214-7.999107 17.940855-14.28412 2.056913 6.399286 7.199197 11.541569 17.940855 14.28412-10.170293 2.971097-15.769669 8.227653-17.940855 14.741212zM549.252985 397.55563c-2.171186-6.399286-7.770561-11.770115-17.940855-14.741212 10.741658-2.742551 15.998214-7.999107 17.940855-14.28412 2.056913 6.399286 7.199197 11.541569 17.940855 14.28412-10.170293 2.971097-15.769669 8.341926-17.940855 14.741212zM549.252985 444.293271c-2.171186-6.399286-7.770561-11.770115-17.940855-14.741212 10.741658-2.742551 15.998214-7.999107 17.940855-14.28412 2.056913 6.399286 7.199197 11.541569 17.940855 14.28412-10.170293 3.08537-15.769669 8.341926-17.940855 14.741212zM549.252985 583.477737c-2.171186-6.399286-7.770561-11.770115-17.940855-14.741212 10.741658-2.742551 15.998214-7.999107 17.940855-14.28412 2.056913 6.399286 7.199197 11.541569 17.940855 14.28412-10.170293 2.971097-15.769669 8.341926-17.940855 14.741212zM549.252985 630.329651c-2.171186-6.399286-7.770561-11.770115-17.940855-14.741212 10.741658-2.742551 15.998214-7.999107 17.940855-14.28412 2.056913 6.399286 7.199197 11.541569 17.940855 14.28412-10.170293 2.971097-15.769669 8.227653-17.940855 14.741212zM549.252985 677.067292c-2.171186-6.399286-7.770561-11.770115-17.940855-14.741212 10.741658-2.742551 15.998214-7.999107 17.940855-14.28412 2.056913 6.399286 7.199197 11.541569 17.940855 14.28412-10.170293 2.971097-15.769669 8.227653-17.940855 14.741212zM549.252985 723.804932c-2.171186-6.399286-7.770561-11.770115-17.940855-14.741211 10.741658-2.742551 15.998214-7.999107 17.940855-14.284121 2.056913 6.399286 7.199197 11.541569 17.940855 14.284121-10.170293 2.971097-15.769669 8.227653-17.940855 14.741211zM549.252985 769.514117c-2.171186-6.399286-7.770561-11.770115-17.940855-14.741212 10.741658-2.742551 15.998214-7.999107 17.940855-14.28412 2.056913 6.399286 7.199197 11.541569 17.940855 14.28412-10.170293 2.971097-15.769669 8.227653-17.940855 14.741212zM549.252985 816.251758c-2.171186-6.399286-7.770561-11.770115-17.940855-14.741212 10.741658-2.742551 15.998214-7.999107 17.940855-14.28412 2.056913 6.399286 7.199197 11.541569 17.940855 14.28412-10.170293 2.971097-15.769669 8.227653-17.940855 14.741212zM549.252985 862.989399c-2.171186-6.399286-7.770561-11.770115-17.940855-14.741212 10.741658-2.742551 15.998214-7.999107 17.940855-14.28412 2.056913 6.399286 7.199197 11.541569 17.940855 14.28412-10.170293 2.971097-15.769669 8.227653-17.940855 14.741212zM549.252985 909.727039c-2.171186-6.399286-7.770561-11.770115-17.940855-14.741212 10.741658-2.742551 15.998214-7.999107 17.940855-14.28412 2.056913 6.399286 7.199197 11.541569 17.940855 14.28412-10.170293 2.971097-15.769669 8.341926-17.940855 14.741212z" fill="#F5A816" /><path d="M382.643009 68.220957C363.445151 61.478853 244.601272 116.55842 229.174422 369.901573S213.747573 844.477179 290.539002 909.955585c81.248075 69.249414 223.517911 59.764758 232.888294 35.767437 7.884834-20.112041-94.389465-24.911505-156.896775-98.389019-90.504185-106.15958-79.076889-303.966075-65.706952-514.913961 13.14139-211.062158 104.21694-256.314251 81.81944-264.199085z" fill="#9CCC65" /><path d="M641.356991 68.220957c19.197857-6.742105 138.156009 48.337462 153.582859 301.680616s15.42685 474.689878-61.364579 540.054012c-81.362348 69.249414-223.517911 59.879031-233.002567 35.88171-7.884834-20.112041 94.389465-24.911505 156.896775-98.389019 90.504185-106.15958 79.076889-303.966075 65.706952-514.913961-13.255663-211.176431-104.21694-256.428524-81.81944-264.313358z" fill="#9CCC65" /><path d="M353.274858 68.220957c-15.655396-6.742105-112.901685 48.337462-125.471711 301.680616s-12.684299 474.689878 50.16583 540.054012c66.39259 69.249414 231.402745 60.336123 239.173306 36.224529 6.513559-20.112041-125.700257-25.48287-177.008816-98.846111-73.934606-106.15958-64.564223-303.966075-53.708291-514.913961 10.627385-211.062158 85.019083-256.314251 66.849682-264.199085z" fill="#DCE775" /><path d="M670.725142 68.220957c15.655396-6.742105 112.901685 48.337462 125.471711 301.680616 12.684299 253.343154 12.684299 474.689878-50.16583 540.054012-66.39259 69.249414-231.402745 60.336123-239.173306 36.224529-6.513559-20.112041 125.700257-25.48287 177.008816-98.846111 73.934606-106.15958 64.564223-303.966075 53.708291-514.913961-10.627385-211.062158-85.133356-256.314251-66.849682-264.199085z" fill="#DCE775" /><path d="M512 547.024662c-35.310345 0-63.992858-28.682513-63.992858-63.992858 0-7.084924 5.713648-12.798572 12.798572-12.798571s12.798572 5.713648 12.798571 12.798571c0 21.254771 17.255217 38.395715 38.395715 38.395715s38.395715-17.140944 38.395715-38.395715c0-7.084924 5.713648-12.798572 12.798571-12.798571s12.798572 5.713648 12.798572 12.798571c0 35.310345-28.682513 63.992858-63.992858 63.992858z" fill="#25467A" /><path d="M384.014284 380.643232m-38.395715 0a38.395715 38.395715 0 1 0 76.79143 0 38.395715 38.395715 0 1 0-76.79143 0Z" fill="#25467A" /><path d="M639.985716 380.643232m-38.395715 0a38.395715 38.395715 0 1 0 76.79143 0 38.395715 38.395715 0 1 0-76.79143 0Z" fill="#25467A" /><path d="M332.819998 444.63609h-51.194287c-14.169847 0-25.597143 11.427296-25.597143 25.597143s11.427296 25.597143 25.597143 25.597143h51.194287c14.169847 0 25.597143-11.427296 25.597143-25.597143s-11.427296-25.597143-25.597143-25.597143zM742.374289 444.63609h-51.194287c-14.169847 0-25.597143 11.427296-25.597143 25.597143s11.427296 25.597143 25.597143 25.597143h51.194287c14.169847 0 25.597143-11.427296 25.597143-25.597143s-11.427296-25.597143-25.597143-25.597143z" fill="#FFF59D" /></svg>