<?xml version="1.0" standalone="no"?><!DOCTYPE svg PUBLIC "-//W3C//DTD SVG 1.1//EN" "http://www.w3.org/Graphics/SVG/1.1/DTD/svg11.dtd"><svg class="icon" width="128px" height="128.00px" viewBox="0 0 1024 1024" version="1.1" xmlns="http://www.w3.org/2000/svg"><path d="M512 1024a128.102857 128.102857 0 0 1-111.805714-65.725714 128 128 0 0 1-218.285715-61.405715 128 128 0 0 1-126.114285-221.714285C19.142857 606.537143 0 529.222857 0 448 0 184.228571 210.548571 0 512 0s512 184.228571 512 448c0 81.222857-19.142857 158.537143-55.84 227.131429a128 128 0 0 1-126.114286 221.714285 128 128 0 0 1-218.285714 61.405715A128.102857 128.102857 0 0 1 512 1024z" fill="#25467A" /><path d="M896 704c-2.377143 0-4.731429 0.148571-7.051429 0.354286C941.714286 634.125714 972.8 546.64 972.8 448c0-254.491429-206.308571-396.8-460.8-396.8S51.2 193.508571 51.2 448c0 98.64 31.074286 186.125714 83.851429 256.354286-2.285714-0.205714-4.674286-0.354286-7.051429-0.354286a76.8 76.8 0 1 0 76.8 76.8c0-1.337143-0.137143-2.651429-0.205714-3.977143a443.097143 443.097143 0 0 0 51.211428 36.571429A76.765714 76.765714 0 1 0 384 870.4c0-1.142857-0.114286-2.205714-0.171429-3.314286a498.422857 498.422857 0 0 0 53.622858 10.742857 76.8 76.8 0 1 0 149.097142 0 498.422857 498.422857 0 0 0 53.622858-10.742857c0 1.142857-0.171429 2.194286-0.171429 3.314286a76.8 76.8 0 1 0 128.194286-56.96 443.097143 443.097143 0 0 0 51.211428-36.571429c-0.068571 1.325714-0.205714 2.64-0.205714 3.977143A76.8 76.8 0 1 0 896 704z" fill="#F5CEDB" /><path d="M972.8 780.8a76.8 76.8 0 0 1-153.6 0c0-1.28 0.125714-2.685714 0.251429-3.965714a431.531429 431.531429 0 0 1-51.325715 36.571428A76.742857 76.742857 0 1 1 640 870.4c0-1.142857 0.125714-2.171429 0.125714-3.325714a484.571429 484.571429 0 0 1-53.634285 10.754285 76.8 76.8 0 1 1-148.982858 0 484.571429 484.571429 0 0 1-53.634285-10.754285c0 1.142857 0.125714 2.171429 0.125714 3.325714a76.8 76.8 0 1 1-128.125714-56.96 431.531429 431.531429 0 0 1-51.325715-36.571429c0.125714 1.28 0.251429 2.685714 0.251429 3.965715a76.8 76.8 0 1 1-84.868571-76.411429A515.942857 515.942857 0 0 0 428.8 806.4c281.348571 0 510.205714-224 518.274286-503.428571 16.64 43.142857 25.725714 91.657143 25.725714 145.028571 0 98.685714-31.108571 186.114286-83.84 256.388571A61.554286 61.554286 0 0 1 896 704a76.868571 76.868571 0 0 1 76.8 76.8z" fill="#EBC5D2" /><path d="M512 550.4a64.068571 64.068571 0 0 1-64-64 12.8 12.8 0 1 1 25.6 0 38.4 38.4 0 0 0 76.8 0 12.8 12.8 0 1 1 25.6 0 64.068571 64.068571 0 0 1-64 64z" fill="#25467A" /><path d="M384 384m-38.4 0a38.4 38.4 0 1 0 76.8 0 38.4 38.4 0 1 0-76.8 0Z" fill="#25467A" /><path d="M640 384m-38.4 0a38.4 38.4 0 1 0 76.8 0 38.4 38.4 0 1 0-76.8 0Z" fill="#25467A" /><path d="M332.8 448h-51.2a25.6 25.6 0 1 0 0 51.2h51.2a25.6 25.6 0 1 0 0-51.2zM742.4 448h-51.2a25.6 25.6 0 1 0 0 51.2h51.2a25.6 25.6 0 0 0 0-51.2z" fill="#F87EAC" /></svg>